<?xml version="1.0" encoding="UTF-8" standalone="no"?>
<!-- Created with Inkscape (http://www.inkscape.org/) -->

<svg
   xmlns:dc="http://purl.org/dc/elements/1.1/"
   xmlns:cc="http://creativecommons.org/ns#"
   xmlns:rdf="http://www.w3.org/1999/02/22-rdf-syntax-ns#"
   xmlns:svg="http://www.w3.org/2000/svg"
   xmlns="http://www.w3.org/2000/svg"
   xmlns:sodipodi="http://sodipodi.sourceforge.net/DTD/sodipodi-0.dtd"
   xmlns:inkscape="http://www.inkscape.org/namespaces/inkscape"
   width="706.23547"
   height="234.81937"
   id="svg3994"
   version="1.1"
   inkscape:version="0.48.4 r9939"
   sodipodi:docname="New document 10">
  <defs
     id="defs3996" />
  <sodipodi:namedview
     id="base"
     pagecolor="#ffffff"
     bordercolor="#666666"
     borderopacity="1.0"
     inkscape:pageopacity="0.0"
     inkscape:pageshadow="2"
     inkscape:zoom="1.979899"
     inkscape:cx="292.53559"
     inkscape:cy="202.20828"
     inkscape:document-units="px"
     inkscape:current-layer="layer1"
     showgrid="false"
     fit-margin-top="0"
     fit-margin-left="0"
     fit-margin-right="0"
     fit-margin-bottom="0"
     inkscape:window-width="1855"
     inkscape:window-height="1056"
     inkscape:window-x="65"
     inkscape:window-y="24"
     inkscape:window-maximized="1" />
  <metadata
     id="metadata3999">
    <rdf:RDF>
      <cc:Work
         rdf:about="">
        <dc:format>image/svg+xml</dc:format>
        <dc:type
           rdf:resource="http://purl.org/dc/dcmitype/StillImage" />
        <dc:title></dc:title>
      </cc:Work>
    </rdf:RDF>
  </metadata>
  <g
     inkscape:label="Layer 1"
     inkscape:groupmode="layer"
     id="layer1"
     transform="translate(-12.596522,-414.95249)">
    <path
       inkscape:connector-curvature="0"
       class="st1"
       d="m 652.71427,649.67186 c -55,0 -107.1,-7.1 -154.9,-19.9 -23.9,-6.4 -46.4,-14.8 -63.3,-23 l -0.5,-0.4 c -42.6,-20.4 -44.3,-61.4 -40.3,-98.59999 1,-9.4 -2.4,-21.9 -12.4,-28.5 -9.5,-6.3 -21.8,-6.4 -31.3,-0.1 -9.9,6.6 -13.4,19 -12.4,28.4 4,37.29999 2.3,78.29999 -40.3,98.69999 l -0.5,0.2 c -20.4,9.7 -41.5,17.4 -63.3,23.3 -47.7,12.9 -99.8,19.9 -154.899999,19.9 h -0.2 c -21.6,0 -40.5,-15.2 -45.8,-36.2 -7.9,-31.2 -18.7,-78.2 -20,-122.19999 -0.5,-17.6 9.6,-33.8 25.7,-41 58.8,-26.2 177.799999,-35.90001 228.499999,-35.20001 18.7,0.3 35,7.00001 47.2,19.50001 17.4,-7.9 34.8,-11.9 51.7,-12 16.9,-0.1 34.3,4.1 51.7,11.9 8.6,-8.8 23.7,-19.20001 47.1,-19.50001 30.5,-0.4 161.5,5.2 228.6,35.10001 16.1,7.1 26.2,23.3 25.7,40.9 -1.3,44.09999 -12,91.29999 -20,122.59999 -5.4,21 -24.2,36.2 -45.8,36.2 l -0.3,-0.1 0,0 z m -181.8,-195.39999 c -24.6,0.4 -29.7,21.2 -30.5,25.4 -3.2,17.3 -5.4,34.9 -6.4,52.49999 -0.2,20.1 7,33.9 21.4,41 53.8,24 116.3,35.8 191,36.2 5.8,0 10.9,-3.8 12.3,-9.5 7.1,-27.8 16.7,-69.1 17.8,-106.99999 0.1,-3.6 -2,-7 -5.3,-8.4 -51.2,-23 -160.5,-30.8 -200.3,-30.2 z m -410.799999,30.1 c -3.3,1.5 -5.4,4.8 -5.3,8.4 1.1,37.89999 10.7,79.19999 17.8,106.99999 1.5,5.6 6.5,9.5 12.3,9.5 74.799999,-0.4 137.399999,-12.2 191.199999,-36.2 14.4,-7 21.6,-20.8 21.4,-41 -1,-17.59999 -3.2,-35.09999 -6.4,-52.39999 -0.8,-4.2 -5.9,-25 -30.5,-25.4 -23.4,-0.4 -142.7,4.4 -200.499999,30.1 l 0,0 z"
       id="path37-7"
       style="fill:#252526" />
  </g>
</svg>
