<?xml version="1.0" encoding="UTF-8" standalone="no"?>
<!-- Created with Inkscape (http://www.inkscape.org/) -->
<svg
   xmlns:svg="http://www.w3.org/2000/svg"
   xmlns="http://www.w3.org/2000/svg"
   version="1.0"
   width="195.94"
   height="125"
   id="svg2">
  <defs
     id="defs4" />
  <g
     transform="translate(-10,-635.36218)"
     id="layer1">
    <path
       d="M 123.2163,750.08718 C 123.2163,749.42453 123.95338,748.5225 126.47067,746.10457 C 128.78051,743.88589 129.15667,743.40926 129.15412,742.7043 C 129.14792,740.98796 126.68255,740.1635 125.3979,741.44817 C 125.04955,741.79652 124.76453,742.26098 124.76453,742.48031 C 124.76453,742.91848 124.31464,742.99488 123.76927,742.64933 C 123.35747,742.38839 123.57378,741.45157 124.21386,740.72387 C 126.38057,738.26058 130.7801,739.82787 130.36597,742.91551 C 130.19207,744.21204 129.33689,745.32187 127.08292,747.17615 C 126.09163,747.99163 125.2806,748.7518 125.2806,748.86542 C 125.2806,748.97904 126.44177,749.07199 127.86098,749.07199 C 130.44134,749.07199 130.44134,749.07199 130.44134,749.71708 L 130.44134,750.36218 L 126.82883,750.36218 C 124.44394,750.36218 123.2163,750.26873 123.2163,750.08718 z M 157.09486,745.87538 C 155.45186,745.33824 154.04277,744.07827 153.22681,742.41667 C 152.58858,741.11701 152.50353,740.65556 152.50353,738.49246 C 152.50353,736.32717 152.58827,735.86858 153.22954,734.56266 C 154.7823,731.4006 158.00392,730.0723 161.55253,731.13098 C 164.28687,731.94676 165.9712,734.33717 166.23085,737.77058 C 166.59085,742.53051 164.01976,745.87587 159.80494,746.13167 C 158.85162,746.18952 157.73184,746.08362 157.09486,745.87538 z M 162.11147,743.49144 C 163.35961,742.49648 164.00166,741.18404 164.1749,739.27346 C 164.44051,736.34432 163.35035,733.97929 161.30676,733.05126 C 158.63917,731.83987 155.65441,733.2026 154.8198,736.01302 C 153.44503,740.64242 155.74463,744.60793 159.66011,744.35975 C 160.83209,744.28546 161.34195,744.10486 162.11147,743.49144 z M 94.574164,738.49246 L 94.574164,731.00938 L 95.670822,731.01594 L 96.76748,731.02251 L 100.57282,736.75728 L 104.37817,742.49205 L 104.37888,736.75072 L 104.37958,731.00938 L 105.41173,731.00938 L 106.44388,731.00938 L 106.44388,738.49246 L 106.44388,745.97555 L 105.34722,745.96898 L 104.25056,745.96241 L 100.44522,740.22765 L 96.639875,734.49289 L 96.639167,740.23421 L 96.638461,745.97555 L 95.606313,745.97555 L 94.574164,745.97555 L 94.574164,738.49246 z M 109.28229,738.49246 L 109.28229,731.00938 L 110.31444,731.00938 L 111.34659,731.00938 L 111.34659,734.10583 L 111.34659,737.20228 L 115.21715,737.20228 L 119.0877,737.20228 L 119.0877,734.10583 L 119.0877,731.00938 L 120.11985,731.00938 L 121.152,731.00938 L 121.152,738.49246 L 121.152,745.97555 L 120.11985,745.97555 L 119.0877,745.97555 L 119.0877,742.49205 L 119.0877,739.00854 L 115.21715,739.00854 L 111.34659,739.00854 L 111.34659,742.49205 L 111.34659,745.97555 L 110.31444,745.97555 L 109.28229,745.97555 L 109.28229,738.49246 z M 168.88892,738.49246 L 168.88892,731.00938 L 169.92107,731.00938 L 170.95322,731.00938 L 170.95322,734.10583 L 170.95322,737.20228 L 174.82377,737.20228 L 178.69433,737.20228 L 178.69433,734.10583 L 178.69433,731.00938 L 179.72648,731.00938 L 180.75863,731.00938 L 180.75863,738.49246 L 180.75863,745.97555 L 179.72648,745.97555 L 178.69433,745.97555 L 178.69433,742.49205 L 178.69433,739.00854 L 174.82377,739.00854 L 170.95322,739.00854 L 170.95322,742.49205 L 170.95322,745.97555 L 169.92107,745.97555 L 168.88892,745.97555 L 168.88892,738.49246 z M 97.303245,728.10646 C 97.879631,723.5536 99.667861,704.26813 99.526056,704.13415 C 98.911822,703.55379 70.957781,687.65569 70.715231,687.74877 C 70.550395,687.81202 65.707016,690.58545 59.952169,693.91193 C 50.392386,699.4378 49.463452,699.91949 49.195181,699.48992 C 49.033688,699.23133 48.901555,698.91943 48.901555,698.79681 C 48.901555,698.6742 53.135318,696.14708 58.309916,693.181 L 67.718275,687.78814 L 67.728278,675.33782 L 67.738281,662.88752 L 68.383373,662.88752 L 69.028466,662.88752 L 69.028466,674.89151 L 69.028466,686.89548 L 70.011177,686.39414 C 70.987784,685.89591 70.999,685.89605 71.817438,686.41424 L 72.64099,686.93567 L 72.64099,674.9116 L 72.64099,662.88752 L 73.415101,662.88752 L 74.189214,662.88752 L 74.190559,675.33782 L 74.191903,687.78814 L 81.996188,692.28726 C 86.288543,694.7618 92.204404,698.17094 95.142544,699.86316 L 100.48462,702.93988 L 115.13924,694.48238 C 123.19928,689.83075 129.91053,686.02656 130.05311,686.02864 C 130.19567,686.03071 136.27348,689.47551 143.55937,693.68374 C 150.84524,697.89197 156.91805,701.33508 157.05452,701.33508 C 157.19098,701.33508 162.14155,698.53841 168.05576,695.12026 L 178.80888,688.90542 L 179.27412,689.47999 C 179.53002,689.796 179.70745,690.07997 179.66843,690.11104 C 179.6294,690.14211 174.89473,692.87059 169.14696,696.17434 C 163.39916,699.47808 158.6613,702.20977 158.61835,702.24477 C 158.57541,702.27974 158.94637,702.55936 159.44273,702.86613 C 160.18056,703.32212 160.35957,703.60255 160.42395,704.40327 L 160.5027,705.38266 L 170.95139,699.35837 L 181.4001,693.33406 L 181.83084,693.90512 C 182.34209,694.5829 183.704,693.6978 169.98669,701.6026 L 160.37593,707.14093 L 160.37481,718.17202 L 160.37368,729.20312 L 159.60202,729.20312 L 158.83036,729.20312 L 158.76339,716.6626 L 158.69643,704.12206 L 144.63341,695.99413 C 136.89873,691.52375 130.43496,687.81089 130.26947,687.74334 C 130.01696,687.64026 102.06943,703.55742 101.46911,704.1462 C 101.29976,704.31231 103.34138,726.36302 103.72337,728.49352 L 103.85061,729.20312 L 100.50751,729.20312 L 97.164409,729.20312 L 97.303245,728.10646 z M 38.913762,711.81447 C 37.270762,711.27731 35.861667,710.01734 35.045714,708.35574 C 34.407495,707.05609 34.322446,706.59463 34.322446,704.43153 C 34.322446,702.26624 34.407168,701.80765 35.048451,700.50173 C 36.601205,697.33967 39.822824,696.01136 43.371428,697.07005 C 46.10578,697.88583 47.790094,700.27624 48.049761,703.70965 C 48.409754,708.46959 45.83867,711.81494 41.623841,712.07074 C 40.670538,712.12859 39.550739,712.02269 38.913762,711.81447 z M 43.930376,709.43051 C 45.178513,708.43557 45.820563,707.12311 45.993809,705.21253 C 46.259415,702.2834 45.169252,699.91836 43.125671,698.99033 C 40.458075,697.77893 37.473317,699.14168 36.638717,701.95209 C 35.26393,706.58149 37.563544,710.547 41.479019,710.29882 C 42.651005,710.22453 43.160852,710.04393 43.930376,709.43051 z M 20.001374,704.43153 L 20.001374,696.94845 L 21.033523,696.94845 L 22.065673,696.94845 L 22.065673,700.0449 L 22.065673,703.14135 L 25.936233,703.14135 L 29.806792,703.14135 L 29.806792,700.0449 L 29.806792,696.94845 L 30.838941,696.94845 L 31.871091,696.94845 L 31.871091,704.43153 L 31.871091,711.91463 L 30.838941,711.91463 L 29.806792,711.91463 L 29.806792,708.43112 L 29.806792,704.94761 L 25.936233,704.94761 L 22.065673,704.94761 L 22.065673,708.43112 L 22.065673,711.91463 L 21.033523,711.91463 L 20.001374,711.91463 L 20.001374,704.43153 z M 186.76915,694.52595 C 185.12615,693.98882 183.71705,692.72884 182.90109,691.06725 C 182.26288,689.76758 182.17783,689.30614 182.17783,687.14304 C 182.17783,684.97774 182.26256,684.51914 182.90384,683.21322 C 184.45659,680.05118 187.67822,678.72287 191.22683,679.78155 C 193.96116,680.59734 195.64548,682.98775 195.90516,686.42115 C 196.26515,691.18108 193.69407,694.52644 189.47923,694.78223 C 188.52592,694.84008 187.40613,694.73419 186.76915,694.52595 z M 191.78576,692.14201 C 193.03391,691.14706 193.67595,689.83462 193.8492,687.92404 C 194.11479,684.99488 193.02464,682.62985 190.98105,681.70183 C 188.31347,680.49044 185.32869,681.85317 184.4941,684.66358 C 183.11932,689.29298 185.41892,693.2585 189.3344,693.01031 C 190.50639,692.93603 191.01623,692.75543 191.78576,692.14201 z M 68.588053,660.46503 C 66.945055,659.92789 65.535959,658.6679 64.720007,657.00633 C 64.081788,655.70666 63.996739,655.24521 63.996739,653.0821 C 63.996739,650.91681 64.08146,650.45821 64.722743,649.15229 C 66.275497,645.99025 69.497117,644.66194 73.045722,645.72062 C 75.780073,646.5364 77.464385,648.92683 77.724054,652.36022 C 78.084047,657.12016 75.512962,660.46551 71.298135,660.7213 C 70.344831,660.77916 69.225031,660.67326 68.588053,660.46503 z M 73.604669,658.08108 C 74.852806,657.08614 75.494857,655.77368 75.668103,653.8631 C 75.933708,650.93396 74.843545,648.56894 72.799963,647.6409 C 70.132369,646.42951 67.147609,647.79224 66.313009,650.60265 C 64.938222,655.23206 67.237837,659.19757 71.153314,658.94938 C 72.325299,658.87511 72.835144,658.69451 73.604669,658.08108 z"
       id="path2453"
       style="fill:#000000" />
  </g>
</svg>
