<?xml version="1.0" encoding="UTF-8" standalone="no"?>
<!-- Created with Inkscape (http://www.inkscape.org/) -->
<svg id="svg2" xmlns="http://www.w3.org/2000/svg" height="125" width="181.02" version="1.0">
 <g id="layer1" transform="translate(-13.714 -506.79)">
  <path id="path2453" d="m126.93 621.52c0-0.67 0.74-1.57 3.26-3.99 2.31-2.22 2.68-2.69 2.68-3.4-0.01-1.71-2.47-2.54-3.76-1.25-0.35 0.35-0.63 0.81-0.63 1.03 0 0.44-0.45 0.51-1 0.17-0.41-0.26-0.19-1.2 0.45-1.93 2.17-2.46 6.57-0.89 6.15 2.19-0.17 1.3-1.03 2.41-3.28 4.26-0.99 0.82-1.8 1.58-1.8 1.69 0 0.12 1.16 0.21 2.58 0.21 2.58 0 2.58 0 2.58 0.65v0.64h-3.62c-2.38 0-3.61-0.09-3.61-0.27zm-28.641-11.6v-7.48h1.097l1.094 0.01 3.81 5.74 3.8 5.73v-5.74-5.74h1.04 1.03v7.48 7.48h-1.1l-1.09-0.01-3.81-5.73-3.8-5.74-0.01 5.74v5.74h-1.028-1.033v-7.48zm14.971 0v-7.48h1.03 1.03v3.09 3.1h3.87 3.87v-3.1-3.09h1.03 1.04v7.48 7.48h-1.04-1.03v-3.48-3.48h-3.87-3.87v3.48 3.48h-1.03-1.03v-7.48zm-12.14-9.61c0-0.18 0.54-5.69 1.19-12.26 0.66-6.56 1.13-12.09 1.06-12.28s-6.539-4.04-14.372-8.56c-14.085-8.11-14.248-8.2-14.925-7.8-4.541 2.67-20.506 11.81-20.639 11.81-0.199 0-0.899-1.05-0.771-1.15 0.046-0.04 4.292-2.5 9.437-5.46l9.354-5.38v-12.46-12.45h0.774 0.774v12.02 12.02l0.878-0.55 0.879-0.54 0.928 0.55 0.927 0.54v-12.02-12.02h0.774 0.775v12.47 12.47l13.026 7.53c7.165 4.14 13.081 7.52 13.141 7.52s6.74-3.82 14.84-8.5l14.72-8.5 11.07 6.39 11.07 6.39-0.44 0.59-0.45 0.6-10.43-6.02c-5.73-3.31-10.6-6.02-10.82-6.02s-6.79 3.68-14.6 8.18l-14.19 8.19 1.23 12.06c0.67 6.63 1.23 12.26 1.24 12.51 0.01 0.41-0.31 0.45-3.22 0.45-2.4 0-3.22-0.08-3.23-0.32zm-58.233-17.07c-1.643-0.53-3.052-1.79-3.868-3.46-0.638-1.3-0.723-1.76-0.723-3.92 0-2.17 0.084-2.62 0.726-3.93 1.553-3.16 4.774-4.49 8.323-3.43 2.734 0.81 4.418 3.2 4.678 6.64 0.36 4.76-2.211 8.1-6.426 8.36-0.953 0.06-2.073-0.05-2.71-0.26zm5.017-2.38c1.248-1 1.89-2.31 2.063-4.22 0.266-2.93-0.824-5.29-2.868-6.22-2.668-1.21-5.652 0.15-6.487 2.96-1.375 4.63 0.925 8.6 4.84 8.35 1.172-0.08 1.682-0.26 2.452-0.87zm113.17 2.38c-1.64-0.53-3.05-1.79-3.87-3.46-0.64-1.3-0.72-1.76-0.72-3.92 0-2.17 0.08-2.62 0.72-3.93 1.56-3.16 4.78-4.49 8.33-3.43 2.73 0.81 4.41 3.2 4.67 6.64 0.36 4.76-2.21 8.1-6.42 8.36-0.96 0.06-2.07-0.05-2.71-0.26zm5.01-2.38c1.25-1 1.89-2.31 2.07-4.22 0.26-2.93-0.83-5.29-2.87-6.22-2.67-1.21-5.65 0.15-6.49 2.96-1.37 4.63 0.93 8.6 4.84 8.35 1.18-0.08 1.69-0.26 2.45-0.87zm-142.36-5v-7.48h1.032 1.032v3.09 3.1h3.871 3.87v-3.1-3.09h1.032 1.032v7.48 7.48h-1.032-1.032v-3.48-3.48h-3.87-3.871v3.48 3.48h-1.032-1.032v-7.48zm149.14 0v-7.48h1.03 1.04v3.09 3.1h3.87 3.87v-3.1-3.09h1.03 1.03v7.48 7.48h-1.03-1.03v-3.48-3.48h-3.87-3.87v3.48 3.48h-1.04-1.03v-7.48zm-100.56-43.97c-1.643-0.53-3.052-1.79-3.868-3.46-0.638-1.29-0.723-1.76-0.723-3.92s0.085-2.62 0.726-3.93c1.553-3.16 4.774-4.49 8.323-3.43 2.734 0.81 4.419 3.21 4.678 6.64 0.36 4.76-2.211 8.1-6.426 8.36-0.953 0.06-2.073-0.05-2.71-0.26zm5.017-2.38c1.248-1 1.89-2.31 2.063-4.22 0.266-2.93-0.824-5.29-2.868-6.22-2.667-1.21-5.652 0.15-6.487 2.96-1.374 4.63 0.925 8.6 4.841 8.35 1.172-0.08 1.681-0.26 2.451-0.87z"/>
 </g>
</svg>
