<?xml version="1.0" encoding="UTF-8" standalone="no"?>
<!-- Created with Inkscape (http://www.inkscape.org/) -->

<svg
   xmlns:dc="http://purl.org/dc/elements/1.1/"
   xmlns:cc="http://creativecommons.org/ns#"
   xmlns:rdf="http://www.w3.org/1999/02/22-rdf-syntax-ns#"
   xmlns:svg="http://www.w3.org/2000/svg"
   xmlns="http://www.w3.org/2000/svg"
   version="1.1"
   width="3264"
   height="2448"
   id="svg2">
  <metadata
     id="metadata8">
    <rdf:RDF>
      <cc:Work
         rdf:about="">
        <dc:format>image/svg+xml</dc:format>
        <dc:type
           rdf:resource="http://purl.org/dc/dcmitype/StillImage" />
        <dc:title></dc:title>
      </cc:Work>
    </rdf:RDF>
  </metadata>
  <defs
     id="defs6" />
  <g
     transform="translate(-3365.9188,-5.6173058)"
     id="g3171">
    <rect
       width="3264.3923"
       height="2434.4622"
       rx="0.073824711"
       ry="0.073824711"
       x="3365.7227"
       y="12.386227"
       id="rect3775"
       style="fill:#ffffff;fill-opacity:1;stroke:none" />
    <rect
       width="38.454079"
       height="108.93615"
       ry="0"
       x="2137.8657"
       y="-6244.7554"
       transform="matrix(0.00591846,0.99998249,-0.99999973,7.3746541e-4,0,0)"
       id="rect2985-1-4"
       style="fill:#000000;fill-opacity:1;fill-rule:nonzero;stroke:none" />
    <g
       transform="matrix(0.38453406,-8.0336697e-4,8.0336697e-4,0.38453406,6085.8802,2010.171)"
       id="g3827">
      <rect
         width="100"
         height="100"
         ry="0"
         x="320.93356"
         y="-245.77675"
         transform="matrix(0,1,-1,0,0,0)"
         id="rect2985-1"
         style="fill:#000000;fill-opacity:1;fill-rule:nonzero;stroke:none" />
      <g
         transform="translate(-1.7134247,4.4700928)"
         id="g3823">
        <rect
           width="100"
           height="100"
           ry="0"
           x="216.46349"
           y="-347.49017"
           transform="matrix(0,1,-1,0,0,0)"
           id="rect2985-1-7"
           style="fill:#000000;fill-opacity:1;fill-rule:nonzero;stroke:none" />
        <rect
           width="100"
           height="100"
           ry="0"
           x="316.46347"
           y="-347.49017"
           transform="matrix(0,1,-1,0,0,0)"
           id="rect2985-1-0"
           style="fill:#000000;fill-opacity:1;fill-rule:nonzero;stroke:none" />
      </g>
    </g>
    <rect
       width="159.9619"
       height="38.453545"
       ry="0"
       x="2122.1687"
       y="-6215.7544"
       transform="matrix(0.0016252,0.99999868,-0.99999639,0.00268565,0,0)"
       id="rect2985-1-0-9"
       style="fill:#000000;fill-opacity:1;fill-rule:nonzero;stroke:none" />
    <text
       x="5863.5386"
       y="2410.9939"
       transform="scale(1.0537449,0.94899629)"
       id="text3892"
       xml:space="preserve"
       style="font-size:23.12828827px;font-style:normal;font-variant:normal;font-weight:bold;font-stretch:normal;line-height:125%;letter-spacing:-1.91099215px;word-spacing:0px;fill:#000000;fill-opacity:1;stroke:none;font-family:Ebrima;-inkscape-font-specification:Ebrima"><tspan
         x="5863.5386"
         y="2410.9939"
         id="tspan3894">Christopher</tspan></text>
    <text
       x="5922.2617"
       y="2428.6589"
       transform="scale(1.0537449,0.94899629)"
       id="text3892-8"
       xml:space="preserve"
       style="font-size:23.12828827px;font-style:normal;font-variant:normal;font-weight:bold;font-stretch:normal;line-height:125%;letter-spacing:-1.91099334px;word-spacing:0px;fill:#000000;fill-opacity:1;stroke:none;font-family:Ebrima;-inkscape-font-specification:Ebrima"><tspan
         x="5922.2617"
         y="2428.6589"
         id="tspan3894-2">Frewin</tspan></text>
    <g
       transform="matrix(0.36813517,0,0,0.33154032,5404.4932,1341.9393)"
       id="g4151">
      <text
         x="2315.6084"
         y="2954.3479"
         id="text3859"
         xml:space="preserve"
         style="font-size:54.20080948px;font-style:normal;font-variant:normal;font-weight:normal;font-stretch:normal;line-height:125%;letter-spacing:0px;word-spacing:0px;fill:#000000;fill-opacity:1;stroke:none;font-family:Tahoma;-inkscape-font-specification:Tahoma"><tspan
           x="2315.6084"
           y="2954.3479"
           id="tspan3888">©</tspan></text>
      <text
         x="2363.4531"
         y="2955.5747"
         id="text3892-4"
         xml:space="preserve"
         style="font-size:54.36507797px;font-style:normal;font-variant:normal;font-weight:bold;font-stretch:normal;line-height:125%;letter-spacing:-7.86708307px;word-spacing:0px;fill:#000000;fill-opacity:1;stroke:none;font-family:Ebrima;-inkscape-font-specification:Ebrima"><tspan
           x="2363.4531"
           y="2955.5747"
           id="tspan3894-5">2016</tspan></text>
    </g>
    <text
       x="5871.4639"
       y="2290.4338"
       id="text3892-5"
       xml:space="preserve"
       style="font-size:52.00458908px;font-style:normal;font-variant:normal;font-weight:bold;font-stretch:normal;line-height:125%;letter-spacing:-4.29691792px;word-spacing:0px;fill:#000000;fill-opacity:1;stroke:none;font-family:Ebrima;-inkscape-font-specification:Ebrima"><tspan
         x="5871.4639"
         y="2290.4338"
         id="tspan3971">&quot;Cipher&quot;</tspan></text>
    <text
       x="6242.311"
       y="2256.3975"
       id="text3892-5-5"
       xml:space="preserve"
       style="font-size:52.00458908px;font-style:normal;font-variant:normal;font-weight:bold;font-stretch:normal;line-height:125%;letter-spacing:-4.29691792px;word-spacing:0px;fill:#000000;fill-opacity:1;stroke:none;font-family:Ebrima;-inkscape-font-specification:Ebrima"><tspan
         x="6242.311"
         y="2256.3975"
         id="tspan3971-3">17'</tspan></text>
    <path
       d="m 6104.1281,2145.9188 c -0.1964,-0.7828 -0.072,-1.6362 0.3049,-2.0904 0.861,-1.0374 5.3188,-3.8567 9.182,-5.8068 5.3992,-2.7254 8.1931,-5.5597 5.4807,-5.5597 -1.7249,0 -3.0653,-0.9931 -3.8386,-2.844 -0.6031,-1.4429 -0.9953,-1.7428 -2.2803,-1.7428 -0.9378,0 -2.2964,0.5831 -3.4331,1.4733 -1.0349,0.8104 -2.7408,1.7454 -3.7913,2.0778 -2.6516,0.839 -7.0033,0.8632 -8.9673,0.05 -1.4429,-0.5976 -1.9025,-0.5652 -3.7395,0.2632 -1.4926,0.6729 -3.3302,0.9492 -6.3953,0.9612 -3.8554,0.016 -4.3972,-0.1022 -5.2316,-1.1301 -1.1392,-1.4033 -1.7409,-1.4302 -3.5291,-0.1569 -1.6878,1.2019 -5.9302,1.8295 -7.7154,1.1413 -1.4934,-0.5756 -2.8428,-3.8748 -2.2932,-5.6066 0.1873,-0.5902 1.7083,-2.387 3.3802,-3.9927 1.6717,-1.6058 2.9539,-3.1624 2.8493,-3.4591 -0.296,-0.8393 -1.9414,-0.321 -3.7013,1.1657 -1.9805,1.6729 -7.8516,5.8646 -13.0209,9.2963 -5.718,3.7957 -9.6091,4.0006 -9.6091,0.5057 0,-1.6566 4.4479,-6.5216 7.1351,-7.804 1.3339,-0.6367 2.2683,-1.7481 3.7049,-4.4071 1.1515,-2.131 1.7147,-3.6833 1.4059,-3.8741 -0.6721,-0.4155 -6.7664,2.9364 -9.6976,5.3336 -7.0384,5.7567 -13.7739,9.6955 -18.0924,10.5804 -1.9621,0.4021 -4.4849,0.9302 -5.6061,1.1733 -3.7097,0.8045 -7.9189,0.5678 -10.2867,-0.5783 -1.2097,-0.5855 -2.1995,-1.2344 -2.1995,-1.4415 0,-0.2074 -0.6708,-1.3908 -1.4909,-2.6301 -2.2948,-3.4689 -2.8423,-6.3729 -2.0865,-11.0675 0.3476,-2.1601 1.0654,-4.778 1.5952,-5.8179 0.5296,-1.04 0.9629,-2.1388 0.9629,-2.4418 0,-0.303 0.8893,-2.319 1.9761,-4.4798 8.7394,-17.3761 12.1282,-22.3842 15.9417,-26.3078 3.108,-3.1976 2.7997,-3.1266 4.6903,-5.4527 -0.9112,-2.7626 -3.0712,-2.3799 -4.522,-4.2386 -1.2766,-1.6737 -1.2988,-1.8116 -0.5303,-3.2975 1.3849,-2.6785 2.4305,-2.8458 5.091,-0.8149 1.284,0.9801 2.6445,1.7819 3.0233,1.7819 0.7786,0 7.9349,3.3597 11.7887,5.5346 1.4016,0.791 3.2134,1.8036 4.0264,2.2502 2.5231,1.3864 3.1267,3.5804 1.4121,5.1321 -1.2687,1.1482 -2.6328,1.0611 -5.8057,-0.3708 -1.4799,-0.6679 -3.264,-1.377 -3.9648,-1.5761 -0.7007,-0.1989 -2.2366,-0.8138 -3.4131,-1.3663 -2.5455,-1.1955 -3.4768,-0.8638 -5.6093,1.9976 -0.7806,1.0473 -1.7012,2.0845 -2.0463,2.3046 -0.5956,0.3802 -3.517,4.5637 -7.1585,10.2517 -0.915,1.4292 -2.5872,4.5481 -3.7161,6.9307 -1.1289,2.3825 -2.839,5.8432 -3.8001,7.6903 -0.9612,1.8471 -2.0791,4.6307 -2.484,6.1856 -0.4051,1.5547 -1.0998,3.5295 -1.5437,4.3882 -1.5831,3.0613 -0.817,8.3819 1.5653,10.8682 2.5342,2.6452 5.8787,2.4283 14.7003,-0.9541 4.8921,-1.8759 6.9332,-3.4019 8.377,-6.2637 3.0802,-6.1045 3.9545,-7.5159 6.1722,-9.965 1.3554,-1.4965 2.8673,-3.3641 3.3596,-4.1501 0.8109,-1.2943 2.9627,-3.8079 7.5495,-8.8187 0.8981,-0.9812 2.146,-2.5283 2.773,-3.4383 1.4122,-2.0495 15.8936,-16.8002 18.5985,-18.9445 3.083,-2.4437 5.9182,-1.9564 5.9182,1.0177 0,1.5093 -4.0171,9.1689 -5.8592,11.1721 -0.6445,0.7009 -2.2924,3.2427 -3.6624,5.6485 -1.3699,2.4059 -3.3373,5.3872 -4.3723,6.6255 -1.0349,1.238 -3.3658,4.0689 -5.1798,6.2907 l -3.2981,4.0398 1.4954,1.703 c 1.9451,2.2155 2.2954,3.75 1.2966,5.6813 -0.8666,1.6762 -1.0726,3.6477 -0.3809,3.6477 0.2336,0 1.4376,-0.9547 2.6756,-2.1214 l 2.2506,-2.1215 6.4569,-0.1222 6.4566,-0.122 0.6001,1.4483 c 0.7528,1.8176 0.5767,2.0866 -2.9701,4.537 -4.0684,2.8112 -8.925,7.5052 -8.491,8.2074 1.0216,1.6531 9.0315,-2.7239 17.5688,-9.6004 3.2176,-2.5917 4.0339,-3.801 4.0591,-6.0144 0.022,-2.0085 1.1154,-2.9632 4.543,-3.9711 1.5077,-0.4433 2.9983,-1.0188 3.3126,-1.2786 0.8605,-0.7114 6.0424,-2.6009 7.1339,-2.6012 0.5259,-1e-4 2.3102,-0.6882 3.9651,-1.5291 1.6547,-0.841 3.6724,-1.529 4.4838,-1.529 0.8115,0 3.1934,-0.688 5.2935,-1.5288 2.1002,-0.841 4.3054,-1.529 4.9004,-1.529 0.5951,0 1.9329,-0.4261 2.973,-0.947 1.04,-0.5208 2.5039,-1.0941 3.2531,-1.2739 2.2224,-0.5335 4.3607,-2.7252 6.0941,-6.2462 1.7875,-3.631 2.664,-4.3733 4.3929,-3.7205 0.9799,0.3699 1.1467,0.8061 1.1467,2.9977 0,1.72 0.2096,2.5595 0.637,2.5491 0.3504,-0.011 2.7011,-0.5894 5.2238,-1.2911 14.4821,-4.0278 25.3861,-6.1919 27.953,-5.5475 0.625,0.1569 1.7129,0.066 2.4176,-0.2017 1.5984,-0.6079 3.011,0.098 3.011,1.5051 0,0.9145 -2.6021,4.6397 -7.7017,11.0254 -3.6444,4.5634 -4.0772,5.2325 -3.7386,5.7804 0.3948,0.639 2.2359,0.3996 4.7005,-0.611 1.9293,-0.7911 3.3305,-0.2266 3.581,1.4427 0.2532,1.6893 -7.4982,8.3573 -14.9795,12.8857 -6.8271,4.1322 -9.3413,7.0508 -12.0206,8.7777 -1.626,1.5004 -10.4823,8.2821 -10.6125,4.4485 0,-1.9149 -0.6572,-2.2276 -2.5862,-1.23 -1.1535,0.5965 -2.2582,0.735 -3.977,0.4986 -2.1708,-0.2986 -2.5815,-0.1735 -4.673,1.4233 -1.2611,0.9631 -3.8592,3.2136 -5.7737,5.0012 -1.9144,1.7876 -3.8584,3.4602 -4.3201,3.7172 -0.4617,0.2569 -1.8464,1.3462 -3.0772,2.4208 -1.2307,1.0745 -2.4071,1.9538 -2.6137,1.9538 -0.207,0 -1.7093,0.8026 -3.3385,1.7836 -2.538,1.5284 -3.4148,1.7838 -6.1222,1.7838 -2.9768,0 -3.1793,-0.077 -3.4921,-1.3228 z m 20.6233,-18.6766 c 1.2702,-0.3527 3.3343,-1.4726 4.5869,-2.4888 1.2525,-1.0163 2.9653,-2.2083 3.8062,-2.6489 2.8409,-1.4885 4.6478,-3.2647 3.9972,-3.929 -1.0124,-1.034 -10.1746,1.5766 -12.9879,3.7007 -4.0258,3.0395 -5.6999,4.8319 -5.3543,5.7323 0.3753,0.9784 1.3165,0.9204 5.9519,-0.3663 z m -30.2226,-1.4367 c 1.1856,-0.8505 3.8231,-2.315 5.861,-3.2542 3.6543,-1.6843 7.2191,-4.7939 9.2332,-8.0543 0.4762,-0.7709 1.3063,-1.4014 1.8445,-1.4014 1.2534,0 2.5653,1.8671 2.5653,3.6508 0,0.762 0.2464,1.5376 0.5474,1.7236 0.7613,0.4705 2.918,-1.6622 4.1469,-4.1004 0.5652,-1.1212 2.1555,-3.1556 3.5342,-4.521 3.4102,-3.377 6.2528,-6.9047 5.8714,-7.2861 -0.295,-0.295 -3.2281,0.7044 -11.0419,3.7622 -1.822,0.713 -5.0328,1.8666 -7.1351,2.5637 -2.1023,0.697 -5.3748,1.8585 -7.2721,2.5812 -3.2935,1.2545 -3.4641,1.4023 -3.7607,3.2576 -0.4934,3.0849 -2.8239,6.1768 -6.9631,9.2379 -5.019,3.7118 -5.2722,4.1638 -2.0872,3.7288 1.558,-0.2129 3.3129,-0.9248 4.6562,-1.8884 z m 13.6611,-1.3017 c 1.1736,-0.7689 1.7408,-2.2346 0.8648,-2.2346 -0.4842,0 -4.1953,2.4958 -4.1953,2.8213 0,0.5538 2.1745,0.1708 3.3305,-0.5867 z m 39.4646,-2.7245 c 0.4124,-0.2607 0.5942,-0.6297 0.4042,-0.8196 -0.4663,-0.4664 -1.9184,0.1268 -1.9184,0.7836 0,0.6475 0.5277,0.66 1.5142,0.035 z m -0.7835,-8.0468 c 1.1242,-2.0817 4.5981,-5.3947 9.3819,-8.9469 3.393,-2.4358 6.941,-5.4107 10.4006,-8.1299 0.6308,-0.4171 2.5428,-1.9915 4.2492,-3.4988 1.7063,-1.5073 3.7384,-3.277 4.5156,-3.9328 1.5804,-1.3333 1.1567,-2.6246 -0.5597,-1.706 -0.5229,0.2798 -2.2102,0.8481 -3.7497,1.2629 -1.5395,0.4149 -4.8631,1.367 -7.3859,2.1157 -2.5227,0.749 -5.7267,1.5815 -7.1199,1.8503 -2.6094,0.5033 -9.0761,2.8471 -12.8685,4.6639 -1.6264,0.7793 -2.4237,1.6056 -3.2693,3.3886 -0.9414,1.9846 -3.0368,5.4542 -6.3482,10.5122 -0.6459,0.9865 -0.5483,1.02 3.0396,1.0393 3.2397,0.017 3.9272,0.1933 5.4535,1.3959 2.22,1.7489 3.3106,1.7453 4.2608,-0.015 z m -93.1877,-3.2663 c 4.1986,-3.6743 9.311,-9.5619 12.9341,-14.8957 3.0849,-4.5413 3.4995,-5.4089 2.5846,-5.4089 -0.5968,0 -4.1612,3.0093 -4.8281,4.0763 -0.2633,0.4208 -2.8526,3.3395 -5.7543,6.4858 -6.6522,7.213 -10.1429,12.3719 -8.3715,12.3719 0.2368,0 1.7826,-1.1833 3.4352,-2.6294 z m 104.5864,-0.1217 c 3.194,-1.6533 7.1269,-4.632 9.1483,-6.9289 2.4207,-2.7505 2.5513,-3.0639 1.2741,-3.0548 -0.9635,0.011 -12.3588,9.4284 -12.3588,10.2179 0,0.6429 0.3157,0.6048 1.9364,-0.2342 z"
       id="path2987-3"
       style="fill:#000000" />
    <path
       d="m 6213.5739,2115.3162 c 2.3333,-1.3872 9.5346,-4.7783 12.8152,-6.0346 1.7811,-0.6821 5.7612,-2.1907 8.8446,-3.3526 3.0833,-1.1619 6.294,-2.4444 7.135,-2.8499 0.8409,-0.4058 3.4783,-1.4051 5.8608,-2.2207 7.9059,-2.7063 10.9093,-3.9176 16.1614,-6.5181 2.8622,-1.4172 5.8437,-2.7325 6.6254,-2.9233 0.7817,-0.1906 2.7973,-1.0011 4.4792,-1.8014 8.2489,-3.9248 11.96,-5.5533 14.5248,-6.3738 1.5416,-0.4933 4.0644,-1.5376 5.6062,-2.321 1.5415,-0.7831 4.759,-2.3597 7.1499,-3.5036 2.3907,-1.1439 5.5937,-2.8829 7.1177,-3.8648 1.5241,-0.982 3.1644,-1.353 3.8373,-1.7853 0.9693,-0.6225 5.5017,-3.0234 8.4102,-4.775 0.9082,-0.5469 2.5733,-1.6354 3.9159,-2.1177 1.3423,-0.4822 4.0877,-1.5366 6.1003,-2.3432 2.0128,-0.8066 4.0987,-1.4666 4.6353,-1.4666 1.4542,0 2.6626,1.6372 2.6628,3.6075 1e-4,1.5119 -0.5082,2.2202 -3.8222,5.3266 -2.1025,1.9705 -3.8226,3.8474 -3.8226,4.1707 0,0.3233 0.6047,0.6606 1.3436,0.7491 0.739,0.089 1.6605,0.6412 2.0475,1.2279 0.6191,0.938 0.5785,1.2259 -0.3369,2.3897 -1.5734,2.0003 -5.3537,3.6783 -18.8533,8.3688 -4.4822,1.5573 -9.034,4.0283 -8.4662,4.5962 0.2216,0.2216 16.0797,-3.1005 18.9477,-3.9694 2.4425,-0.7402 12.4526,-1.2346 12.4526,-0.6151 0,1.0127 -1.3268,1.5812 -7.3898,3.1667 -3.3637,0.8796 -7.2625,1.927 -8.664,2.3278 -1.4016,0.4008 -3.3509,0.8707 -4.332,1.0445 -0.981,0.1735 -3.0452,0.7342 -4.5868,1.2458 -1.5416,0.5115 -4.6377,1.3202 -6.8802,1.797 -2.2423,0.4768 -5.1092,1.1763 -6.3706,1.5545 -1.2613,0.3782 -3.6692,1.07 -5.3511,1.5375 -4.4885,1.2475 -10.144,3.9584 -14.8368,7.1121 -2.2738,1.528 -4.2932,2.7782 -4.4874,2.7782 -0.1942,0 -1.6591,0.8748 -3.2556,1.9441 -1.5963,1.0693 -4.3931,2.7064 -6.2149,3.6381 -1.8222,0.9319 -4.2303,2.3119 -5.3514,3.0666 -1.1212,0.7548 -2.3825,1.5009 -2.8031,1.6577 -0.8702,0.3246 -6.2001,4.135 -11.4671,8.1978 -4.7459,3.6611 -5.7241,4.1583 -6.6578,3.3834 -0.4026,-0.3341 -0.732,-0.9155 -0.732,-1.2917 0,-1.0551 2.8153,-4.0185 5.756,-6.0589 1.4592,-1.0129 4.0292,-2.8666 5.711,-4.1198 4.0174,-2.9934 7.6206,-5.3456 10.4478,-6.8206 1.2614,-0.658 2.752,-1.5951 3.3127,-2.0821 0.5606,-0.4872 1.7646,-1.2623 2.6755,-1.7229 2.2687,-1.1465 2.1342,-1.9601 -0.2548,-1.5417 -3.1581,0.5531 -6.7171,1.7124 -12.3587,4.0261 -2.9432,1.2068 -6.6037,2.4578 -8.1345,2.7798 -1.5307,0.322 -5.2001,1.4034 -8.1543,2.4029 -4.5373,1.5353 -10.669,2.592 -16.4811,2.9707 -4.7891,0.06 -15.8957,2.5363 -8.5112,-4.594 z m 31.5455,-5.7886 c 1.5704,-0.535 4.4608,-1.4583 6.4228,-2.0516 1.9622,-0.5934 5.9756,-2.0692 8.9188,-3.2794 2.9433,-1.2104 6.7273,-2.6798 8.4091,-3.2655 3.9481,-1.3748 15.7843,-6.2968 18.0924,-7.5238 1.4309,-0.7607 1.5949,-0.9881 0.829,-1.1507 -2.3554,-0.4996 -25.5043,6.8029 -28.8601,9.1042 -0.7013,0.4808 -3.6826,1.9321 -6.6255,3.2249 -10.8887,4.7839 -14.9784,7.5961 -7.1865,4.9419 z m 50.5071,-18.6359 c 1.2612,-0.4526 2.8666,-1.2789 3.5675,-1.8361 l 1.2739,-1.0132 -2.0384,0.34 c -3.4043,0.5675 -7.3899,2.2408 -7.3899,3.1022 0,0.8763 0.7704,0.7767 4.5869,-0.5929 z m -0.5097,-4.5497 c 1.2614,-0.387 2.91,-0.9883 3.6637,-1.3362 1.1426,-0.5274 1.5001,-0.5027 2.1514,0.1485 1.4575,1.4575 5.9544,-0.2669 10.6993,-4.1025 0.814,-0.658 2.9927,-1.9644 4.8416,-2.9032 3.367,-1.7095 12.3856,-8.0733 12.7051,-8.9649 0.2285,-0.6379 -0.7918,-0.6075 -1.1891,0.035 -0.1733,0.2802 -0.8871,0.5096 -1.5862,0.5096 -0.6989,0 -2.1149,0.5733 -3.146,1.2741 -1.0312,0.7007 -2.2266,1.274 -2.6562,1.274 -6.1845,1.4178 -20.7624,11.0904 -24.2096,11.2231 -1.2692,0.011 -4.944,2.0599 -5.2265,2.9197 -0.2723,0.8278 1.0884,0.801 3.9525,-0.077 z m -29.2287,43.2838 c -0.1586,-0.4131 0.2883,-1.4359 0.9927,-2.2731 1.2683,-1.5071 6.5975,-5.2582 9.7265,-6.8461 1.7938,-0.9102 6.9069,-5.1372 10.1678,-8.4054 1.6982,-1.7019 2.4651,-2.1106 3.9607,-2.1106 1.4836,0 1.9708,0.2549 2.4352,1.2742 0.6864,1.5066 2.1111,1.6679 2.7597,0.3125 0.2531,-0.529 1.7817,-2.16 3.3969,-3.6244 2.8306,-2.5667 3.017,-2.6509 5.1546,-2.3303 2.1954,0.3292 3.9082,1.6355 4.5578,3.4761 0.3827,1.0846 0.9691,1.1055 4.204,0.1483 4.4837,-1.3265 14.4682,-2.9394 25.4472,-4.1107 12.4407,-1.3274 35.8794,-1.2809 43.8293,0.087 8.0372,1.3827 10.0304,1.6421 10.6859,1.3906 0.3521,-0.1351 2.1308,0.1 3.9527,0.5226 2.2542,0.5228 4.5047,0.6683 7.0446,0.4553 3.6854,-0.309 3.7484,-0.2937 5.0396,1.2272 1.6339,1.9245 6.7842,3.0864 9.7167,2.192 1.9591,-0.5975 24.4659,-2.214 29.2273,-2.0992 1.6396,0.04 3.8182,-0.153 4.8417,-0.4277 1.0236,-0.2747 4.0396,-0.6308 6.7025,-0.7914 2.6629,-0.1605 6.2577,-0.5134 7.9885,-0.7842 3.7739,-0.5908 24.7529,-2.0598 25.058,-1.7547 0.1178,0.1178 0.5953,0.011 1.0612,-0.239 0.4659,-0.2494 5.8824,-0.7156 12.037,-1.0362 6.1546,-0.3207 11.3961,-0.7849 11.6479,-1.0315 0.252,-0.2467 1.8806,-0.3158 3.6193,-0.1534 1.7385,0.1623 5.4313,0.037 8.2059,-0.2788 2.7747,-0.3158 6.4891,-0.683 8.2545,-0.816 1.7651,-0.1332 3.412,-0.3673 3.6596,-0.5202 0.2476,-0.1531 0.6094,-0.02 0.8041,0.2947 0.2103,0.34 1.1044,0.4648 2.2012,0.3068 1.016,-0.1463 2.2707,-0.1028 2.7885,0.096 0.8579,0.3305 0.8687,0.4228 0.1216,1.0428 -0.5191,0.4308 -3.2491,0.8388 -7.4436,1.1123 -3.6431,0.2376 -8.0553,0.6946 -9.8048,1.0155 -3.1159,0.5719 -7.1697,0.937 -21.5281,1.9395 -3.9243,0.2739 -7.9377,0.6486 -8.9187,0.8322 -0.9811,0.1841 -3.7332,0.523 -6.1157,0.7535 -12.2927,1.189 -20.4932,2.0837 -23.6983,2.5853 -1.9622,0.3073 -6.3197,0.7474 -9.6833,0.9782 -3.3636,0.2307 -8.2945,0.694 -10.9573,1.0295 -2.6629,0.3356 -6.103,0.6812 -7.6447,0.7681 -1.5417,0.087 -4.7524,0.3901 -7.135,0.6738 -2.3826,0.2835 -6.0944,0.53 -8.2485,0.5476 -4.1822,0.035 -6.1715,0.5571 -7.8053,2.0516 -1.8094,1.6552 -12.8157,4.3862 -23.9532,5.9439 -1.1212,0.1567 -2.8201,0.6358 -3.7755,1.0646 -1.1018,0.4945 -3.2122,0.7732 -5.7715,0.7619 -5.0604,-0.022 -6.2281,-0.7989 -5.7202,-3.8053 l 0.3316,-1.9623 -6.5473,0.3182 c -3.601,0.1749 -9.1849,0.529 -12.4083,0.7866 -3.2236,0.2578 -7.9687,0.4709 -10.5451,0.4737 -2.5762,0.011 -4.8094,0.2079 -4.9625,0.4558 -0.411,0.665 -4.7239,2.6089 -5.7645,2.5981 -0.4937,-0.011 -1.9066,-0.6932 -3.1401,-1.529 -1.2336,-0.8359 -2.6653,-1.5197 -3.1817,-1.5197 -0.5164,0 -3.3822,1.1727 -6.3685,2.606 -4.83,2.3181 -5.7083,2.579 -7.9558,2.3631 -1.9844,-0.1907 -2.7672,-0.5452 -3.6509,-1.6533 l -1.1246,-1.4104 -2.5176,1.1331 c -7.0872,3.1901 -15.164,4.6313 -19.1566,3.4183 -2.0519,-0.6235 -2.7603,-0.6203 -5.2889,0.023 -3.6678,0.9341 -5.9887,0.53 -7.3158,-1.2742 -0.9455,-1.2853 -1.1023,-1.3313 -2.1958,-0.6435 -4.3387,2.7285 -8.9643,5.1203 -9.9021,5.1203 -0.6074,0 -1.234,-0.3378 -1.3925,-0.7505 z m 38.3435,-7.261 c 0.6686,-0.4213 2.3714,-1.1418 3.7842,-1.6012 1.4128,-0.4591 2.6498,-1.0839 2.7488,-1.388 0.236,-0.7249 -3.8293,-2.5476 -5.1748,-2.3201 -0.5744,0.097 -1.9938,1.0127 -3.1536,2.0346 -1.16,1.0217 -2.7126,2.2734 -3.4506,2.7814 -0.7378,0.5079 -1.2019,1.1496 -1.0312,1.4259 0.4192,0.6781 4.7404,0.037 6.2772,-0.9326 z m 89.3736,-2.8363 c 2.7331,-0.6096 4.969,-1.3096 4.969,-1.5557 0,-0.6171 -10.1422,0.1302 -11.7154,0.8632 -0.6974,0.3249 -1.3493,1.0133 -1.4487,1.5295 -0.2046,1.0623 -0.4184,1.0843 8.1951,-0.837 z m -95.4844,-1.8619 c 4.2686,-2.4929 7.7665,-7.1664 5.364,-7.1664 -2.1198,0 -10.4066,7.3223 -10.4066,9.1953 0,0.7676 0.818,0.4384 5.0426,-2.0289 z m 20.9768,-3.0607 c 3.6024,-2.3858 4.2977,-3.0431 3.7672,-3.5619 -0.977,-0.9558 -9.401,2.0285 -9.401,3.3306 0,0.5099 1.8289,1.5126 3.0855,1.6915 0.1553,0.021 1.302,-0.6349 2.5483,-1.4602 z m 17.3822,-0.7157 c 4.8962,-1.6881 6.5434,-1.7168 6.5434,-0.1143 0,0.3722 0.3618,0.977 0.804,1.344 0.6753,0.5604 1.1729,0.4684 3.1092,-0.5746 1.2679,-0.6831 2.7178,-1.7596 3.222,-2.3925 1.1618,-1.4578 3.4773,-2.6745 4.4095,-2.3168 1.2963,0.4976 1.698,1.9265 0.9479,3.3722 -0.3858,0.7435 -0.507,1.4721 -0.2696,1.6189 1.0599,0.655 6.8545,-0.4137 10.0162,-1.8472 1.8712,-0.8485 4.7998,-1.9818 6.5078,-2.5185 3.4683,-1.0897 4.7675,-1.7819 4.2731,-2.2764 -0.5739,-0.5737 -26.9906,-0.3881 -29.4526,0.207 -1.2614,0.305 -4.4721,0.5636 -7.1349,0.5748 -2.663,0.012 -6.2178,0.3527 -7.8995,0.7588 -1.6818,0.406 -3.9044,0.7465 -4.9389,0.7565 -2.3324,0.022 -2.8611,0.7754 -1.561,2.2219 0.5482,0.6097 1.1384,1.5102 1.3115,2.0008 0.5098,1.4445 4.4886,1.1241 10.1119,-0.8146 z m 52.4113,-0.8681 c 7.6211,-0.61 8.8003,-0.8379 8.531,-1.6487 -0.1915,-0.5772 -0.71,-0.7857 -4.7086,-1.8941 -0.841,-0.233 -4.1665,-0.5 -7.3899,-0.5932 -5.698,-0.1649 -5.8568,-0.14 -5.7153,0.8959 0.081,0.586 -0.077,1.6517 -0.3497,2.3685 -0.6284,1.6526 -0.1968,2.074 1.7294,1.6884 0.843,-0.1688 4.3993,-0.5362 7.9031,-0.8168 z"
       id="path2987-5"
       style="fill:#000000" />
  </g>
</svg>
