<?xml version="1.0" encoding="UTF-8" standalone="no"?>
<!-- Created with Inkscape (http://www.inkscape.org/) -->

<svg
   xmlns:dc="http://purl.org/dc/elements/1.1/"
   xmlns:cc="http://creativecommons.org/ns#"
   xmlns:rdf="http://www.w3.org/1999/02/22-rdf-syntax-ns#"
   xmlns:svg="http://www.w3.org/2000/svg"
   xmlns="http://www.w3.org/2000/svg"
   version="1.1"
   width="3264"
   height="2448"
   id="svg2">
  <metadata
     id="metadata8">
    <rdf:RDF>
      <cc:Work
         rdf:about="">
        <dc:format>image/svg+xml</dc:format>
        <dc:type
           rdf:resource="http://purl.org/dc/dcmitype/StillImage" />
        <dc:title></dc:title>
      </cc:Work>
    </rdf:RDF>
  </metadata>
  <defs
     id="defs6" />
  <path
     d="m 707.9519,2090.0608 c -9.3805,-2.2113 -31.44599,-5.7067 -49.03443,-7.7677 -95.45979,-11.1859 -122.67219,-12.4707 -186.90388,-8.8243 -68.41197,3.8838 -105.92203,0.7708 -112.33189,-9.3225 -6.60259,-10.3967 -3.65925,-32.5367 5.45433,-41.0271 4.92391,-4.5874 14.49031,-24.8201 21.25877,-44.9616 11.68682,-34.7793 12.0646,-38.1743 7.50696,-67.5089 -4.36918,-28.1197 -4.0123,-32.6078 3.98159,-50.0754 16.40138,-35.8398 47.13061,-53.2094 91.71697,-51.8427 19.02536,0.5832 43.65258,-9.1365 79.31212,-31.3027 46.77202,-29.0734 58.65413,-33.8073 92.06362,-36.6788 67.99028,-5.8436 145.13508,-21.9389 173.14653,-36.1248 6.07515,-3.0768 21.16112,-6.0558 33.52419,-6.6199 20.78548,-0.9484 34.31088,-7.4995 34.31088,-16.6184 0,-4.8074 32.65736,-19.4678 68.02056,-30.5355 21.6634,-6.7801 31.33088,-12.7682 45.46388,-28.1608 9.8721,-10.7523 18.9853,-24.7289 20.2516,-31.0593 2.7626,-13.8129 39.5785,-50.8469 50.5473,-50.8469 4.2753,0 9.942,-4.7599 12.5929,-10.5777 2.6508,-5.8177 8.3657,-11.7032 12.6999,-13.0789 11.8855,-3.7722 9.4692,-10.3498 -4.8544,-13.2145 -10.1608,-2.0322 -13.6039,-5.6739 -17.0316,-18.0148 -6.276,-22.5941 -5.7801,-24.7581 10.5795,-46.1838 11.6924,-15.3133 14.9235,-23.5002 14.9235,-37.8144 0,-19.2887 -8.0681,-31.7014 -20.5578,-31.6287 -6.7198,0.038 -31.5287,11.5389 -63.9664,29.6505 -13.8811,7.7503 -14.7091,7.7337 -40.50675,-0.8118 -14.48477,-4.7982 -29.69397,-11.6377 -33.79793,-15.1991 -17.43537,-15.1301 -2.07651,-34.3594 36.16011,-45.2724 13.43927,-3.8357 30.70787,-10.5799 38.37477,-14.9873 18.4962,-10.6324 69.8685,-21.4316 88.5579,-18.6159 16.8925,2.545 30.3949,13.3949 43.8977,35.2745 5.0902,8.248 18.4016,27.09 29.581,41.8713 18.9034,24.9937 20.3263,28.6285 20.3263,51.9277 0,25.5588 -6.5365,38.4535 -19.4919,38.4535 -7.5709,0 -8.2476,19.8904 -0.7615,22.3843 3.0849,1.0278 5.4428,9.3937 5.5985,19.8643 0.243,16.4094 5.8875,25.7074 15.7255,25.908 1.7614,0.034 10.6507,-7.6097 19.7545,-16.9902 9.1033,-9.3805 19.7924,-17.0555 23.7531,-17.0555 7.4515,0 43.0446,19.2352 52.4221,28.33 2.9301,2.8417 16.3613,6.3666 29.847,7.8332 27.8908,3.0331 71.8274,23.5411 89.4832,41.7672 l 11.4698,11.8405 -8.1261,15.089 c -4.4694,8.2991 -13.9919,20.2583 -21.1611,26.5763 -23.2458,20.4852 -32.2225,35.0295 -32.2225,52.2074 0,21.8672 5.653,35.256 21.1313,50.0479 7.139,6.8221 12.9796,15.4934 12.9796,19.2695 0,3.7762 -10.2371,14.4281 -22.7485,23.6711 -31.1143,22.9854 -40.6922,35.3935 -63.9017,82.7855 -18.1146,36.9883 -35.906,58.441 -48.4665,58.441 -2.0637,0 -7.379,6.2359 -11.8122,13.8576 -10.727,18.4427 -13.8123,20.1116 -37.3254,20.188 -11.0523,0.034 -29.2804,3.6338 -40.5067,7.9953 -16.7297,6.4996 -37.8047,8.4463 -116.8401,10.7926 -53.0356,1.5745 -102.9228,4.7522 -110.86041,7.0616 -7.93718,2.3094 -35.09798,7.874 -60.35668,12.3657 -26.31187,4.679 -52.02084,11.9339 -60.19765,16.9874 -7.84934,4.8514 -17.75685,8.8207 -22.01603,8.8207 -4.2596,0 -15.72981,3.8658 -25.49022,8.5906 -17.27632,8.3634 -27.58506,22.4512 -27.58506,37.6975 0,19.4814 -25.28386,28.7813 -57.56215,21.1726 z m 1531.7843,-247.1936 c -11.9734,-4.4178 -19.3733,-20.258 -13.7301,-29.3892 5.5468,-8.9746 30.2973,-16.5801 45.7802,-14.0676 15.7333,2.5532 34.6785,21.8751 29.3989,29.9835 -8.4181,12.9291 -42.6079,20.4254 -61.449,13.4733 z m 155.518,-382.9685 c -33.7993,-18.4832 -47.847,-29.9229 -47.847,-38.9635 0,-11.5938 -15.4518,-40.8572 -24.1411,-45.7201 -18.4139,-10.3049 22.891,-51.8886 51.5407,-51.8886 6.2231,0 18.4335,3.5912 27.1344,7.9804 30.0146,15.1412 124.3956,7.3078 166.0067,-13.778 26.9766,-13.6701 52.0579,-14.8276 62.8519,-2.9006 9.8039,10.8331 6.0184,33.3753 -10.053,59.8646 -6.4026,10.553 -16.0359,28.3537 -21.4071,39.557 -13.6572,28.4865 -27.0001,34.5308 -74.5131,33.7546 -30.6892,-0.5015 -42.8659,1.3013 -63.958,9.4689 -39.2412,15.1954 -42.3973,15.3216 -65.6144,2.6253 z m -932.5986,-4.1982 c -4.6902,-1.8984 -12.1831,-7.5155 -16.6503,-12.4825 -4.4673,-4.9671 -12.3247,-9.031 -17.4606,-9.031 -5.1358,0 -12.8107,-3.8375 -17.0554,-8.5278 -4.2447,-4.6902 -12.2787,-8.5277 -17.8532,-8.5277 -17.8029,0 -39.709,-11.5496 -39.709,-20.9356 0,-18.8569 29.6863,-33.7531 55.8251,-28.0121 12.0765,2.6524 12.9792,4.0266 10.73,16.3283 -3.4043,18.6168 0.527,22.6143 25.5977,26.0271 17.2699,2.3509 26.0637,6.7201 42.3235,21.0278 11.2882,9.9332 19.3102,20.0247 17.8264,22.4255 -3.2947,5.331 -31.8571,6.4506 -43.5742,1.708 z m 532.9829,-0.043 c -12.2351,-5.1231 -27.7151,-20.7511 -27.7151,-27.9803 0,-3.397 8.115,-11.299 18.0336,-17.5602 15.8368,-9.9974 25.3452,-12.0099 78.0649,-16.5221 33.0177,-2.8259 64.508,-7.5337 69.9794,-10.4617 6.7761,-3.6265 34.7432,-5.5128 87.7239,-5.9167 69.5572,-0.5304 78.6836,0.2225 86.3577,7.1238 4.7192,4.2443 9.5041,12.5483 10.6332,18.4534 2.7366,14.3156 -4.4745,16.8687 -65.1139,23.0536 -26.9689,2.7508 -53.8312,7.4058 -59.694,10.3446 -5.8629,2.9387 -32.0707,6.5911 -58.2397,8.1164 -26.1691,1.5252 -55.6712,5.6277 -65.5599,9.1168 -19.3281,6.8193 -60.5635,8.0555 -74.4701,2.2324 z m -532.2721,-92.5353 c -6.6495,-6.6493 -1.8198,-14.5259 12.6015,-20.5515 8.4944,-3.5491 17.1287,-6.453 19.1873,-6.453 6.8977,0 3.8384,8.8202 -6.7228,19.3812 -10.345,10.3451 -19.546,13.1434 -25.066,7.6233 z m -198.8823,-53.6536 c -15.439,-10.6143 -29.6867,-33.9821 -37.9002,-62.1604 -4.7112,-16.1643 -4.4587,-19.87 2.0334,-29.847 4.0771,-6.2652 10.435,-13.7287 14.1288,-16.5855 8.2586,-6.387 32.1333,-6.9953 43.1503,-1.0994 9.4563,5.0609 19.2031,36.807 23.0717,75.1442 2.5025,24.7985 2.0305,26.6955 -8.752,35.1769 -14.3547,11.2914 -18.4996,11.2184 -35.732,-0.6288 z m 944.0163,3.5106 c -7.2179,-3.1235 -19.8654,-11.5989 -28.1061,-18.8342 -17.3373,-15.2223 -32.9819,-21.9852 -50.8585,-21.9852 -28.5074,0 -58.0248,-19.5977 -72.7386,-48.2934 -8.9937,-17.5399 -5.63,-28.4562 8.7682,-28.4562 3.8814,0 10.8418,-2.5237 15.4676,-5.6082 14.4511,-9.6363 44.0312,-16.4829 51.9842,-12.0323 3.9799,2.2273 16.9514,3.0468 28.8258,1.8213 13.3783,-1.3808 32.0959,0.4847 49.2127,4.9049 19.2803,4.9787 35.0605,6.286 52.2494,4.3285 38.8455,-4.4239 47.1783,8.5864 25.0578,39.1232 -6.678,9.2187 -13.5582,24.3106 -15.2893,33.5373 -7.8093,41.6283 -35.7977,63.9475 -64.5732,51.4943 z m -146.6833,-140.1169 c -4.4549,-5.1871 -11.8753,-13.8364 -16.4901,-19.2206 -9.4035,-10.9721 -15.9106,-52.4268 -11.4305,-72.8233 2.4547,-11.1772 5.3967,-13.2925 24.052,-17.2934 11.6902,-2.5071 23.8797,-4.5584 27.0875,-4.5584 13.7292,0 45.5905,-17.8528 64.7459,-36.2788 11.3713,-10.9384 23.9066,-21.641 27.8562,-23.78353 10.6852,-5.79604 56.164,-4.71071 64.7182,1.54443 6.9343,5.0704 6.6047,6.5915 -4.848,22.3853 -6.7582,9.3199 -20.901,25.1467 -31.4285,35.1708 -14.579,13.882 -20.4751,23.5357 -24.7394,40.5067 -8.0408,32.0008 -11.5985,37.2047 -25.4352,37.2047 -6.6657,0 -14.5078,2.8781 -17.4273,6.3958 -2.9194,3.5176 -8.0595,6.3957 -11.422,6.3957 -3.3629,0 -11.2826,5.4883 -17.5995,12.1961 -6.3169,6.7078 -17.7974,14.3096 -25.5124,16.8928 -12.4151,4.1569 -14.9581,3.6128 -22.1269,-4.7343 z M 846.475,1006.3436 c -19.96256,-7.40657 -41.78415,-17.30393 -48.49249,-21.99418 -27.80678,-19.44138 -55.5769,-48.03728 -63.16487,-65.04344 -5.58097,-12.5074 -12.9954,-20.64315 -23.87592,-26.19837 -22.3128,-11.3921 -65.31599,-53.97121 -84.33793,-83.50622 -4.50606,-6.99666 -11.07113,-15.91828 -14.58881,-19.82581 -3.51769,-3.90749 -12.48289,-13.8043 -19.9229,-21.99283 -9.16901,-10.09214 -14.4707,-21.18207 -16.45638,-34.4255 l -2.93013,-19.53723 24.47969,-22.49823 c 29.13583,-26.77791 38.90647,-32.80552 53.50296,-33.00678 14.82374,-0.20424 42.40454,-24.61609 53.96558,-47.76507 5.1823,-10.37645 13.80042,-22.7932 19.15156,-27.59286 11.90812,-10.68073 52.01615,-25.96207 69.4238,-26.45084 7.03537,-0.19741 22.38528,-1.37501 34.1109,-2.61664 38.5402,-4.08103 44.44182,7.37499 45.0298,87.41448 0.48097,65.45532 3.25461,79.23775 16.96506,84.30961 4.85143,1.79462 11.11504,7.72399 13.91938,13.17632 8.56227,16.64672 39.14909,25.1495 87.02076,24.19064 40.82004,-0.81763 82.57864,6.10104 94.08644,15.58847 6.4525,5.31986 75.9138,1.45245 83.4357,-4.64547 2.7037,-2.1918 32.1473,-4.70769 65.4306,-5.59095 56.5026,-1.49939 61.4496,-2.30709 74.6176,-12.18271 13.4201,-10.06493 16.8888,-10.56884 71.6649,-10.41073 54.4581,0.15733 58.6887,0.78945 78.4504,11.72562 11.4886,6.35772 23.2223,11.55946 26.0744,11.55946 7.8493,0 27.655,16.87151 27.655,23.55801 0,3.23602 -16.3554,13.65396 -36.3448,23.15099 -24.5675,11.67207 -43.6184,24.51806 -58.7918,39.64344 -37.4875,37.36845 -48.5407,44.95403 -72.8613,50.00304 -13.4043,2.78268 -27.8422,9.18172 -34.3732,15.23466 -6.1941,5.74014 -13.7769,10.43665 -16.8512,10.43665 -3.0747,0 -12.8594,5.77694 -21.744,12.83764 -15.7724,12.53448 -16.9458,12.77159 -49.6855,10.04123 -35.7938,-2.98513 -53.9413,1.88177 -82.4362,22.10856 -24.2823,17.23623 -55.1493,23.16373 -154.88486,29.74304 -21.86808,1.4426 -47.5327,5.3651 -57.03216,8.7167 -24.46775,8.6328 -38.92566,7.1629 -80.21008,-8.1547 z m 49.08687,-559.13858 c -30.12377,-24.22757 -32.52773,-27.35281 -27.81361,-36.16144 6.4572,-12.06503 51.20047,-19.56367 54.66784,-9.16189 0.76878,2.30581 8.00029,12.46442 16.0705,22.57476 l 14.67323,18.38237 -9.01807,7.46176 c -12.63595,10.4555 -33.3741,9.13405 -48.57989,-3.09556 z"
     id="path3013"
     style="fill:#99a098" />
</svg>
