<?xml version="1.0" encoding="UTF-8" standalone="no"?>
<!-- Created with Inkscape (http://www.inkscape.org/) -->

<svg
   xmlns:dc="http://purl.org/dc/elements/1.1/"
   xmlns:cc="http://creativecommons.org/ns#"
   xmlns:rdf="http://www.w3.org/1999/02/22-rdf-syntax-ns#"
   xmlns:svg="http://www.w3.org/2000/svg"
   xmlns="http://www.w3.org/2000/svg"
   version="1.1"
   width="3264"
   height="2448"
   id="svg2">
  <metadata
     id="metadata8">
    <rdf:RDF>
      <cc:Work
         rdf:about="">
        <dc:format>image/svg+xml</dc:format>
        <dc:type
           rdf:resource="http://purl.org/dc/dcmitype/StillImage" />
        <dc:title></dc:title>
      </cc:Work>
    </rdf:RDF>
  </metadata>
  <defs
     id="defs6" />
  <path
     d="m 1109.8133,1505.3799 c -13.2487,-3.7093 -16.7246,-7.0967 -20.2299,-19.7145 -6.2043,-22.3354 -5.6888,-24.5614 10.6439,-45.9516 11.6924,-15.3133 14.9235,-23.5002 14.9235,-37.8144 0,-19.2887 -8.0681,-31.7014 -20.5578,-31.6287 -6.7198,0.038 -31.5287,11.5389 -63.9664,29.6505 -13.8811,7.7503 -14.7091,7.7337 -40.50675,-0.8118 -14.48477,-4.7982 -29.69397,-11.6377 -33.79793,-15.1991 -17.43537,-15.1301 -2.07651,-34.3594 36.16011,-45.2724 13.43927,-3.8357 30.70787,-10.5799 38.37477,-14.9873 18.4962,-10.6324 69.8685,-21.4316 88.5579,-18.6159 16.8925,2.545 30.3949,13.3949 43.8977,35.2745 5.0902,8.248 18.4016,27.09 29.581,41.8713 18.9034,24.9937 20.3263,28.6285 20.3263,51.9277 0,24.8269 -6.4858,38.3809 -18.4259,38.5063 -2.7643,0.03 -9.0748,6.265 -14.0238,13.8576 -5.9942,9.196 -14.8686,15.5841 -26.5818,19.1346 -19.8419,6.0142 -22.1261,6.0025 -44.3749,-0.2269 z m 1294.7872,-40.2742 c -32.6437,-16.5363 -53.1311,-32.3929 -55.7026,-43.1121 -4.2387,-17.668 -17.7825,-42.3857 -25.6318,-46.7785 -18.4139,-10.3049 22.891,-51.8886 51.5407,-51.8886 6.2231,0 18.4335,3.5912 27.1344,7.9804 30.0146,15.1412 124.3956,7.3078 166.0067,-13.778 26.9766,-13.6701 52.0579,-14.8276 62.8519,-2.9006 9.8039,10.8331 6.0184,33.3753 -10.053,59.8646 -6.4026,10.553 -16.0359,28.3537 -21.4071,39.557 -13.6572,28.4865 -27.0001,34.5308 -74.5131,33.7546 -30.6892,-0.5015 -42.8659,1.3013 -63.958,9.4689 -36.5775,14.1639 -42.2191,14.9491 -56.2681,7.8323 z M 1264.4841,1309.469 c -15.439,-10.6143 -29.6867,-33.9821 -37.9002,-62.1604 -4.7112,-16.1643 -4.4587,-19.87 2.0334,-29.847 4.0771,-6.2652 10.435,-13.7287 14.1288,-16.5855 8.2586,-6.387 32.1333,-6.9953 43.1503,-1.0994 9.4563,5.0609 19.2031,36.807 23.0717,75.1442 2.5025,24.7985 2.0305,26.6955 -8.752,35.1769 -14.3547,11.2914 -18.4996,11.2184 -35.732,-0.6288 z m 944.0163,3.5106 c -7.2179,-3.1235 -19.8654,-11.5989 -28.1061,-18.8342 -17.3373,-15.2223 -32.9819,-21.9852 -50.8585,-21.9852 -28.5074,0 -58.0248,-19.5977 -72.7386,-48.2934 -8.5545,-16.6832 -5.7204,-28.4562 6.8499,-28.4562 2.8266,0 17.3211,-4.9502 32.211,-11.0005 20.5718,-8.359 29.2684,-9.9999 36.2172,-6.8337 5.0297,2.2916 18.1496,3.1517 29.155,1.9112 11.9956,-1.3521 31.9658,0.6506 49.8625,5.0003 20.8025,5.0561 36.9511,6.3688 53.2684,4.33 37.6197,-4.7002 45.9334,8.854 24.0017,39.1301 -6.678,9.2187 -13.5582,24.3106 -15.2893,33.5373 -7.8093,41.6283 -35.7977,63.9475 -64.5732,51.4943 z"
     id="path3009"
     style="fill:#969571" />
</svg>
