<?xml version="1.0" encoding="UTF-8" standalone="no"?>
<!-- Created with Inkscape (http://www.inkscape.org/) -->

<svg
   xmlns:dc="http://purl.org/dc/elements/1.1/"
   xmlns:cc="http://creativecommons.org/ns#"
   xmlns:rdf="http://www.w3.org/1999/02/22-rdf-syntax-ns#"
   xmlns:svg="http://www.w3.org/2000/svg"
   xmlns="http://www.w3.org/2000/svg"
   version="1.1"
   width="3264"
   height="2448"
   id="svg2">
  <metadata
     id="metadata8">
    <rdf:RDF>
      <cc:Work
         rdf:about="">
        <dc:format>image/svg+xml</dc:format>
        <dc:type
           rdf:resource="http://purl.org/dc/dcmitype/StillImage" />
        <dc:title></dc:title>
      </cc:Work>
    </rdf:RDF>
  </metadata>
  <defs
     id="defs6" />
  <path
     d="m 707.9519,2090.0608 c -9.3805,-2.2113 -31.44599,-5.7067 -49.03443,-7.7677 -95.45979,-11.1859 -122.67219,-12.4707 -186.90388,-8.8243 -68.41197,3.8838 -105.92203,0.7708 -112.33189,-9.3225 -6.60259,-10.3967 -3.65925,-32.5367 5.45433,-41.0271 4.92391,-4.5874 14.49031,-24.8201 21.25877,-44.9616 11.68682,-34.7793 12.0646,-38.1743 7.50696,-67.5089 -4.36918,-28.1197 -4.0123,-32.6078 3.98159,-50.0754 16.40138,-35.8398 47.13061,-53.2094 91.71697,-51.8427 19.02536,0.5832 43.65258,-9.1365 79.31212,-31.3027 46.77202,-29.0734 58.65413,-33.8073 92.06362,-36.6788 67.99028,-5.8436 145.13508,-21.9389 173.14653,-36.1248 6.07515,-3.0768 21.16112,-6.0558 33.52419,-6.6199 20.78548,-0.9484 34.31088,-7.4995 34.31088,-16.6184 0,-4.8074 32.65736,-19.4678 68.02056,-30.5355 21.6634,-6.7801 31.33088,-12.7682 45.46388,-28.1608 9.8721,-10.7523 18.9853,-24.7289 20.2516,-31.0593 2.7626,-13.8129 39.5785,-50.8469 50.5473,-50.8469 4.2753,0 9.942,-4.7599 12.5929,-10.5777 2.6508,-5.8177 8.3657,-11.7032 12.6999,-13.0789 11.9695,-3.7988 9.4325,-10.3571 -5.1329,-13.2702 -10.0397,-2.0079 -13.5761,-5.4141 -15.4744,-14.9057 -3.154,-15.7707 -7.359,-18.1136 -30.3732,-16.9223 -12.879,0.6667 -21.4093,-1.3316 -26.9011,-6.302 -4.4233,-4.003 -8.0425,-5.9722 -8.0425,-4.376 0,1.5963 -5.2765,0.1953 -11.7256,-3.1134 -12.7695,-6.5511 -31.06313,-9.6493 -82.1118,-13.9066 -29.66626,-2.4741 -33.73952,-3.8763 -37.92152,-13.0542 -2.57665,-5.6553 -4.68471,-14.1557 -4.68471,-18.8898 0,-4.7341 -2.08289,-12.4991 -4.62842,-17.2556 -4.59048,-8.5772 -4.71583,-8.5662 -15.28126,1.3463 -8.77929,8.2366 -14.7163,9.8501 -33.75615,9.174 -12.70716,-0.4513 -25.05446,-2.0262 -27.43881,-3.4997 -2.38393,-1.4735 -8.88802,-11.6573 -14.45236,-22.6307 -5.56477,-10.9734 -14.34961,-23.7891 -19.52167,-28.4794 -9.6018,-8.7075 -47.18903,-16.4678 -109.39751,-22.5862 -19.6142,-1.9291 -33.40652,-5.6555 -38.71076,-10.4587 -4.53206,-4.104 -11.23699,-7.4618 -14.9005,-7.4618 -3.66308,0 -14.92608,-3.7008 -25.0293,-8.224 -13.24697,-5.9308 -20.53476,-7.0648 -26.13663,-4.0666 -9.06198,4.8498 -14.44682,2.1413 -28.17304,-14.1713 -5.51318,-6.552 -12.92121,-11.9128 -16.46235,-11.9128 -3.54114,0 -12.48459,-2.8092 -19.87429,-6.2427 -7.38971,-3.4335 -32.29749,-8.123 -55.35006,-10.4211 -23.053,-2.2981 -44.63881,-6.4395 -47.96846,-9.203 -10.7654,-8.9344 -6.61325,-20.5852 12.06716,-33.8588 9.96678,-7.082 22.18914,-16.649 27.16038,-21.2599 4.97166,-4.6108 18.38577,-12.3897 29.80909,-17.2864 11.42374,-4.8966 26.5434,-15.1791 33.59967,-22.8499 8.82491,-9.5934 18.23014,-14.8018 30.13186,-16.6857 10.36332,-1.6404 21.34917,-7.0464 27.39234,-13.4791 13.60471,-14.4814 27.43796,-13.7561 39.12478,2.0514 5.20149,7.0353 11.52309,12.7916 14.04858,12.7916 2.52506,0 11.89873,3.9167 20.83067,8.704 13.50195,7.2366 20.55523,8.2157 41.83873,5.8078 21.62845,-2.447 26.19249,-4.4584 29.4279,-12.9679 2.10635,-5.5394 5.31576,-10.2185 7.13259,-10.3979 1.81684,-0.1795 7.14112,-1.2876 11.83137,-2.4626 4.69025,-1.175 31.55259,-3.1723 59.69408,-4.4385 28.1415,-1.2662 54.78851,-4.2047 59.21611,-6.5299 4.42717,-2.3251 33.20824,-5.8403 63.95794,-7.8114 30.74928,-1.9711 63.58315,-4.604 72.96365,-5.8508 36.1409,-4.8038 76.8595,-4.1667 86.8523,1.3588 9.505,5.2558 9.9532,7.265 7.5709,33.945 -1.3925,15.5972 -0.5061,36.9928 1.97,47.5459 9.143,38.9668 9.5804,52.3092 1.8999,57.9252 -6.7143,4.9098 -6.6768,5.4072 0.5475,7.2544 7.3339,1.8751 64.3528,4.4494 78.1097,3.5264 35.7521,-2.3988 55.4302,-2.1205 55.4302,0.7839 0,1.9244 2.3985,2.0581 5.3299,0.2967 4.1449,-2.4901 4.1248,-1.7139 -0.09,3.4915 -4.544,5.6121 -4.0528,7.0509 3.041,8.906 11.301,2.9553 20.2086,-7.4547 13.3992,-15.6594 -6.224,-7.4998 -9.5702,-23.8861 -4.877,-23.8861 1.9366,0 4.5649,-3.9891 5.8398,-8.8645 1.6723,-6.3948 0.6609,-8.2286 -3.6303,-6.582 -8.9481,3.4337 -10.2716,-2.0256 -5.6944,-23.4869 5.7128,-26.7844 22.1082,-38.8312 50.778,-37.3095 11.5401,0.6125 22.3059,-0.2102 23.9241,-1.8285 1.6181,-1.6181 -0.7356,-2.9847 -5.2301,-3.0368 -4.495,-0.052 -12.6151,-3.5129 -18.0451,-7.6904 -9.6853,-7.4517 -9.7975,-8.4245 -5.911,-51.3433 4.2238,-46.6412 8.6109,-56.9595 20.1476,-47.3847 14.0716,11.6783 19.2646,29.7098 20.9816,72.8539 1.5419,38.7507 2.795,44.3229 12.2343,54.4053 14.3978,15.379 28.5099,44.6367 28.5099,59.1077 0,13.7521 17.3109,41.3529 30.2935,48.3012 9.9749,5.3382 7.9773,9.2613 -5.7839,11.3615 -5.1601,0.7874 -10.962,4.2557 -12.8935,7.7072 -2.3042,4.1172 -10.3105,6.2755 -23.279,6.2755 -14.5487,0 -22.4249,2.4976 -29.8381,9.4617 -5.5392,5.204 -15.2565,9.6791 -21.5939,9.9446 -10.2789,0.4307 -11.66,2.3128 -12.7937,17.4359 -1.8514,24.6883 4.9729,38.6673 22.439,45.965 15.4322,6.4481 19.6743,18.4537 11.2306,31.7842 -6.641,10.4842 -72.4759,14 -83.9431,4.4829 -5.0582,-4.1978 -6.0176,-1.2198 -6.0176,18.6746 0,24.1462 -6.7953,37.0694 -19.4918,37.0694 -7.571,0 -8.2476,19.8904 -0.7616,22.3843 3.0849,1.0278 5.4429,9.3937 5.5985,19.8643 0.243,16.4094 5.8875,25.7074 15.7255,25.908 1.7614,0.034 10.6507,-7.6097 19.7545,-16.9902 9.1034,-9.3805 19.7924,-17.0555 23.7531,-17.0555 7.4516,0 43.0446,19.2352 52.4221,28.33 2.9301,2.8417 16.3613,6.3666 29.8471,7.8332 27.8907,3.0331 71.8273,23.5411 89.4831,41.7672 l 11.4698,11.8405 -8.1261,15.089 c -4.4694,8.2991 -13.9919,20.2583 -21.1611,26.5763 -23.2457,20.4852 -32.2225,35.0295 -32.2225,52.2074 0,21.8672 5.6531,35.256 21.1313,50.0479 7.139,6.8221 12.9796,15.4934 12.9796,19.2695 0,3.7762 -10.2371,14.4281 -22.7485,23.6711 -31.1143,22.9854 -40.6922,35.3935 -63.9017,82.7855 -18.1146,36.9883 -35.906,58.441 -48.4665,58.441 -2.0637,0 -7.379,6.2359 -11.8121,13.8576 -10.7271,18.4427 -13.8124,20.1116 -37.3255,20.188 -11.0523,0.034 -29.2803,3.6338 -40.5067,7.9953 -16.7297,6.4996 -37.8047,8.4463 -116.84,10.7926 -53.0357,1.5745 -102.92287,4.7522 -110.86048,7.0616 -7.93718,2.3094 -35.09799,7.874 -60.35669,12.3657 -26.31187,4.679 -52.02083,11.9339 -60.19764,16.9874 -7.84935,4.8514 -17.75686,8.8207 -22.01603,8.8207 -4.2596,0 -15.72982,3.8658 -25.49023,8.5906 -17.27632,8.3634 -27.58506,22.4512 -27.58506,37.6975 0,19.4814 -25.28385,28.7813 -57.56215,21.1726 z m 329.5966,-665.2543 c 8.7401,-8.7402 6.1664,-20.4729 -4.4771,-20.4084 -27.8877,0.1693 -35.5256,9.9928 -15.6526,20.1323 12.8487,6.5557 13.8362,6.5693 20.1297,0.2759 z m 76.1633,-25.1033 c -1.182,-11.9307 -3.3195,-22.8624 -4.7496,-24.2926 -6.241,-6.2408 -33.421,-1.2443 -43.1984,7.9412 -5.6688,5.3257 -10.3071,11.0167 -10.3071,12.6466 0,1.63 9.5937,3.1797 21.3193,3.4438 12.2378,0.2759 21.3194,-1.4104 21.3194,-3.9584 0,-2.4413 1.9187,-3.2529 4.2638,-1.8035 2.3451,1.4493 4.2639,8.2782 4.2639,15.1751 0,6.897 2.0786,12.54 4.619,12.54 2.9924,0 3.8618,-7.6389 2.4697,-21.6922 z m -38.4776,-10.2868 c 1.3495,-3.5177 3.2082,-6.3958 4.13,-6.3958 0.9214,0 1.6757,2.8781 1.6757,6.3958 0,3.5177 -1.8586,6.3958 -4.13,6.3958 -2.2718,0 -3.0256,-2.8781 -1.6757,-6.3958 z m -194.59585,-24.304 c 0,-6.8879 -1.26083,-8.1196 -4.74526,-4.6354 -2.60991,2.6098 -3.45586,6.831 -1.88036,9.3805 4.41054,7.1364 6.62562,5.55 6.62562,-4.7451 z m 89.54112,-30.6041 c 0,-10.2491 -10.93468,-16.4248 -16.72628,-9.4466 -4.02338,4.8481 -3.48187,7.0257 2.63208,10.5826 10.48399,6.0988 14.0942,5.8078 14.0942,-1.136 z M 944.3541,1290.76 c 10.42003,-2.6996 21.48732,-3.9329 24.59397,-2.7408 7.637,2.9306 29.91014,-6.6648 32.76993,-14.1175 1.7401,-4.5335 -1.78103,-6.0054 -14.3654,-6.0054 -9.16858,0 -17.85577,1.9187 -19.30506,4.2639 -1.44929,2.3451 -8.97884,4.2638 -16.73225,4.2638 -13.85543,0 -36.56604,13.5897 -36.56604,21.8805 0,2.3468 2.35579,2.6938 5.32983,0.7849 2.93141,-1.8816 13.855,-5.6299 24.27502,-8.3294 z m 108.7196,-37.9228 c 6.8324,-5.1676 7.0792,-6.2602 1.4147,-6.2602 -10.8989,0 -20.5164,4.8104 -17.9432,8.9745 3.2248,5.2175 6.8231,4.6266 16.5285,-2.7143 z m 202.7846,-66.2059 c 0,-2.2068 -1.9187,-4.0122 -4.2639,-4.0122 -2.3451,0 -4.2638,2.9913 -4.2638,6.6474 0,3.6561 1.9187,5.4616 4.2638,4.0122 2.3452,-1.4494 4.2639,-4.4407 4.2639,-6.6474 z m 983.8779,656.2359 c -11.9734,-4.4178 -19.3733,-20.258 -13.7301,-29.3892 5.5468,-8.9746 30.2973,-16.5801 45.7802,-14.0676 15.7333,2.5532 34.6785,21.8751 29.3989,29.9835 -8.4181,12.9291 -42.6079,20.4254 -61.449,13.4733 z m 300.0548,-362.4283 c -20.7415,-5.9652 -34.6208,-16.1572 -34.6208,-25.423 0,-10.9607 -11.8498,-10.3457 -44.0436,2.2857 -14.4707,5.6777 -30.1477,11.0923 -34.8379,12.0325 -17.3023,3.4684 -78.8815,-34.2476 -78.8815,-48.3134 0,-11.7633 -16.0632,-42.1509 -23.864,-45.1442 -4.5308,-1.7387 -5.6645,-5.9187 -3.8481,-14.1883 3.3855,-15.4156 -6.855,-25.5701 -25.7878,-25.5701 -7.9837,0 -20.6964,-3.7587 -28.2507,-8.3526 -9.0641,-5.5122 -15.4002,-6.9701 -18.6331,-4.2871 -3.116,2.5859 -14.0605,2.4356 -30.073,-0.4128 -37.5237,-6.6752 -40.4619,-8.0386 -44.9279,-20.8492 -2.2581,-6.4779 -8.3312,-13.7151 -13.4956,-16.0827 -18.8185,-8.6275 -31.075,-13.1335 -48.6378,-17.8814 -22.4744,-6.0756 -41.7467,-22.0637 -52.8643,-43.8558 -9.2133,-18.0598 -5.9941,-28.9858 8.5405,-28.9858 3.8814,0 10.8418,-2.5237 15.4676,-5.6082 13.7642,-9.1782 43.8914,-16.3791 52.0895,-12.4504 5.9085,2.8311 67.1814,3.416 67.1814,0.6413 0,-0.3795 12.9046,-1.2288 28.6775,-1.8877 18.6617,-0.7795 30.9463,-3.4667 35.1739,-7.6944 7.3355,-7.3355 49.8876,-24.1753 61.0265,-24.151 15.2868,0.034 34.4661,16.1636 37.3225,31.389 3.6545,19.48 0.6259,27.6682 -17.2371,46.6067 -11.7661,12.4744 -14.9154,19.307 -14.9154,32.3614 0,20.6077 10.7018,24.8541 37.2307,14.7728 14.8677,-5.6499 20.2551,-5.9408 30.6069,-1.653 6.9096,2.8621 13.6,7.9063 14.8672,11.2093 1.2677,3.3029 6.6819,6.0347 12.0322,6.0706 5.3503,0.034 12.514,1.8281 15.9196,3.9826 8.558,5.4137 14.5061,0.7781 8.4164,-6.5594 -3.7598,-4.5301 -3.7854,-7.4714 -0.1023,-11.9076 3.9381,-4.7451 1.4877,-7.2524 -12.5933,-12.8865 -9.7118,-3.886 -16.7702,-9.322 -15.8799,-12.2301 0.8817,-2.8791 10.1411,-9.4398 20.577,-14.5792 18.1248,-8.9261 31.7112,-18.1252 44.9001,-30.4009 3.9057,-3.6353 6.0534,-14.5441 6.0534,-30.745 0,-14.877 2.1721,-26.9206 5.3299,-29.552 11.8403,-9.8668 48.5176,-34.5213 56.6714,-38.0948 4.7866,-2.0977 11.5022,-7.2108 14.9235,-11.3624 3.4213,-4.1515 15.5068,-14.9045 26.8568,-23.8954 23.702,-18.7758 34.6648,-20.1109 67.679,-8.2416 12.3998,4.458 27.3672,9.1773 33.2611,10.4875 8.8629,1.9701 11.628,6.3048 15.9895,25.0643 2.9003,12.4753 5.2736,25.7489 5.2736,29.4971 0,3.7482 3.1335,9.4155 6.9637,12.5941 6.05,5.0212 6.6005,12.781 4.1969,59.1502 -1.5217,29.354 -4.7661,76.3958 -7.2106,104.5373 -2.444,28.1415 -5.4518,63.2237 -6.684,77.9605 l -2.2398,26.7941 -18.8224,8.8475 c -11.1091,5.2221 -22.8731,7.8308 -28.7082,6.3663 -13.58,-3.4083 -25.8735,6.2627 -40.053,31.509 -6.5493,11.6602 -14.7854,21.2634 -18.3031,21.3403 -3.5176,0.077 -10.1202,2.9571 -14.6723,6.4001 -9.2761,7.0158 -31.3748,7.5766 -53.0395,1.3458 z m 152.9239,-123.4904 c -0.043,-5.5939 -1.9256,-13.0488 -4.1986,-16.5665 -3.1864,-4.9304 -4.1484,-3.5279 -4.1987,6.121 -0.043,6.8842 -4.1039,16.8155 -9.0398,22.0696 -4.9358,5.2541 -7.7781,11.4887 -6.3156,13.8547 4.2459,6.8703 23.8256,-14.1319 23.7527,-25.4788 z m -268.5581,-25.228 c 0,-9.85 -11.2264,-15.9288 -17.6162,-9.5388 -2.8261,2.8259 -1.9128,6.5899 2.7229,11.2258 9.4035,9.4033 14.8933,8.7815 14.8933,-1.687 z m 138.1363,-11.9472 c 1.2075,-1.9543 -0.5978,-3.5532 -4.0123,-3.5532 -3.4145,0 -6.2082,1.5989 -6.2082,3.5532 0,1.9543 1.8054,3.5532 4.0123,3.5532 2.2066,0 5.0003,-1.5989 6.2082,-3.5532 z m 120.1459,-48.452 c -3.693,-5.2725 -6.7143,-13.6877 -6.7143,-18.7004 0,-8.7608 -1.5291,-9.0559 -39.4408,-7.6137 -21.6924,0.8252 -40.0577,1.516 -40.8111,1.5351 -0.7539,0.017 1.9128,3.3183 5.9263,7.3315 5.1124,5.1126 14.5044,7.3462 31.3744,7.4618 21.1517,0.145 25.8727,1.8433 38.8446,13.9747 15.6041,14.5933 22.147,12.1813 10.8209,-3.989 z m -113.4721,0.6656 14.7624,-12.6183 -17.2994,0 c -11.8842,0 -19.7152,2.6693 -25.0169,8.5277 -5.1145,5.6514 -13.6069,8.6979 -25.1781,9.0322 -40.2509,1.163 -42.2741,7.0206 -2.537,7.3455 38.9342,0.3185 41.0797,-0.1586 55.269,-12.2871 z m -1106.3113,183.7136 c -4.6902,-1.8984 -12.1831,-7.5155 -16.6503,-12.4825 -4.4673,-4.9671 -12.3247,-9.031 -17.4606,-9.031 -5.1358,0 -12.8107,-3.8375 -17.0554,-8.5278 -4.2447,-4.6902 -12.2787,-8.5277 -17.8532,-8.5277 -17.8029,0 -39.709,-11.5496 -39.709,-20.9356 0,-18.8569 29.6863,-33.7531 55.8251,-28.0121 12.0765,2.6524 12.9792,4.0266 10.73,16.3283 -3.4043,18.6168 0.527,22.6143 25.5977,26.0271 17.2699,2.3509 26.0637,6.7201 42.3235,21.0278 11.2882,9.9332 19.3102,20.0247 17.8264,22.4255 -3.2947,5.331 -31.8571,6.4506 -43.5742,1.708 z m 532.9829,-0.043 c -12.2351,-5.1231 -27.7151,-20.7511 -27.7151,-27.9803 0,-3.397 8.115,-11.299 18.0336,-17.5602 15.8368,-9.9974 25.3452,-12.0099 78.0649,-16.5221 33.0177,-2.8259 64.508,-7.5337 69.9794,-10.4617 6.7761,-3.6265 34.7432,-5.5128 87.7239,-5.9167 69.5572,-0.5304 78.6836,0.2225 86.3577,7.1238 4.7192,4.2443 9.5041,12.5483 10.6332,18.4534 2.7366,14.3156 -4.4745,16.8687 -65.1139,23.0536 -26.9689,2.7508 -53.8312,7.4058 -59.694,10.3446 -5.8629,2.9387 -32.0707,6.5911 -58.2397,8.1164 -26.1691,1.5252 -55.6712,5.6277 -65.5599,9.1168 -19.3281,6.8193 -60.5635,8.0555 -74.4701,2.2324 z m -532.2721,-92.5353 c -6.6495,-6.6493 -1.8198,-14.5259 12.6015,-20.5515 8.4944,-3.5491 17.1287,-6.453 19.1873,-6.453 6.8977,0 3.8384,8.8202 -6.7228,19.3812 -10.345,10.3451 -19.546,13.1434 -25.066,7.6233 z m 36.598,-102.5441 c 6.4491,-0.977 11.7257,-3.7854 11.7257,-6.2409 0,-2.5353 -5.5277,-3.6534 -12.7916,-2.5872 -7.0354,1.0326 -12.7916,0.2908 -12.7916,-1.648 0,-1.939 2.3984,-3.5372 5.3298,-3.5517 2.9314,-0.013 10.8916,-2.9269 17.6899,-6.472 15.0626,-7.8552 16.1366,-7.0037 12.7196,10.0811 -2.4624,12.3119 -4.026,13.4176 -18.1509,12.8338 -12.8815,-0.5324 -13.5032,-0.9348 -3.7309,-2.4151 z m 561.8527,-87.7158 c -4.4549,-5.1871 -11.8753,-13.8364 -16.4901,-19.2206 -9.4035,-10.9721 -15.9106,-52.4268 -11.4305,-72.8233 2.4547,-11.1772 5.3967,-13.2925 24.052,-17.2934 11.6902,-2.5071 23.8797,-4.5584 27.0875,-4.5584 13.7292,0 45.5905,-17.8528 64.7459,-36.2788 11.3713,-10.9384 23.9066,-21.641 27.8562,-23.78353 10.6852,-5.79604 56.164,-4.71071 64.7182,1.54443 6.9343,5.0704 6.6047,6.5915 -4.848,22.3853 -6.7582,9.3199 -20.901,25.1467 -31.4285,35.1708 -14.579,13.882 -20.4751,23.5357 -24.7394,40.5067 -8.0408,32.0008 -11.5985,37.2047 -25.4352,37.2047 -6.6657,0 -14.5078,2.8781 -17.4273,6.3958 -2.9194,3.5176 -8.0595,6.3957 -11.422,6.3957 -3.3629,0 -11.2826,5.4883 -17.5995,12.1961 -6.3169,6.7078 -17.7974,14.3096 -25.5124,16.8928 -12.4151,4.1569 -14.9581,3.6128 -22.1269,-4.7343 z M 1019.442,1063.6476 c -8.2233,-3.2181 -8.2233,-3.2677 0,-5.4022 9.9557,-2.5842 18.9593,-0.048 18.9593,5.3408 0,4.5889 -7.3292,4.6126 -18.9593,0.061 z m -130.27593,-4.5468 c 0,-2.2715 2.87811,-3.0256 6.3958,-1.6757 3.51768,1.3499 6.39579,3.2084 6.39579,4.13 0,0.9217 -2.87811,1.6758 -6.39579,1.6758 -3.51769,0 -6.3958,-1.8585 -6.3958,-4.1301 z M 846.475,1006.3436 c -19.96256,-7.40657 -41.78415,-17.30393 -48.49249,-21.99418 -27.80678,-19.44138 -55.5769,-48.03728 -63.16487,-65.04344 -5.58097,-12.5074 -12.9954,-20.64315 -23.87592,-26.19837 -22.3128,-11.3921 -65.31599,-53.97121 -84.33793,-83.50622 -4.50606,-6.99666 -11.07113,-15.91828 -14.58881,-19.82581 -3.51769,-3.90749 -12.48289,-13.8043 -19.9229,-21.99283 -9.16901,-10.09214 -14.4707,-21.18207 -16.45638,-34.4255 l -2.93013,-19.53723 24.47969,-22.49823 c 29.13583,-26.77791 38.90647,-32.80552 53.50296,-33.00678 14.82374,-0.20424 42.40454,-24.61609 53.96558,-47.76507 5.1823,-10.37645 13.80042,-22.7932 19.15156,-27.59286 11.90812,-10.68073 52.01615,-25.96207 69.4238,-26.45084 7.03537,-0.19741 22.38528,-1.37501 34.1109,-2.61664 38.5402,-4.08103 44.44182,7.37499 45.0298,87.41448 0.48097,65.45532 3.25461,79.23775 16.96506,84.30961 4.85143,1.79462 11.11504,7.72399 13.91938,13.17632 8.56227,16.64672 39.14909,25.1495 87.02076,24.19064 40.82004,-0.81763 82.57864,6.10104 94.08644,15.58847 6.4525,5.31986 75.9138,1.45245 83.4357,-4.64547 2.7037,-2.1918 32.1473,-4.70769 65.4306,-5.59095 56.5026,-1.49939 61.4496,-2.30709 74.6176,-12.18271 13.4201,-10.06493 16.8888,-10.56884 71.6649,-10.41073 54.4581,0.15733 58.6887,0.78945 78.4504,11.72562 11.4886,6.35772 23.2223,11.55946 26.0744,11.55946 7.8493,0 27.655,16.87151 27.655,23.55801 0,3.23602 -16.3554,13.65396 -36.3448,23.15099 -24.5675,11.67207 -43.6184,24.51806 -58.7918,39.64344 -37.4875,37.36845 -48.5407,44.95403 -72.8613,50.00304 -13.4043,2.78268 -27.8422,9.18172 -34.3732,15.23466 -6.1941,5.74014 -13.7769,10.43665 -16.8512,10.43665 -3.0747,0 -12.8594,5.77694 -21.744,12.83764 -15.7724,12.53448 -16.9458,12.77159 -49.6855,10.04123 -35.7938,-2.98513 -53.9413,1.88177 -82.4362,22.10856 -24.2823,17.23623 -55.1493,23.16373 -154.88486,29.74304 -21.86808,1.4426 -47.5327,5.3651 -57.03216,8.7167 -24.46775,8.6328 -38.92566,7.1629 -80.21008,-8.1547 z m 49.08687,-559.13858 c -30.12377,-24.22757 -32.52773,-27.35281 -27.81361,-36.16144 6.4572,-12.06503 51.20047,-19.56367 54.66784,-9.16189 0.76878,2.30581 8.00029,12.46442 16.0705,22.57476 l 14.67323,18.38237 -9.01807,7.46176 c -12.63595,10.4555 -33.3741,9.13405 -48.57989,-3.09556 z"
     id="path3015"
     style="fill:#b3a77d" />
</svg>
