<?xml version="1.0" encoding="utf-8"?>
<!-- Generator: Adobe Illustrator 19.2.1, SVG Export Plug-In . SVG Version: 6.00 Build 0)  -->
<svg version="1.1" id="Слой_1" xmlns="http://www.w3.org/2000/svg" xmlns:xlink="http://www.w3.org/1999/xlink" x="0px" y="0px"
	 viewBox="0 0 380.5 207" style="enable-background:new 0 0 380.5 207;" xml:space="preserve">
<g>
	<rect x="42.1" y="109.8" transform="matrix(0.809 -0.5878 0.5878 0.809 -54.2385 55.1373)" width="31.3" height="2.4"/>
	<polygon points="44.1,149.9 46.4,149.1 35.9,116.9 35.9,116.9 35.5,115.8 36.5,115.2 36.5,115.2 65,94.4 63.6,92.5 33.4,114.4 
		32.7,114.9 33,115.7 	"/>
	<rect x="85.8" y="138.4" transform="matrix(0.309 -0.9511 0.9511 0.309 -57.7046 199.6794)" width="45.6" height="2.4"/>
	<path d="M283.4,47.8H281v39.7l-3.4-2l-0.6-0.3l-0.6,0.3l-1.7,1l0,0l-1.7,1V47.8h-2.4v41.1L227.1,114l-49.3-28.5l-0.6-0.3l-0.6,0.3
		l-1.7,1l0,0l-47.5,27.4L97.9,92.5l-1.4,1.9l29.5,21.4l-17.3,53.1h-1.1H69.6v2.4h37.9h2l0.9,0l0.3-0.8l0.6-1.9h0l17-52.4L177.2,88
		l48.7,28.1V152h2.4v-35.9L277,88l33.8,19.5l1.2-2.1l-28.6-16.5V47.8z M227.1,115.4L227.1,115.4L227.1,115.4L227.1,115.4z
		 M127.3,115.4L127.3,115.4L127.3,115.4L127.3,115.4z"/>
	<polygon points="73,73.1 73.1,73.1 88.6,95.1 92,95.1 92,66.9 88.5,66.9 88.5,89.1 88.3,89.1 72.9,66.9 69.5,66.9 69.5,95.1 
		73,95.1 	"/>
	<polygon points="59.7,177.7 59.5,177.7 44.1,155.6 40.7,155.6 40.7,183.8 44.2,183.8 44.2,161.7 44.3,161.7 59.8,183.8 63.2,183.8 
		63.2,155.6 59.7,155.6 	"/>
	<polygon points="33.2,167.8 17.7,167.8 17.7,155.6 14.2,155.6 14.2,183.8 17.7,183.8 17.7,170.9 33.2,170.9 33.2,183.8 36.7,183.8 
		36.7,155.6 33.2,155.6 	"/>
	<polygon points="234.9,180.5 234.7,180.5 219.3,158.4 215.8,158.4 215.8,186.6 219.3,186.6 219.3,164.5 219.5,164.5 234.9,186.6 
		238.3,186.6 238.3,158.4 234.9,158.4 	"/>
	<polygon points="261.3,170.6 245.9,170.6 245.9,158.4 242.3,158.4 242.3,186.6 245.9,186.6 245.9,173.8 261.3,173.8 261.3,186.6 
		264.8,186.6 264.8,158.4 261.3,158.4 	"/>
	<path d="M272.4,190.6l5-5.2c3.3-3.4,4.3-5,4.3-7.2c0-3-2.8-5.4-6.3-5.4c-3.7,0-6.5,2.6-6.5,6v0h2.4v0c0-2.2,1.7-3.9,4.1-3.9
		c2.2,0,3.9,1.5,3.9,3.4c0,1.6-0.6,2.7-3.3,5.5l-6.9,7.3v1.7h13v-2.2L272.4,190.6L272.4,190.6z"/>
	<path d="M326.9,100.6c-8,0-13,5.6-13,14.6s5,14.6,13,14.6c8,0,13-5.6,13-14.6S334.8,100.6,326.9,100.6z M326.9,126.4
		c-5.8,0-9.4-4.4-9.4-11.3c0-7,3.6-11.3,9.4-11.3c5.8,0,9.4,4.4,9.4,11.3C336.2,122.1,332.6,126.4,326.9,126.4z"/>
	<polygon points="362.8,101 362.8,113.2 347.4,113.2 347.4,101 343.8,101 343.8,129.2 347.4,129.2 347.4,116.4 362.8,116.4 
		362.8,129.2 366.3,129.2 366.3,101 	"/>
	<path d="M277,43.3c8,0,13-5.6,13-14.6s-5-14.6-13-14.6c-8,0-13,5.6-13,14.6S269,43.3,277,43.3z M277,17.4c5.8,0,9.4,4.4,9.4,11.3
		c0,6.9-3.6,11.3-9.4,11.3c-5.8,0-9.4-4.4-9.4-11.3C267.6,21.8,271.2,17.4,277,17.4z"/>
</g>
</svg>
