<?xml version="1.0" encoding="UTF-8" standalone="no"?>
<!-- Created with Inkscape (http://www.inkscape.org/) -->
<svg
   xmlns:svg="http://www.w3.org/2000/svg"
   xmlns="http://www.w3.org/2000/svg"
   version="1.0"
   width="224.92999"
   height="128"
   id="svg2">
  <defs
     id="defs4" />
  <g
     transform="translate(-323.30721,-632.36218)"
     id="layer1">
    <path
       d="M 439.47317,750.07932 C 439.47317,749.39774 440.2313,748.46994 442.82051,745.98292 C 445.19634,743.70086 445.58325,743.21062 445.58063,742.4855 C 445.57427,740.72012 443.03845,739.87211 441.71708,741.19348 C 441.35878,741.55179 441.06563,742.02952 441.06563,742.25512 C 441.06563,742.7058 440.60288,742.78439 440.04193,742.42896 C 439.61835,742.16058 439.84084,741.19698 440.49922,740.4485 C 442.72785,737.91483 447.25309,739.52689 446.82711,742.70275 C 446.64824,744.03632 445.76863,745.17786 443.45025,747.08512 C 442.43065,747.9239 441.59644,748.70579 441.59644,748.82266 C 441.59644,748.93952 442.79079,749.03513 444.25055,749.03513 C 446.90463,749.03513 446.90463,749.03513 446.90463,749.69867 L 446.90463,750.36218 L 443.18891,750.36218 C 440.73588,750.36218 439.47317,750.26606 439.47317,750.07932 z M 410.01267,738.15332 L 410.01267,730.45644 L 411.14066,730.4632 L 412.26866,730.46995 L 416.18272,736.36857 L 420.09679,742.26719 L 420.09752,736.36182 L 420.09825,730.45644 L 421.15989,730.45644 L 422.22153,730.45644 L 422.22153,738.15332 L 422.22153,745.85022 L 421.09354,745.84346 L 419.96554,745.8367 L 416.05148,739.93809 L 412.1374,734.03948 L 412.13667,739.94484 L 412.13595,745.85022 L 411.07431,745.85022 L 410.01267,745.85022 L 410.01267,738.15332 z M 425.14104,738.15332 L 425.14104,730.45644 L 426.20268,730.45644 L 427.26432,730.45644 L 427.26432,733.64136 L 427.26432,736.82628 L 431.24546,736.82628 L 435.22661,736.82628 L 435.22661,733.64136 L 435.22661,730.45644 L 436.28825,730.45644 L 437.34989,730.45644 L 437.34989,738.15332 L 437.34989,745.85022 L 436.28825,745.85022 L 435.22661,745.85022 L 435.22661,742.26719 L 435.22661,738.68415 L 431.24546,738.68415 L 427.26432,738.68415 L 427.26432,742.26719 L 427.26432,745.85022 L 426.20268,745.85022 L 425.14104,745.85022 L 425.14104,738.15332 z M 412.8109,727.8687 C 413.20382,725.67733 415.30377,702.9966 415.12958,702.82574 C 415.01583,702.71418 408.3682,698.84085 400.35709,694.21835 C 387.79092,686.96753 385.7142,685.85164 385.22873,686.08945 C 384.91925,686.24106 379.94837,689.10133 374.18235,692.44561 L 363.69865,698.52614 L 363.34043,697.86884 C 363.03973,697.31711 363.03973,697.17542 363.34043,696.98658 C 363.53745,696.86285 367.90687,694.34032 373.05024,691.38095 L 382.40182,686.0003 L 382.40594,673.19427 L 382.41005,660.38824 L 383.07357,660.38824 L 383.7371,660.38824 L 383.7371,672.7298 C 383.7371,679.51766 383.79392,685.07135 383.86339,685.07135 C 383.93285,685.07135 384.37675,684.83597 384.84985,684.54826 C 385.70577,684.02774 385.71437,684.02774 386.59659,684.54826 C 387.08422,684.83597 387.53607,685.07135 387.60071,685.07135 C 387.66535,685.07135 387.71824,679.51766 387.71824,672.7298 L 387.71824,660.38824 L 388.38176,660.38824 L 389.0453,660.38824 L 389.05379,673.19427 L 389.0623,686.0003 L 402.57947,693.77835 C 414.90435,700.87033 416.15021,701.52812 416.70403,701.23572 C 417.03811,701.05936 423.82062,697.15488 431.77628,692.55912 C 439.73194,687.96334 446.37043,684.19945 446.52849,684.19491 C 446.68656,684.19037 453.59037,688.10188 461.87032,692.88714 L 476.92474,701.58761 L 483.08112,698.04728 C 486.46713,696.1001 491.32761,693.29062 493.88217,691.80398 C 497.99684,689.40945 498.5647,689.14944 498.85862,689.52559 C 499.04108,689.75912 499.18889,690.07665 499.18707,690.23123 C 499.18526,690.3858 496.76672,691.90331 493.81253,693.60349 C 490.85834,695.30367 485.85515,698.18852 482.69433,700.0143 L 476.94737,703.33389 L 462.25777,694.84024 C 454.17849,690.16874 447.32239,686.23011 447.02199,686.08774 C 446.56263,685.87 444.1581,687.16487 431.89363,694.23452 C 423.87344,698.85762 417.22896,702.7181 417.12815,702.81334 C 416.98229,702.95116 418.82162,722.78764 419.41446,727.47058 L 419.55727,728.59857 L 416.11865,728.59857 L 412.68005,728.59857 L 412.8109,727.8687 z M 353.02739,710.7131 C 351.33744,710.16061 349.88808,708.86463 349.04882,707.15556 C 348.39236,705.81876 348.30489,705.34414 348.30489,703.11922 C 348.30489,700.89207 348.39203,700.42038 349.05163,699.07715 C 350.64875,695.82475 353.96241,694.45848 357.61242,695.54744 C 360.42488,696.3865 362.15733,698.84522 362.42441,702.37673 C 362.79469,707.27265 360.15015,710.71359 355.81489,710.9767 C 354.83436,711.0362 353.68256,710.92729 353.02739,710.7131 z M 358.18733,708.26103 C 359.47113,707.23767 360.13152,705.88771 360.30971,703.92254 C 360.58291,700.90971 359.46161,698.47711 357.35964,697.52257 C 354.61582,696.27655 351.54578,697.67824 350.68734,700.56894 C 349.27327,705.33062 351.63858,709.40942 355.66594,709.15415 C 356.87141,709.07774 357.39582,708.89198 358.18733,708.26103 z M 333.30923,703.11922 L 333.30923,695.42234 L 334.37087,695.42234 L 335.43251,695.42234 L 335.43251,698.60726 L 335.43251,701.79218 L 339.41366,701.79218 L 343.39481,701.79218 L 343.39481,698.60726 L 343.39481,695.42234 L 344.45645,695.42234 L 345.51809,695.42234 L 345.51809,703.11922 L 345.51809,710.81612 L 344.45645,710.81612 L 343.39481,710.81612 L 343.39481,707.23309 L 343.39481,703.65005 L 339.41366,703.65005 L 335.43251,703.65005 L 335.43251,707.23309 L 335.43251,710.81612 L 334.37087,710.81612 L 333.30923,710.81612 L 333.30923,703.11922 z M 532.69494,697.01563 C 532.21864,696.72522 531.62584,696.06172 531.37761,695.54118 C 530.98531,694.71852 530.97708,694.56262 531.31468,694.34909 C 531.97405,693.93203 532.28915,694.06378 532.63622,694.90167 C 533.03008,695.85254 533.61759,696.21858 534.7499,696.21858 C 536.31375,696.21858 537.36144,694.43183 536.6152,693.03747 C 536.29803,692.44483 534.75206,691.88807 534.10893,692.13486 C 533.74236,692.27552 533.66548,692.18935 533.73665,691.71759 C 533.79988,691.29859 534.13201,691.01847 534.86146,690.76888 C 536.43509,690.23048 536.80869,689.24803 535.81693,688.25628 C 534.82924,687.26859 532.80309,687.87574 532.32773,689.30187 C 532.24968,689.53598 532.01076,689.59039 531.6139,689.46444 C 530.86024,689.22524 531.03991,688.45184 532.10348,687.35711 C 533.15819,686.27147 535.04985,686.09897 536.32729,686.97193 C 537.79256,687.97326 538.06474,689.82363 536.89418,690.82589 C 536.40988,691.24056 536.42313,691.28254 537.29956,692.10911 C 540.09644,694.7469 536.04845,699.06028 532.69494,697.01563 z M 505.21088,692.91454 C 503.53899,692.31827 502.66553,691.43988 501.63445,689.31791 C 501.01948,688.05234 500.92449,687.52279 500.92034,685.33677 C 500.91503,682.54955 501.46111,680.87498 502.85399,679.4071 C 504.43771,677.7381 507.37892,676.98179 509.77028,677.62865 C 511.15653,678.00362 512.82484,679.50394 513.38468,680.87909 L 513.78495,681.86231 L 512.79114,682.13701 C 512.24455,682.2881 511.76701,682.32339 511.72994,682.21544 C 511.46053,681.43094 510.46564,680.20243 509.74284,679.76173 C 507.8229,678.59112 504.88288,679.49607 503.70234,681.62103 C 503.12496,682.66033 503.03882,683.14272 503.03882,685.33677 C 503.03882,687.53082 503.12496,688.01322 503.70234,689.0525 C 504.58866,690.64788 506.2285,691.52233 508.03502,691.3629 C 509.63087,691.22209 510.54704,690.56611 511.39923,688.95417 C 512.03799,687.74593 512.09742,687.70541 512.99168,687.86866 C 513.5026,687.96191 513.95879,688.07568 514.00544,688.12148 C 514.28632,688.39721 512.75494,691.07167 511.8944,691.80825 C 510.19659,693.26151 507.45581,693.71517 505.21088,692.91454 z M 516.44202,685.33677 L 516.44202,677.63988 L 517.50365,677.63988 L 518.5653,677.63988 L 518.5653,680.8248 L 518.5653,684.00972 L 522.54644,684.00972 L 526.52759,684.00972 L 526.52759,680.8248 L 526.52759,677.63988 L 527.58922,677.63988 L 528.65086,677.63988 L 528.65086,685.33677 L 528.65086,693.03365 L 527.58922,693.03365 L 526.52759,693.03365 L 526.52759,689.45063 L 526.52759,685.86759 L 522.54644,685.86759 L 518.5653,685.86759 L 518.5653,689.45063 L 518.5653,693.03365 L 517.50365,693.03365 L 516.44202,693.03365 L 516.44202,685.33677 z M 445.73869,680.67039 C 445.39045,679.7629 445.56405,679.49775 446.50652,679.49775 C 447.36173,679.49775 447.43547,679.56095 447.43547,680.29399 C 447.43547,680.9952 447.34383,681.09021 446.66763,681.09021 C 446.2123,681.09021 445.83422,680.91934 445.73869,680.67039 z M 445.31219,676.99807 C 445.31219,676.79105 445.23968,676.43274 445.15108,676.20184 C 445.01598,675.84978 445.23018,675.78202 446.47813,675.78202 C 448.00534,675.78202 448.1919,675.94688 447.80519,676.95465 C 447.58911,677.51774 445.31219,677.55739 445.31219,676.99807 z M 444.78137,672.86251 L 444.78137,672.06628 L 446.63924,672.06628 C 447.66105,672.06628 448.49547,672.15586 448.49348,672.26534 C 448.49149,672.37482 448.41783,672.73312 448.32981,673.06158 C 448.18505,673.60177 448.00818,673.65874 446.47556,673.65874 L 444.78137,673.65874 L 444.78137,672.86251 z M 444.25055,669.01407 C 444.25055,668.35622 444.27069,668.35054 446.60243,668.35054 L 448.95431,668.35054 L 448.82747,669.01407 C 448.70418,669.65897 448.6382,669.67759 446.47558,669.67759 C 444.27914,669.67759 444.25055,669.66906 444.25055,669.01407 z M 443.71972,665.16562 L 443.71972,664.36939 L 446.59326,664.36939 L 449.4668,664.36939 L 449.34995,665.16562 L 449.23307,665.96185 L 446.4764,665.96185 L 443.71972,665.96185 L 443.71972,665.16562 z M 471.91608,661.98153 C 471.43977,661.69113 470.84698,661.02762 470.59875,660.50709 C 470.20644,659.68443 470.19823,659.52852 470.53582,659.31499 C 471.19522,658.89793 471.5103,659.02968 471.85736,659.86757 C 472.25123,660.81844 472.83873,661.18447 473.97106,661.18447 C 475.5349,661.18447 476.58259,659.39773 475.83635,658.00337 C 475.51918,657.41073 473.97321,656.85397 473.33006,657.10077 C 472.96351,657.24144 472.88662,657.15525 472.9578,656.68349 C 473.02102,656.26449 473.35314,655.98437 474.08262,655.73479 C 475.65624,655.19638 476.02985,654.21394 475.03808,653.22217 C 474.05038,652.23449 472.02425,652.84165 471.54886,654.26777 C 471.47083,654.50188 471.2319,654.5563 470.83505,654.43034 C 470.08139,654.19114 470.26107,653.41774 471.32461,652.32301 C 472.37933,651.23737 474.27101,651.06487 475.54844,651.93784 C 477.01372,652.93916 477.2859,654.78953 476.11533,655.7918 C 475.63103,656.20646 475.64429,656.24844 476.52071,657.07501 C 479.31757,659.7128 475.2696,664.02618 471.91608,661.98153 z M 443.36584,662.06917 C 443.26852,661.97187 443.18891,661.61357 443.18891,661.27295 C 443.18891,660.65719 443.20786,660.65365 446.50652,660.65365 L 449.82414,660.65365 L 449.82414,661.44988 L 449.82414,662.24612 L 446.68346,662.24612 C 444.9561,662.24612 443.46315,662.16649 443.36584,662.06917 z M 383.2841,657.89654 C 381.59416,657.34405 380.14481,656.04808 379.30555,654.33901 C 378.64908,653.00221 378.5616,652.52758 378.5616,650.30268 C 378.5616,648.07552 378.64874,647.60383 379.30835,646.2606 C 380.90547,643.00819 384.21914,641.64193 387.86913,642.73087 C 390.68161,643.56995 392.41405,646.02866 392.68113,649.56016 C 393.05141,654.45609 390.40687,657.89704 386.07161,658.16014 C 385.09107,658.21965 383.93928,658.11072 383.2841,657.89654 z M 388.44405,655.44447 C 389.72786,654.4211 390.38825,653.07115 390.56644,651.10599 C 390.83963,648.09315 389.71832,645.66055 387.61635,644.70601 C 384.87255,643.45999 381.80251,644.86169 380.94406,647.75238 C 379.52999,652.51406 381.8953,656.59286 385.92266,656.33759 C 387.12812,656.26118 387.65254,656.07542 388.44405,655.44447 z M 444.16663,657.88044 C 442.49471,657.28418 441.62128,656.40579 440.59019,654.28382 C 439.97522,653.01824 439.88023,652.48869 439.87607,650.30268 C 439.87077,647.51546 440.41685,645.84089 441.80973,644.373 C 443.39345,642.704 446.33466,641.94769 448.72602,642.59455 C 450.11227,642.96953 451.78058,644.46984 452.34042,645.845 L 452.7407,646.82821 L 451.74689,647.10291 C 451.20029,647.254 450.72275,647.28929 450.68567,647.18133 C 450.41628,646.39684 449.42138,645.16833 448.69858,644.72763 C 446.77863,643.55703 443.83862,644.46197 442.65809,646.58693 C 442.0807,647.62623 441.99456,648.10862 441.99456,650.30268 C 441.99456,652.49673 442.0807,652.97912 442.65809,654.01841 C 443.54439,655.61378 445.18425,656.48823 446.99075,656.32881 C 448.5866,656.18798 449.50277,655.53202 450.35496,653.92007 C 450.99373,652.71183 451.05316,652.67132 451.94742,652.83456 C 452.45834,652.92781 452.91452,653.04159 452.96118,653.08738 C 453.24205,653.36311 451.71068,656.03757 450.85014,656.77415 C 449.15234,658.22741 446.41154,658.68109 444.16663,657.88044 z M 455.66315,650.30268 L 455.66315,642.60578 L 456.7248,642.60578 L 457.78643,642.60578 L 457.78643,645.7907 L 457.78643,648.97562 L 461.76758,648.97562 L 465.74873,648.97562 L 465.74873,645.7907 L 465.74873,642.60578 L 466.81037,642.60578 L 467.87201,642.60578 L 467.87201,650.30268 L 467.87201,657.99956 L 466.81037,657.99956 L 465.74873,657.99956 L 465.74873,654.41653 L 465.74873,650.83349 L 461.76758,650.83349 L 457.78643,650.83349 L 457.78643,654.41653 L 457.78643,657.99956 L 456.7248,657.99956 L 455.66315,657.99956 L 455.66315,650.30268 z"
       id="path2453"
       style="fill:#000000" />
  </g>
</svg>
