<?xml version="1.0" encoding="UTF-8" standalone="no"?>
<!-- Generator: Adobe Illustrator 12.0.1, SVG Export Plug-In . SVG Version: 6.00 Build 51448)  -->
<svg
   xmlns:dc="http://purl.org/dc/elements/1.1/"
   xmlns:cc="http://web.resource.org/cc/"
   xmlns:rdf="http://www.w3.org/1999/02/22-rdf-syntax-ns#"
   xmlns:svg="http://www.w3.org/2000/svg"
   xmlns="http://www.w3.org/2000/svg"
   xmlns:sodipodi="http://sodipodi.sourceforge.net/DTD/sodipodi-0.dtd"
   xmlns:inkscape="http://www.inkscape.org/namespaces/inkscape"
   version="1.1"
   id="Layer_1"
   width="300.296"
   height="121.185"
   viewBox="0 0 300.296 121.185"
   style="overflow:visible;enable-background:new 0 0 300.296 121.185;"
   xml:space="preserve"
   sodipodi:version="0.32"
   inkscape:version="0.45.1"
   sodipodi:docname="L-Lysin.svg"
   inkscape:output_extension="org.inkscape.output.svg.inkscape"
   sodipodi:docbase="C:\"><metadata
   id="metadata58"><rdf:RDF><cc:Work
       rdf:about=""><dc:format>image/svg+xml</dc:format><dc:type
         rdf:resource="http://purl.org/dc/dcmitype/StillImage" /></cc:Work></rdf:RDF></metadata><defs
   id="defs56" /><sodipodi:namedview
   inkscape:window-height="579"
   inkscape:window-width="801"
   inkscape:pageshadow="2"
   inkscape:pageopacity="0.0"
   guidetolerance="10.0"
   gridtolerance="10.0"
   objecttolerance="10.0"
   borderopacity="1.0"
   bordercolor="#666666"
   pagecolor="#ffffff"
   id="base"
   inkscape:zoom="2.3876443"
   inkscape:cx="150.14799"
   inkscape:cy="60.592499"
   inkscape:window-x="154"
   inkscape:window-y="154"
   inkscape:current-layer="Layer_1" />
<path
   d="M 171.37005,49.280375 L 171.37005,47.426925 L 204.05005,66.236925 L 204.05005,67.186925 L 203.19505,67.614425 L 171.37005,49.280375 z "
   id="polygon3" />
<path
   d="M 204.90505,67.614425 L 204.05005,67.186925 L 204.05005,66.236925 L 236.68255,47.426925 L 236.68255,49.280375 L 204.90505,67.614425 z "
   id="polygon5" />
<g
   id="g7"
   transform="matrix(0.95,0,0,0.95,7.5074,3.029625)">
	<path
   d="M 267.394,68.619 C 267.394,65.766 268.16,63.534 269.692,61.921 C 271.224,60.307 273.202,59.5 275.625,59.5 C 277.212,59.5 278.642,59.879 279.916,60.637 C 281.19,61.396 282.161,62.452 282.829,63.808 C 283.498,65.163 283.832,66.702 283.832,68.42 C 283.832,70.163 283.48,71.722 282.776,73.097 C 282.073,74.472 281.077,75.514 279.787,76.221 C 278.497,76.928 277.106,77.282 275.613,77.282 C 273.995,77.282 272.549,76.891 271.275,76.11 C 270.001,75.329 269.036,74.261 268.379,72.91 C 267.722,71.558 267.394,70.128 267.394,68.619 z M 269.737,68.648 C 269.737,70.718 270.294,72.349 271.408,73.541 C 272.522,74.733 273.92,75.328 275.6,75.328 C 277.312,75.328 278.721,74.726 279.828,73.523 C 280.933,72.32 281.487,70.613 281.487,68.402 C 281.487,67.004 281.251,65.783 280.777,64.74 C 280.304,63.697 279.613,62.888 278.702,62.314 C 277.791,61.74 276.769,61.453 275.636,61.453 C 274.026,61.453 272.64,62.006 271.479,63.111 C 270.318,64.216 269.737,66.063 269.737,68.648 z "
   id="path9" />
	<path
   d="M 286.843,76.984 L 286.843,59.797 L 289.124,59.797 L 289.124,66.86 L 298.015,66.86 L 298.015,59.797 L 300.296,59.797 L 300.296,76.985 L 298.015,76.985 L 298.015,68.891 L 289.124,68.891 L 289.124,76.985 L 286.843,76.985 L 286.843,76.984 z "
   id="path11" />
</g>
<path
   d="M 236.68255,49.280375 L 236.68255,47.426925 L 261.14505,61.534425 L 260.33755,62.959425 L 236.68255,49.280375 z "
   id="polygon13" />
<g
   id="g15"
   transform="matrix(0.95,0,0,0.95,7.5074,3.029625)">
	<path
   d="M 232.994,9.119 C 232.994,6.266 233.76,4.034 235.291,2.421 C 236.824,0.807 238.801,0 241.225,0 C 242.811,0 244.242,0.379 245.516,1.137 C 246.789,1.896 247.76,2.952 248.429,4.308 C 249.098,5.664 249.432,7.202 249.432,8.92 C 249.432,10.663 249.08,12.222 248.376,13.597 C 247.672,14.972 246.676,16.014 245.387,16.721 C 244.096,17.428 242.705,17.782 241.213,17.782 C 239.594,17.782 238.149,17.391 236.875,16.61 C 235.6,15.829 234.635,14.761 233.979,13.41 C 233.323,12.059 232.994,10.628 232.994,9.119 z M 235.338,9.148 C 235.338,11.218 235.895,12.849 237.008,14.041 C 238.123,15.232 239.52,15.828 241.201,15.828 C 242.912,15.828 244.322,15.226 245.428,14.023 C 246.534,12.82 247.088,11.113 247.088,8.902 C 247.088,7.504 246.852,6.283 246.378,5.24 C 245.904,4.197 245.213,3.388 244.303,2.814 C 243.392,2.24 242.369,1.953 241.237,1.953 C 239.626,1.953 238.241,2.506 237.079,3.611 C 235.918,4.717 235.338,6.563 235.338,9.148 z "
   id="path17" />
</g>
<path
   d="M 233.02504,22.062875 L 234.64099,22.062875 L 234.64099,49.992874 L 233.02504,49.992874 L 233.02504,22.062875 z "
   id="rect19" />
<path
   d="M 238.72504,22.062875 L 240.34099,22.062875 L 240.34099,49.992874 L 238.72504,49.992874 L 238.72504,22.062875 z "
   id="rect21" />
<g
   id="g23"
   transform="matrix(0.95,0,0,0.95,7.5074,3.029625)">
	<path
   d="M 200.065,116.685 L 200.065,99.497 L 202.405,99.497 L 211.409,112.986 L 211.409,99.497 L 213.597,99.497 L 213.597,116.685 L 211.257,116.685 L 202.253,103.196 L 202.253,116.685 L 200.065,116.685 z "
   id="path25" />
	<path
   d="M 217.507,116.685 L 217.507,99.497 L 219.788,99.497 L 219.788,106.56 L 228.679,106.56 L 228.679,99.497 L 230.96,99.497 L 230.96,116.685 L 228.679,116.685 L 228.679,108.591 L 219.788,108.591 L 219.788,116.685 L 217.507,116.685 z "
   id="path27" />
</g>
<g
   id="g29"
   transform="matrix(0.95,0,0,0.95,7.5074,3.029625)">
	<path
   d="M 241.742,119.669 L 241.742,121.185 L 233.211,121.185 C 233.199,120.804 233.26,120.438 233.397,120.086 C 233.615,119.506 233.963,118.935 234.445,118.373 C 234.925,117.811 235.616,117.162 236.514,116.426 C 237.91,115.273 238.857,114.362 239.354,113.692 C 239.852,113.022 240.102,112.387 240.102,111.789 C 240.102,111.163 239.876,110.636 239.426,110.205 C 238.976,109.775 238.389,109.56 237.666,109.56 C 236.9,109.56 236.289,109.789 235.83,110.248 C 235.371,110.707 235.139,111.342 235.133,112.153 L 233.508,111.981 C 233.619,110.765 234.039,109.839 234.768,109.203 C 235.496,108.565 236.473,108.247 237.702,108.247 C 238.94,108.247 239.921,108.59 240.643,109.276 C 241.366,109.962 241.727,110.812 241.727,111.826 C 241.727,112.342 241.621,112.849 241.409,113.347 C 241.198,113.845 240.846,114.37 240.356,114.921 C 239.866,115.472 239.052,116.228 237.917,117.189 C 236.966,117.987 236.354,118.527 236.083,118.812 C 235.812,119.095 235.587,119.381 235.411,119.668 L 241.742,119.668 L 241.742,119.669 z "
   id="path31" />
</g>
<path
   d="M 207.661,95.355375 L 200.39255,95.355375 L 203.19505,67.614425 L 204.05005,67.186925 L 204.90505,67.614425 L 207.661,95.355375 z "
   id="polygon33" />
<path
   d="M 171.37005,47.426925 L 171.37005,49.280375 L 138.73755,68.136925 L 138.73755,66.236925 L 171.37005,47.426925 z "
   id="polygon35" />
<path
   d="M 138.73755,66.236925 L 138.73755,68.136925 L 106.106,49.280375 L 106.106,47.426925 L 138.73755,66.236925 z "
   id="polygon37" />
<path
   d="M 106.106,47.426925 L 106.106,49.280375 L 73.42505,68.136925 L 73.42505,66.236925 L 106.106,47.426925 z "
   id="polygon39" />
<g
   id="g41"
   transform="matrix(0.95,0,0,0.95,7.5074,3.029625)">
	<path
   d="M 0,57.135 L 0,39.947 L 2.281,39.947 L 2.281,47.01 L 11.172,47.01 L 11.172,39.947 L 13.453,39.947 L 13.453,57.135 L 11.172,57.135 L 11.172,49.041 L 2.281,49.041 L 2.281,57.135 L 0,57.135 L 0,57.135 z "
   id="path43" />
</g>
<g
   id="g45"
   transform="matrix(0.95,0,0,0.95,7.5074,3.029625)">
	<path
   d="M 23.774,60.119 L 23.774,61.635 L 15.243,61.635 C 15.231,61.254 15.293,60.888 15.429,60.536 C 15.647,59.956 15.996,59.385 16.477,58.823 C 16.957,58.261 17.647,57.612 18.547,56.876 C 19.943,55.723 20.889,54.812 21.387,54.142 C 21.885,53.472 22.134,52.837 22.134,52.239 C 22.134,51.613 21.909,51.086 21.459,50.655 C 21.009,50.225 20.422,50.01 19.699,50.01 C 18.933,50.01 18.322,50.239 17.863,50.698 C 17.404,51.157 17.172,51.792 17.166,52.603 L 15.541,52.431 C 15.652,51.215 16.072,50.289 16.801,49.653 C 17.529,49.015 18.507,48.697 19.735,48.697 C 20.974,48.697 21.955,49.04 22.677,49.726 C 23.399,50.412 23.76,51.262 23.76,52.276 C 23.76,52.792 23.654,53.299 23.443,53.797 C 23.232,54.295 22.88,54.82 22.39,55.371 C 21.899,55.922 21.086,56.678 19.95,57.639 C 18.999,58.437 18.388,58.977 18.117,59.262 C 17.846,59.545 17.621,59.831 17.444,60.118 L 23.774,60.118 L 23.774,60.119 z "
   id="path47" />
</g>
<g
   id="g49"
   transform="matrix(0.95,0,0,0.95,7.5074,3.029625)">
	<path
   d="M 25.773,57.135 L 25.773,39.947 L 28.113,39.947 L 37.117,53.436 L 37.117,39.947 L 39.305,39.947 L 39.305,57.135 L 36.965,57.135 L 27.96,43.646 L 27.96,57.135 L 25.773,57.135 L 25.773,57.135 z "
   id="path51" />
</g>
<path
   d="M 73.42505,66.236925 L 73.42505,68.136925 L 50.10255,54.646925 L 50.911,53.221925 L 73.42505,66.236925 z "
   id="polygon53" />
</svg>