<?xml version="1.0" encoding="UTF-8" standalone="no"?>
<!-- Generator: Adobe Illustrator 12.0.1, SVG Export Plug-In . SVG Version: 6.00 Build 51448)  -->
<svg
   xmlns:dc="http://purl.org/dc/elements/1.1/"
   xmlns:cc="http://web.resource.org/cc/"
   xmlns:rdf="http://www.w3.org/1999/02/22-rdf-syntax-ns#"
   xmlns:svg="http://www.w3.org/2000/svg"
   xmlns="http://www.w3.org/2000/svg"
   xmlns:sodipodi="http://sodipodi.sourceforge.net/DTD/sodipodi-0.dtd"
   xmlns:inkscape="http://www.inkscape.org/namespaces/inkscape"
   version="1.1"
   id="Layer_1"
   width="277.009"
   height="124.684"
   viewBox="0 0 277.009 124.684"
   style="overflow:visible;enable-background:new 0 0 277.009 124.684;"
   xml:space="preserve"
   sodipodi:version="0.32"
   inkscape:version="0.44.1"
   sodipodi:docname="Tryptophan.svg"
   sodipodi:docbase="E:\Eigene Dateien"><metadata
   id="metadata74"><rdf:RDF><cc:Work
       rdf:about=""><dc:format>image/svg+xml</dc:format><dc:type
         rdf:resource="http://purl.org/dc/dcmitype/StillImage" /></cc:Work></rdf:RDF></metadata><defs
   id="defs72" /><sodipodi:namedview
   inkscape:window-height="573"
   inkscape:window-width="925"
   inkscape:pageshadow="2"
   inkscape:pageopacity="0.0"
   guidetolerance="10.0"
   gridtolerance="10.0"
   objecttolerance="10.0"
   borderopacity="1.0"
   bordercolor="#666666"
   pagecolor="#ffffff"
   id="base"
   inkscape:zoom="3.0316641"
   inkscape:cx="138.5045"
   inkscape:cy="62.341999"
   inkscape:window-x="44"
   inkscape:window-y="44"
   inkscape:current-layer="Layer_1" />
<path
   d="M 148.66523,49.3669 L 148.66523,47.5144 L 181.34618,66.3244 L 181.34618,67.2744 L 180.53773,67.7494 L 148.66523,49.3669 z "
   id="polygon3" />
<path
   d="M 182.15273,67.7494 L 181.34618,67.2744 L 181.34618,66.3244 L 213.97773,47.5144 L 213.97773,49.3669 L 182.15273,67.7494 z "
   id="polygon5" />
<g
   id="g7"
   transform="matrix(0.95,0,0,0.95,6.925225,3.1171)">
	<path
   d="M 244.106,68.619 C 244.106,65.767 244.872,63.534 246.404,61.92 C 247.936,60.307 249.914,59.5 252.337,59.5 C 253.924,59.5 255.355,59.879 256.628,60.637 C 257.901,61.395 258.873,62.452 259.542,63.808 C 260.21,65.164 260.544,66.702 260.544,68.42 C 260.544,70.162 260.192,71.722 259.489,73.097 C 258.785,74.473 257.788,75.514 256.499,76.221 C 255.209,76.928 253.817,77.282 252.325,77.282 C 250.707,77.282 249.261,76.891 247.987,76.11 C 246.713,75.329 245.748,74.262 245.091,72.91 C 244.435,71.558 244.106,70.127 244.106,68.619 z M 246.45,68.648 C 246.45,70.718 247.007,72.349 248.121,73.541 C 249.235,74.733 250.633,75.328 252.313,75.328 C 254.025,75.328 255.434,74.726 256.541,73.523 C 257.648,72.32 258.2,70.613 258.2,68.402 C 258.2,67.004 257.964,65.783 257.491,64.74 C 257.017,63.697 256.325,62.888 255.415,62.314 C 254.505,61.74 253.482,61.453 252.349,61.453 C 250.739,61.453 249.353,62.006 248.192,63.111 C 247.031,64.216 246.45,66.063 246.45,68.648 z "
   id="path9" />
	<path
   d="M 263.556,76.984 L 263.556,59.797 L 265.837,59.797 L 265.837,66.86 L 274.728,66.86 L 274.728,59.797 L 277.009,59.797 L 277.009,76.985 L 274.728,76.985 L 274.728,68.891 L 265.837,68.891 L 265.837,76.985 L 263.556,76.985 L 263.556,76.984 z "
   id="path11" />
</g>
<path
   d="M 213.97773,49.3669 L 213.97773,47.5144 L 238.44023,61.6219 L 237.63368,63.0469 L 213.97773,49.3669 z "
   id="polygon13" />
<g
   id="g15"
   transform="matrix(0.95,0,0,0.95,6.925225,3.1171)">
	<path
   d="M 209.706,9.119 C 209.706,6.267 210.472,4.034 212.005,2.42 C 213.536,0.807 215.515,0 217.937,0 C 219.525,0 220.955,0.379 222.228,1.137 C 223.502,1.895 224.474,2.952 225.142,4.308 C 225.81,5.664 226.144,7.202 226.144,8.92 C 226.144,10.662 225.792,12.222 225.089,13.597 C 224.386,14.973 223.389,16.014 222.099,16.721 C 220.81,17.428 219.418,17.782 217.925,17.782 C 216.308,17.782 214.861,17.391 213.587,16.61 C 212.313,15.829 211.349,14.762 210.691,13.41 C 210.034,12.058 209.706,10.627 209.706,9.119 z M 212.05,9.148 C 212.05,11.218 212.607,12.849 213.722,14.041 C 214.835,15.232 216.234,15.828 217.913,15.828 C 219.626,15.828 221.034,15.226 222.142,14.023 C 223.247,12.82 223.8,11.113 223.8,8.902 C 223.8,7.504 223.564,6.283 223.091,5.24 C 222.618,4.197 221.926,3.388 221.015,2.814 C 220.105,2.24 219.083,1.953 217.949,1.953 C 216.34,1.953 214.953,2.506 213.793,3.611 C 212.63,4.717 212.05,6.563 212.05,9.148 z "
   id="path17" />
</g>
<path
   d="M 210.32118,22.1494 L 211.93523,22.1494 L 211.93523,50.078451 L 210.32118,50.078451 L 210.32118,22.1494 z "
   id="rect19" />
<path
   d="M 216.02118,22.1494 L 217.63523,22.1494 L 217.63523,50.078451 L 216.02118,50.078451 L 216.02118,22.1494 z "
   id="rect21" />
<g
   id="g23"
   transform="matrix(0.95,0,0,0.95,6.925225,3.1171)">
	<path
   d="M 176.778,116.684 L 176.778,99.496 L 179.118,99.496 L 188.122,112.984 L 188.122,99.496 L 190.31,99.496 L 190.31,116.684 L 187.97,116.684 L 178.966,103.195 L 178.966,116.684 L 176.778,116.684 z "
   id="path25" />
	<path
   d="M 194.22,116.684 L 194.22,99.496 L 196.501,99.496 L 196.501,106.559 L 205.392,106.559 L 205.392,99.496 L 207.673,99.496 L 207.673,116.684 L 205.392,116.684 L 205.392,108.59 L 196.501,108.59 L 196.501,116.684 L 194.22,116.684 z "
   id="path27" />
</g>
<g
   id="g29"
   transform="matrix(0.95,0,0,0.95,6.925225,3.1171)">
	<path
   d="M 217.454,119.668 L 217.454,121.184 L 208.923,121.184 C 208.911,120.803 208.974,120.437 209.109,120.084 C 209.328,119.504 209.677,118.934 210.158,118.372 C 210.639,117.81 211.328,117.161 212.228,116.424 C 213.623,115.272 214.57,114.361 215.068,113.691 C 215.566,113.021 215.814,112.387 215.814,111.788 C 215.814,111.162 215.589,110.634 215.139,110.204 C 214.689,109.774 214.103,109.559 213.378,109.559 C 212.612,109.559 212.001,109.788 211.542,110.247 C 211.083,110.705 210.851,111.341 210.845,112.152 L 209.22,111.98 C 209.331,110.765 209.751,109.838 210.48,109.201 C 211.209,108.564 212.187,108.246 213.414,108.246 C 214.653,108.246 215.635,108.589 216.356,109.275 C 217.078,109.961 217.439,110.81 217.439,111.825 C 217.439,112.342 217.334,112.848 217.123,113.346 C 216.911,113.844 216.56,114.368 216.07,114.92 C 215.578,115.471 214.765,116.228 213.629,117.189 C 212.679,117.986 212.068,118.527 211.797,118.81 C 211.526,119.095 211.301,119.38 211.123,119.667 L 217.454,119.667 L 217.454,119.668 z "
   id="path31" />
</g>
<path
   d="M 182.15273,95.4419 L 180.53773,95.4419 L 180.53773,67.7494 L 181.34618,67.2744 L 182.15273,67.7494 L 182.15273,95.4419 z "
   id="polygon33" />
<path
   d="M 116.79273,67.7969 L 116.03273,67.2744 L 115.98523,66.3719 L 148.66523,47.5144 L 148.66523,49.3669 L 116.79273,67.7969 z "
   id="polygon35" />
<g
   id="g37"
   transform="matrix(0.95,0,0,0.95,6.925225,3.1171)">
	<path
   d="M 47.738,124.684 L 47.738,107.496 L 50.019,107.496 L 50.019,114.559 L 58.91,114.559 L 58.91,107.496 L 61.191,107.496 L 61.191,124.684 L 58.91,124.684 L 58.91,116.59 L 50.019,116.59 L 50.019,124.684 L 47.738,124.684 z "
   id="path39" />
	<path
   d="M 64.96,124.684 L 64.96,107.496 L 67.3,107.496 L 76.304,120.984 L 76.304,107.496 L 78.492,107.496 L 78.492,124.684 L 76.152,124.684 L 67.148,111.195 L 67.148,124.684 L 64.96,124.684 z "
   id="path41" />
</g>
<path
   d="M 81.785225,52.9294 L 81.595225,51.9319 L 82.260225,51.3619 L 115.98523,66.3719 L 116.03273,67.2744 L 115.17773,67.7969 L 81.785225,52.9294 z "
   id="polygon43" />
<path
   d="M 57.370225,80.0519 L 56.372725,79.9569 L 56.087725,79.0544 L 80.692725,51.7419 L 81.595225,51.9319 L 81.785225,52.9294 L 57.370225,80.0519 z "
   id="polygon45" />
<path
   d="M 54.947725,74.3044 L 53.760225,73.2119 L 74.612725,50.0319 L 75.800225,51.1244 L 54.947725,74.3044 z "
   id="polygon47" />
<path
   d="M 70.005225,101.9969 L 68.627725,102.8044 L 55.850225,80.6694 L 56.372725,79.9569 L 57.370225,80.0519 L 70.005225,101.9969 z "
   id="polygon49" />
<path
   d="M 111.33023,104.0869 L 112.85023,105.4644 L 84.397725,111.4969 L 84.065225,109.9294 L 111.33023,104.0869 z "
   id="polygon51" />
<path
   d="M 115.17773,67.7969 L 116.03273,67.2744 L 116.79273,67.7969 L 112.85023,105.4644 L 111.33023,104.0869 L 115.17773,67.7969 z "
   id="polygon53" />
<path
   d="M 109.19273,70.6944 L 110.76023,70.8369 L 107.67273,100.1919 L 106.10523,100.0019 L 109.19273,70.6944 z "
   id="polygon55" />
<path
   d="M 69.292725,16.7819 L 70.575225,15.4044 L 82.260225,51.3619 L 81.595225,51.9319 L 80.692725,51.7419 L 69.292725,16.7819 z "
   id="polygon57" />
<path
   d="M 33.335225,9.1344 L 32.765225,7.3769 L 70.575225,15.4044 L 69.292725,16.7819 L 33.335225,9.1344 z "
   id="polygon59" />
<path
   d="M 65.729879,20.15717 L 65.397329,21.724882 L 34.905465,15.256817 L 35.238015,13.689105 L 65.729879,20.15717 z "
   id="rect61" />
<path
   d="M 8.730225,36.4469 L 6.925225,36.0669 L 32.765225,7.3769 L 33.335225,9.1344 L 8.730225,36.4469 z "
   id="polygon63" />
<path
   d="M 20.130225,71.4544 L 18.847725,72.8319 L 6.925225,36.0669 L 8.730225,36.4469 L 20.130225,71.4544 z "
   id="polygon65" />
<path
   d="M 24.642725,67.0369 L 23.075225,67.5119 L 13.432725,37.8719 L 15.000225,37.3969 L 24.642725,67.0369 z "
   id="polygon67" />
<path
   d="M 56.087725,79.0544 L 56.372725,79.9569 L 55.850225,80.6694 L 18.847725,72.8319 L 20.130225,71.4544 L 56.087725,79.0544 z "
   id="polygon69" />
</svg>