<?xml version="1.0" encoding="UTF-8" standalone="no"?>
<!-- Generator: Adobe Illustrator 12.0.1, SVG Export Plug-In . SVG Version: 6.00 Build 51448)  -->
<svg
   xmlns:dc="http://purl.org/dc/elements/1.1/"
   xmlns:cc="http://web.resource.org/cc/"
   xmlns:rdf="http://www.w3.org/1999/02/22-rdf-syntax-ns#"
   xmlns:svg="http://www.w3.org/2000/svg"
   xmlns="http://www.w3.org/2000/svg"
   xmlns:sodipodi="http://sodipodi.sourceforge.net/DTD/sodipodi-0.dtd"
   xmlns:inkscape="http://www.inkscape.org/namespaces/inkscape"
   version="1.1"
   id="Layer_1"
   width="289.921"
   height="136.831"
   viewBox="0 0 289.921 136.831"
   style="overflow:visible;enable-background:new 0 0 289.921 136.831;"
   xml:space="preserve"
   sodipodi:version="0.32"
   inkscape:version="0.45.1"
   sodipodi:docname="L-Tyrosin.svg"
   inkscape:output_extension="org.inkscape.output.svg.inkscape"
   sodipodi:docbase="C:\"><metadata
   id="metadata66"><rdf:RDF><cc:Work
       rdf:about=""><dc:format>image/svg+xml</dc:format><dc:type
         rdf:resource="http://purl.org/dc/dcmitype/StillImage" /></cc:Work></rdf:RDF></metadata><defs
   id="defs64" /><sodipodi:namedview
   inkscape:window-height="579"
   inkscape:window-width="801"
   inkscape:pageshadow="2"
   inkscape:pageopacity="0.0"
   guidetolerance="10.0"
   gridtolerance="10.0"
   objecttolerance="10.0"
   borderopacity="1.0"
   bordercolor="#666666"
   pagecolor="#ffffff"
   id="base"
   inkscape:zoom="2.4730876"
   inkscape:cx="144.96049"
   inkscape:cy="68.415497"
   inkscape:window-x="110"
   inkscape:window-y="110"
   inkscape:current-layer="Layer_1" />
<path
   d="M 161.25443,49.67155 L 161.25443,47.8181 L 193.93538,66.6281 L 193.93538,67.5781 L 193.07942,68.0056 L 161.25443,49.67155 z "
   id="polygon3" />
<path
   d="M 194.78943,68.0056 L 193.93538,67.5781 L 193.93538,66.6281 L 226.56693,47.8181 L 226.56693,49.67155 L 194.78943,68.0056 z "
   id="polygon5" />
<g
   id="g7"
   transform="matrix(0.95,0,0,0.95,7.248025,3.4208)">
	<path
   d="M 257.019,68.619 C 257.019,65.766 257.785,63.534 259.317,61.921 C 260.849,60.307 262.827,59.5 265.25,59.5 C 266.837,59.5 268.267,59.879 269.541,60.637 C 270.815,61.396 271.786,62.452 272.454,63.808 C 273.123,65.163 273.457,66.702 273.457,68.42 C 273.457,70.163 273.105,71.722 272.401,73.097 C 271.698,74.472 270.702,75.514 269.412,76.221 C 268.122,76.928 266.731,77.282 265.238,77.282 C 263.62,77.282 262.174,76.891 260.9,76.11 C 259.626,75.329 258.661,74.261 258.004,72.91 C 257.347,71.558 257.019,70.128 257.019,68.619 z M 259.362,68.648 C 259.362,70.718 259.919,72.349 261.033,73.541 C 262.147,74.733 263.545,75.328 265.225,75.328 C 266.937,75.328 268.346,74.726 269.453,73.523 C 270.558,72.32 271.112,70.613 271.112,68.402 C 271.112,67.004 270.876,65.783 270.402,64.74 C 269.929,63.697 269.238,62.888 268.327,62.314 C 267.416,61.74 266.394,61.453 265.261,61.453 C 263.651,61.453 262.265,62.006 261.104,63.111 C 259.943,64.216 259.362,66.063 259.362,68.648 z "
   id="path9" />
	<path
   d="M 276.468,76.984 L 276.468,59.797 L 278.749,59.797 L 278.749,66.86 L 287.64,66.86 L 287.64,59.797 L 289.921,59.797 L 289.921,76.985 L 287.64,76.985 L 287.64,68.891 L 278.749,68.891 L 278.749,76.985 L 276.468,76.985 L 276.468,76.984 z "
   id="path11" />
</g>
<path
   d="M 226.56693,49.67155 L 226.56693,47.8181 L 251.02943,61.9256 L 250.22288,63.3506 L 226.56693,49.67155 z "
   id="polygon13" />
<g
   id="g15"
   transform="matrix(0.95,0,0,0.95,7.248025,3.4208)">
	<path
   d="M 222.619,9.119 C 222.619,6.266 223.385,4.034 224.916,2.421 C 226.449,0.807 228.426,0 230.85,0 C 232.436,0 233.867,0.379 235.141,1.137 C 236.414,1.896 237.385,2.952 238.054,4.308 C 238.723,5.664 239.057,7.202 239.057,8.92 C 239.057,10.663 238.705,12.222 238.001,13.597 C 237.297,14.972 236.301,16.014 235.012,16.721 C 233.721,17.428 232.33,17.782 230.838,17.782 C 229.219,17.782 227.774,17.391 226.5,16.61 C 225.225,15.829 224.26,14.761 223.604,13.41 C 222.948,12.059 222.619,10.628 222.619,9.119 z M 224.963,9.148 C 224.963,11.218 225.52,12.849 226.633,14.041 C 227.748,15.232 229.145,15.828 230.826,15.828 C 232.537,15.828 233.947,15.226 235.053,14.023 C 236.159,12.82 236.713,11.113 236.713,8.902 C 236.713,7.504 236.477,6.283 236.003,5.24 C 235.529,4.197 234.838,3.388 233.928,2.814 C 233.017,2.24 231.994,1.953 230.862,1.953 C 229.251,1.953 227.866,2.506 226.704,3.611 C 225.543,4.717 224.963,6.563 224.963,9.148 z "
   id="path17" />
</g>
<path
   d="M 222.91038,22.4531 L 224.52538,22.4531 L 224.52538,50.3831 L 222.91038,50.3831 L 222.91038,22.4531 z "
   id="rect19" />
<path
   d="M 228.61038,22.4531 L 230.22537,22.4531 L 230.22537,50.3831 L 228.61038,50.3831 L 228.61038,22.4531 z "
   id="rect21" />
<g
   id="g23"
   transform="matrix(0.95,0,0,0.95,7.248025,3.4208)">
	<path
   d="M 189.69,116.685 L 189.69,99.497 L 192.03,99.497 L 201.034,112.986 L 201.034,99.497 L 203.222,99.497 L 203.222,116.685 L 200.882,116.685 L 191.878,103.196 L 191.878,116.685 L 189.69,116.685 z "
   id="path25" />
	<path
   d="M 207.132,116.685 L 207.132,99.497 L 209.413,99.497 L 209.413,106.56 L 218.304,106.56 L 218.304,99.497 L 220.585,99.497 L 220.585,116.685 L 218.304,116.685 L 218.304,108.591 L 209.413,108.591 L 209.413,116.685 L 207.132,116.685 z "
   id="path27" />
</g>
<g
   id="g29"
   transform="matrix(0.95,0,0,0.95,7.248025,3.4208)">
	<path
   d="M 231.367,119.669 L 231.367,121.185 L 222.836,121.185 C 222.824,120.804 222.885,120.438 223.022,120.086 C 223.24,119.506 223.588,118.935 224.07,118.373 C 224.55,117.811 225.241,117.162 226.139,116.426 C 227.535,115.273 228.482,114.362 228.979,113.692 C 229.477,113.022 229.727,112.387 229.727,111.789 C 229.727,111.163 229.501,110.636 229.051,110.205 C 228.601,109.775 228.014,109.56 227.291,109.56 C 226.525,109.56 225.914,109.789 225.455,110.248 C 224.996,110.707 224.764,111.342 224.758,112.153 L 223.133,111.981 C 223.244,110.765 223.664,109.839 224.393,109.203 C 225.121,108.565 226.098,108.247 227.327,108.247 C 228.565,108.247 229.546,108.59 230.268,109.276 C 230.991,109.962 231.352,110.812 231.352,111.826 C 231.352,112.342 231.246,112.849 231.034,113.347 C 230.823,113.845 230.471,114.37 229.981,114.921 C 229.491,115.472 228.677,116.228 227.542,117.189 C 226.591,117.987 225.979,118.527 225.708,118.812 C 225.437,119.095 225.212,119.381 225.036,119.668 L 231.367,119.668 L 231.367,119.669 z "
   id="path31" />
</g>
<path
   d="M 197.54537,95.74655 L 190.27693,95.74655 L 193.07942,68.0056 L 193.93538,67.5781 L 194.78943,68.0056 L 197.54537,95.74655 z "
   id="polygon33" />
<path
   d="M 129.42943,68.0531 L 128.62288,67.5781 L 128.62288,66.6281 L 161.25443,47.8181 L 161.25443,49.67155 L 129.42943,68.0531 z "
   id="polygon35" />
<path
   d="M 95.989425,49.67155 L 95.989425,47.8181 L 128.62288,66.6281 L 128.62288,67.5781 L 127.81443,68.0531 L 95.989425,49.67155 z "
   id="polygon37" />
<path
   d="M 95.562875,55.9406 L 96.370375,54.56405 L 123.35038,70.1431 L 122.54193,71.5681 L 95.562875,55.9406 z "
   id="polygon39" />
<path
   d="M 64.116925,68.0531 L 62.501925,67.1031 L 95.989425,47.8181 L 95.989425,49.67155 L 64.116925,68.0531 z "
   id="polygon41" />
<path
   d="M 64.116925,104.8181 L 63.310375,105.2931 L 62.501925,104.8181 L 62.501925,67.1031 L 64.116925,68.0531 L 64.116925,104.8181 z "
   id="polygon43" />
<path
   d="M 68.154425,70.855601 L 69.769425,70.855601 L 69.769425,102.0156 L 68.154425,102.0156 L 68.154425,70.855601 z "
   id="rect45" />
<path
   d="M 95.989425,123.2006 L 95.989425,125.0531 L 63.310375,106.19655 L 63.310375,105.2931 L 64.116925,104.8181 L 95.989425,123.2006 z "
   id="polygon47" />
<path
   d="M 127.81443,104.8181 L 129.42943,105.7681 L 95.989425,125.0531 L 95.989425,123.2006 L 127.81443,104.8181 z "
   id="polygon49" />
<path
   d="M 122.54193,101.3031 L 123.35038,102.7281 L 96.370375,118.30905 L 95.562875,116.88405 L 122.54193,101.3031 z "
   id="polygon51" />
<path
   d="M 127.81443,68.0531 L 128.62288,67.5781 L 129.42943,68.0531 L 129.42943,105.7681 L 127.81443,104.8181 L 127.81443,68.0531 z "
   id="polygon53" />
<g
   id="g55"
   transform="matrix(0.95,0,0,0.95,7.248025,3.4208)">
	<path
   d="M 0,136.534 L 0,119.346 L 2.281,119.346 L 2.281,126.409 L 11.172,126.409 L 11.172,119.346 L 13.453,119.346 L 13.453,136.534 L 11.172,136.534 L 11.172,128.44 L 2.281,128.44 L 2.281,136.534 L 0,136.534 z "
   id="path57" />
	<path
   d="M 16.551,128.169 C 16.551,125.316 17.317,123.084 18.849,121.471 C 20.381,119.857 22.359,119.05 24.782,119.05 C 26.369,119.05 27.799,119.429 29.073,120.187 C 30.347,120.946 31.318,122.002 31.987,123.358 C 32.656,124.714 32.989,126.252 32.989,127.97 C 32.989,129.713 32.637,131.272 31.934,132.647 C 31.231,134.022 30.234,135.064 28.944,135.771 C 27.654,136.478 26.263,136.832 24.77,136.832 C 23.152,136.832 21.706,136.441 20.432,135.66 C 19.158,134.879 18.193,133.811 17.536,132.46 C 16.879,131.109 16.551,129.678 16.551,128.169 z M 18.895,128.198 C 18.895,130.268 19.452,131.899 20.566,133.091 C 21.68,134.283 23.078,134.878 24.758,134.878 C 26.47,134.878 27.879,134.276 28.986,133.073 C 30.092,131.87 30.645,130.163 30.645,127.952 C 30.645,126.554 30.409,125.333 29.936,124.29 C 29.463,123.247 28.771,122.438 27.86,121.864 C 26.949,121.29 25.927,121.003 24.794,121.003 C 23.184,121.003 21.798,121.556 20.637,122.661 C 19.476,123.766 18.895,125.612 18.895,128.198 z "
   id="path59" />
</g>
<path
   d="M 39.749425,119.8281 L 38.941925,118.4506 L 62.501925,104.8181 L 63.310375,105.2931 L 63.310375,106.19655 L 39.749425,119.8281 z "
   id="polygon61" />
</svg>