<?xml version="1.0" encoding="UTF-8" standalone="no"?>
<!-- Created with Inkscape (http://www.inkscape.org/) -->

<svg
   xmlns:dc="http://purl.org/dc/elements/1.1/"
   xmlns:cc="http://creativecommons.org/ns#"
   xmlns:rdf="http://www.w3.org/1999/02/22-rdf-syntax-ns#"
   xmlns:svg="http://www.w3.org/2000/svg"
   xmlns="http://www.w3.org/2000/svg"
   xmlns:sodipodi="http://sodipodi.sourceforge.net/DTD/sodipodi-0.dtd"
   xmlns:inkscape="http://www.inkscape.org/namespaces/inkscape"
   width="651.42859"
   height="651.42859"
   id="svg3012"
   version="1.1"
   inkscape:version="0.48.4 r9939"
   sodipodi:docname="galtSignatureNewEra.svg"
   inkscape:export-filename="/home/chris/Documents/Art/Digital Art/galt new era signature cursive/galtSignatureNewEraCircle.png"
   inkscape:export-xdpi="69.078949"
   inkscape:export-ydpi="69.078949">
  <defs
     id="defs3014" />
  <sodipodi:namedview
     id="base"
     pagecolor="#ffffff"
     bordercolor="#666666"
     borderopacity="1.0"
     inkscape:pageopacity="0.0"
     inkscape:pageshadow="2"
     inkscape:zoom="0.35"
     inkscape:cx="444.71428"
     inkscape:cy="260.85713"
     inkscape:document-units="px"
     inkscape:current-layer="layer1"
     showgrid="false"
     inkscape:window-width="1855"
     inkscape:window-height="1056"
     inkscape:window-x="65"
     inkscape:window-y="24"
     inkscape:window-maximized="1"
     fit-margin-top="0"
     fit-margin-left="0"
     fit-margin-right="0"
     fit-margin-bottom="0" />
  <metadata
     id="metadata3017">
    <rdf:RDF>
      <cc:Work
         rdf:about="">
        <dc:format>image/svg+xml</dc:format>
        <dc:type
           rdf:resource="http://purl.org/dc/dcmitype/StillImage" />
        <dc:title></dc:title>
      </cc:Work>
    </rdf:RDF>
  </metadata>
  <g
     inkscape:label="Layer 1"
     inkscape:groupmode="layer"
     id="layer1"
     transform="translate(69.714287,-141.79072)">
    <path
       sodipodi:type="arc"
       style="fill:#000000;fill-opacity:1;stroke:none"
       id="path2988"
       sodipodi:cx="430"
       sodipodi:cy="467.14282"
       sodipodi:rx="375.71429"
       sodipodi:ry="375.71429"
       d="M 805.71429,467.14282 C 805.71429,674.6441 637.50128,842.85712 430,842.85712 222.49872,842.85712 54.285706,674.6441 54.285706,467.14282 54.285706,259.64155 222.49872,91.428528 430,91.428528 c 207.50128,0 375.71429,168.213022 375.71429,375.714292 z"
       transform="matrix(0.86692016,0,0,0.86692016,-116.77566,62.529486)" />
    <path
       style="fill:#ffffff"
       d="m 490.91028,323.26495 c 0.5221,-12.36033 1.79433,-14.14092 12.76609,-17.86812 9.9446,-3.37822 19.99686,-0.70823 27.91069,7.41335 7.8901,8.09724 9.65633,17.52169 2.20808,25.30356 -22.86768,23.89159 -43.3315,2.17602 -42.88486,-14.84879 z M 98.91833,696.20943 c 9.58632,-21.17942 5.94491,-90.34872 -9.25215,-72.88914 -8.30401,9.5403 -36.80551,16.96378 -52.19865,10.61491 -18.44405,-7.60721 -48.69438,-25.77959 -42.46935,-63.48219 4.01775,-24.33396 12.88906,-38.6217 22.35225,-52.94491 19.86184,-30.06236 36.77391,-37.78509 60.80703,-31.17908 7.92101,2.17725 12.78116,8.91447 16.78258,19.93587 6.71935,18.50762 9.17018,10.56459 9.13623,7.03688 -0.29056,-30.19185 7.18016,-58.8431 31.83604,-80.55819 14.22716,-12.53024 25.56597,-7.79184 35.3575,2.7735 10.07669,10.87306 13.56797,18.59712 20.39495,35.21469 15.41605,37.52428 17.64488,38.19343 31.56746,38.74896 6.67645,0.2664 16.92741,-3.44848 22.91995,-14.50371 4.37643,-8.07378 7.67088,-14.03717 6.91682,-20.64523 -2.43857,-21.3702 -24.54676,-23.78182 -48.15117,-56.41305 -22.67388,-31.34486 -27.04594,-49.33623 -29.3592,-65.00427 -3.60673,-24.42883 4.03369,-38.56549 16.20482,-48.03654 16.33439,-12.71069 30.18514,-9.60963 53.48708,11.97522 8.49314,7.86728 16.73735,16.71428 18.32044,19.65997 4.03568,7.50919 8.57145,7.92717 16.01134,1.47544 3.52601,-3.05769 13.08118,-11.05419 21.23365,-17.76998 24.19038,-19.92735 22.16276,-18.04145 5.81515,-47.70156 -9.52514,-17.28185 -13.3303,-27.1835 -1.67032,-35.80332 12.81167,-9.47124 19.5847,0.30543 31.80069,19.62962 12.86637,20.35301 13.95224,23.00854 30.86109,8.5606 55.93066,-47.79054 59.99796,-43.85412 69.95667,-29.50563 16.76839,24.1599 -68.18158,52.91013 -66.34204,82.99566 1.46824,24.01314 26.01452,66.39249 39.66549,58.55003 7.36568,-4.87137 10.51876,-24.00323 10.49595,-34.81331 -0.023,-10.88081 -1.96887,-24.12051 -3.03839,-27.95925 -2.75755,-9.89733 -2.10392,-21.5914 11.42175,-24.71359 14.11182,-3.25749 19.87954,6.13117 22.92166,33.56991 4.21581,38.0256 -1.66989,72.01035 -14.66414,84.67219 -11.65754,11.35933 -24.63872,12.12419 -44.80868,2.64 -5.59889,-2.63262 -10.70566,-4.27426 -11.34836,-3.648 -0.64268,0.62624 -3.69842,5.59331 -6.79056,11.03791 -9.02354,15.88869 -17.7683,33.24867 -35.4494,44.10475 -17.3305,10.64094 -29.45117,14.39579 -42.31831,15.96993 -10.75139,1.31534 -13.36361,3.86561 -14.40512,14.06315 -0.45656,4.47123 -3.55922,14.26503 -7.31537,21.55422 -4.32758,8.39791 -15.79679,19.52487 -25.24618,23.75367 -16.17122,7.23684 -23.47498,4.01989 -38.97819,6.91288 -14.00245,2.61292 -11.63076,29.56971 -45.491,37.22225 -27.41702,6.19637 -43.10325,-6.40531 -42.16996,1.64129 5.90945,37.90343 29.06788,64.07897 7.18103,132.69833 -11.73538,36.79276 -44.60152,8.44199 -31.98115,-19.44096 z m 252.0717,-296.50769 c 4.15597,-16.04248 2.48621,-27.89415 -3.07641,-43.40248 -10.95126,-30.53165 -12.7312,-22.14514 -36.92074,-3.62079 -10.31163,7.89664 -13.4195,10.45306 -22.70131,18.02172 -7.23297,5.89798 -8.86482,6.85 -4.95329,29.10939 2.98458,16.98431 4.59099,48.69566 22.92638,44.48411 12.085,-3.02725 19.57011,-7.8983 31.04962,-20.20606 8.3034,-8.90249 10.83328,-13.41367 13.67575,-24.38589 z M 172.03125,531.89048 c 2.4094,-8.8856 -1.37888,-28.32361 -8.17341,-41.93835 -10.73489,-21.51052 -17.98791,-20.80558 -25.55663,2.48393 -4.58624,14.11214 -4.94652,27.8846 -1.10791,42.35134 2.62925,9.90896 5.45194,12.60545 14.44355,13.79779 8.72237,1.15664 17.50288,-6.03103 20.3944,-16.69471 z m 84.57044,-121.48665 c -4.28066,-23.54361 -8.7548,-43.33456 -22.85041,-61.63589 -6.51151,-8.45438 -9.04398,-9.8166 -13.6714,-10.67259 -5.26922,-0.97472 -9.98464,2.2964 -8.812,14.25424 1.76975,18.04655 8.37112,36.49619 18.06474,50.48764 10.20574,14.73069 22.05374,24.54281 25.94616,21.95456 3.15747,-2.09956 2.73751,-6.60767 1.32291,-14.38796 z M 73.78804,578.99347 c 2.0906,-9.42344 1.29496,-23.70743 -1.94511,-34.92063 -6.48724,-22.45095 -16.48318,-22.21861 -30.44206,0.70758 -16.40283,26.94015 -14.69849,46.50925 4.60998,52.93154 13.94891,4.63961 24.11505,-2.21114 27.77719,-18.71849 z"
       id="path2987"
       inkscape:connector-curvature="0"
       sodipodi:nodetypes="cssscssssssssssssssssssssssssssscssssssssssssssscssssssscssssssssssssssssssss" />
  </g>
</svg>
