<?xml version="1.0" encoding="UTF-8" standalone="no"?>
<!-- Generator: Adobe Illustrator 12.0.1, SVG Export Plug-In . SVG Version: 6.00 Build 51448)  -->
<svg
   xmlns:dc="http://purl.org/dc/elements/1.1/"
   xmlns:cc="http://web.resource.org/cc/"
   xmlns:rdf="http://www.w3.org/1999/02/22-rdf-syntax-ns#"
   xmlns:svg="http://www.w3.org/2000/svg"
   xmlns="http://www.w3.org/2000/svg"
   xmlns:sodipodi="http://sodipodi.sourceforge.net/DTD/sodipodi-0.dtd"
   xmlns:inkscape="http://www.inkscape.org/namespaces/inkscape"
   version="1.1"
   id="Layer_1"
   width="162.796"
   height="121.185"
   viewBox="0 0 162.796 121.185"
   style="overflow:visible;enable-background:new 0 0 162.796 121.185;"
   xml:space="preserve"
   sodipodi:version="0.32"
   inkscape:version="0.45.1"
   sodipodi:docname="L-Alanin.svg"
   inkscape:output_extension="org.inkscape.output.svg.inkscape"
   sodipodi:docbase="C:\"><metadata
   id="metadata50"><rdf:RDF><cc:Work
       rdf:about=""><dc:format>image/svg+xml</dc:format><dc:type
         rdf:resource="http://purl.org/dc/dcmitype/StillImage" /></cc:Work></rdf:RDF></metadata><defs
   id="defs48" /><sodipodi:namedview
   inkscape:window-height="579"
   inkscape:window-width="801"
   inkscape:pageshadow="2"
   inkscape:pageopacity="0.0"
   guidetolerance="10.0"
   gridtolerance="10.0"
   objecttolerance="10.0"
   borderopacity="1.0"
   bordercolor="#666666"
   pagecolor="#ffffff"
   id="base"
   inkscape:zoom="3.119198"
   inkscape:cx="81.398003"
   inkscape:cy="60.592499"
   inkscape:window-x="88"
   inkscape:window-y="88"
   inkscape:current-layer="Layer_1" />
<g
   id="g3"
   transform="matrix(0.95,0,0,0.95,4.0699,3.029625)">
	<path
   d="M 0,57.135 L 0,39.947 L 2.281,39.947 L 2.281,47.01 L 11.172,47.01 L 11.172,39.947 L 13.453,39.947 L 13.453,57.135 L 11.172,57.135 L 11.172,49.041 L 2.281,49.041 L 2.281,57.135 L 0,57.135 L 0,57.135 z "
   id="path5" />
</g>
<g
   id="g7"
   transform="matrix(0.95,0,0,0.95,4.0699,3.029625)">
	<path
   d="M 15.461,58.229 L 17.039,58.01 C 17.222,58.906 17.531,59.552 17.967,59.948 C 18.404,60.343 18.939,60.541 19.574,60.541 C 20.327,60.541 20.96,60.283 21.473,59.769 C 21.986,59.253 22.242,58.615 22.242,57.853 C 22.242,57.127 22.004,56.529 21.526,56.057 C 21.049,55.585 20.443,55.35 19.707,55.35 C 19.406,55.35 19.032,55.409 18.585,55.526 L 18.762,54.135 C 18.868,54.147 18.953,54.153 19.018,54.153 C 19.692,54.153 20.299,53.978 20.839,53.627 C 21.379,53.276 21.649,52.735 21.649,52.004 C 21.649,51.425 21.452,50.945 21.058,50.566 C 20.664,50.186 20.156,49.996 19.533,49.996 C 18.916,49.996 18.401,50.19 17.99,50.578 C 17.579,50.966 17.314,51.548 17.197,52.324 L 15.619,52.043 C 15.812,50.981 16.253,50.158 16.939,49.575 C 17.625,48.991 18.479,48.699 19.5,48.699 C 20.204,48.699 20.853,48.849 21.445,49.151 C 22.037,49.452 22.49,49.863 22.805,50.383 C 23.118,50.904 23.276,51.456 23.276,52.041 C 23.276,52.597 23.127,53.103 22.828,53.559 C 22.529,54.015 22.087,54.377 21.501,54.647 C 22.263,54.823 22.855,55.188 23.28,55.741 C 23.704,56.296 23.917,56.988 23.917,57.82 C 23.917,58.946 23.506,59.899 22.684,60.681 C 21.862,61.463 20.823,61.855 19.567,61.855 C 18.434,61.855 17.493,61.518 16.745,60.846 C 15.993,60.171 15.566,59.3 15.461,58.229 z "
   id="path9" />
</g>
<g
   id="g11"
   transform="matrix(0.95,0,0,0.95,4.0699,3.029625)">
	<path
   d="M 38.039,51.107 L 40.32,51.681 C 39.844,53.551 38.987,54.977 37.751,55.958 C 36.514,56.939 35.001,57.431 33.214,57.431 C 31.364,57.431 29.86,57.054 28.701,56.299 C 27.542,55.545 26.66,54.451 26.055,53.021 C 25.45,51.59 25.148,50.053 25.148,48.412 C 25.148,46.622 25.489,45.059 26.172,43.726 C 26.855,42.393 27.826,41.379 29.087,40.688 C 30.347,39.997 31.733,39.65 33.247,39.65 C 34.964,39.65 36.407,40.088 37.577,40.964 C 38.748,41.841 39.563,43.072 40.023,44.661 L 37.789,45.188 C 37.391,43.938 36.814,43.028 36.058,42.458 C 35.301,41.888 34.349,41.603 33.203,41.603 C 31.885,41.603 30.783,41.919 29.897,42.552 C 29.012,43.185 28.39,44.034 28.031,45.101 C 27.672,46.168 27.493,47.267 27.493,48.4 C 27.493,49.861 27.705,51.136 28.13,52.226 C 28.555,53.316 29.215,54.13 30.112,54.669 C 31.009,55.208 31.979,55.478 33.024,55.478 C 34.295,55.478 35.37,55.111 36.251,54.376 C 37.132,53.641 37.727,52.553 38.039,51.107 z "
   id="path13" />
</g>
<path
   d="M 46.23755,54.409425 L 47.04505,53.031925 L 69.98755,66.236925 L 69.98755,67.186925 L 69.13255,67.614425 L 46.23755,54.409425 z "
   id="polygon15" />
<path
   d="M 70.84255,67.614425 L 69.98755,67.186925 L 69.98755,66.236925 L 102.62005,47.426925 L 102.62005,49.280375 L 70.84255,67.614425 z "
   id="polygon17" />
<g
   id="g19"
   transform="matrix(0.95,0,0,0.95,4.0699,3.029625)">
	<path
   d="M 129.894,68.619 C 129.894,65.766 130.66,63.534 132.192,61.921 C 133.724,60.307 135.702,59.5 138.125,59.5 C 139.712,59.5 141.142,59.879 142.416,60.637 C 143.69,61.396 144.661,62.452 145.329,63.808 C 145.998,65.163 146.332,66.702 146.332,68.42 C 146.332,70.163 145.98,71.722 145.276,73.097 C 144.573,74.472 143.577,75.514 142.287,76.221 C 140.997,76.928 139.606,77.282 138.113,77.282 C 136.495,77.282 135.049,76.891 133.775,76.11 C 132.501,75.329 131.536,74.261 130.879,72.91 C 130.222,71.558 129.894,70.128 129.894,68.619 z M 132.237,68.648 C 132.237,70.718 132.794,72.349 133.908,73.541 C 135.022,74.733 136.42,75.328 138.1,75.328 C 139.812,75.328 141.221,74.726 142.328,73.523 C 143.433,72.32 143.987,70.613 143.987,68.402 C 143.987,67.004 143.751,65.783 143.277,64.74 C 142.804,63.697 142.113,62.888 141.202,62.314 C 140.291,61.74 139.269,61.453 138.136,61.453 C 136.526,61.453 135.14,62.006 133.979,63.111 C 132.818,64.216 132.237,66.063 132.237,68.648 z "
   id="path21" />
	<path
   d="M 149.343,76.984 L 149.343,59.797 L 151.624,59.797 L 151.624,66.86 L 160.515,66.86 L 160.515,59.797 L 162.796,59.797 L 162.796,76.985 L 160.515,76.985 L 160.515,68.891 L 151.624,68.891 L 151.624,76.985 L 149.343,76.985 L 149.343,76.984 z "
   id="path23" />
</g>
<path
   d="M 102.62005,49.280375 L 102.62005,47.426925 L 127.08255,61.535375 L 126.27505,62.960375 L 102.62005,49.280375 z "
   id="polygon25" />
<g
   id="g27"
   transform="matrix(0.95,0,0,0.95,4.0699,3.029625)">
	<path
   d="M 95.493,9.119 C 95.493,6.266 96.259,4.034 97.791,2.421 C 99.323,0.807 101.301,0 103.724,0 C 105.311,0 106.741,0.379 108.015,1.137 C 109.289,1.896 110.26,2.952 110.928,4.308 C 111.597,5.663 111.931,7.202 111.931,8.92 C 111.931,10.663 111.579,12.222 110.875,13.597 C 110.172,14.972 109.176,16.014 107.886,16.721 C 106.596,17.428 105.205,17.782 103.712,17.782 C 102.094,17.782 100.648,17.391 99.374,16.61 C 98.1,15.829 97.135,14.761 96.478,13.41 C 95.821,12.058 95.493,10.628 95.493,9.119 z M 97.837,9.148 C 97.837,11.218 98.394,12.849 99.508,14.041 C 100.622,15.233 102.02,15.828 103.7,15.828 C 105.412,15.828 106.821,15.226 107.928,14.023 C 109.033,12.82 109.587,11.113 109.587,8.902 C 109.587,7.504 109.351,6.283 108.877,5.24 C 108.404,4.197 107.713,3.388 106.802,2.814 C 105.891,2.24 104.869,1.953 103.736,1.953 C 102.126,1.953 100.74,2.506 99.579,3.611 C 98.418,4.716 97.837,6.563 97.837,9.148 z "
   id="path29" />
</g>
<path
   d="M 98.962551,22.014424 L 100.5785,22.014424 L 100.5785,49.991925 L 98.962551,49.991925 L 98.962551,22.014424 z "
   id="rect31" />
<path
   d="M 104.66255,22.014424 L 106.2785,22.014424 L 106.2785,49.991925 L 104.66255,49.991925 L 104.66255,22.014424 z "
   id="rect33" />
<g
   id="g35"
   transform="matrix(0.95,0,0,0.95,4.0699,3.029625)">
	<path
   d="M 62.565,116.685 L 62.565,99.497 L 64.905,99.497 L 73.909,112.986 L 73.909,99.497 L 76.097,99.497 L 76.097,116.685 L 73.757,116.685 L 64.753,103.196 L 64.753,116.685 L 62.565,116.685 z "
   id="path37" />
	<path
   d="M 80.007,116.685 L 80.007,99.497 L 82.288,99.497 L 82.288,106.56 L 91.179,106.56 L 91.179,99.497 L 93.46,99.497 L 93.46,116.685 L 91.179,116.685 L 91.179,108.591 L 82.288,108.591 L 82.288,116.685 L 80.007,116.685 z "
   id="path39" />
</g>
<g
   id="g41"
   transform="matrix(0.95,0,0,0.95,4.0699,3.029625)">
	<path
   d="M 104.242,119.669 L 104.242,121.185 L 95.711,121.185 C 95.699,120.804 95.761,120.438 95.897,120.086 C 96.116,119.506 96.464,118.935 96.946,118.373 C 97.426,117.811 98.116,117.162 99.015,116.426 C 100.411,115.273 101.358,114.362 101.855,113.692 C 102.353,113.022 102.602,112.387 102.602,111.789 C 102.602,111.163 102.377,110.636 101.926,110.205 C 101.477,109.775 100.89,109.56 100.166,109.56 C 99.4,109.56 98.789,109.789 98.33,110.248 C 97.871,110.707 97.639,111.342 97.633,112.153 L 96.008,111.981 C 96.119,110.765 96.539,109.839 97.268,109.203 C 97.997,108.565 98.974,108.247 100.202,108.247 C 101.44,108.247 102.422,108.59 103.143,109.276 C 103.866,109.962 104.227,110.812 104.227,111.826 C 104.227,112.342 104.122,112.849 103.91,113.347 C 103.698,113.845 103.347,114.37 102.857,114.921 C 102.366,115.472 101.553,116.228 100.417,117.189 C 99.466,117.987 98.855,118.527 98.584,118.812 C 98.313,119.095 98.088,119.381 97.911,119.668 L 104.242,119.668 L 104.242,119.669 z "
   id="path43" />
</g>
<path
   d="M 73.5985,95.355375 L 66.331,95.355375 L 69.13255,67.614425 L 69.98755,67.186925 L 70.84255,67.614425 L 73.5985,95.355375 z "
   id="polygon45" />
</svg>