<?xml version="1.0" encoding="UTF-8" standalone="no"?>
<!-- Created with Inkscape (http://www.inkscape.org/) -->
<svg
   xmlns:svg="http://www.w3.org/2000/svg"
   xmlns="http://www.w3.org/2000/svg"
   version="1.0"
   width="324"
   height="126.16"
   id="svg2">
  <defs
     id="defs4" />
  <g
     transform="translate(62.214296,-580.3695)"
     id="layer1">
    <path
       d="M 195.32671,696.24087 C 193.58758,695.67231 192.09604,694.33861 191.23233,692.57978 C 190.55678,691.20408 190.46676,690.71563 190.46676,688.42596 C 190.46676,686.13397 190.55643,685.64856 191.23522,684.26622 C 192.87885,680.91913 196.28897,679.51311 200.04522,680.63376 C 202.93955,681.49725 204.72242,684.02752 204.99727,687.66184 C 205.37833,692.70029 202.6568,696.24139 198.19535,696.51214 C 197.18628,696.57338 196.00095,696.46129 195.32671,696.24087 z M 200.63685,693.71742 C 201.95804,692.66426 202.63766,691.27501 202.82104,689.25266 C 203.10218,686.15211 201.94823,683.64871 199.78508,682.66638 C 196.96138,681.38409 193.80199,682.82657 192.91856,685.80143 C 191.46332,690.7017 193.89748,694.89925 198.04207,694.63655 C 199.28262,694.55791 199.82231,694.36675 200.63685,693.71742 z M 3.7785173,688.42596 L 3.7785173,680.50503 L 4.9393439,680.51197 L 6.1001705,680.51893 L 10.128173,686.58924 L 14.156176,692.65957 L 14.156924,686.5823 L 14.157673,680.50503 L 15.250215,680.50503 L 16.342758,680.50503 L 16.342758,688.42596 L 16.342758,696.3469 L 15.181932,696.33993 L 14.021105,696.33299 L 9.9931022,690.26266 L 5.9650995,684.19236 L 5.9643511,690.26963 L 5.9636027,696.3469 L 4.87106,696.3469 L 3.7785173,696.3469 L 3.7785173,688.42596 z M 19.620386,688.42596 L 19.620386,680.50503 L 20.712929,680.50503 L 21.805472,680.50503 L 21.805472,683.78266 L 21.805472,687.06028 L 25.902507,687.06028 L 29.999542,687.06028 L 29.999542,683.78266 L 29.999542,680.50503 L 31.092084,680.50503 L 32.184627,680.50503 L 32.184627,688.42596 L 32.184627,696.3469 L 31.092084,696.3469 L 29.999542,696.3469 L 29.999542,692.65957 L 29.999542,688.97223 L 25.902507,688.97223 L 21.805472,688.97223 L 21.805472,692.65957 L 21.805472,696.3469 L 20.712929,696.3469 L 19.620386,696.3469 L 19.620386,688.42596 z M 6.717184,664.76509 L 6.6464419,650.66397 L -2.503603,645.357 C -7.536128,642.43819 -11.814098,639.95613 -12.010204,639.8413 C -12.291883,639.67641 -12.263204,639.50723 -11.873636,639.03566 L -11.380511,638.43875 L -6.737206,641.1225 C -4.183387,642.59858 0.6776845,645.4072 4.0651759,647.36389 L 10.224251,650.92154 L 20.996523,644.69407 C 31.507879,638.61743 31.776683,638.48119 32.094465,639.06893 C 32.287602,639.42611 32.320217,639.77326 32.174608,639.92193 C 32.039567,640.05981 27.838331,642.53442 22.838525,645.42108 L 13.747969,650.66952 L 13.677227,664.76788 L 13.606485,678.86621 L 12.926104,678.86621 L 12.245723,678.86621 L 12.245723,665.18714 L 12.245723,651.5081 L 11.266005,652.11359 L 10.286286,652.71907 L 9.217487,652.11839 L 8.1486881,651.51769 L 8.1486881,665.19195 L 8.1486881,678.86621 L 7.4683071,678.86621 L 6.7879261,678.86621 L 6.717184,664.76509 z M 194.41485,664.73144 L 194.40251,650.59667 L 180.61426,642.67574 C 173.03073,638.31922 166.67566,634.79536 166.49186,634.84494 C 166.30804,634.89451 159.2471,638.92586 150.80085,643.80352 C 136.84454,651.8632 135.38736,652.64224 134.82241,652.34608 C 134.48053,652.16682 127.425,648.10802 119.14344,643.32648 L 104.0861,634.63277 L 88.688815,643.53379 C 80.22032,648.42934 73.15985,652.48685 72.998889,652.55049 C 72.738842,652.6533 51.246266,640.40276 50.657959,639.81639 C 50.524865,639.68373 50.59375,639.33477 50.815536,639.01812 C 51.199103,638.47051 51.495483,638.62052 61.969261,644.66269 C 67.887089,648.07661 72.808431,650.84454 72.905577,650.81365 C 73.002724,650.78276 79.791934,646.88012 87.992701,642.1411 C 96.193491,637.40209 103.20065,633.38918 103.56419,633.22355 C 104.16343,632.95052 105.68042,633.76324 119.80233,641.92317 L 135.37944,650.92397 L 150.49543,642.1945 C 158.80921,637.39327 165.66257,633.41726 165.72512,633.35886 C 165.78767,633.30049 165.2639,627.81388 164.56123,621.16639 C 163.85856,614.5189 163.28501,608.86495 163.2867,608.60206 C 163.28943,608.17249 163.63557,608.12407 166.70395,608.12407 C 169.77861,608.12407 170.11678,608.1716 170.10463,608.60206 C 170.09723,608.86495 169.50668,614.52897 168.79235,621.18878 L 167.49353,633.29752 L 169.96667,634.74314 C 180.13838,640.68892 197.37518,650.56788 197.7476,650.66528 C 198.00577,650.73278 202.82972,648.11103 208.8832,644.61325 C 214.75729,641.21913 219.6648,638.44214 219.78883,638.44214 C 219.91283,638.44214 220.13896,638.71869 220.29131,639.05669 C 220.55568,639.64325 220.13494,639.92015 211.05714,645.13396 L 201.54599,650.59667 L 201.53736,664.73144 L 201.52875,678.86621 L 200.70934,678.86621 L 199.88994,678.86621 L 199.88994,665.21864 L 199.88994,651.57106 L 198.95199,652.12446 C 198.07853,652.63981 197.95739,652.64858 197.19016,652.25182 C 196.73702,652.0175 196.29872,651.82578 196.21615,651.82578 C 196.13358,651.82578 196.06604,657.90988 196.06604,665.346 L 196.06604,678.86621 L 195.24663,678.86621 L 194.42722,678.86621 L 194.41485,664.73144 z M -37.738103,646.61823 C -37.738103,645.91682 -36.957889,644.96202 -34.293308,642.4026 C -31.848329,640.0541 -31.45016,639.54959 -31.452853,638.80338 C -31.459405,636.9866 -34.069036,636.1139 -35.428864,637.47373 C -35.7976,637.84247 -36.099289,638.33411 -36.099289,638.56628 C -36.099289,639.03009 -36.575507,639.11096 -37.152776,638.74518 C -37.588682,638.46898 -37.359712,637.47734 -36.682183,636.70707 C -34.388682,634.09963 -29.731716,635.75863 -30.170088,639.02695 C -30.354165,640.39934 -31.259385,641.5741 -33.645253,643.53688 C -34.694525,644.40007 -35.553018,645.20473 -35.553018,645.32499 C -35.553018,645.44525 -34.323908,645.54366 -32.821661,645.54366 C -30.090305,645.54366 -30.090305,645.54366 -30.090305,646.2265 L -30.090305,646.90934 L -33.914204,646.90934 C -36.438633,646.90934 -37.738103,646.81041 -37.738103,646.61823 z M 226.73732,642.16 C 224.99818,641.59144 223.50664,640.25775 222.64296,638.49892 C 221.96738,637.12322 221.87736,636.63477 221.87736,634.3451 C 221.87736,632.05311 221.96703,631.56769 222.64585,630.18535 C 224.28945,626.83828 227.69957,625.43224 231.45582,626.55288 C 234.35015,627.41639 236.13302,629.94666 236.40788,633.58098 C 236.78896,638.61943 234.06743,642.16052 229.60598,642.43128 C 228.59688,642.49252 227.41158,642.38042 226.73732,642.16 z M 232.04746,639.63656 C 233.36864,638.5834 234.04826,637.19415 234.23164,635.1718 C 234.51278,632.07125 233.35884,629.56785 231.19568,628.58552 C 228.37201,627.30323 225.21259,628.74571 224.32916,631.72057 C 222.87392,636.62084 225.30811,640.81839 229.45267,640.55569 C 230.69325,640.47705 231.23291,640.28588 232.04746,639.63656 z M -52.214294,634.3451 L -52.214294,626.42416 L -51.121751,626.42416 L -50.029209,626.42416 L -50.029209,629.70179 L -50.029209,632.97942 L -45.932174,632.97942 L -41.835139,632.97942 L -41.835139,629.70179 L -41.835139,626.42416 L -40.742596,626.42416 L -39.650053,626.42416 L -39.650053,634.3451 L -39.650053,642.26603 L -40.742596,642.26603 L -41.835139,642.26603 L -41.835139,638.5787 L -41.835139,634.89137 L -45.932174,634.89137 L -50.029209,634.89137 L -50.029209,638.5787 L -50.029209,642.26603 L -51.121751,642.26603 L -52.214294,642.26603 L -52.214294,634.3451 z M -27.358948,634.3451 L -27.358948,626.42416 L -26.198121,626.43111 L -25.037295,626.43806 L -21.009292,632.50837 L -16.981289,638.5787 L -16.980541,632.50143 L -16.979793,626.42416 L -15.88725,626.42416 L -14.794707,626.42416 L -14.794707,634.3451 L -14.794707,642.26603 L -15.955534,642.25907 L -17.11636,642.25213 L -21.144363,636.1818 L -25.172366,630.1115 L -25.173114,636.18877 L -25.173863,642.26603 L -26.266405,642.26603 L -27.358948,642.26603 L -27.358948,634.3451 z M 35.189119,634.3451 L 35.189119,626.42416 L 36.349946,626.43111 L 37.510773,626.43806 L 41.538775,632.50837 L 45.566778,638.5787 L 45.567526,632.50143 L 45.568275,626.42416 L 46.660818,626.42416 L 47.75336,626.42416 L 47.75336,634.3451 L 47.75336,642.26603 L 46.592534,642.25907 L 45.431707,642.25213 L 41.403704,636.1818 L 37.375702,630.1115 L 37.374953,636.18877 L 37.374205,642.26603 L 36.281662,642.26603 L 35.189119,642.26603 L 35.189119,634.3451 z M 239.22146,634.3451 L 239.22146,626.42416 L 240.31401,626.42416 L 241.40655,626.42416 L 241.40655,629.70179 L 241.40655,632.97942 L 245.50358,632.97942 L 249.60062,632.97942 L 249.60062,629.70179 L 249.60062,626.42416 L 250.69316,626.42416 L 251.7857,626.42416 L 251.7857,634.3451 L 251.7857,642.26603 L 250.69316,642.26603 L 249.60062,642.26603 L 249.60062,638.5787 L 249.60062,634.89137 L 245.50358,634.89137 L 241.40655,634.89137 L 241.40655,638.5787 L 241.40655,642.26603 L 240.31401,642.26603 L 239.22146,642.26603 L 239.22146,634.3451 z M 35.189119,616.04501 L 35.189119,608.12407 L 36.281662,608.12407 L 37.374205,608.12407 L 37.374205,611.4017 L 37.374205,614.67933 L 41.47124,614.67933 L 45.568275,614.67933 L 45.568275,611.4017 L 45.568275,608.12407 L 46.660818,608.12407 L 47.75336,608.12407 L 47.75336,616.04501 L 47.75336,623.96594 L 46.660818,623.96594 L 45.568275,623.96594 L 45.568275,620.27861 L 45.568275,616.59128 L 41.47124,616.59128 L 37.374205,616.59128 L 37.374205,620.27861 L 37.374205,623.96594 L 36.281662,623.96594 L 35.189119,623.96594 L 35.189119,616.04501 z M 190.60332,610.56434 C 190.60332,609.86291 191.38354,608.9081 194.04811,606.34869 C 196.49309,604.00021 196.89126,603.49568 196.88856,602.74947 C 196.882,600.9327 194.27238,600.06 192.91255,601.41983 C 192.54382,601.78856 192.24214,602.28021 192.24214,602.51237 C 192.24214,602.97618 191.7659,603.05705 191.18865,602.69127 C 190.75273,602.41507 190.9817,601.42343 191.65924,600.65316 C 193.95273,598.04574 198.6097,599.70473 198.17134,602.97303 C 197.98725,604.34543 197.08202,605.52019 194.69615,607.48297 C 193.6469,608.34617 192.78841,609.15083 192.78841,609.27109 C 192.78841,609.39135 194.01752,609.48975 195.51977,609.48975 C 198.25112,609.48975 198.25112,609.48975 198.25112,610.17259 L 198.25112,610.85543 L 194.42722,610.85543 C 191.9028,610.85543 190.60332,610.75651 190.60332,610.56434 z M 160.28527,598.29119 L 160.28527,590.37025 L 161.44609,590.3772 L 162.60692,590.38415 L 166.6349,596.45447 L 170.66292,602.52479 L 170.66366,596.44752 L 170.66442,590.37025 L 171.75696,590.37025 L 172.84951,590.37025 L 172.84951,598.29119 L 172.84951,606.21212 L 171.68868,606.20517 L 170.52785,606.19822 L 166.49984,600.1279 L 162.47183,594.05758 L 162.47109,600.13485 L 162.47035,606.21212 L 161.37781,606.21212 L 160.28527,606.21212 L 160.28527,598.29119 z M 176.12713,598.29119 L 176.12713,590.37025 L 177.21968,590.37025 L 178.31222,590.37025 L 178.31222,593.64788 L 178.31222,596.92551 L 182.40925,596.92551 L 186.50629,596.92551 L 186.50629,593.64788 L 186.50629,590.37025 L 187.59883,590.37025 L 188.69138,590.37025 L 188.69138,598.29119 L 188.69138,606.21212 L 187.59883,606.21212 L 186.50629,606.21212 L 186.50629,602.52479 L 186.50629,598.83746 L 182.40925,598.83746 L 178.31222,598.83746 L 178.31222,602.52479 L 178.31222,606.21212 L 177.21968,606.21212 L 176.12713,606.21212 L 176.12713,598.29119 z"
       id="path2453"
       style="fill:#000000" />
  </g>
</svg>
