<?xml version="1.0" encoding="UTF-8" standalone="no"?>
<!-- Generator: Adobe Illustrator 12.0.1, SVG Export Plug-In . SVG Version: 6.00 Build 51448)  -->
<svg
   xmlns:dc="http://purl.org/dc/elements/1.1/"
   xmlns:cc="http://web.resource.org/cc/"
   xmlns:rdf="http://www.w3.org/1999/02/22-rdf-syntax-ns#"
   xmlns:svg="http://www.w3.org/2000/svg"
   xmlns="http://www.w3.org/2000/svg"
   xmlns:sodipodi="http://sodipodi.sourceforge.net/DTD/sodipodi-0.dtd"
   xmlns:inkscape="http://www.inkscape.org/namespaces/inkscape"
   version="1.1"
   id="Layer_1"
   width="265.896"
   height="121.185"
   viewBox="0 0 265.896 121.185"
   style="overflow:visible;enable-background:new 0 0 265.896 121.185;"
   xml:space="preserve"
   sodipodi:version="0.32"
   inkscape:version="0.45.1"
   sodipodi:docname="L-Glutamin.svg"
   inkscape:output_extension="org.inkscape.output.svg.inkscape"
   sodipodi:docbase="C:\"><metadata
   id="metadata64"><rdf:RDF><cc:Work
       rdf:about=""><dc:format>image/svg+xml</dc:format><dc:type
         rdf:resource="http://purl.org/dc/dcmitype/StillImage" /></cc:Work></rdf:RDF></metadata><defs
   id="defs62" /><sodipodi:namedview
   inkscape:window-height="579"
   inkscape:window-width="801"
   inkscape:pageshadow="2"
   inkscape:pageopacity="0.0"
   guidetolerance="10.0"
   gridtolerance="10.0"
   objecttolerance="10.0"
   borderopacity="1.0"
   bordercolor="#666666"
   pagecolor="#ffffff"
   id="base"
   inkscape:zoom="2.696543"
   inkscape:cx="132.948"
   inkscape:cy="60.592499"
   inkscape:window-x="176"
   inkscape:window-y="176"
   inkscape:current-layer="Layer_1" />
<path
   d="M 137.831,49.280375 L 137.831,47.426925 L 170.51005,66.236925 L 170.51005,67.186925 L 169.656,67.614425 L 137.831,49.280375 z "
   id="polygon3" />
<path
   d="M 171.366,67.614425 L 170.51005,67.186925 L 170.51005,66.236925 L 203.1435,47.426925 L 203.1435,49.280375 L 171.366,67.614425 z "
   id="polygon5" />
<g
   id="g7"
   transform="matrix(0.95,0,0,0.95,6.6474,3.029625)">
	<path
   d="M 232.994,68.619 C 232.994,65.766 233.76,63.534 235.292,61.921 C 236.824,60.307 238.802,59.5 241.225,59.5 C 242.812,59.5 244.242,59.879 245.516,60.637 C 246.79,61.396 247.761,62.452 248.429,63.808 C 249.098,65.163 249.432,66.702 249.432,68.42 C 249.432,70.163 249.08,71.722 248.376,73.097 C 247.673,74.472 246.677,75.514 245.387,76.221 C 244.097,76.928 242.706,77.282 241.213,77.282 C 239.595,77.282 238.149,76.891 236.875,76.11 C 235.601,75.329 234.636,74.261 233.979,72.91 C 233.322,71.558 232.994,70.128 232.994,68.619 z M 235.338,68.648 C 235.338,70.718 235.895,72.349 237.009,73.541 C 238.123,74.733 239.521,75.328 241.201,75.328 C 242.913,75.328 244.322,74.726 245.429,73.523 C 246.534,72.32 247.088,70.613 247.088,68.402 C 247.088,67.004 246.852,65.783 246.378,64.74 C 245.905,63.697 245.214,62.888 244.303,62.314 C 243.392,61.74 242.37,61.453 241.237,61.453 C 239.627,61.453 238.241,62.006 237.08,63.111 C 235.919,64.216 235.338,66.063 235.338,68.648 z "
   id="path9" />
	<path
   d="M 252.443,76.984 L 252.443,59.797 L 254.724,59.797 L 254.724,66.86 L 263.615,66.86 L 263.615,59.797 L 265.896,59.797 L 265.896,76.985 L 263.615,76.985 L 263.615,68.891 L 254.724,68.891 L 254.724,76.985 L 252.443,76.985 L 252.443,76.984 z "
   id="path11" />
</g>
<path
   d="M 203.1435,49.280375 L 203.1435,47.426925 L 227.606,61.535375 L 226.79755,62.960375 L 203.1435,49.280375 z "
   id="polygon13" />
<g
   id="g15"
   transform="matrix(0.95,0,0,0.95,6.6474,3.029625)">
	<path
   d="M 198.595,9.119 C 198.595,6.266 199.361,4.034 200.892,2.421 C 202.425,0.807 204.401,0 206.825,0 C 208.411,0 209.842,0.379 211.116,1.137 C 212.389,1.896 213.36,2.952 214.029,4.308 C 214.698,5.664 215.032,7.202 215.032,8.92 C 215.032,10.663 214.68,12.222 213.976,13.597 C 213.272,14.972 212.276,16.014 210.987,16.721 C 209.696,17.428 208.305,17.782 206.813,17.782 C 205.194,17.782 203.749,17.391 202.475,16.61 C 201.2,15.829 200.235,14.761 199.579,13.41 C 198.923,12.059 198.595,10.628 198.595,9.119 z M 200.938,9.148 C 200.938,11.218 201.495,12.849 202.608,14.041 C 203.723,15.232 205.12,15.828 206.801,15.828 C 208.512,15.828 209.922,15.226 211.028,14.023 C 212.134,12.82 212.688,11.113 212.688,8.902 C 212.688,7.504 212.452,6.283 211.978,5.24 C 211.504,4.197 210.813,3.388 209.903,2.814 C 208.992,2.24 207.969,1.953 206.837,1.953 C 205.226,1.953 203.841,2.506 202.679,3.611 C 201.519,4.717 200.938,6.563 200.938,9.148 z "
   id="path17" />
</g>
<path
   d="M 199.48505,22.062875 L 201.101,22.062875 L 201.101,49.992874 L 199.48505,49.992874 L 199.48505,22.062875 z "
   id="rect19" />
<path
   d="M 205.18505,22.062875 L 206.801,22.062875 L 206.801,49.992874 L 205.18505,49.992874 L 205.18505,22.062875 z "
   id="rect21" />
<g
   id="g23"
   transform="matrix(0.95,0,0,0.95,6.6474,3.029625)">
	<path
   d="M 165.666,116.685 L 165.666,99.497 L 168.006,99.497 L 177.01,112.986 L 177.01,99.497 L 179.198,99.497 L 179.198,116.685 L 176.858,116.685 L 167.854,103.196 L 167.854,116.685 L 165.666,116.685 z "
   id="path25" />
	<path
   d="M 183.107,116.685 L 183.107,99.497 L 185.388,99.497 L 185.388,106.56 L 194.279,106.56 L 194.279,99.497 L 196.56,99.497 L 196.56,116.685 L 194.279,116.685 L 194.279,108.591 L 185.388,108.591 L 185.388,116.685 L 183.107,116.685 z "
   id="path27" />
</g>
<g
   id="g29"
   transform="matrix(0.95,0,0,0.95,6.6474,3.029625)">
	<path
   d="M 207.343,119.669 L 207.343,121.185 L 198.812,121.185 C 198.8,120.804 198.861,120.438 198.998,120.086 C 199.216,119.506 199.564,118.935 200.046,118.373 C 200.526,117.811 201.217,117.162 202.115,116.426 C 203.511,115.273 204.458,114.362 204.955,113.692 C 205.453,113.022 205.703,112.387 205.703,111.789 C 205.703,111.163 205.477,110.636 205.027,110.205 C 204.577,109.775 203.99,109.56 203.267,109.56 C 202.501,109.56 201.89,109.789 201.431,110.248 C 200.972,110.707 200.74,111.342 200.734,112.153 L 199.109,111.981 C 199.22,110.765 199.64,109.839 200.369,109.203 C 201.097,108.565 202.074,108.247 203.303,108.247 C 204.541,108.247 205.522,108.59 206.244,109.276 C 206.967,109.962 207.328,110.812 207.328,111.826 C 207.328,112.342 207.222,112.849 207.01,113.347 C 206.799,113.845 206.447,114.37 205.957,114.921 C 205.467,115.472 204.653,116.228 203.518,117.189 C 202.567,117.987 201.955,118.527 201.684,118.812 C 201.413,119.095 201.188,119.381 201.012,119.668 L 207.343,119.668 L 207.343,119.669 z "
   id="path31" />
</g>
<path
   d="M 174.121,95.355375 L 166.8535,95.355375 L 169.656,67.614425 L 170.51005,67.186925 L 171.366,67.614425 L 174.121,95.355375 z "
   id="polygon33" />
<path
   d="M 137.831,47.426925 L 137.831,49.280375 L 105.1985,68.136925 L 105.1985,66.236925 L 137.831,47.426925 z "
   id="polygon35" />
<path
   d="M 105.1985,66.236925 L 105.1985,68.136925 L 72.566,49.280375 L 72.566,47.426925 L 105.1985,66.236925 z "
   id="polygon37" />
<g
   id="g39"
   transform="matrix(0.95,0,0,0.95,6.6474,3.029625)">
	<path
   d="M 0,76.984 L 0,59.797 L 2.281,59.797 L 2.281,66.86 L 11.172,66.86 L 11.172,59.797 L 13.453,59.797 L 13.453,76.985 L 11.172,76.985 L 11.172,68.891 L 2.281,68.891 L 2.281,76.985 L 0,76.985 L 0,76.984 z "
   id="path41" />
</g>
<g
   id="g43"
   transform="matrix(0.95,0,0,0.95,6.6474,3.029625)">
	<path
   d="M 23.774,79.969 L 23.774,81.485 L 15.243,81.485 C 15.231,81.104 15.293,80.738 15.429,80.386 C 15.647,79.806 15.996,79.235 16.477,78.673 C 16.957,78.111 17.647,77.462 18.547,76.726 C 19.943,75.573 20.889,74.662 21.387,73.992 C 21.885,73.322 22.134,72.687 22.134,72.089 C 22.134,71.463 21.909,70.936 21.459,70.505 C 21.009,70.075 20.422,69.86 19.699,69.86 C 18.933,69.86 18.322,70.089 17.863,70.548 C 17.404,71.007 17.172,71.642 17.166,72.453 L 15.541,72.281 C 15.652,71.065 16.072,70.139 16.801,69.503 C 17.529,68.865 18.507,68.547 19.735,68.547 C 20.974,68.547 21.955,68.89 22.677,69.576 C 23.399,70.262 23.76,71.112 23.76,72.126 C 23.76,72.642 23.654,73.149 23.443,73.647 C 23.232,74.145 22.88,74.67 22.39,75.221 C 21.899,75.772 21.086,76.528 19.95,77.489 C 18.999,78.287 18.388,78.827 18.117,79.112 C 17.846,79.395 17.621,79.681 17.444,79.968 L 23.774,79.968 L 23.774,79.969 z "
   id="path45" />
</g>
<g
   id="g47"
   transform="matrix(0.95,0,0,0.95,6.6474,3.029625)">
	<path
   d="M 25.773,76.984 L 25.773,59.797 L 28.113,59.797 L 37.117,73.286 L 37.117,59.797 L 39.305,59.797 L 39.305,76.985 L 36.965,76.985 L 27.961,63.496 L 27.961,76.985 L 25.773,76.985 L 25.773,76.984 z "
   id="path49" />
</g>
<path
   d="M 72.566,47.426925 L 72.566,49.280375 L 50.0035,62.294425 L 49.196,60.869425 L 72.566,47.426925 z "
   id="polygon51" />
<g
   id="g53"
   transform="matrix(0.95,0,0,0.95,6.6474,3.029625)">
	<path
   d="M 61.145,9.119 C 61.145,6.266 61.911,4.034 63.443,2.421 C 64.975,0.807 66.952,0 69.375,0 C 70.962,0 72.392,0.379 73.666,1.137 C 74.94,1.896 75.911,2.952 76.58,4.308 C 77.249,5.664 77.582,7.202 77.582,8.92 C 77.582,10.663 77.23,12.222 76.527,13.597 C 75.824,14.972 74.827,16.014 73.537,16.721 C 72.247,17.428 70.856,17.782 69.363,17.782 C 67.745,17.782 66.299,17.391 65.025,16.61 C 63.751,15.829 62.786,14.761 62.129,13.41 C 61.472,12.059 61.145,10.628 61.145,9.119 z M 63.488,9.148 C 63.488,11.218 64.045,12.849 65.159,14.041 C 66.273,15.233 67.671,15.828 69.351,15.828 C 71.063,15.828 72.472,15.226 73.579,14.023 C 74.685,12.82 75.238,11.113 75.238,8.902 C 75.238,7.504 75.002,6.283 74.529,5.24 C 74.056,4.197 73.364,3.388 72.453,2.814 C 71.542,2.24 70.52,1.953 69.387,1.953 C 67.777,1.953 66.391,2.506 65.23,3.611 C 64.069,4.716 63.488,6.563 63.488,9.148 z "
   id="path55" />
</g>
<path
   d="M 68.908502,22.062875 L 70.523502,22.062875 L 70.523502,49.992874 L 68.908502,49.992874 L 68.908502,22.062875 z "
   id="rect57" />
<path
   d="M 74.560999,22.062875 L 76.175999,22.062875 L 76.175999,49.992874 L 74.560999,49.992874 L 74.560999,22.062875 z "
   id="rect59" />
</svg>