<?xml version="1.0" encoding="UTF-8" standalone="no"?>
<!-- Created with Inkscape (http://www.inkscape.org/) -->

<svg
   xmlns:dc="http://purl.org/dc/elements/1.1/"
   xmlns:cc="http://creativecommons.org/ns#"
   xmlns:rdf="http://www.w3.org/1999/02/22-rdf-syntax-ns#"
   xmlns:svg="http://www.w3.org/2000/svg"
   xmlns="http://www.w3.org/2000/svg"
   xmlns:sodipodi="http://sodipodi.sourceforge.net/DTD/sodipodi-0.dtd"
   xmlns:inkscape="http://www.inkscape.org/namespaces/inkscape"
   id="svg3071"
   version="1.1"
   inkscape:version="0.48.4 r9939"
   width="3200"
   height="3200"
   sodipodi:docname="adidaspenguin.svg">
  <metadata
     id="metadata3077">
    <rdf:RDF>
      <cc:Work
         rdf:about="">
        <dc:format>image/svg+xml</dc:format>
        <dc:type
           rdf:resource="http://purl.org/dc/dcmitype/StillImage" />
        <dc:title></dc:title>
      </cc:Work>
    </rdf:RDF>
  </metadata>
  <defs
     id="defs3075" />
  <sodipodi:namedview
     pagecolor="#ffffff"
     bordercolor="#666666"
     borderopacity="1"
     objecttolerance="10"
     gridtolerance="10"
     guidetolerance="10"
     inkscape:pageopacity="0"
     inkscape:pageshadow="2"
     inkscape:window-width="1855"
     inkscape:window-height="1056"
     id="namedview3073"
     showgrid="false"
     showguides="true"
     inkscape:guide-bbox="true"
     inkscape:zoom="0.1767767"
     inkscape:cx="1601.4593"
     inkscape:cy="1599.5035"
     inkscape:window-x="65"
     inkscape:window-y="24"
     inkscape:window-maximized="1"
     inkscape:current-layer="svg3071"
     fit-margin-top="0"
     fit-margin-left="0"
     fit-margin-right="0"
     fit-margin-bottom="0" />
  <path
     sodipodi:type="arc"
     style="fill:#b655ff;fill-opacity:1;stroke:none"
     id="path4018-5"
     sodipodi:cx="557.46533"
     sodipodi:cy="1599.6832"
     sodipodi:rx="148.1188"
     sodipodi:ry="443.45874"
     d="m 705.58414,1599.6832 a 148.1188,443.45874 0 1 1 -296.23761,0 148.1188,443.45874 0 1 1 296.23761,0 z"
     transform="matrix(0.5905161,0.8259752,-0.8259752,0.5905161,2666.9897,766.98112)" />
  <path
     sodipodi:type="arc"
     style="fill:#b655ff;fill-opacity:1;stroke:none"
     id="path4018"
     sodipodi:cx="557.46533"
     sodipodi:cy="1599.6832"
     sodipodi:rx="148.1188"
     sodipodi:ry="443.45874"
     d="m 705.58414,1599.6832 a 148.1188,443.45874 0 1 1 -296.23761,0 148.1188,443.45874 0 1 1 296.23761,0 z"
     transform="matrix(0.92659724,0.41516485,-0.41516485,0.92659724,715.50015,672.9182)" />
  <path
     sodipodi:type="arc"
     style="fill:#f68002;fill-opacity:1;stroke:none"
     id="path4099"
     sodipodi:cx="920.13202"
     sodipodi:cy="3049.4521"
     sodipodi:rx="103.23432"
     sodipodi:ry="155.30032"
     d="m 1023.3663,3049.4521 a 103.23432,155.30032 0 1 1 -206.4686,0 103.23432,155.30032 0 1 1 206.4686,0 z"
     transform="matrix(1.3599524,0.30444349,-0.43466187,0.9525304,909.68813,541.14927)" />
  <path
     sodipodi:type="arc"
     style="fill:#f68002;fill-opacity:1;stroke:none"
     id="path4099-7"
     sodipodi:cx="920.13202"
     sodipodi:cy="3049.4521"
     sodipodi:rx="103.23432"
     sodipodi:ry="155.30032"
     d="m 1023.3663,3049.4521 a 103.23432,155.30032 0 1 1 -206.4686,0 103.23432,155.30032 0 1 1 206.4686,0 z"
     transform="matrix(-1.3599524,0.30444349,0.43466187,0.9525304,1252.4347,529.47931)" />
  <rect
     style="fill:#b655ff;fill-opacity:1;stroke:none"
     id="rect3081"
     width="940.84998"
     height="1798.9052"
     x="587.90277"
     y="1939.7859"
     rx="165.5896"
     ry="165.5896"
     transform="matrix(0.99999765,-0.00216807,0.00216807,0.99999765,0,0)" />
  <rect
     style="fill:#ffffff;fill-opacity:1;stroke:none"
     id="rect3081-3"
     width="670.23828"
     height="1281.4956"
     x="731.42181"
     y="2170.7583"
     rx="117.96194"
     ry="117.96194"
     transform="matrix(0.99999765,-0.00216807,0.00216807,0.99999765,0,0)" />
  <path
     style="fill:#b655ff;fill-opacity:1"
     d="m 1061.1463,2866.3883 c -2.7588,-3.032 -7.3257,-8.7721 -10.1492,-12.7556 -6.3029,-8.8935 -16.6549,-26.3329 -16.6408,-28.0336 0.01,-1.0285 5.7014,-1.2023 32.2136,-0.9835 28.325,0.2337 32.202,0.4357 32.1916,1.6767 -0.031,3.7824 -22.4319,36.1403 -29.7135,42.9214 l -2.8853,2.6872 z m -44.615,0.6474 c -22.4671,-4.0461 -47.4505,-13.3199 -69.2597,-25.7093 -9.8325,-5.5856 -24.6704,-15.4144 -25.611,-16.9648 -0.3892,-0.6415 16.4763,-0.8058 52.331,-0.51 33.1004,0.2731 53.1088,0.7716 53.4484,1.3315 1.0208,1.6824 2.1276,32.7026 1.3476,37.7672 -0.9148,5.9404 -1.2761,6.0629 -12.2563,4.0854 z m 86.9335,1.1121 c -0.819,-1.3502 0.5749,-25.7583 2.0213,-35.3898 l 1.1041,-7.3521 52.6775,0.1972 c 28.9725,0.1084 52.6745,0.5407 52.6709,0.9609 -0.013,1.6044 -21.4586,14.5716 -35.6805,21.5746 -21.6698,10.6702 -46.7647,18.3583 -66.9458,20.5095 -3.5018,0.3733 -5.4168,0.2094 -5.8475,-0.5003 z m -214.83781,-67.6213 c -4.6847,-3.1768 -15.89264,-14.4003 -15.88024,-15.9023 0.008,-0.9493 37.36303,-0.8664 194.60985,0.4313 107.0298,0.883 194.5971,1.9473 194.5936,2.365 -0.012,1.4176 -10.6517,11.3591 -15.6839,14.6539 l -5.008,3.2792 -174.5309,-1.2032 -174.53103,-1.2031 z m -37.0934,-42.0327 c -3.23131,-3.9052 -10.64957,-15.4151 -10.64058,-16.5096 0.004,-0.5105 0.66476,-1.1739 1.46768,-1.4745 2.29964,-0.8609 449.70981,3.0879 451.09391,3.9813 1.0106,0.6519 1.0226,1.2003 0.066,2.977 -1.9615,3.6418 -7.9783,12.0898 -10.5074,14.7527 l -2.3846,2.5108 -213.4242,-1.7611 -213.42401,-1.7614 -2.2466,-2.7152 z m -26.49706,-47.6437 c -11.64935,-25.6513 -19.02683,-49.8435 -22.4335,-73.5633 -1.66315,-11.5796 -1.9622,-34.2376 -0.47142,-35.705 0.76248,-0.7506 3.0664,-0.7312 8.74092,0.072 38.23604,5.4223 85.70266,27.8287 121.79967,57.4954 10.3085,8.4721 27.5827,25.8698 36.0377,36.2952 8.3327,10.2746 17.7594,23.3543 17.7488,24.6272 0,0.4778 -33.0237,0.5508 -78.7283,0.1735 l -78.72125,-0.6495 -3.9726,-8.7474 z m 174.75167,9.2155 c -2.6902,-4.434 -2.3064,-52.0063 0.5776,-71.5719 7.4196,-50.3394 26.8022,-98.7693 53.1092,-132.6989 3.5089,-4.5259 8.64,-10.4096 11.4019,-13.0748 l 5.022,-4.8459 4.8523,5.3876 c 30.1492,33.4744 53.107,87.1235 60.8932,142.2991 2.5841,18.3121 3.2216,37.1673 1.8995,56.1874 -0.6828,9.8202 -1.4643,18.4223 -1.7373,19.1159 -0.4144,1.0542 -11.5675,1.1698 -67.9699,0.7044 -44.9924,-0.3714 -67.6656,-0.8722 -68.048,-1.5028 z m 150.4506,0.9713 c 0.032,-3.8883 21.4303,-29.7893 36.5432,-44.2329 39.8562,-38.0906 96.8756,-66.3484 143.9932,-71.3606 l 5.2172,-0.5548 0.6092,5.2259 c 0.7038,6.0368 -0.261,20.1345 -2.2313,32.6062 -3.2971,20.8711 -12.189,47.815 -23.7208,71.8799 l -4.2823,8.9363 -78.0693,-0.6444 c -63.9539,-0.5277 -78.0674,-0.8632 -78.0591,-1.8556 z"
     id="path3914"
     inkscape:connector-curvature="0"
     sodipodi:nodetypes="sssssscssscsccscscsssccssssccccscscsccccccccsccscsscccccsccssscsccsssccsscss" />
  <text
     xml:space="preserve"
     style="font-size:57.99474335px;font-style:normal;font-weight:normal;line-height:125%;letter-spacing:0px;word-spacing:0px;fill:#b655ff;fill-opacity:1;stroke:none;font-family:Sans"
     x="1217.8019"
     y="3369.4722"
     id="text3934"
     sodipodi:linespacing="125%"
     transform="matrix(0.99974905,0.02240167,-0.02240167,0.99974905,0,0)"><tspan
       sodipodi:role="line"
       id="tspan3936"
       x="1217.8019"
       y="3369.4722"
       style="font-size:208.78108215px;font-style:normal;font-variant:normal;font-weight:bold;font-stretch:normal;fill:#b655ff;fill-opacity:1;font-family:Latin Modern Sans;-inkscape-font-specification:Latin Modern Sans Bold">40</tspan></text>
  <path
     style="fill:#b655ff;fill-opacity:1;stroke:none"
     d="m 594.06475,2084.0987 c 0,0 -30.52145,-245.967 82.58746,-479.3663 L 926.21,922.4882 l 253.1484,1.7954 240.581,658.9043 7.1815,491.9339 z"
     id="path4016"
     inkscape:connector-curvature="0" />
  <rect
     style="fill:#f68002;fill-opacity:1;stroke:none"
     id="rect3956"
     width="342.26434"
     height="211.53101"
     x="879.53003"
     y="719.93408"
     rx="45.098125"
     ry="45.098125" />
  <path
     sodipodi:type="arc"
     style="fill:#ffffff;fill-opacity:1;stroke:none"
     id="path3964"
     sodipodi:cx="985.78619"
     sodipodi:cy="735.74084"
     sodipodi:rx="46.337666"
     sodipodi:ry="46.337666"
     d="m 1032.1239,735.74084 a 46.337666,46.337666 0 1 1 -92.67537,0 46.337666,46.337666 0 1 1 92.67537,0 z"
     transform="matrix(1.0684931,0,0,1.0684931,-110.61546,648.9234)" />
  <path
     sodipodi:type="arc"
     style="fill:#b655ff;fill-opacity:1;stroke:none"
     id="path3964-7"
     sodipodi:cx="985.78619"
     sodipodi:cy="735.74084"
     sodipodi:rx="46.337666"
     sodipodi:ry="46.337666"
     d="m 1032.1239,735.74084 a 46.337666,46.337666 0 1 1 -92.67537,0 46.337666,46.337666 0 1 1 92.67537,0 z"
     transform="matrix(0.60273969,0,0,0.60273969,348.51782,991.5972)" />
  <path
     sodipodi:type="arc"
     style="fill:#ffffff;fill-opacity:1;stroke:none"
     id="path3964-2"
     sodipodi:cx="985.78619"
     sodipodi:cy="735.74084"
     sodipodi:rx="46.337666"
     sodipodi:ry="46.337666"
     d="m 1032.1239,735.74084 a 46.337666,46.337666 0 1 1 -92.67537,0 46.337666,46.337666 0 1 1 92.67537,0 z"
     transform="matrix(1.0684931,0,0,1.0684931,205.04943,648.03735)" />
  <path
     sodipodi:type="arc"
     style="fill:#b655ff;fill-opacity:1;stroke:none"
     id="path3964-7-3"
     sodipodi:cx="985.78619"
     sodipodi:cy="735.74084"
     sodipodi:rx="46.337666"
     sodipodi:ry="46.337666"
     d="m 1032.1239,735.74084 a 46.337666,46.337666 0 1 1 -92.67537,0 46.337666,46.337666 0 1 1 92.67537,0 z"
     transform="matrix(0.60273969,0,0,0.60273969,664.18274,990.7112)" />
  <g
     id="g4343"
     transform="matrix(0.9799001,-0.19948885,0.19948885,0.9799001,-1507.802,-205.89691)">
    <g
       id="g4088">
      <rect
         style="fill:#ffffff;fill-opacity:1;stroke:#000000;stroke-width:9.48033905;stroke-miterlimit:4;stroke-opacity:1;stroke-dasharray:none"
         id="rect3984"
         width="430.60446"
         height="187.21931"
         x="1590.0757"
         y="265.97806"
         rx="39.481392"
         ry="39.481392"
         transform="matrix(0.98028343,0.19759657,-0.19759657,0.98028343,0,0)" />
      <path
         style="fill:#ffffff;fill-opacity:1;stroke:#000000;stroke-width:9;stroke-linecap:butt;stroke-linejoin:miter;stroke-miterlimit:4;stroke-opacity:1;stroke-dasharray:none"
         d="m 1552.6291,769.90914 c -25.3905,118.06583 81.2496,118.8095 81.2496,118.8095 0,0 -42.4905,-38.31018 -15.8305,-105.595"
         id="path3986"
         inkscape:connector-curvature="0"
         sodipodi:nodetypes="ccc" />
    </g>
    <path
       sodipodi:nodetypes="ssssscccccccccsscsssssssssssssssscccscsscssssssssssssscccccsscsssssscsssssssssscccccscsssssssscscccssssssssccccssssssssccssscccssssssssscsssssssssssssssscssss"
       inkscape:connector-curvature="0"
       id="path4075"
       d="m 1559.3264,714.93388 c -15.3954,-5.62412 -22.6578,-23.31363 -15.7052,-38.25383 2.8764,-6.18092 8.4236,-11.5303 14.4783,-13.96209 9.0181,-3.62199 20.6476,-2.13621 28.3523,3.62229 1.3521,1.01056 2.5854,1.86367 2.7408,1.89581 0.1551,0.0321 0.5786,-0.64013 0.9412,-1.49388 l 0.659,-1.55234 6.2545,1.4514 6.2544,1.45138 -5.416,26.1709 -5.4162,26.17088 -6.2925,-1.14544 -6.2923,-1.14543 -0.059,-1.42231 c -0.033,-0.78225 -0.1238,-1.43559 -0.2022,-1.45181 -0.078,-0.0162 -1.6847,0.3064 -3.5692,0.71697 -3.2301,0.70378 -10.4661,0.85353 -12.7952,0.26483 -0.5823,-0.14714 -2.3518,-0.73996 -3.9322,-1.31733 z m 13.2625,-11.10256 c 13.5488,-3.06076 16.9502,-19.71634 5.7016,-27.92117 -2.9062,-2.11984 -8.2411,-3.36979 -11.5218,-2.69956 -2.8638,0.58498 -7.6763,3.53059 -9.6511,5.90719 -2.1365,2.57118 -3.7867,9.98687 -2.8856,12.96777 1.0146,3.35648 3.5285,7.08081 6.0467,8.95843 3.1103,2.31915 8.7395,3.59377 12.3098,2.78726 z m 47.6545,23.69285 c -7.4533,-2.57086 -14.9245,-10.54789 -17.2289,-18.39518 -5.0893,-17.33084 7.3765,-34.90443 25.4086,-35.82009 6.4586,-0.32795 14.312,2.06405 19.2647,5.86762 1.1424,0.87728 2.2414,1.62908 2.4424,1.67069 0.201,0.0416 1.2816,-4.35108 2.4013,-9.76151 1.1197,-5.41045 2.2604,-10.18717 2.5349,-10.61492 0.4163,-0.64887 1.5515,-0.55991 6.851,0.53683 l 6.3521,1.31457 -7.3505,35.51764 -7.3504,35.51763 -6.3989,-1.32428 c -6.3803,-1.32039 -6.3993,-1.32837 -6.4579,-2.7289 -0.033,-0.77253 -0.123,-1.41789 -0.2015,-1.43413 -0.078,-0.0162 -1.6845,0.3064 -3.5691,0.71697 -3.0917,0.6736 -10.5237,0.86196 -12.5277,0.3175 -0.435,-0.1182 -2.3115,-0.73937 -4.1701,-1.38044 z m 13.4438,-11.13434 c 11.0918,-2.48284 15.8474,-14.92654 9.2218,-24.12988 -2.6852,-3.72977 -4.8641,-5.18422 -9.098,-6.07292 -12.6444,-2.65415 -22.982,10.02184 -17.4953,21.45239 1.2764,2.65904 3.645,5.34585 5.9489,6.74849 2.8504,1.73523 8.3265,2.69496 11.4226,2.00192 z m 68.2325,28.07595 c -16.3007,-6.08759 -23.2415,-25.67175 -14.3879,-40.5962 4.7654,-8.03248 12.8517,-12.9481 22.5277,-13.69437 5.1094,-0.39406 13.0565,1.74039 17.2122,4.62292 1.7411,1.20779 3.5545,2.41065 4.0297,2.67302 0.7958,0.43933 1.0491,-0.35918 3.2044,-10.10069 l 2.3403,-10.57778 6.3069,1.1483 6.3068,1.14828 -7.354,35.5346 -7.354,35.53459 -6.1554,-1.27388 c -6.1259,-1.26777 -6.1564,-1.28114 -6.3941,-2.76098 -0.1314,-0.81794 -0.4363,-1.4341 -0.6776,-1.36926 -7.2047,1.93607 -13.9124,1.83734 -19.605,-0.28855 z m 12.4685,-11.0838 c 3.482,-0.43516 7.0342,-2.47485 9.6876,-5.56269 1.879,-2.1867 2.2893,-3.08356 2.9932,-6.54259 0.6678,-3.28592 0.6607,-4.5517 -0.043,-7.02119 -2.9145,-10.22888 -14.0393,-14.70557 -22.9459,-9.23354 -3.7603,2.31023 -5.9313,5.48827 -6.8815,10.07303 -0.6451,3.11718 -0.6691,4.56051 -0.1042,6.50742 1.816,6.25858 5.8239,10.27156 11.4139,11.42844 1.7994,0.37238 4.4453,0.53039 5.8798,0.35112 z m 48.6544,23.75667 c -8.0911,-2.98376 -14.2095,-9.1008 -17.2257,-17.22221 -3.5421,-9.53674 -0.909,-21.42116 6.3799,-28.79647 4.7359,-4.79207 9.9878,-7.2764 17.2356,-8.15313 3.9623,-0.47927 5.0339,-0.3867 9.9965,0.86352 5.3763,1.35443 6.7531,2.03324 12.4401,6.13343 0.3042,0.21934 0.8297,-0.29348 1.2039,-1.17476 l 0.6639,-1.56405 6.4227,1.32916 6.4224,1.32915 -5.4713,26.43796 -5.4714,26.43793 -6.3991,-1.3243 c -6.3801,-1.32037 -6.3991,-1.32835 -6.4577,-2.72888 -0.07,-1.68256 0.029,-1.65024 -2.7283,-0.89427 -5.0149,1.37538 -12.2309,1.08987 -17.0115,-0.67308 z m 13.0174,-11.18971 c 1.3179,-0.29779 3.4879,-1.25877 4.8222,-2.1355 10.0498,-6.6033 9.4026,-21.41233 -1.1807,-27.0163 -8.9714,-4.75055 -20.8172,1.76735 -22.0607,12.13848 -0.6194,5.16785 1.7489,10.72316 5.9953,14.06239 3.1406,2.46965 8.7047,3.79126 12.4239,2.95093 z m 44.0275,22.94225 c -10.2209,-3.53652 -16.5577,-11.35938 -15.6785,-19.35541 l 0.2096,-1.90604 6.8157,1.25485 6.8158,1.25484 0.1318,2.23097 c 0.1538,2.60767 1.9888,5.19274 4.6611,6.56695 4.4789,2.3032 10.6569,2.25586 13.158,-0.10095 3.0736,-2.89648 1.307,-6.36432 -4.373,-8.59032 -8.4906,-3.32706 -9.9029,-3.95209 -13.595,-6.01628 -6.9032,-3.8595 -9.5714,-9.35508 -8.0685,-16.61736 2.1463,-10.37137 11.7857,-15.11723 25.0797,-12.3478 7.9734,1.66101 13.1034,4.85567 16.3564,10.18599 2.1396,3.50596 3.1471,7.22478 2.6419,9.75213 l -0.3476,1.73823 -6.1319,-1.269 -6.1318,-1.26898 -0.6871,-2.78781 c -0.9724,-3.94631 -2.7643,-5.27025 -8.4285,-6.22769 -5.3741,-0.90845 -7.5592,-0.20118 -8.4328,2.72968 -0.4446,1.49126 -0.3189,2.13273 0.6406,3.27144 1.4791,1.75526 3.2479,2.67892 10.8444,5.66305 8.3934,3.29714 11.504,5.27745 14.4731,9.21421 3.1878,4.22656 3.4746,9.61848 0.8024,15.08223 -3.5275,7.21271 -10.4666,10.41229 -20.8871,9.63081 -4.4782,-0.33584 -5.3207,-0.51407 -9.8688,-2.0878 z m -159.6077,-34.96738 c -0.2292,-1.39923 10.0919,-50.68534 10.7581,-51.3731 0.4278,-0.44163 2.148,-0.22982 6.645,0.81823 l 6.0679,1.41413 -5.4161,26.1709 -5.4161,26.17088 -6.2434,-1.13571 c -5.3378,-0.97102 -6.2652,-1.27045 -6.3954,-2.06533 z m 195.2839,-18.12354 c 4.0538,-2.30578 4.1606,-2.3501 3.6159,-1.50117 -0.3061,0.47687 -1.3868,1.09051 -2.4018,1.36363 -1.015,0.27313 -1.5613,0.33502 -1.2141,0.13754 z M 1672.682,676.08239 c -0.3995,-1.35193 1.4757,-10.82558 2.314,-11.69108 0.4278,-0.44162 2.1479,-0.2298 6.645,0.81824 l 6.0679,1.41412 -1.0477,5.82942 c -0.6898,3.8378 -1.3116,6.04015 -1.8201,6.44626 -0.5694,0.45485 -2.2233,0.31661 -6.2961,-0.52627 -4.9146,-1.0171 -5.5612,-1.26973 -5.863,-2.29069 z m 179.9319,32.60553 c 0.8399,-3.26646 0.8696,-3.3031 2.5309,-3.12502 2.1088,0.22609 2.5644,1.11967 2.2435,4.40038 -0.2769,2.831 -1.0443,3.67185 -1.6085,1.76257 -0.4557,-1.54171 -1.8736,-1.84393 -2.5208,-0.53723 -1.066,2.15238 -1.4543,0.64678 -0.6451,-2.50065 z m 3.6064,-0.29064 c 0.6955,-0.73535 -0.5932,-1.79289 -1.5592,-1.27938 -0.438,0.23288 -0.7087,0.66379 -0.6016,0.95758 0.2725,0.74791 1.5742,0.94178 2.1608,0.3218 z m 4.4812,3.18039 c 1.9293,-5.28866 -3.8413,-10.17184 -8.9911,-7.60854 l -2.0657,1.02817 2.0884,-1.30197 c 4.906,-3.05852 10.9715,1.44192 9.7698,7.24886 -0.2057,0.99403 -0.596,1.88824 -0.8674,1.98714 -0.2715,0.0989 -0.2418,-0.51024 0.066,-1.35366 z"
       style="fill:#070707" />
  </g>
  <path
     sodipodi:type="arc"
     style="fill:#ff5555;fill-opacity:1;stroke:none"
     id="path4018-5-9"
     sodipodi:cx="557.46533"
     sodipodi:cy="1599.6832"
     sodipodi:rx="148.1188"
     sodipodi:ry="443.45874"
     d="m 705.58414,1599.6832 a 148.1188,443.45874 0 1 1 -296.23761,0 148.1188,443.45874 0 1 1 296.23761,0 z"
     transform="matrix(0.39995782,-0.0031966,0.0031966,0.39995782,1576.8941,1075.7423)" />
  <path
     sodipodi:type="arc"
     style="fill:#ff5555;fill-opacity:1;stroke:none"
     id="path4018-4"
     sodipodi:cx="557.46533"
     sodipodi:cy="1599.6832"
     sodipodi:rx="148.1188"
     sodipodi:ry="443.45874"
     d="m 705.58414,1599.6832 a 148.1188,443.45874 0 1 1 -296.23761,0 148.1188,443.45874 0 1 1 296.23761,0 z"
     transform="matrix(0.34369871,-0.20456705,0.20456705,0.34369871,1104.5068,1683.3415)" />
  <path
     sodipodi:type="arc"
     style="fill:#f68002;fill-opacity:1;stroke:none"
     id="path4099-1"
     sodipodi:cx="920.13202"
     sodipodi:cy="3049.4521"
     sodipodi:rx="103.23432"
     sodipodi:ry="155.30032"
     d="m 1023.3663,3049.4521 a 103.23432,155.30032 0 1 1 -206.4686,0 103.23432,155.30032 0 1 1 206.4686,0 z"
     transform="matrix(0.40618502,-0.36930647,0.20850785,0.35585669,1106.0312,1590.9107)" />
  <path
     sodipodi:type="arc"
     style="fill:#f68002;fill-opacity:1;stroke:none"
     id="path4099-7-6"
     sodipodi:cx="920.13202"
     sodipodi:cy="3049.4521"
     sodipodi:rx="103.23432"
     sodipodi:ry="155.30032"
     d="m 1023.3663,3049.4521 a 103.23432,155.30032 0 1 1 -206.4686,0 103.23432,155.30032 0 1 1 206.4686,0 z"
     transform="matrix(-0.20995874,0.50723847,0.40543695,0.07569934,1179.9132,1477.81)" />
  <rect
     style="fill:#ff5555;fill-opacity:1;stroke:none"
     id="rect3081-35"
     width="370.6217"
     height="708.62866"
     x="-795.73413"
     y="2368.4651"
     rx="65.229424"
     ry="65.229424"
     transform="matrix(0.57329119,-0.8193517,0.8193517,0.57329119,0,0)" />
  <rect
     style="fill:#ffffff;fill-opacity:1;stroke:none"
     id="rect3081-3-4"
     width="264.02173"
     height="504.80957"
     x="-739.19836"
     y="2459.45"
     rx="46.467827"
     ry="46.467827"
     transform="matrix(0.57329119,-0.8193517,0.8193517,0.57329119,0,0)" />
  <path
     style="fill:#ff5555;fill-opacity:1"
     d="m 1889.6972,2068.8397 c -1.6021,0.2023 -4.4865,0.3738 -6.4099,0.3813 -4.2939,0.017 -12.2591,-0.5979 -12.804,-0.9877 -0.3296,-0.2357 0.9041,-2.1097 6.9804,-10.6043 6.4918,-9.0753 7.4352,-10.279 7.8328,-9.9945 1.2118,0.8669 6.5654,15.416 7.1012,19.2988 l 0.2124,1.5386 z m -9.8981,14.5248 c -6.3934,6.3239 -15.0416,12.2745 -23.9748,16.4964 -4.0275,1.9034 -10.5562,4.4587 -11.2689,4.4106 -0.295,-0.02 3.4726,-5.4924 11.6902,-16.9803 7.5863,-10.6054 12.2795,-16.9406 12.5369,-16.9232 0.7734,0.052 11.021,6.7225 12.4765,8.1212 1.7071,1.6405 1.6648,1.7846 -1.4599,4.8753 z m 20.0516,-27.7642 c -0.6207,-0.042 -8.1709,-6.0203 -10.9472,-8.6683 l -2.1192,-2.0213 11.9966,-16.9317 c 6.5981,-9.3125 12.1067,-16.853 12.2413,-16.7566 0.514,0.3677 -0.1651,10.2164 -1.1299,16.3861 -1.4702,9.4006 -4.6773,19.2296 -8.5557,26.2207 -0.673,1.2131 -1.1596,1.7931 -1.4859,1.7711 z m -70.4598,53.9176 c -2.0851,0.79 -8.241,1.8596 -8.7223,1.5153 -0.3041,-0.2176 8.1847,-12.2373 44.2242,-62.6193 24.5302,-34.2925 44.71,-62.2718 44.8438,-62.176 0.4542,0.3249 1.2478,6.0059 1.1696,8.374 l -0.078,2.3568 -39.9244,55.9736 -39.9245,55.9736 z m -21.9488,2.4323 c -1.9905,0.1567 -7.3803,-0.06 -7.7309,-0.3108 -0.1637,-0.1168 -0.2278,-0.4801 -0.1428,-0.807 0.2435,-0.9361 102.8686,-144.2286 103.47,-144.4724 0.439,-0.1779 0.6185,-0.058 0.9743,0.6533 0.7293,1.4571 2.0889,5.3099 2.3741,6.7281 l 0.269,1.3373 -48.9149,68.3814 -48.9148,68.3812 -1.384,0.109 z m -21.3565,-2.2535 c -10.9057,-2.0566 -20.3733,-5.1594 -28.7892,-9.4348 -4.1085,-2.0871 -11.4783,-7.1235 -11.6135,-7.9364 -0.069,-0.4157 0.459,-1.1538 2.0034,-2.8006 10.4091,-11.094 28.3827,-21.3153 46.1205,-26.2279 5.0655,-1.4029 14.5854,-3.0288 19.8605,-3.3919 5.1989,-0.3579 11.5495,-0.4328 11.9573,-0.1411 0.1529,0.1097 -7.3034,10.7674 -17.7785,25.4111 l -18.0422,25.2224 -3.7189,-0.7013 z m 42.5566,-54.2297 c -2.0384,-0.1375 -17.2826,-11.0378 -22.9347,-16.3995 -14.5421,-13.7946 -25.7589,-31.0119 -30.734,-47.176 -0.6637,-2.156 -1.3975,-5.1425 -1.6307,-6.6363 l -0.4241,-2.7162 2.8355,-0.3433 c 17.6175,-2.1332 40.1077,2.6214 59.653,12.6111 6.4868,3.3155 12.7077,7.3814 18.5378,12.1161 3.0101,2.4446 5.6053,4.6451 5.767,4.8902 0.2458,0.3724 -2.2435,3.9929 -15.1704,22.0643 -10.3118,14.4156 -15.6094,21.609 -15.8993,21.5894 z m 34.3948,-48.2658 c -1.2458,-0.8912 -4.7456,-13.6546 -5.9768,-21.7969 -3.2468,-21.4732 0.5632,-46.2502 9.6216,-62.5702 l 1.003,-1.8071 1.8222,0.9876 c 2.1049,1.1407 6.4296,4.6452 10.0026,8.1054 5.9792,5.7905 12.6481,14.7597 17.7912,23.9276 l 1.9099,3.4043 -17.8929,25.0135 c -14.6576,20.4909 -17.9629,24.9633 -18.2808,24.7358 z"
     id="path3914-8"
     inkscape:connector-curvature="0"
     sodipodi:nodetypes="sssssscssscsccscscsssccssssccccscscsccccccccsccscsscccccsccssscsccsssccsscss" />
  <text
     xml:space="preserve"
     style="font-size:22.84541702px;font-style:normal;font-weight:normal;line-height:125%;letter-spacing:0px;word-spacing:0px;fill:#ff5555;fill-opacity:1;stroke:none;font-family:Sans"
     x="-507.87347"
     y="2956.4001"
     id="text3934-7"
     sodipodi:linespacing="125%"
     transform="matrix(0.5932489,-0.80501909,0.80501909,0.5932489,0,0)"><tspan
       sodipodi:role="line"
       id="tspan3936-3"
       x="-507.87347"
       y="2956.4001"
       style="font-size:82.24350739px;font-style:normal;font-variant:normal;font-weight:bold;font-stretch:normal;fill:#ff5555;fill-opacity:1;font-family:Latin Modern Sans;-inkscape-font-specification:Latin Modern Sans Bold">40</tspan></text>
  <path
     style="fill:#ff5555;fill-opacity:1;stroke:none"
     d="m 1531.7797,2042.1532 c 0,0 -86.1819,-45.8831 -135.7769,-135.207 l -163.3346,-234.9748 57.9246,-81.1756 266.8446,71.7304 160.1627,109.1241 z"
     id="path4016-3"
     inkscape:connector-curvature="0" />
  <rect
     style="fill:#ff5555;fill-opacity:1;stroke:none"
     id="rect3956-0"
     width="134.82553"
     height="83.326759"
     x="-677.37262"
     y="1890.1591"
     rx="17.765154"
     ry="17.765154"
     transform="matrix(0.57506626,-0.81810684,0.81810684,0.57506626,0,0)" />
  <path
     sodipodi:type="arc"
     style="fill:#ffffff;fill-opacity:1;stroke:none"
     id="path3964-1"
     sodipodi:cx="985.78619"
     sodipodi:cy="735.74084"
     sodipodi:rx="46.337666"
     sodipodi:ry="46.337666"
     d="m 1032.1239,735.74084 a 46.337666,46.337666 0 1 1 -92.67537,0 46.337666,46.337666 0 1 1 92.67537,0 z"
     transform="matrix(0.24204721,-0.34434375,0.34434375,0.24204721,909.63286,1944.1386)" />
  <path
     sodipodi:type="arc"
     style="fill:#ff5555;fill-opacity:1;stroke:none"
     id="path3964-7-4"
     sodipodi:cx="985.78619"
     sodipodi:cy="735.74084"
     sodipodi:rx="46.337666"
     sodipodi:ry="46.337666"
     d="m 1032.1239,735.74084 a 46.337666,46.337666 0 1 1 -92.67537,0 46.337666,46.337666 0 1 1 92.67537,0 z"
     transform="matrix(0.13653945,-0.19424519,0.19424519,0.13653945,1124.0746,1873.7998)" />
  <path
     sodipodi:type="arc"
     style="fill:#ffffff;fill-opacity:1;stroke:none"
     id="path3964-2-5"
     sodipodi:cx="985.78619"
     sodipodi:cy="735.74084"
     sodipodi:rx="46.337666"
     sodipodi:ry="46.337666"
     d="m 1032.1239,735.74084 a 46.337666,46.337666 0 1 1 -92.67537,0 46.337666,46.337666 0 1 1 92.67537,0 z"
     transform="matrix(0.24204721,-0.34434375,0.34434375,0.24204721,980.8553,1842.2084)" />
  <path
     sodipodi:type="arc"
     style="fill:#ff5555;fill-opacity:1;stroke:none"
     id="path3964-7-3-7"
     sodipodi:cx="985.78619"
     sodipodi:cy="735.74084"
     sodipodi:rx="46.337666"
     sodipodi:ry="46.337666"
     d="m 1032.1239,735.74084 a 46.337666,46.337666 0 1 1 -92.67537,0 46.337666,46.337666 0 1 1 92.67537,0 z"
     transform="matrix(0.13653945,-0.19424519,0.19424519,0.13653945,1195.297,1771.8696)" />
  <path
     style="fill:#f68002;fill-opacity:1;stroke:none"
     d="m 1084.8771,1647.0681 c 0,0 -54.5896,-91.4058 31.7381,-140.9172 0,0 389.7443,25.3905 415.1348,154.882 0,0 -196.7764,-66.0153 -364.3538,-38.0857 0,0 25.3905,45.7029 152.3431,64.7457 0,0 -33.0077,59.6677 -234.8622,-40.6248 z"
     id="path3962"
     inkscape:connector-curvature="0" />
  <path
     sodipodi:type="arc"
     style="fill:#b655ff;fill-opacity:1;stroke:none"
     id="path4018-5-1"
     sodipodi:cx="557.46533"
     sodipodi:cy="1599.6832"
     sodipodi:rx="148.1188"
     sodipodi:ry="443.45874"
     d="m 705.58414,1599.6832 a 148.1188,443.45874 0 1 1 -296.23761,0 148.1188,443.45874 0 1 1 296.23761,0 z"
     transform="matrix(-0.2352681,0.30258871,-0.30258871,-0.2352681,2602.3725,2147.9864)" />
  <path
     sodipodi:type="arc"
     style="fill:#ffdc55;fill-opacity:1;stroke:none"
     id="path4018-5-9-8"
     sodipodi:cx="557.46533"
     sodipodi:cy="1599.6832"
     sodipodi:rx="148.1188"
     sodipodi:ry="443.45874"
     d="m 705.58414,1599.6832 a 148.1188,443.45874 0 1 1 -296.23761,0 148.1188,443.45874 0 1 1 296.23761,0 z"
     transform="matrix(0.08176479,-0.13143721,0.13143721,0.08176479,1426.5764,1505.7677)" />
  <path
     sodipodi:type="arc"
     style="fill:#ffdc55;fill-opacity:1;stroke:none"
     id="path4018-4-9"
     sodipodi:cx="557.46533"
     sodipodi:cy="1599.6832"
     sodipodi:rx="148.1188"
     sodipodi:ry="443.45874"
     d="m 705.58414,1599.6832 a 148.1188,443.45874 0 1 1 -296.23761,0 148.1188,443.45874 0 1 1 296.23761,0 z"
     transform="matrix(0.00427385,-0.15473512,0.15473512,0.00427385,1527.4386,1786.0269)" />
  <path
     sodipodi:type="arc"
     style="fill:#f68002;fill-opacity:1;stroke:none"
     id="path4099-1-9"
     sodipodi:cx="920.13202"
     sodipodi:cy="3049.4521"
     sodipodi:rx="103.23432"
     sodipodi:ry="155.30032"
     d="m 1023.3663,3049.4521 a 103.23432,155.30032 0 1 1 -206.4686,0 103.23432,155.30032 0 1 1 206.4686,0 z"
     transform="matrix(-0.03665389,-0.20927522,0.15952637,0.00550258,1497.5319,1766.391)" />
  <path
     sodipodi:type="arc"
     style="fill:#f68002;fill-opacity:1;stroke:none"
     id="path4099-7-6-3"
     sodipodi:cx="920.13202"
     sodipodi:cy="3049.4521"
     sodipodi:rx="103.23432"
     sodipodi:ry="155.30032"
     d="m 1023.3663,3049.4521 a 103.23432,155.30032 0 1 1 -206.4686,0 103.23432,155.30032 0 1 1 206.4686,0 z"
     transform="matrix(0.12238194,0.17367293,0.10869606,-0.11689358,1475.848,1718.8164)" />
  <rect
     style="fill:#ffdc55;fill-opacity:1;stroke:none"
     id="rect3081-35-9"
     width="143.4357"
     height="274.24905"
     x="-2256.0642"
     y="913.68323"
     rx="25.244684"
     ry="25.244684"
     transform="matrix(-0.38553584,-0.92269286,0.92269286,-0.38553584,0,0)" />
  <rect
     style="fill:#ffffff;fill-opacity:1;stroke:none"
     id="rect3081-3-4-4"
     width="102.18004"
     height="195.36826"
     x="-2234.1792"
     y="948.89526"
     rx="17.983688"
     ry="17.983688"
     transform="matrix(-0.38553584,-0.92269286,0.92269286,-0.38553584,0,0)" />
  <path
     style="fill:#ffdc55;fill-opacity:1"
     d="m 1816.0572,1609.1072 c -0.2656,0.5657 -0.8067,1.5443 -1.2025,2.1748 -0.8836,1.4074 -2.7337,3.8846 -2.9739,3.9821 -0.1453,0.059 -0.5027,-0.7325 -2.022,-4.478 -1.6234,-4.0017 -1.8216,-4.5593 -1.6463,-4.6305 0.5344,-0.2167 6.4,1.0452 7.7805,1.6739 l 0.5471,0.2491 z m 2.6999,6.2437 c 0.744,3.3999 0.8991,7.4596 0.4299,11.2546 -0.2115,1.711 -0.7277,4.3748 -0.891,4.5979 -0.068,0.092 -1.0769,-2.2726 -3.1317,-7.3381 -1.8969,-4.6763 -2.9967,-7.5225 -2.9377,-7.6031 0.1772,-0.2421 4.4799,-2.2117 5.2386,-2.3981 0.8899,-0.2185 0.9283,-0.1748 1.2919,1.4868 z m -4.9265,-12.3048 c -0.1423,0.1943 -3.6603,1.4252 -5.1009,1.7847 l -1.0997,0.2744 -3.0524,-7.4282 c -1.6788,-4.0855 -3.0038,-7.4479 -2.9444,-7.472 0.2266,-0.092 3.3063,2.1693 5.1239,3.7622 2.7693,2.427 5.3191,5.5107 6.802,8.2263 0.2573,0.4713 0.3462,0.7504 0.2715,0.8526 z m 3.0411,34.2019 c -0.1734,0.8454 -1.0983,3.0796 -1.3105,3.1657 -0.1341,0.054 -2.3066,-5.2099 -11.3183,-27.4252 -6.1338,-15.1209 -11.1042,-27.5122 -11.0451,-27.5361 0.2003,-0.081 2.2221,0.8355 2.9802,1.3514 l 0.7546,0.5133 10.0356,24.6433 10.0356,24.6434 z m -3.7491,7.6803 c -0.3609,0.6832 -1.5477,2.4007 -1.7023,2.4634 -0.072,0.029 -0.2042,-0.025 -0.2935,-0.1204 -0.2556,-0.2734 -25.8602,-63.4973 -25.8154,-63.7444 0.033,-0.1804 0.1092,-0.2142 0.4153,-0.1833 0.6275,0.063 2.1687,0.4164 2.6915,0.6168 l 0.4929,0.1889 12.2312,30.152 12.2312,30.1519 -0.251,0.4751 z m -5.1587,6.5164 c -2.9305,3.14 -5.9052,5.5933 -9.0456,7.4599 -1.5331,0.9112 -4.7058,2.2781 -4.9995,2.154 -0.1503,-0.063 -0.2823,-0.389 -0.501,-1.2349 -1.4722,-5.7005 -1.093,-13.6936 0.9733,-20.5105 0.5901,-1.9468 2.0295,-5.3962 3.003,-7.1962 0.9594,-1.774 2.2498,-3.866 2.4296,-3.9389 0.067,-0.027 2.0085,4.6174 4.6278,11.0744 l 4.5114,11.1215 -0.9993,1.0708 z m -8.9204,-25.143 c -0.467,0.6381 -7.1874,3.3657 -10.1108,4.1036 -7.5213,1.8988 -15.4733,2.0016 -21.7886,0.2816 -0.8424,-0.2294 -1.9708,-0.6078 -2.5075,-0.8409 l -0.976,-0.4237 0.4748,-0.9982 c 2.9502,-6.2021 9.1614,-12.5714 16.4745,-16.8938 2.4272,-1.4345 5.0446,-2.6268 7.7998,-3.5528 1.4226,-0.478 2.6794,-0.871 2.793,-0.8731 0.1727,0 0.8411,1.5602 4.0735,9.5286 2.5784,6.3564 3.8337,9.578 3.7672,9.6687 z m -8.6603,-21.2394 c -0.5493,0.2228 -5.4472,-1.2755 -8.3645,-2.5587 -7.6934,-3.3843 -15.0059,-9.7601 -18.4666,-16.101 l -0.3832,-0.7021 0.7002,-0.3913 c 0.8088,-0.4521 2.8501,-1.1406 4.7212,-1.5924 3.1313,-0.7561 7.4448,-1.0797 11.5073,-0.8631 l 1.5086,0.08 4.474,11.0295 c 3.6652,9.0352 4.4432,11.0419 4.303,11.0987 z"
     id="path3914-8-6"
     inkscape:connector-curvature="0"
     sodipodi:nodetypes="sssssscssscsccscscsssccssssccccscscsccccccccsccscsscccccsccssscsccsssccsscss" />
  <text
     xml:space="preserve"
     style="font-size:8.84149075px;font-style:normal;font-weight:normal;line-height:125%;letter-spacing:0px;word-spacing:0px;fill:#ffdc55;fill-opacity:1;stroke:none;font-family:Sans"
     x="-2144.1467"
     y="1189.084"
     id="text3934-7-4"
     sodipodi:linespacing="125%"
     transform="matrix(-0.36274968,-0.93188662,0.93188662,-0.36274968,0,0)"><tspan
       sodipodi:role="line"
       id="tspan3936-3-5"
       x="-2144.1467"
       y="1189.084"
       style="font-size:31.82936859px;font-style:normal;font-variant:normal;font-weight:bold;font-stretch:normal;fill:#ffdc55;fill-opacity:1;font-family:Latin Modern Sans;-inkscape-font-specification:Latin Modern Sans Bold">40</tspan></text>
  <path
     style="fill:#ffdc55;fill-opacity:1;stroke:none"
     d="m 1733.2258,1720.6111 c 0,0 -32.8462,18.6792 -72.3212,16.4012 l -110.6483,4.7552 -14.5491,-35.7469 78.7032,-72.3994 68.8418,-29.775 z"
     id="path4016-3-5"
     inkscape:connector-curvature="0" />
  <rect
     style="fill:#ffdc55;fill-opacity:1;stroke:none"
     id="rect3956-0-6"
     width="52.179337"
     height="32.248604"
     x="-2210.2581"
     y="732.79572"
     rx="6.8753591"
     ry="6.8753591"
     transform="matrix(-0.38353448,-0.92352656,0.92352656,-0.38353448,0,0)" />
  <path
     sodipodi:type="arc"
     style="fill:#ffffff;fill-opacity:1;stroke:none"
     id="path3964-1-0"
     sodipodi:cx="985.78619"
     sodipodi:cy="735.74084"
     sodipodi:rx="46.337666"
     sodipodi:ry="46.337666"
     d="m 1032.1239,735.74084 a 46.337666,46.337666 0 1 1 -92.67537,0 46.337666,46.337666 0 1 1 92.67537,0 z"
     transform="matrix(-0.06247597,-0.15043815,0.15043815,-0.06247597,1572.3642,1903.7426)" />
  <path
     sodipodi:type="arc"
     style="fill:#ffdc55;fill-opacity:1;stroke:none"
     id="path3964-7-4-6"
     sodipodi:cx="985.78619"
     sodipodi:cy="735.74084"
     sodipodi:rx="46.337666"
     sodipodi:ry="46.337666"
     d="m 1032.1239,735.74084 a 46.337666,46.337666 0 1 1 -92.67537,0 46.337666,46.337666 0 1 1 92.67537,0 z"
     transform="matrix(-0.03524285,-0.08486255,0.08486255,-0.03524285,1593.7648,1819.0626)" />
  <path
     sodipodi:type="arc"
     style="fill:#ffffff;fill-opacity:1;stroke:none"
     id="path3964-2-5-2"
     sodipodi:cx="985.78619"
     sodipodi:cy="735.74084"
     sodipodi:rx="46.337666"
     sodipodi:ry="46.337666"
     d="m 1032.1239,735.74084 a 46.337666,46.337666 0 1 1 -92.67537,0 46.337666,46.337666 0 1 1 92.67537,0 z"
     transform="matrix(-0.06247597,-0.15043815,0.15043815,-0.06247597,1553.7821,1859.3505)" />
  <path
     sodipodi:type="arc"
     style="fill:#ffdc55;fill-opacity:1;stroke:none"
     id="path3964-7-3-7-6"
     sodipodi:cx="985.78619"
     sodipodi:cy="735.74084"
     sodipodi:rx="46.337666"
     sodipodi:ry="46.337666"
     d="m 1032.1239,735.74084 a 46.337666,46.337666 0 1 1 -92.67537,0 46.337666,46.337666 0 1 1 92.67537,0 z"
     transform="matrix(-0.03524285,-0.08486255,0.08486255,-0.03524285,1575.1827,1774.6705)" />
  <path
     style="fill:#f68002;fill-opacity:1;stroke:none"
     d="m 1502.1221,1784.9777 c 0,0 -41.8237,-3.1136 -38.2238,-42.1504 0,0 96.4719,-119.8513 143.9549,-98.7 0,0 -65.8508,48.4606 -94.8114,108.7928 0,0 20.4804,2.1705 55.3761,-34.4287 0,0 11.7519,24.154 -66.2958,66.4863 z"
     id="path3962-5"
     inkscape:connector-curvature="0" />
  <path
     sodipodi:type="arc"
     style="fill:#90ff55;fill-opacity:1;stroke:none"
     id="path4018-5-9-8-2"
     sodipodi:cx="557.46533"
     sodipodi:cy="1599.6832"
     sodipodi:rx="148.1188"
     sodipodi:ry="443.45874"
     d="m 705.58414,1599.6832 a 148.1188,443.45874 0 1 1 -296.23761,0 148.1188,443.45874 0 1 1 296.23761,0 z"
     transform="matrix(-0.02600123,-0.06356004,0.06356004,-0.02600123,1523.3601,1640.0164)" />
  <path
     sodipodi:type="arc"
     style="fill:#90ff55;fill-opacity:1;stroke:none"
     id="path4018-4-9-9"
     sodipodi:cx="557.46533"
     sodipodi:cy="1599.6832"
     sodipodi:rx="148.1188"
     sodipodi:ry="443.45874"
     d="m 705.58414,1599.6832 a 148.1188,443.45874 0 1 1 -296.23761,0 148.1188,443.45874 0 1 1 296.23761,0 z"
     transform="matrix(-0.05451926,-0.04175637,0.04175637,-0.05451926,1650.3353,1676.6016)" />
  <path
     sodipodi:type="arc"
     style="fill:#f68002;fill-opacity:1;stroke:none"
     id="path4099-1-9-6"
     sodipodi:cx="920.13202"
     sodipodi:cy="3049.4521"
     sodipodi:rx="103.23432"
     sodipodi:ry="155.30032"
     d="m 1023.3663,3049.4521 a 103.23432,155.30032 0 1 1 -206.4686,0 103.23432,155.30032 0 1 1 206.4686,0 z"
     transform="matrix(-0.08476566,-0.04121854,0.0434435,-0.05592242,1635.5023,1682.2497)" />
  <path
     sodipodi:type="arc"
     style="fill:#f68002;fill-opacity:1;stroke:none"
     id="path4099-7-6-3-5"
     sodipodi:cx="920.13202"
     sodipodi:cy="3049.4521"
     sodipodi:rx="103.23432"
     sodipodi:ry="155.30032"
     d="m 1023.3663,3049.4521 a 103.23432,155.30032 0 1 1 -206.4686,0 103.23432,155.30032 0 1 1 206.4686,0 z"
     transform="matrix(0.09424901,0.00114371,-0.01377236,-0.06946205,1612.7621,1677.6795)" />
  <rect
     style="fill:#90ff55;fill-opacity:1;stroke:none"
     id="rect3081-35-9-5"
     width="63.633686"
     height="121.6676"
     x="-1997.8842"
     y="-1170.2375"
     rx="11.199529"
     ry="11.199529"
     transform="matrix(-0.97362109,-0.22817094,0.22817094,-0.97362109,0,0)" />
  <rect
     style="fill:#ffffff;fill-opacity:1;stroke:none"
     id="rect3081-3-4-4-3"
     width="45.331062"
     height="86.672997"
     x="-1988.1774"
     y="-1154.616"
     rx="7.9782677"
     ry="7.9782677"
     transform="matrix(-0.97362109,-0.22817094,0.22817094,-0.97362109,0,0)" />
  <path
     style="fill:#90ff55;fill-opacity:1"
     d="m 1661.7492,1526.8516 c 0.1343,0.2425 0.3455,0.6914 0.4693,0.9976 0.2763,0.6835 0.686,1.9925 0.6586,2.1042 -0.017,0.067 -0.394,-0.01 -2.1355,-0.437 -1.8606,-0.4565 -2.1126,-0.5302 -2.0927,-0.6117 0.061,-0.2484 2.0393,-2.0292 2.6242,-2.3621 l 0.2318,-0.132 z m 2.9464,0.6523 c 1.4157,0.6162 2.9156,1.6157 4.158,2.7708 0.5602,0.5207 1.3837,1.3987 1.4215,1.5154 0.016,0.048 -1.097,-0.2036 -3.4522,-0.7815 -2.1743,-0.5335 -3.4835,-0.8779 -3.4971,-0.9201 -0.041,-0.1266 0.3693,-2.1855 0.4995,-2.5067 0.1528,-0.3767 0.1785,-0.3791 0.8703,-0.078 z m -5.7043,-1.4272 c 0.033,0.1016 -0.439,1.6864 -0.6842,2.2977 l -0.1872,0.4667 -3.464,-0.8334 c -1.9051,-0.4584 -3.4584,-0.856 -3.4516,-0.8836 0.026,-0.1054 1.6393,-0.6248 2.6844,-0.8642 1.5924,-0.3648 3.3638,-0.48 4.7255,-0.3072 0.2363,0.03 0.3598,0.071 0.3771,0.124 z m 13.0867,7.7966 c 0.2588,0.2821 0.8217,1.1953 0.7975,1.294 -0.015,0.062 -2.4726,-0.5249 -12.8018,-3.0594 -7.0306,-1.7251 -12.7774,-3.159 -12.7707,-3.1864 0.023,-0.093 0.878,-0.5818 1.2605,-0.7202 l 0.3807,-0.1379 11.4683,2.7975 11.4683,2.7975 z m 1.7867,3.3442 c 0.1519,0.3074 0.4609,1.1805 0.4432,1.2523 -0.01,0.034 -0.062,0.067 -0.1196,0.074 -0.1647,0.021 -29.5502,-7.2074 -29.6274,-7.2877 -0.056,-0.059 -0.049,-0.095 0.042,-0.197 0.1858,-0.2091 0.7134,-0.6714 0.9213,-0.8073 l 0.196,-0.1281 14.0195,3.44 14.0193,3.4399 0.1056,0.2137 z m 1.0019,3.5485 c 0.3672,1.8697 0.476,3.5768 0.3307,5.191 -0.071,0.7881 -0.4041,2.284 -0.525,2.3574 -0.062,0.038 -0.2132,3e-4 -0.5742,-0.1409 -2.4321,-0.9524 -5.2072,-3.1664 -7.1209,-5.6812 -0.5466,-0.7182 -1.4125,-2.1322 -1.8066,-2.9501 -0.3884,-0.806 -0.8052,-1.8137 -0.7846,-1.8973 0.01,-0.031 2.182,0.4781 5.1843,1.2148 l 5.1711,1.2688 0.125,0.6376 z m -11.358,-3.3283 c 0.1079,0.3337 -0.6582,3.4588 -1.1528,4.7016 -1.2723,3.1976 -3.3023,6.0832 -5.5622,7.9066 -0.3014,0.2432 -0.7308,0.5506 -0.9541,0.6829 l -0.406,0.2408 -0.2354,-0.4302 c -1.463,-2.6727 -2.1384,-6.5613 -1.7915,-10.314 0.1151,-1.2455 0.3668,-2.4964 0.7501,-3.7277 0.1979,-0.6357 0.3833,-1.1897 0.4121,-1.2311 0.044,-0.063 0.7795,0.1032 4.4845,1.0123 2.9554,0.7252 4.4399,1.1113 4.4553,1.1588 z m -9.887,-2.4072 c -0.063,0.2554 -1.8745,1.6269 -3.0941,2.3421 -3.2164,1.8862 -7.4094,2.858 -10.5885,2.454 l -0.3521,-0.045 0.041,-0.3534 c 0.048,-0.4083 0.3308,-1.3211 0.6547,-2.1113 0.5421,-1.3223 1.547,-2.9572 2.6807,-4.3614 l 0.4211,-0.5215 5.1282,1.2584 c 4.201,1.0308 5.1247,1.2727 5.1087,1.3378 z"
     id="path3914-8-6-8"
     inkscape:connector-curvature="0"
     sodipodi:nodetypes="sssssscssscsccscscsssccssssccccscscsccccccccsccscsscccccsccssscsccsssccsscss" />
  <text
     xml:space="preserve"
     style="font-size:3.92243099px;font-style:normal;font-weight:normal;line-height:125%;letter-spacing:0px;word-spacing:0px;fill:#90ff55;fill-opacity:1;stroke:none;font-family:Sans"
     x="-1986.6403"
     y="-1023.0852"
     id="text3934-7-4-6"
     sodipodi:linespacing="125%"
     transform="matrix(-0.96772121,-0.25202312,0.25202312,-0.96772121,0,0)"><tspan
       sodipodi:role="line"
       id="tspan3936-3-5-7"
       x="-1986.6403"
       y="-1023.0852"
       style="font-size:14.12075329px;font-style:normal;font-variant:normal;font-weight:bold;font-stretch:normal;fill:#90ff55;fill-opacity:1;font-family:Latin Modern Sans;-inkscape-font-specification:Latin Modern Sans Bold">40</tspan></text>
  <path
     style="fill:#90ff55;fill-opacity:1;stroke:none"
     d="m 1680.3068,1585.6139 c 0,0 -1.8221,16.6641 -12.9017,30.2639 l -27.051,41.0161 -16.6333,-4.0608 -5.5719,-47.1139 7.1892,-32.4892 z"
     id="path4016-3-5-3"
     inkscape:connector-curvature="0" />
  <rect
     style="fill:#90ff55;fill-opacity:1;stroke:none"
     id="rect3956-0-6-0"
     width="23.148794"
     height="14.306742"
     x="-1980.9761"
     y="-1248.3199"
     rx="3.0501781"
     ry="3.0501781"
     transform="matrix(-0.97312411,-0.23028126,0.23028126,-0.97312411,0,0)" />
  <path
     sodipodi:type="arc"
     style="fill:#ffffff;fill-opacity:1;stroke:none"
     id="path3964-1-0-2"
     sodipodi:cx="985.78619"
     sodipodi:cy="735.74084"
     sodipodi:rx="46.337666"
     sodipodi:ry="46.337666"
     d="m 1032.1239,735.74084 a 46.337666,46.337666 0 1 1 -92.67537,0 46.337666,46.337666 0 1 1 92.67537,0 z"
     transform="matrix(-0.0703245,-0.01664167,0.01664167,-0.0703245,1704.3336,1691.0475)" />
  <path
     sodipodi:type="arc"
     style="fill:#90ff55;fill-opacity:1;stroke:none"
     id="path3964-7-4-6-6"
     sodipodi:cx="985.78619"
     sodipodi:cy="735.74084"
     sodipodi:rx="46.337666"
     sodipodi:ry="46.337666"
     d="m 1032.1239,735.74084 a 46.337666,46.337666 0 1 1 -92.67537,0 46.337666,46.337666 0 1 1 92.67537,0 z"
     transform="matrix(-0.03967023,-0.00938761,0.00938761,-0.03967023,1679.4522,1661.3429)" />
  <path
     sodipodi:type="arc"
     style="fill:#ffffff;fill-opacity:1;stroke:none"
     id="path3964-2-5-2-9"
     sodipodi:cx="985.78619"
     sodipodi:cy="735.74084"
     sodipodi:rx="46.337666"
     sodipodi:ry="46.337666"
     d="m 1032.1239,735.74084 a 46.337666,46.337666 0 1 1 -92.67537,0 46.337666,46.337666 0 1 1 92.67537,0 z"
     transform="matrix(-0.0703245,-0.01664167,0.01664167,-0.0703245,1683.5439,1686.1893)" />
  <path
     sodipodi:type="arc"
     style="fill:#90ff55;fill-opacity:1;stroke:none"
     id="path3964-7-3-7-6-3"
     sodipodi:cx="985.78619"
     sodipodi:cy="735.74084"
     sodipodi:rx="46.337666"
     sodipodi:ry="46.337666"
     d="m 1032.1239,735.74084 a 46.337666,46.337666 0 1 1 -92.67537,0 46.337666,46.337666 0 1 1 92.67537,0 z"
     transform="matrix(-0.03967023,-0.00938761,0.00938761,-0.03967023,1658.6624,1656.4848)" />
  <path
     style="fill:#f68002;fill-opacity:1;stroke:none"
     d="m 1642.9959,1677.061 c 0,0 -9.6776,13.0305 -21.6962,3.7711 0,0 -19.2139,-56.3586 -2.4668,-67.5049 0,0 2.2111,31.565 15.9419,53.526 0,0 4.9501,-6.2472 0.2082,-25.2349 0,0 10.3309,1.1585 8.0129,35.4427 z"
     id="path3962-5-5"
     inkscape:connector-curvature="0" />
  <path
     sodipodi:type="arc"
     style="fill:#ff5555;fill-opacity:1;stroke:none"
     id="path4018-5-1-0"
     sodipodi:cx="557.46533"
     sodipodi:cy="1599.6832"
     sodipodi:rx="148.1188"
     sodipodi:ry="443.45874"
     d="m 705.58414,1599.6832 a 148.1188,443.45874 0 1 1 -296.23761,0 148.1188,443.45874 0 1 1 296.23761,0 z"
     transform="matrix(0.04421979,0.14436579,-0.14436579,0.04421979,2005.3135,1399.4076)" />
  <path
     sodipodi:type="arc"
     style="fill:#ffdc55;fill-opacity:1;stroke:none"
     id="path4018-5-1-0-9"
     sodipodi:cx="557.46533"
     sodipodi:cy="1599.6832"
     sodipodi:rx="148.1188"
     sodipodi:ry="443.45874"
     d="m 705.58414,1599.6832 a 148.1188,443.45874 0 1 1 -296.23761,0 148.1188,443.45874 0 1 1 296.23761,0 z"
     transform="matrix(0.05635927,0.0154318,-0.0154318,0.05635927,1624.7929,1434.1165)" />
  <path
     sodipodi:type="arc"
     style="fill:#55c3ff;fill-opacity:1;stroke:none"
     id="path4018-5-9-8-2-7"
     sodipodi:cx="557.46533"
     sodipodi:cy="1599.6832"
     sodipodi:rx="148.1188"
     sodipodi:ry="443.45874"
     d="m 705.58414,1599.6832 a 148.1188,443.45874 0 1 1 -296.23761,0 148.1188,443.45874 0 1 1 296.23761,0 z"
     transform="matrix(-0.03057861,-0.0084585,0.0084585,-0.03057861,1592.5043,1640.5477)" />
  <path
     sodipodi:type="arc"
     style="fill:#55c3ff;fill-opacity:1;stroke:none"
     id="path4018-4-9-9-6"
     sodipodi:cx="557.46533"
     sodipodi:cy="1599.6832"
     sodipodi:rx="148.1188"
     sodipodi:ry="443.45874"
     d="m 705.58414,1599.6832 a 148.1188,443.45874 0 1 1 -296.23761,0 148.1188,443.45874 0 1 1 296.23761,0 z"
     transform="matrix(-0.03066858,0.00812627,-0.00812627,-0.03066858,1641.7586,1604.4779)" />
  <path
     sodipodi:type="arc"
     style="fill:#f68002;fill-opacity:1;stroke:none"
     id="path4099-1-9-6-5"
     sodipodi:cx="920.13202"
     sodipodi:cy="3049.4521"
     sodipodi:rx="103.23432"
     sodipodi:ry="155.30032"
     d="m 1023.3663,3049.4521 a 103.23432,155.30032 0 1 1 -206.4686,0 103.23432,155.30032 0 1 1 206.4686,0 z"
     transform="matrix(-0.0390195,0.01933312,-0.00816234,-0.03168174,1639.6311,1611.4954)" />
  <path
     sodipodi:type="arc"
     style="fill:#f68002;fill-opacity:1;stroke:none"
     id="path4099-7-6-3-5-2"
     sodipodi:cx="920.13202"
     sodipodi:cy="3049.4521"
     sodipodi:rx="103.23432"
     sodipodi:ry="155.30032"
     d="m 1023.3663,3049.4521 a 103.23432,155.30032 0 1 1 -206.4686,0 103.23432,155.30032 0 1 1 206.4686,0 z"
     transform="matrix(0.02705237,-0.03412419,-0.02927994,-0.01459596,1631.5345,1618.5153)" />
  <rect
     style="fill:#55c3ff;fill-opacity:1;stroke:none"
     id="rect3081-35-9-5-4"
     width="29.39888"
     height="56.210655"
     x="-266.12546"
     y="-2241.0347"
     rx="5.1742034"
     ry="5.1742034"
     transform="matrix(-0.77604875,0.63067292,-0.63067292,-0.77604875,0,0)" />
  <rect
     style="fill:#ffffff;fill-opacity:1;stroke:none"
     id="rect3081-3-4-4-3-0"
     width="20.943033"
     height="40.043083"
     x="-261.6409"
     y="-2233.8174"
     rx="3.6859744"
     ry="3.6859744"
     transform="matrix(-0.77604875,0.63067292,-0.63067292,-0.77604875,0,0)" />
  <path
     style="fill:#55c3ff;fill-opacity:1"
     d="m 1590.2514,1557.9875 c 0.1266,0.019 0.3504,0.069 0.4972,0.1104 0.328,0.092 0.9221,0.3123 0.9553,0.354 0.02,0.025 -0.1151,0.1411 -0.7633,0.657 -0.6926,0.551 -0.7907,0.6223 -0.8149,0.5919 -0.074,-0.092 -0.1654,-1.3188 -0.1218,-1.6266 l 0.017,-0.122 z m 1.071,-0.8926 c 0.6254,-0.3432 1.4145,-0.609 2.1878,-0.7367 0.3487,-0.058 0.9023,-0.1104 0.9556,-0.091 0.022,0.01 -0.3844,0.3434 -1.2612,1.0409 -0.8095,0.6439 -1.3053,1.0251 -1.3246,1.0181 -0.058,-0.021 -0.6944,-0.7526 -0.775,-0.8909 -0.094,-0.1623 -0.088,-0.1724 0.2176,-0.3401 z m -2.1336,1.6816 c 0.047,0.017 0.4923,0.637 0.6465,0.8994 l 0.1176,0.2003 -1.2835,1.0306 c -0.7059,0.5667 -1.2901,1.0221 -1.2984,1.0118 -0.031,-0.039 0.235,-0.7757 0.4428,-1.2254 0.3167,-0.685 0.7748,-1.3652 1.2232,-1.8139 0.078,-0.078 0.1275,-0.1115 0.1518,-0.1028 z m 6.5479,-2.5798 c 0.1762,-0.015 0.6691,0.038 0.6983,0.074 0.019,0.023 -0.8906,0.7554 -4.7359,3.8144 -2.6174,2.0822 -4.7654,3.7774 -4.7736,3.7671 -0.027,-0.035 0.035,-0.4852 0.093,-0.6642 l 0.057,-0.1782 4.2633,-3.401 4.2634,-3.401 z m 1.7272,0.292 c 0.1552,0.031 0.5616,0.1652 0.5829,0.1919 0.01,0.013 0.01,0.042 -0.01,0.065 -0.036,0.068 -10.9851,8.7637 -11.0362,8.7692 -0.037,0 -0.048,-0.01 -0.06,-0.071 -0.024,-0.127 -0.044,-0.4505 -0.035,-0.5649 l 0.01,-0.1077 5.2191,-4.1519 5.2192,-4.1518 0.1079,0.022 z m 1.58,0.6366 c 0.7872,0.3942 1.4419,0.8369 1.9908,1.3461 0.268,0.2486 0.7206,0.7931 0.7132,0.8581 0,0.033 -0.06,0.078 -0.2137,0.17 -1.0354,0.6198 -2.6289,1.0084 -4.0888,0.9972 -0.417,0 -1.1785,-0.086 -1.5888,-0.1734 -0.4044,-0.086 -0.8904,-0.2183 -0.9152,-0.2494 -0.01,-0.012 0.7914,-0.6624 1.9091,-1.5515 l 1.925,-1.5315 0.2685,0.1344 z m -4.4261,3.2108 c 0.1524,0.055 1.0781,1.2179 1.3926,1.7499 0.8091,1.3687 1.2902,2.9261 1.318,4.2674 0,0.1789 -0.01,0.4226 -0.02,0.5417 l -0.027,0.2164 -0.2238,-0.035 c -1.3903,-0.2206 -3.0024,-1.0727 -4.276,-2.2599 -0.4226,-0.3941 -0.8087,-0.8396 -1.1504,-1.3276 -0.1764,-0.252 -0.3265,-0.4763 -0.3335,-0.4985 -0.011,-0.034 0.258,-0.2558 1.6373,-1.353 1.1002,-0.8753 1.6608,-1.3087 1.6825,-1.3009 z m -3.6739,2.9333 c 0.076,0.095 0.065,1.1449 -0.018,1.7928 -0.2196,1.7086 -1.0493,3.5157 -2.0954,4.5635 l -0.1157,0.1161 -0.1176,-0.115 c -0.1357,-0.1328 -0.3893,-0.4942 -0.5866,-0.8359 -0.3301,-0.5719 -0.6437,-1.4011 -0.8365,-2.2123 l -0.072,-0.3013 1.9092,-1.5187 c 1.5639,-1.2442 1.9134,-1.5134 1.9327,-1.4891 z"
     id="path3914-8-6-8-0"
     inkscape:connector-curvature="0"
     sodipodi:nodetypes="sssssscssscsccscscsssccssssccccscscsccccccccsccscsscccccsccssscsccsssccsscss" />
  <text
     xml:space="preserve"
     style="font-size:1.81217051px;font-style:normal;font-weight:normal;line-height:125%;letter-spacing:0px;word-spacing:0px;fill:#55c3ff;fill-opacity:1;stroke:none;font-family:Sans"
     x="-302.90701"
     y="-2188.6763"
     id="text3934-7-4-6-6"
     sodipodi:linespacing="125%"
     transform="matrix(-0.7913096,0.61141567,-0.61141567,-0.7913096,0,0)"><tspan
       sodipodi:role="line"
       id="tspan3936-3-5-7-8"
       x="-302.90701"
       y="-2188.6763"
       style="font-size:6.52381468px;font-style:normal;font-variant:normal;font-weight:bold;font-stretch:normal;fill:#55c3ff;fill-opacity:1;font-family:Latin Modern Sans;-inkscape-font-specification:Latin Modern Sans Bold">40</tspan></text>
  <path
     style="fill:#55c3ff;fill-opacity:1;stroke:none"
     d="m 1616.9729,1567.8108 c 0,0 5.5757,5.3752 7.4154,13.268 l 7.3466,21.4779 -6.1848,4.9317 -18.7944,-11.2777 -9.8429,-11.8088 z"
     id="path4016-3-5-3-5"
     inkscape:connector-curvature="0" />
  <rect
     style="fill:#55c3ff;fill-opacity:1;stroke:none"
     id="rect3956-0-6-0-9"
     width="10.694785"
     height="6.6097412"
     x="-262.00204"
     y="-2278.5186"
     rx="1.4091879"
     ry="1.4091879"
     transform="matrix(-0.77741427,0.62898891,-0.62898891,-0.77741427,0,0)" />
  <path
     sodipodi:type="arc"
     style="fill:#ffffff;fill-opacity:1;stroke:none"
     id="path3964-1-0-2-4"
     sodipodi:cx="985.78619"
     sodipodi:cy="735.74084"
     sodipodi:rx="46.337666"
     sodipodi:ry="46.337666"
     d="m 1032.1239,735.74084 a 46.337666,46.337666 0 1 1 -92.67537,0 46.337666,46.337666 0 1 1 92.67537,0 z"
     transform="matrix(-0.02595581,0.02100028,-0.02100028,-0.02595581,1662.2981,1588.8242)" />
  <path
     sodipodi:type="arc"
     style="fill:#55c3ff;fill-opacity:1;stroke:none"
     id="path3964-7-4-6-6-6"
     sodipodi:cx="985.78619"
     sodipodi:cy="735.74084"
     sodipodi:rx="46.337666"
     sodipodi:ry="46.337666"
     d="m 1032.1239,735.74084 a 46.337666,46.337666 0 1 1 -92.67537,0 46.337666,46.337666 0 1 1 92.67537,0 z"
     transform="matrix(-0.01464174,0.01184631,-0.01184631,-0.01464174,1644.4099,1589.5238)" />
  <path
     sodipodi:type="arc"
     style="fill:#ffffff;fill-opacity:1;stroke:none"
     id="path3964-2-5-2-9-8"
     sodipodi:cx="985.78619"
     sodipodi:cy="735.74084"
     sodipodi:rx="46.337666"
     sodipodi:ry="46.337666"
     d="m 1032.1239,735.74084 a 46.337666,46.337666 0 1 1 -92.67537,0 46.337666,46.337666 0 1 1 92.67537,0 z"
     transform="matrix(-0.02595581,0.02100028,-0.02100028,-0.02595581,1654.6474,1595.0498)" />
  <path
     sodipodi:type="arc"
     style="fill:#55c3ff;fill-opacity:1;stroke:none"
     id="path3964-7-3-7-6-3-3"
     sodipodi:cx="985.78619"
     sodipodi:cy="735.74084"
     sodipodi:rx="46.337666"
     sodipodi:ry="46.337666"
     d="m 1032.1239,735.74084 a 46.337666,46.337666 0 1 1 -92.67537,0 46.337666,46.337666 0 1 1 92.67537,0 z"
     transform="matrix(-0.01464174,0.01184631,-0.01184631,-0.01464174,1636.7592,1595.7495)" />
  <path
     style="fill:#f68002;fill-opacity:1;stroke:none"
     d="m 1641.1965,1606.7334 c 0,0 2.1693,6.8662 -4.2836,8.7804 0,0 -25.2562,-7.7414 -24.9105,-16.6595 0,0 11.9229,7.4097 23.3873,8.1814 0,0 -0.9593,-3.4034 -9.0183,-6.634 0,0 3.1018,-3.4131 14.8251,6.3317 z"
     id="path3962-5-5-6"
     inkscape:connector-curvature="0" />
  <path
     sodipodi:type="arc"
     style="fill:#90ff55;fill-opacity:1;stroke:none"
     id="path4018-5-1-0-9-0"
     sodipodi:cx="557.46533"
     sodipodi:cy="1599.6832"
     sodipodi:rx="148.1188"
     sodipodi:ry="443.45874"
     d="m 705.58414,1599.6832 a 148.1188,443.45874 0 1 1 -296.23761,0 148.1188,443.45874 0 1 1 296.23761,0 z"
     transform="matrix(0.02019732,-0.01625106,0.01625106,0.02019732,1549.122,1550.1299)" />
  <path
     sodipodi:type="arc"
     style="fill:#b655ff;fill-opacity:1;stroke:none"
     id="path4018-5-3"
     sodipodi:cx="557.46533"
     sodipodi:cy="1599.6832"
     sodipodi:rx="148.1188"
     sodipodi:ry="443.45874"
     d="m 705.58414,1599.6832 a 148.1188,443.45874 0 1 1 -296.23761,0 148.1188,443.45874 0 1 1 296.23761,0 z"
     transform="matrix(-0.01131791,0.00904299,-0.00904299,-0.01131791,1613.476,1614.5471)" />
  <path
     sodipodi:type="arc"
     style="fill:#b655ff;fill-opacity:1;stroke:none"
     id="path4018-6"
     sodipodi:cx="557.46533"
     sodipodi:cy="1599.6832"
     sodipodi:rx="148.1188"
     sodipodi:ry="443.45874"
     d="m 705.58414,1599.6832 a 148.1188,443.45874 0 1 1 -296.23761,0 148.1188,443.45874 0 1 1 296.23761,0 z"
     transform="matrix(-0.00520871,0.01351813,-0.01351813,-0.00520871,1613.3287,1586.6716)" />
  <path
     sodipodi:type="arc"
     style="fill:#f68002;fill-opacity:1;stroke:none"
     id="path4099-2"
     sodipodi:cx="920.13202"
     sodipodi:cy="3049.4521"
     sodipodi:rx="103.23432"
     sodipodi:ry="155.30032"
     d="m 1023.3663,3049.4521 a 103.23432,155.30032 0 1 1 -206.4686,0 103.23432,155.30032 0 1 1 206.4686,0 z"
     transform="matrix(-0.00330088,0.01960794,-0.01390248,-0.00546673,1615.354,1589.3379)" />
  <path
     sodipodi:type="arc"
     style="fill:#f68002;fill-opacity:1;stroke:none"
     id="path4099-7-2"
     sodipodi:cx="920.13202"
     sodipodi:cy="3049.4521"
     sodipodi:rx="103.23432"
     sodipodi:ry="155.30032"
     d="m 1023.3663,3049.4521 a 103.23432,155.30032 0 1 1 -206.4686,0 103.23432,155.30032 0 1 1 206.4686,0 z"
     transform="matrix(-0.00537421,-0.0191438,-0.0132398,0.00691893,1615.7816,1594.2122)" />
  <rect
     style="fill:#b655ff;fill-opacity:1;stroke:none"
     id="rect3081-4"
     width="13.423898"
     height="25.666492"
     x="1672.104"
     y="-1504.5731"
     rx="2.362606"
     ry="2.362606"
     transform="matrix(0.05559183,0.99845358,-0.99845358,0.05559183,0,0)" />
  <rect
     style="fill:#ffffff;fill-opacity:1;stroke:none"
     id="rect3081-3-7"
     width="9.5628529"
     height="18.284174"
     x="1674.1517"
     y="-1501.2777"
     rx="1.6830621"
     ry="1.6830621"
     transform="matrix(0.05559183,0.99845358,-0.99845358,0.05559183,0,0)" />
  <path
     style="fill:#b655ff;fill-opacity:1"
     d="m 1582.3408,1593.2683 c 0.041,-0.042 0.1193,-0.1111 0.174,-0.1544 0.1218,-0.097 0.3624,-0.2573 0.3866,-0.2584 0.015,0 0.025,0.08 0.039,0.4582 0.018,0.4037 0.018,0.4591 6e-4,0.46 -0.054,0 -0.5321,-0.2921 -0.6341,-0.3907 l -0.041,-0.039 z m -0.044,-0.6352 c 0.04,-0.3231 0.1535,-0.6861 0.3135,-1.0063 0.072,-0.1444 0.2007,-0.3632 0.2222,-0.3779 0.01,-0.01 0.024,0.2342 0.047,0.7452 0.021,0.4719 0.03,0.7573 0.022,0.7626 -0.023,0.016 -0.4643,0.055 -0.5371,0.048 -0.085,-0.01 -0.087,-0.014 -0.067,-0.1715 z m 0.05,1.2395 c 0.018,-0.013 0.3674,-0.011 0.5058,0 l 0.1056,0.01 0.037,0.7507 c 0.02,0.4129 0.032,0.7509 0.027,0.7511 -0.023,8e-4 -0.224,-0.2946 -0.3346,-0.4919 -0.1686,-0.3006 -0.2973,-0.6523 -0.3432,-0.9382 -0.01,-0.049 -0.01,-0.077 0,-0.084 z m 0.7997,-3.1124 c 0.042,-0.069 0.193,-0.2374 0.2145,-0.2384 0.013,-10e-4 0.041,0.5316 0.1422,2.773 0.069,1.5256 0.1205,2.774 0.1146,2.7743 -0.02,10e-4 -0.17,-0.1431 -0.2208,-0.2123 l -0.05,-0.069 -0.116,-2.4875 -0.1159,-2.4876 z m 0.5705,-0.5605 c 0.053,-0.049 0.2116,-0.1636 0.2271,-0.1642 0.01,2e-4 0.018,0.01 0.021,0.02 0.015,0.032 0.2989,6.4095 0.2872,6.4299 -0.01,0.015 -0.016,0.015 -0.043,0 -0.054,-0.025 -0.1785,-0.1044 -0.2183,-0.1384 l -0.037,-0.032 -0.1377,-3.0421 -0.1376,-3.0422 0.037,-0.034 z m 0.6587,-0.4139 c 0.3566,-0.1855 0.6955,-0.3091 1.0309,-0.3757 0.1638,-0.033 0.4864,-0.054 0.5083,-0.034 0.012,0.01 0.017,0.042 0.01,0.1245 -0.048,0.5489 -0.3311,1.2422 -0.7263,1.7792 -0.1128,0.1532 -0.3476,0.4126 -0.4897,0.5411 -0.14,0.1265 -0.3192,0.2708 -0.3373,0.2716 -0.01,-3e-4 -0.034,-0.47 -0.063,-1.1216 l -0.051,-1.122 0.1215,-0.063 z m 0,2.4968 c 0.061,-0.042 0.7392,-0.073 1.0202,-0.046 0.7227,0.067 1.4276,0.3066 1.931,0.6555 0.067,0.047 0.1549,0.1152 0.195,0.1525 l 0.073,0.068 -0.073,0.073 c -0.454,0.4551 -1.2008,0.823 -1.981,0.976 -0.259,0.05 -0.527,0.074 -0.7991,0.07 -0.1403,0 -0.2635,-0.01 -0.2736,-0.01 -0.015,-0.01 -0.028,-0.1635 -0.062,-0.9678 -0.029,-0.6414 -0.039,-0.9647 -0.03,-0.9707 z m 0.1009,2.1443 c 0.055,0 0.4408,0.2826 0.658,0.4869 0.5731,0.5388 1.0192,1.3297 1.1265,1.9971 l 0,0.075 -0.074,0.013 c -0.085,0.015 -0.2871,0.01 -0.4662,-0.01 -0.3,-0.031 -0.6905,-0.1372 -1.0422,-0.2832 l -0.1306,-0.054 -0.05,-1.1128 c -0.041,-0.9115 -0.047,-1.1129 -0.033,-1.1135 z"
     id="path3914-0"
     inkscape:connector-curvature="0"
     sodipodi:nodetypes="sssssscssscsccscscsssccssssccccscscsccccccccsccscsscccccsccssscsccsssccsscss" />
  <text
     xml:space="preserve"
     style="font-size:0.82745975px;font-style:normal;font-weight:normal;line-height:125%;letter-spacing:0px;word-spacing:0px;fill:#b655ff;fill-opacity:1;stroke:none;font-family:Sans"
     x="1642.9418"
     y="-1524.5907"
     id="text3934-4"
     sodipodi:linespacing="125%"
     transform="matrix(0.03104389,0.99951802,-0.99951802,0.03104389,0,0)"><tspan
       sodipodi:role="line"
       id="tspan3936-9"
       x="1642.9418"
       y="-1524.5907"
       style="font-size:2.97885513px;font-style:normal;font-variant:normal;font-weight:bold;font-stretch:normal;fill:#b655ff;fill-opacity:1;font-family:Latin Modern Sans;-inkscape-font-specification:Latin Modern Sans Bold">40</tspan></text>
  <path
     style="fill:#b655ff;fill-opacity:1;stroke:none"
     d="m 1593.1303,1586.0172 c 0,0 3.4811,-0.6223 6.8927,0.8112 l 9.9105,3.0356 0.1674,3.608 -9.2043,3.93 -7.0033,0.4773 z"
     id="path4016-6"
     inkscape:connector-curvature="0" />
  <rect
     style="fill:#b655ff;fill-opacity:1;stroke:none"
     id="rect3956-5"
     width="4.8833737"
     height="3.0180905"
     x="1672.9423"
     y="-1525.5792"
     rx="0.64345282"
     ry="0.64345282"
     transform="matrix(0.05342699,0.99857176,-0.99857176,0.05342699,0,0)" />
  <path
     sodipodi:type="arc"
     style="fill:#ffffff;fill-opacity:1;stroke:none"
     id="path3964-4"
     sodipodi:cx="985.78619"
     sodipodi:cy="735.74084"
     sodipodi:rx="46.337666"
     sodipodi:ry="46.337666"
     d="m 1032.1239,735.74084 a 46.337666,46.337666 0 1 1 -92.67537,0 46.337666,46.337666 0 1 1 92.67537,0 z"
     transform="matrix(8.1449903e-4,0.01522331,-0.01522331,8.1449903e-4,1613.0408,1574.8833)" />
  <path
     sodipodi:type="arc"
     style="fill:#b655ff;fill-opacity:1;stroke:none"
     id="path3964-7-6"
     sodipodi:cx="985.78619"
     sodipodi:cy="735.74084"
     sodipodi:rx="46.337666"
     sodipodi:ry="46.337666"
     d="m 1032.1239,735.74084 a 46.337666,46.337666 0 1 1 -92.67537,0 46.337666,46.337666 0 1 1 92.67537,0 z"
     transform="matrix(4.5946261e-4,0.00858751,-0.00858751,4.5946261e-4,1608.5086,1581.686)" />
  <path
     sodipodi:type="arc"
     style="fill:#ffffff;fill-opacity:1;stroke:none"
     id="path3964-2-4"
     sodipodi:cx="985.78619"
     sodipodi:cy="735.74084"
     sodipodi:rx="46.337666"
     sodipodi:ry="46.337666"
     d="m 1032.1239,735.74084 a 46.337666,46.337666 0 1 1 -92.67537,0 46.337666,46.337666 0 1 1 92.67537,0 z"
     transform="matrix(8.1449903e-4,0.01522331,-0.01522331,8.1449903e-4,1613.294,1579.38)" />
  <path
     sodipodi:type="arc"
     style="fill:#b655ff;fill-opacity:1;stroke:none"
     id="path3964-7-3-2"
     sodipodi:cx="985.78619"
     sodipodi:cy="735.74084"
     sodipodi:rx="46.337666"
     sodipodi:ry="46.337666"
     d="m 1032.1239,735.74084 a 46.337666,46.337666 0 1 1 -92.67537,0 46.337666,46.337666 0 1 1 92.67537,0 z"
     transform="matrix(4.5946261e-4,0.00858751,-0.00858751,4.5946261e-4,1608.7617,1586.1827)" />
  <path
     sodipodi:type="arc"
     style="fill:#ff5555;fill-opacity:1;stroke:none"
     id="path4018-5-9-7"
     sodipodi:cx="557.46533"
     sodipodi:cy="1599.6832"
     sodipodi:rx="148.1188"
     sodipodi:ry="443.45874"
     d="m 705.58414,1599.6832 a 148.1188,443.45874 0 1 1 -296.23761,0 148.1188,443.45874 0 1 1 296.23761,0 z"
     transform="matrix(3.5042972e-4,0.00569595,-0.00569595,3.5042972e-4,1608.246,1599.2514)" />
  <path
     sodipodi:type="arc"
     style="fill:#ff5555;fill-opacity:1;stroke:none"
     id="path4018-4-7"
     sodipodi:cx="557.46533"
     sodipodi:cy="1599.6832"
     sodipodi:rx="148.1188"
     sodipodi:ry="443.45874"
     d="m 705.58414,1599.6832 a 148.1188,443.45874 0 1 1 -296.23761,0 148.1188,443.45874 0 1 1 296.23761,0 z"
     transform="matrix(0.00317656,0.0047409,-0.0047409,0.00317656,1599.2291,1592.9842)" />
  <path
     sodipodi:type="arc"
     style="fill:#f68002;fill-opacity:1;stroke:none"
     id="path4099-1-1"
     sodipodi:cx="920.13202"
     sodipodi:cy="3049.4521"
     sodipodi:rx="103.23432"
     sodipodi:ry="155.30032"
     d="m 1023.3663,3049.4521 a 103.23432,155.30032 0 1 1 -206.4686,0 103.23432,155.30032 0 1 1 206.4686,0 z"
     transform="matrix(0.0055713,0.00550559,-0.00491112,0.00324197,1600.5472,1592.9355)" />
  <path
     sodipodi:type="arc"
     style="fill:#f68002;fill-opacity:1;stroke:none"
     id="path4099-7-6-2"
     sodipodi:cx="920.13202"
     sodipodi:cy="3049.4521"
     sodipodi:rx="103.23432"
     sodipodi:ry="155.30032"
     d="m 1023.3663,3049.4521 a 103.23432,155.30032 0 1 1 -206.4686,0 103.23432,155.30032 0 1 1 206.4686,0 z"
     transform="matrix(-0.00738692,-0.00260472,-7.6946394e-4,0.00583415,1602.215,1593.9019)" />
  <rect
     style="fill:#ff5555;fill-opacity:1;stroke:none"
     id="rect3081-35-1"
     width="5.2879715"
     height="10.110601"
     x="2198.9421"
     y="513.74628"
     rx="0.93068302"
     ry="0.93068302"
     transform="matrix(0.84881068,0.52869691,-0.52869691,0.84881068,0,0)" />
  <rect
     style="fill:#ffffff;fill-opacity:1;stroke:none"
     id="rect3081-3-4-0"
     width="3.7670195"
     height="7.2025418"
     x="2199.7488"
     y="515.04443"
     rx="0.66299552"
     ry="0.66299552"
     transform="matrix(0.84881068,0.52869691,-0.52869691,0.84881068,0,0)" />
  <path
     style="fill:#ff5555;fill-opacity:1"
     d="m 1594.3354,1604.465 c 0,-0.023 0,-0.065 -0.01,-0.091 0,-0.061 -8e-4,-0.1751 0,-0.1831 0.01,-0.01 0.031,0.011 0.1564,0.091 0.1343,0.085 0.1522,0.098 0.1485,0.1039 -0.012,0.018 -0.2146,0.1053 -0.2696,0.1159 l -0.022,0.01 z m -0.2145,-0.1299 c -0.095,-0.086 -0.1863,-0.205 -0.2533,-0.329 -0.03,-0.056 -0.072,-0.1469 -0.071,-0.1572 0,0 0.08,0.046 0.2508,0.1536 0.1569,0.1 0.2508,0.162 0.2507,0.1657 0,0.011 -0.087,0.1621 -0.1061,0.184 -0.022,0.026 -0.024,0.025 -0.071,-0.017 z m 0.4108,0.2646 c 0,-0.01 0.08,-0.1211 0.1152,-0.1626 l 0.028,-0.032 0.2503,0.158 c 0.1377,0.087 0.2494,0.1596 0.2481,0.1616 -0.01,0.01 -0.1456,0.01 -0.2343,0 -0.1352,-0.014 -0.2776,-0.052 -0.3802,-0.1019 -0.019,-0.01 -0.027,-0.015 -0.026,-0.02 z m -0.8219,-0.9628 c -0.014,-0.029 -0.033,-0.116 -0.029,-0.1231 0.01,-0.01 0.1805,0.1072 0.9258,0.5823 0.5074,0.3234 0.9213,0.5895 0.9201,0.5915 -0.01,0.01 -0.085,0.023 -0.1183,0.024 l -0.033,0 -0.8281,-0.5262 -0.8279,-0.5261 z m -0.053,-0.3107 c 0,-0.028 -0.01,-0.1051 0,-0.1103 10e-5,2e-4 0.01,-0.01 0.012,-10e-4 0.014,0.01 2.1334,1.3556 2.1372,1.364 0,0.01 0,0.01 -0.01,0.014 -0.021,0.012 -0.074,0.034 -0.094,0.039 l -0.019,0.01 -1.0116,-0.6447 -1.0115,-0.6448 0,-0.019 z m 0.016,-0.306 c 0.022,-0.1572 0.058,-0.2942 0.1125,-0.4174 0.027,-0.06 0.093,-0.169 0.1042,-0.1715 0.01,2e-4 0.017,0.01 0.041,0.027 0.1659,0.1399 0.3253,0.3881 0.4088,0.6371 0.024,0.071 0.054,0.2056 0.068,0.2794 0,0.075 0.015,0.1644 0.012,0.1702 -10e-5,-2e-4 -0.1591,-0.096 -0.3756,-0.2339 l -0.3731,-0.2379 0.01,-0.054 z m 0.805,0.565 c 0,-0.03 0.1441,-0.2547 0.2162,-0.3393 0.1855,-0.2177 0.4222,-0.3907 0.6487,-0.4738 0.03,-0.011 0.073,-0.024 0.093,-0.028 l 0.039,-0.01 0.01,0.04 c 0.042,0.2496 -0.01,0.5735 -0.1342,0.8595 -0.043,0.095 -0.095,0.1867 -0.1585,0.2734 -0.032,0.045 -0.062,0.083 -0.065,0.086 -0.01,0.01 -0.059,-0.029 -0.326,-0.1994 -0.2133,-0.1359 -0.3197,-0.2059 -0.3197,-0.21 z m 0.7139,0.4532 c 0.012,-0.019 0.1908,-0.078 0.306,-0.1018 0.3033,-0.064 0.6594,-0.027 0.8988,0.089 l 0.027,0.013 -0.013,0.027 c -0.015,0.031 -0.061,0.095 -0.1079,0.1487 -0.078,0.09 -0.2007,0.1915 -0.3273,0.2717 l -0.047,0.03 -0.37,-0.2358 c -0.3033,-0.1932 -0.3695,-0.2369 -0.3664,-0.2416 z"
     id="path3914-8-8"
     inkscape:connector-curvature="0"
     sodipodi:nodetypes="sssssscssscsccscscsssccssssccccscscsccccccccsccscsscccccsccssscsccsssccsscss" />
  <text
     xml:space="preserve"
     style="font-size:0.32595474px;font-style:normal;font-weight:normal;line-height:125%;letter-spacing:0px;word-spacing:0px;fill:#ff5555;fill-opacity:1;stroke:none;font-family:Sans"
     x="2214.1699"
     y="467.68488"
     id="text3934-7-9"
     sodipodi:linespacing="125%"
     transform="matrix(0.83556484,0.54939185,-0.54939185,0.83556484,0,0)"><tspan
       sodipodi:role="line"
       id="tspan3936-3-0"
       x="2214.1699"
       y="467.68488"
       style="font-size:1.17343724px;font-style:normal;font-variant:normal;font-weight:bold;font-stretch:normal;fill:#ff5555;fill-opacity:1;font-family:Latin Modern Sans;-inkscape-font-specification:Latin Modern Sans Bold">40</tspan></text>
  <path
     style="fill:#ff5555;fill-opacity:1;stroke:none"
     d="m 1594.4428,1599.3453 c 0,0 0.588,-1.2628 1.8228,-2.0375 l 3.2234,-2.5063 1.2006,0.7635 -0.8186,3.8564 -1.4326,2.3652 z"
     id="path4016-3-1"
     inkscape:connector-curvature="0" />
  <rect
     style="fill:#ff5555;fill-opacity:1;stroke:none"
     id="rect3956-0-3"
     width="1.9236689"
     height="1.1888927"
     x="2201.6609"
     y="502.12848"
     rx="0.25347036"
     ry="0.25347036"
     transform="matrix(0.84766244,0.53053595,-0.53053595,0.84766244,0,0)" />
  <path
     sodipodi:type="arc"
     style="fill:#ffffff;fill-opacity:1;stroke:none"
     id="path3964-1-4"
     sodipodi:cx="985.78619"
     sodipodi:cy="735.74084"
     sodipodi:rx="46.337666"
     sodipodi:ry="46.337666"
     d="m 1032.1239,735.74084 a 46.337666,46.337666 0 1 1 -92.67537,0 46.337666,46.337666 0 1 1 92.67537,0 z"
     transform="matrix(0.00509055,0.00318606,-0.00318606,0.00509055,1595.365,1590.4066)" />
  <path
     sodipodi:type="arc"
     style="fill:#ff5555;fill-opacity:1;stroke:none"
     id="path3964-7-4-8"
     sodipodi:cx="985.78619"
     sodipodi:cy="735.74084"
     sodipodi:rx="46.337666"
     sodipodi:ry="46.337666"
     d="m 1032.1239,735.74084 a 46.337666,46.337666 0 1 1 -92.67537,0 46.337666,46.337666 0 1 1 92.67537,0 z"
     transform="matrix(0.00287158,0.00179727,-0.00179727,0.00287158,1596.5306,1593.4082)" />
  <path
     sodipodi:type="arc"
     style="fill:#ffffff;fill-opacity:1;stroke:none"
     id="path3964-2-5-5"
     sodipodi:cx="985.78619"
     sodipodi:cy="735.74084"
     sodipodi:rx="46.337666"
     sodipodi:ry="46.337666"
     d="m 1032.1239,735.74084 a 46.337666,46.337666 0 1 1 -92.67537,0 46.337666,46.337666 0 1 1 92.67537,0 z"
     transform="matrix(0.00509055,0.00318606,-0.00318606,0.00509055,1596.8714,1591.3436)" />
  <path
     sodipodi:type="arc"
     style="fill:#ff5555;fill-opacity:1;stroke:none"
     id="path3964-7-3-7-8"
     sodipodi:cx="985.78619"
     sodipodi:cy="735.74084"
     sodipodi:rx="46.337666"
     sodipodi:ry="46.337666"
     d="m 1032.1239,735.74084 a 46.337666,46.337666 0 1 1 -92.67537,0 46.337666,46.337666 0 1 1 92.67537,0 z"
     transform="matrix(0.00287158,0.00179727,-0.00179727,0.00287158,1598.0371,1594.3453)" />
  <path
     style="fill:#f68002;fill-opacity:1;stroke:none"
     d="m 1599.7311,1592.6769 c 0,0 1.2607,-0.8475 2.0319,0.3448 0,0 -0.065,5.5722 -1.8903,6.0327 0,0 0.7906,-2.8539 0.2649,-5.2202 0,0 -0.6318,0.3966 -0.8064,2.2199 0,0 -0.8751,-0.4248 0.3999,-3.3772 z"
     id="path3962-2"
     inkscape:connector-curvature="0" />
  <path
     sodipodi:type="arc"
     style="fill:#b655ff;fill-opacity:1;stroke:none"
     id="path4018-5-1-2"
     sodipodi:cx="557.46533"
     sodipodi:cy="1599.6832"
     sodipodi:rx="148.1188"
     sodipodi:ry="443.45874"
     d="m 705.58414,1599.6832 a 148.1188,443.45874 0 1 1 -296.23761,0 148.1188,443.45874 0 1 1 296.23761,0 z"
     transform="matrix(-0.00449046,-0.00312131,0.00312131,-0.00449046,1593.7509,1614.6792)" />
  <path
     sodipodi:type="arc"
     style="fill:#ffdc55;fill-opacity:1;stroke:none"
     id="path4018-5-9-8-0"
     sodipodi:cx="557.46533"
     sodipodi:cy="1599.6832"
     sodipodi:rx="148.1188"
     sodipodi:ry="443.45874"
     d="m 705.58414,1599.6832 a 148.1188,443.45874 0 1 1 -296.23761,0 148.1188,443.45874 0 1 1 296.23761,0 z"
     transform="matrix(0.00193498,0.00106475,-0.00106475,0.00193498,1602.0047,1597.4376)" />
  <path
     sodipodi:type="arc"
     style="fill:#ffdc55;fill-opacity:1;stroke:none"
     id="path4018-4-9-6"
     sodipodi:cx="557.46533"
     sodipodi:cy="1599.6832"
     sodipodi:rx="148.1188"
     sodipodi:ry="443.45874"
     d="m 705.58414,1599.6832 a 148.1188,443.45874 0 1 1 -296.23761,0 148.1188,443.45874 0 1 1 296.23761,0 z"
     transform="matrix(0.00220784,-5.7062041e-5,5.7062041e-5,0.00220784,1598.0886,1599.0882)" />
  <path
     sodipodi:type="arc"
     style="fill:#f68002;fill-opacity:1;stroke:none"
     id="path4099-1-9-3"
     sodipodi:cx="920.13202"
     sodipodi:cy="3049.4521"
     sodipodi:rx="103.23432"
     sodipodi:ry="155.30032"
     d="m 1023.3663,3049.4521 a 103.23432,155.30032 0 1 1 -206.4686,0 103.23432,155.30032 0 1 1 206.4686,0 z"
     transform="matrix(0.00295369,-6.8175158e-4,4.3207891e-5,0.00227704,1598.3456,1598.6471)" />
  <path
     sodipodi:type="arc"
     style="fill:#f68002;fill-opacity:1;stroke:none"
     id="path4099-7-6-3-6"
     sodipodi:cx="920.13202"
     sodipodi:cy="3049.4521"
     sodipodi:rx="103.23432"
     sodipodi:ry="155.30032"
     d="m 1023.3663,3049.4521 a 103.23432,155.30032 0 1 1 -206.4686,0 103.23432,155.30032 0 1 1 206.4686,0 z"
     transform="matrix(-0.0023811,0.00187602,0.00174829,0.00145954,1599.0068,1598.3019)" />
  <rect
     style="fill:#ffdc55;fill-opacity:1;stroke:none"
     id="rect3081-35-9-1"
     width="2.0465176"
     height="3.9129417"
     x="744.7912"
     y="2137.1943"
     rx="0.36018714"
     ry="0.36018714"
     transform="matrix(0.90077702,-0.43428189,0.43428189,0.90077702,0,0)" />
  <rect
     style="fill:#ffffff;fill-opacity:1;stroke:none"
     id="rect3081-3-4-4-0"
     width="1.4578885"
     height="2.7874832"
     x="745.10339"
     y="2137.6965"
     rx="0.2565884"
     ry="0.2565884"
     transform="matrix(0.90077702,-0.43428189,0.43428189,0.90077702,0,0)" />
  <path
     style="fill:#ffdc55;fill-opacity:1"
     d="m 1600.8292,1603.0654 c -0.01,-0.01 -0.023,-0.01 -0.032,-0.016 -0.021,-0.011 -0.058,-0.036 -0.059,-0.04 -5e-4,0 0.01,-0.01 0.063,-0.032 0.056,-0.026 0.064,-0.03 0.064,-0.027 0,0.01 -0.01,0.092 -0.018,0.1121 l -0.01,0.01 z m -0.087,0.043 c -0.048,0.014 -0.1056,0.019 -0.16,0.014 -0.026,0 -0.063,-0.01 -0.066,-0.01 -10e-5,-10e-5 0.031,-0.017 0.1021,-0.05 0.065,-0.031 0.1048,-0.049 0.106,-0.048 0.01,-10e-4 0.035,0.062 0.039,0.073 0,0.013 0,0.013 -0.02,0.02 z m 0.1716,-0.08 c -10e-5,-4e-4 -0.023,-0.051 -0.029,-0.071 l 0,-0.016 0.1035,-0.049 c 0.056,-0.027 0.1038,-0.048 0.1041,-0.048 0,0.01 -0.028,0.049 -0.05,0.076 -0.033,0.041 -0.075,0.08 -0.1121,0.1032 -0.01,0.01 -0.011,0.01 -0.012,0.01 z m -0.4851,0.069 c -0.012,10e-4 -0.044,-0.013 -0.046,-0.016 -5e-4,0 0.072,-0.037 0.382,-0.1822 0.2108,-0.099 0.3836,-0.1792 0.384,-0.1783 0,0 -0.01,0.033 -0.017,0.043 l -0.01,0.011 -0.3436,0.1617 -0.3434,0.1618 z m -0.1123,-0.048 c -0.01,-0.01 -0.035,-0.02 -0.037,-0.022 -5e-4,10e-5 0,0 0,0 0.01,-0.01 0.885,-0.4168 0.8885,-0.4164 0.01,0 0.01,0 0,0.01 0,0.01 0,0.031 -0.01,0.039 l -0.01,0.01 -0.4203,0.1973 -0.4204,0.1972 -0.01,-0.01 z m -0.097,-0.069 c -0.047,-0.039 -0.084,-0.08 -0.1134,-0.1231 -0.014,-0.021 -0.036,-0.065 -0.034,-0.07 1e-4,10e-5 0.01,-0.01 0.017,-0.01 0.08,-0.025 0.1943,-0.026 0.293,0 0.029,0.01 0.078,0.025 0.1048,0.037 0.026,0.012 0.057,0.029 0.058,0.032 5e-4,-10e-5 -0.064,0.032 -0.1542,0.074 l -0.155,0.073 -0.016,-0.013 z m 0.3513,-0.1462 c -0.01,-0.01 -0.054,-0.1 -0.065,-0.1411 -0.032,-0.1059 -0.037,-0.2195 -0.021,-0.3102 0.01,-0.013 0.01,-0.028 0.01,-0.036 l 0.01,-0.014 0.014,0.01 c 0.091,0.037 0.1861,0.1209 0.2533,0.2218 0.022,0.034 0.041,0.07 0.057,0.1084 0.012,0.019 0.016,0.037 0.016,0.039 10e-5,0 -0.022,0.013 -0.1325,0.065 -0.089,0.042 -0.1336,0.062 -0.135,0.061 z m 0.296,-0.1396 c 0,-0.01 0.015,-0.079 0.03,-0.1211 0.042,-0.1122 0.1276,-0.2213 0.2152,-0.2754 l 0.01,-0.01 0.01,0.01 c 0.01,0.01 0.018,0.04 0.027,0.066 0.017,0.043 0.026,0.1045 0.02,0.1635 l 0,0.022 -0.1538,0.072 c -0.1259,0.059 -0.1539,0.072 -0.1548,0.07 z"
     id="path3914-8-6-5"
     inkscape:connector-curvature="0"
     sodipodi:nodetypes="sssssscssscsccscscsssccssssccccscscsccccccccsccscsscccccsccssscsccsssccsscss" />
  <text
     xml:space="preserve"
     style="font-size:0.12614898px;font-style:normal;font-weight:normal;line-height:125%;letter-spacing:0px;word-spacing:0px;fill:#ffdc55;fill-opacity:1;stroke:none;font-family:Sans"
     x="798.34473"
     y="2121.3962"
     id="text3934-7-4-7"
     sodipodi:linespacing="125%"
     transform="matrix(0.91117504,-0.41201947,0.41201947,0.91117504,0,0)"><tspan
       sodipodi:role="line"
       id="tspan3936-3-5-4"
       x="798.34473"
       y="2121.3962"
       style="font-size:0.45413637px;font-style:normal;font-variant:normal;font-weight:bold;font-stretch:normal;fill:#ffdc55;fill-opacity:1;font-family:Latin Modern Sans;-inkscape-font-specification:Latin Modern Sans Bold">40</tspan></text>
  <path
     style="fill:#ffdc55;fill-opacity:1;stroke:none"
     d="m 1599.1775,1601.9703 c 0,0 -0.2913,-0.4537 -0.289,-1.0178 l -0.1521,-1.5729 0.4982,-0.2345 1.0915,1.0661 0.4767,0.9581 z"
     id="path4016-3-5-2"
     inkscape:connector-curvature="0" />
  <rect
     style="fill:#ffdc55;fill-opacity:1;stroke:none"
     id="rect3956-0-6-00"
     width="0.74448645"
     height="0.46011791"
     x="750.05011"
     y="2132.9275"
     rx="0.098096527"
     ry="0.098096527"
     transform="matrix(0.90171645,-0.43232793,0.43232793,0.90171645,0,0)" />
  <path
     sodipodi:type="arc"
     style="fill:#ffffff;fill-opacity:1;stroke:none"
     id="path3964-1-0-3"
     sodipodi:cx="985.78619"
     sodipodi:cy="735.74084"
     sodipodi:rx="46.337666"
     sodipodi:ry="46.337666"
     d="m 1032.1239,735.74084 a 46.337666,46.337666 0 1 1 -92.67537,0 46.337666,46.337666 0 1 1 92.67537,0 z"
     transform="matrix(0.00209574,-0.0010048,0.0010048,0.00209574,1596.4456,1599.818)" />
  <path
     sodipodi:type="arc"
     style="fill:#ffdc55;fill-opacity:1;stroke:none"
     id="path3964-7-4-6-3"
     sodipodi:cx="985.78619"
     sodipodi:cy="735.74084"
     sodipodi:rx="46.337666"
     sodipodi:ry="46.337666"
     d="m 1032.1239,735.74084 a 46.337666,46.337666 0 1 1 -92.67537,0 46.337666,46.337666 0 1 1 92.67537,0 z"
     transform="matrix(0.00118221,-5.6681115e-4,5.6681115e-4,0.00118221,1597.6685,1600.0584)" />
  <path
     sodipodi:type="arc"
     style="fill:#ffffff;fill-opacity:1;stroke:none"
     id="path3964-2-5-2-90"
     sodipodi:cx="985.78619"
     sodipodi:cy="735.74084"
     sodipodi:rx="46.337666"
     sodipodi:ry="46.337666"
     d="m 1032.1239,735.74084 a 46.337666,46.337666 0 1 1 -92.67537,0 46.337666,46.337666 0 1 1 92.67537,0 z"
     transform="matrix(0.00209574,-0.0010048,0.0010048,0.00209574,1597.064,1599.5195)" />
  <path
     sodipodi:type="arc"
     style="fill:#ffdc55;fill-opacity:1;stroke:none"
     id="path3964-7-3-7-6-4"
     sodipodi:cx="985.78619"
     sodipodi:cy="735.74084"
     sodipodi:rx="46.337666"
     sodipodi:ry="46.337666"
     d="m 1032.1239,735.74084 a 46.337666,46.337666 0 1 1 -92.67537,0 46.337666,46.337666 0 1 1 92.67537,0 z"
     transform="matrix(0.00118221,-5.6681115e-4,5.6681115e-4,0.00118221,1598.2868,1599.7598)" />
  <path
     style="fill:#f68002;fill-opacity:1;stroke:none"
     d="m 1598.0843,1598.7267 c 0,0 0.012,-0.5982 0.5713,-0.5767 0,0 1.7812,1.2831 1.516,1.9758 0,0 -0.7406,-0.9013 -1.6223,-1.268 0,0 -0.015,0.2935 0.5327,0.7628 0,0 -0.3351,0.1859 -0.9977,-0.8939 z"
     id="path3962-5-3"
     inkscape:connector-curvature="0" />
  <path
     sodipodi:type="arc"
     style="fill:#90ff55;fill-opacity:1;stroke:none"
     id="path4018-5-9-8-2-3"
     sodipodi:cx="557.46533"
     sodipodi:cy="1599.6832"
     sodipodi:rx="148.1188"
     sodipodi:ry="443.45874"
     d="m 705.58414,1599.6832 a 148.1188,443.45874 0 1 1 -296.23761,0 148.1188,443.45874 0 1 1 296.23761,0 z"
     transform="matrix(8.8575144e-4,-4.1890297e-4,4.1890297e-4,8.8575144e-4,1600.1658,1598.9188)" />
  <path
     sodipodi:type="arc"
     style="fill:#90ff55;fill-opacity:1;stroke:none"
     id="path4018-4-9-9-4"
     sodipodi:cx="557.46533"
     sodipodi:cy="1599.6832"
     sodipodi:rx="148.1188"
     sodipodi:ry="443.45874"
     d="m 705.58414,1599.6832 a 148.1188,443.45874 0 1 1 -296.23761,0 148.1188,443.45874 0 1 1 296.23761,0 z"
     transform="matrix(5.5335814e-4,-8.0859273e-4,8.0859273e-4,5.5335814e-4,1599.7413,1600.7558)" />
  <path
     sodipodi:type="arc"
     style="fill:#f68002;fill-opacity:1;stroke:none"
     id="path4099-1-9-6-2"
     sodipodi:cx="920.13202"
     sodipodi:cy="3049.4521"
     sodipodi:rx="103.23432"
     sodipodi:ry="155.30032"
     d="m 1023.3663,3049.4521 a 103.23432,155.30032 0 1 1 -206.4686,0 103.23432,155.30032 0 1 1 206.4686,0 z"
     transform="matrix(5.2264658e-4,-0.00123911,8.2987266e-4,5.7632713e-4,1599.6495,1600.5488)" />
  <path
     sodipodi:type="arc"
     style="fill:#f68002;fill-opacity:1;stroke:none"
     id="path4099-7-6-3-5-4"
     sodipodi:cx="920.13202"
     sodipodi:cy="3049.4521"
     sodipodi:rx="103.23432"
     sodipodi:ry="155.30032"
     d="m 1023.3663,3049.4521 a 103.23432,155.30032 0 1 1 -206.4686,0 103.23432,155.30032 0 1 1 206.4686,0 z"
     transform="matrix(5.5548142e-5,0.00134367,9.7915928e-4,-2.49171e-4,1599.6973,1600.2213)" />
  <rect
     style="fill:#90ff55;fill-opacity:1;stroke:none"
     id="rect3081-35-9-5-5"
     width="0.90791523"
     height="1.7359338"
     x="-1294.6626"
     y="1857.4957"
     rx="0.15979309"
     ry="0.15979309"
     transform="matrix(0.17582742,-0.98442101,0.98442101,0.17582742,0,0)" />
  <rect
     style="fill:#ffffff;fill-opacity:1;stroke:none"
     id="rect3081-3-4-4-3-3"
     width="0.64677644"
     height="1.2366365"
     x="-1294.5242"
     y="1857.7186"
     rx="0.11383265"
     ry="0.11383265"
     transform="matrix(0.17582742,-0.98442101,0.98442101,0.17582742,0,0)" />
  <path
     style="fill:#90ff55;fill-opacity:1"
     d="m 1601.8837,1600.8042 c -0.01,10e-4 -0.01,0.01 -0.014,0.01 -0.01,0.01 -0.028,0.012 -0.03,0.011 0,-2e-4 0,0 0,-0.03 0.01,-0.027 0.01,-0.031 0.01,-0.03 0.01,-10e-4 0.031,0.028 0.036,0.036 l 0,0 z m -0.01,0.043 c -0.01,0.021 -0.021,0.043 -0.037,0.061 -0.01,0.01 -0.019,0.021 -0.02,0.022 -5e-4,0 0,-0.016 0.01,-0.05 0.01,-0.031 0.01,-0.05 0.01,-0.05 10e-5,3e-4 0.032,0 0.036,0.01 0.01,2e-4 0.01,2e-4 0,0.012 z m 0.016,-0.082 c -10e-5,-2e-4 -0.025,-0.01 -0.033,-0.01 l -0.01,-2e-4 0.01,-0.05 c 0.01,-0.027 0.01,-0.05 0.01,-0.05 10e-5,2e-4 0.012,0.022 0.016,0.037 0,0.023 0.01,0.048 0,0.068 0,0.01 0,0.01 0,0.01 z m -0.101,0.1924 c -0.01,0.01 -0.017,0.013 -0.018,0.012 0,-2e-4 0.01,-0.035 0.034,-0.1847 0.02,-0.1015 0.035,-0.1844 0.035,-0.1843 0,2e-4 0.011,0.012 0.012,0.017 l 0,0 -0.031,0.1655 -0.031,0.1654 z m -0.046,0.028 c -0.01,10e-4 -0.017,0.01 -0.017,0.01 -6e-4,0 0,-2e-4 0,-2e-4 -4e-4,10e-5 0.08,-0.4265 0.081,-0.4276 6e-4,0 0,2e-4 10e-5,4e-4 0,0.01 0.01,0.01 0.012,0.012 l 0,0 -0.038,0.2024 -0.038,0.2024 -0.01,0 z m -0.05,0.016 c -0.026,0.01 -0.051,0.01 -0.074,0.01 -0.012,10e-4 -0.034,0 -0.034,-0.01 -5e-4,0 0,-0.01 0.01,-0.01 0.012,-0.035 0.041,-0.077 0.075,-0.1058 0.01,-0.01 0.029,-0.022 0.041,-0.028 0.011,-0.01 0.026,-0.013 0.027,-0.013 3e-4,0 -0.01,0.032 -0.013,0.075 l -0.014,0.075 -0.01,8e-4 z m 0.039,-0.1643 c -0.01,10e-4 -0.05,-0.01 -0.068,-0.013 -0.047,-0.016 -0.089,-0.043 -0.1169,-0.073 0,0 -0.01,-0.01 -0.011,-0.013 l 0,-0.01 0.01,-0.01 c 0.037,-0.023 0.092,-0.035 0.1456,-0.033 0.017,0 0.036,0 0.054,0.01 0.01,0.01 0.017,0 0.018,0.01 0,10e-5 -0.01,0.012 -0.01,0.065 -0.01,0.043 -0.013,0.064 -0.013,0.064 z m 0.027,-0.1427 c -0.01,10e-4 -0.025,-0.025 -0.036,-0.043 -0.03,-0.044 -0.047,-0.1034 -0.043,-0.149 l 0,-0.01 0.01,-10e-4 c 0.01,3e-4 0.019,0.01 0.03,0.01 0.019,0.01 0.044,0.02 0.065,0.035 l 0.01,0.01 -0.014,0.074 c -0.012,0.061 -0.014,0.074 -0.015,0.074 z"
     id="path3914-8-6-8-8"
     inkscape:connector-curvature="0"
     sodipodi:nodetypes="sssssscssscsccscscsssccssssccccscscsccccccccsccscsscccccsccssscsccsssccsscss" />
  <text
     xml:space="preserve"
     style="font-size:0.05596463px;font-style:normal;font-weight:normal;line-height:125%;letter-spacing:0px;word-spacing:0px;fill:#90ff55;fill-opacity:1;stroke:none;font-family:Sans"
     x="-1248.0685"
     y="1890.1405"
     id="text3934-7-4-6-1"
     sodipodi:linespacing="125%"
     transform="matrix(0.19996076,-0.97980391,0.97980391,0.19996076,0,0)"><tspan
       sodipodi:role="line"
       id="tspan3936-3-5-7-1"
       x="-1248.0685"
       y="1890.1405"
       style="font-size:0.20147264px;font-style:normal;font-variant:normal;font-weight:bold;font-stretch:normal;fill:#90ff55;fill-opacity:1;font-family:Latin Modern Sans;-inkscape-font-specification:Latin Modern Sans Bold">40</tspan></text>
  <path
     style="fill:#90ff55;fill-opacity:1;stroke:none"
     d="m 1601.0605,1601.1134 c 0,0 -0.2388,-0.013 -0.441,-0.1607 l -0.605,-0.3541 0.045,-0.2402 0.6669,-0.1155 0.4683,0.078 z"
     id="path4016-3-5-3-3"
     inkscape:connector-curvature="0" />
  <rect
     style="fill:#90ff55;fill-opacity:1;stroke:none"
     id="rect3956-0-6-0-1"
     width="0.33028328"
     height="0.20412631"
     x="-1290.3546"
     y="1859.1238"
     rx="0.043519456"
     ry="0.043519456"
     transform="matrix(0.17796129,-0.98403749,0.98403749,0.17796129,0,0)" />
  <path
     sodipodi:type="arc"
     style="fill:#ffffff;fill-opacity:1;stroke:none"
     id="path3964-1-0-2-5"
     sodipodi:cx="985.78619"
     sodipodi:cy="735.74084"
     sodipodi:rx="46.337666"
     sodipodi:ry="46.337666"
     d="m 1032.1239,735.74084 a 46.337666,46.337666 0 1 1 -92.67537,0 46.337666,46.337666 0 1 1 92.67537,0 z"
     transform="matrix(1.8349302e-4,-0.00101463,0.00101463,1.8349302e-4,1599.5767,1601.5361)" />
  <path
     sodipodi:type="arc"
     style="fill:#90ff55;fill-opacity:1;stroke:none"
     id="path3964-7-4-6-6-8"
     sodipodi:cx="985.78619"
     sodipodi:cy="735.74084"
     sodipodi:rx="46.337666"
     sodipodi:ry="46.337666"
     d="m 1032.1239,735.74084 a 46.337666,46.337666 0 1 1 -92.67537,0 46.337666,46.337666 0 1 1 92.67537,0 z"
     transform="matrix(1.0350956e-4,-5.7235501e-4,5.7235501e-4,1.0350956e-4,1599.9809,1601.159)" />
  <path
     sodipodi:type="arc"
     style="fill:#ffffff;fill-opacity:1;stroke:none"
     id="path3964-2-5-2-9-1"
     sodipodi:cx="985.78619"
     sodipodi:cy="735.74084"
     sodipodi:rx="46.337666"
     sodipodi:ry="46.337666"
     d="m 1032.1239,735.74084 a 46.337666,46.337666 0 1 1 -92.67537,0 46.337666,46.337666 0 1 1 92.67537,0 z"
     transform="matrix(1.8349302e-4,-0.00101463,0.00101463,1.8349302e-4,1599.63,1601.2362)" />
  <path
     sodipodi:type="arc"
     style="fill:#90ff55;fill-opacity:1;stroke:none"
     id="path3964-7-3-7-6-3-33"
     sodipodi:cx="985.78619"
     sodipodi:cy="735.74084"
     sodipodi:rx="46.337666"
     sodipodi:ry="46.337666"
     d="m 1032.1239,735.74084 a 46.337666,46.337666 0 1 1 -92.67537,0 46.337666,46.337666 0 1 1 92.67537,0 z"
     transform="matrix(1.0350956e-4,-5.7235501e-4,5.7235501e-4,1.0350956e-4,1600.0342,1600.8591)" />
  <path
     style="fill:#f68002;fill-opacity:1;stroke:none"
     d="m 1599.7292,1600.6515 c 0,0 -0.193,-0.1279 -0.074,-0.3055 0,0 0.7883,-0.3167 0.9598,-0.087 0,0 -0.448,0.056 -0.7504,0.2679 0,0 0.093,0.066 0.3599,-0.014 0,0 -0.01,0.1481 -0.4989,0.1412 z"
     id="path3962-5-5-9"
     inkscape:connector-curvature="0" />
  <path
     sodipodi:type="arc"
     style="fill:#ff5555;fill-opacity:1;stroke:none"
     id="path4018-5-1-0-7"
     sodipodi:cx="557.46533"
     sodipodi:cy="1599.6832"
     sodipodi:rx="148.1188"
     sodipodi:ry="443.45874"
     d="m 705.58414,1599.6832 a 148.1188,443.45874 0 1 1 -296.23761,0 148.1188,443.45874 0 1 1 296.23761,0 z"
     transform="matrix(-0.00202315,7.4006676e-4,-7.4006676e-4,-0.00202315,1603.9612,1605.602)" />
  <path
     sodipodi:type="arc"
     style="fill:#ffdc55;fill-opacity:1;stroke:none"
     id="path4018-5-1-0-9-5"
     sodipodi:cx="557.46533"
     sodipodi:cy="1599.6832"
     sodipodi:rx="148.1188"
     sodipodi:ry="443.45874"
     d="m 705.58414,1599.6832 a 148.1188,443.45874 0 1 1 -296.23761,0 148.1188,443.45874 0 1 1 296.23761,0 z"
     transform="matrix(-1.7690173e-4,8.1474271e-4,-8.1474271e-4,-1.7690173e-4,1603.1766,1600.207)" />
  <path
     sodipodi:type="arc"
     style="fill:#55c3ff;fill-opacity:1;stroke:none"
     id="path4018-5-9-8-2-7-4"
     sodipodi:cx="557.46533"
     sodipodi:cy="1599.6832"
     sodipodi:rx="148.1188"
     sodipodi:ry="443.45874"
     d="m 705.58414,1599.6832 a 148.1188,443.45874 0 1 1 -296.23761,0 148.1188,443.45874 0 1 1 296.23761,0 z"
     transform="matrix(9.7202508e-5,-4.4211479e-4,4.4211479e-4,9.7202508e-5,1600.2109,1599.9043)" />
  <path
     sodipodi:type="arc"
     style="fill:#55c3ff;fill-opacity:1;stroke:none"
     id="path4018-4-9-9-6-4"
     sodipodi:cx="557.46533"
     sodipodi:cy="1599.6832"
     sodipodi:rx="148.1188"
     sodipodi:ry="443.45874"
     d="m 705.58414,1599.6832 a 148.1188,443.45874 0 1 1 -296.23761,0 148.1188,443.45874 0 1 1 296.23761,0 z"
     transform="matrix(-1.3915702e-4,-4.307553e-4,4.307553e-4,-1.3915702e-4,1600.7623,1600.5786)" />
  <path
     sodipodi:type="arc"
     style="fill:#f68002;fill-opacity:1;stroke:none"
     id="path4099-1-9-6-5-9"
     sodipodi:cx="920.13202"
     sodipodi:cy="3049.4521"
     sodipodi:rx="103.23432"
     sodipodi:ry="155.30032"
     d="m 1023.3663,3049.4521 a 103.23432,155.30032 0 1 1 -206.4686,0 103.23432,155.30032 0 1 1 206.4686,0 z"
     transform="matrix(-3.0519314e-4,-5.4119412e-4,4.451629e-4,-1.4044326e-4,1600.6607,1600.5536)" />
  <path
     sodipodi:type="arc"
     style="fill:#f68002;fill-opacity:1;stroke:none"
     id="path4099-7-6-3-5-2-6"
     sodipodi:cx="920.13202"
     sodipodi:cy="3049.4521"
     sodipodi:rx="103.23432"
     sodipodi:ry="155.30032"
     d="m 1023.3663,3049.4521 a 103.23432,155.30032 0 1 1 -206.4686,0 103.23432,155.30032 0 1 1 206.4686,0 z"
     transform="matrix(5.0680471e-4,3.5941471e-4,1.8563612e-4,-4.2829129e-4,1600.5545,1600.4436)" />
  <rect
     style="fill:#55c3ff;fill-opacity:1;stroke:none"
     id="rect3081-35-9-5-4-7"
     width="0.41945854"
     height="0.80200469"
     x="-2260.9656"
     y="112.7592"
     rx="0.073824711"
     ry="0.073824711"
     transform="matrix(-0.67123411,-0.74124542,0.74124542,-0.67123411,0,0)" />
  <rect
     style="fill:#ffffff;fill-opacity:1;stroke:none"
     id="rect3081-3-4-4-3-0-2"
     width="0.29881185"
     height="0.57132828"
     x="-2260.9016"
     y="112.8622"
     rx="0.052590888"
     ry="0.052590888"
     transform="matrix(-0.67123411,-0.74124542,0.74124542,-0.67123411,0,0)" />
  <path
     style="fill:#55c3ff;fill-opacity:1"
     d="m 1601.3855,1599.8093 c -3e-4,0 0,0.01 -0.01,0.01 0,0.01 -0.01,0.014 -0.01,0.014 -4e-4,0 -1e-4,-3e-4 -0.01,-0.01 -0.01,-0.01 -0.01,-0.011 -0.01,-0.011 0,2e-4 0.018,0 0.023,-8e-4 l 10e-5,2e-4 z m 0.013,0.014 c 0.01,0.01 0.012,0.019 0.014,0.03 0,0 0,0.013 0,0.013 -2e-4,0 -0.01,0 -0.016,-0.017 -0.01,-0.011 -0.015,-0.018 -0.016,-0.018 3e-4,0 0.011,-0.01 0.011,-0.011 0,3e-4 0.01,-10e-4 0.01,0.01 z m -0.026,-0.029 c -2e-4,0 -0.01,0.01 -0.012,0.01 l 0,-4e-4 -0.016,-0.017 c -0.01,-0.01 -0.015,-0.018 -0.015,-0.018 5e-4,0 0.01,0.01 0.017,0.01 0.01,0.01 0.02,0.01 0.027,0.016 0,2e-4 0,2e-4 0,2e-4 z m 0.042,0.091 c 3e-4,0 0,0.01 0,0.01 -2e-4,0 -0.012,-0.012 -0.058,-0.065 -0.031,-0.036 -0.057,-0.065 -0.057,-0.065 6e-4,0 0.01,2e-4 0.01,-8e-4 l 10e-5,4e-4 0.052,0.058 0.052,0.058 z m 0,0.025 c -4e-4,0 -0.01,0.01 -0.01,0.01 0,10e-5 -4e-4,10e-5 0,-2e-4 0,-10e-5 -0.1332,-0.1498 -0.1333,-0.1505 -10e-5,0 1e-4,0 0,10e-5 1e-4,3e-4 0.01,3e-4 0.01,10e-5 l 1e-4,3e-4 0.064,0.071 0.063,0.071 -2e-4,0 z m -0.01,0.023 c -0.01,0.012 -0.011,0.021 -0.018,0.029 -0.01,0.01 -0.011,0.011 -0.011,0.011 -6e-4,0 0,-2e-4 0,0 -0.011,-0.014 -0.016,-0.037 -0.02,-0.057 0,-0.01 0,-0.018 0,-0.023 0,-0.01 0.01,-0.013 0.01,-0.014 10e-5,0 0.01,0.011 0.024,0.026 l 0.023,0.026 -0.01,0.01 z m -0.049,-0.061 c -10e-5,-2e-4 -0.016,0.016 -0.024,0.021 -0.018,0.012 -0.041,0.021 -0.06,0.022 -10e-5,-4e-4 -0.01,-2e-4 -0.01,-2e-4 l -0.01,10e-4 0,0 c 0,-0.021 0.013,-0.043 0.029,-0.063 0.01,-0.01 0.011,-0.012 0.018,-0.017 0.01,-10e-4 0.01,-0.01 0.01,-0.01 5e-4,0 0.01,0 0.02,0.022 0.013,0.015 0.02,0.023 0.02,0.023 z m -0.044,-0.05 c -10e-5,-2e-4 -0.016,10e-4 -0.026,10e-4 -0.024,0 -0.051,-0.013 -0.066,-0.026 l -10e-5,-3e-4 10e-5,3e-4 c 0,3e-4 0.01,-0.01 0.012,-0.01 0.01,-0.01 0.019,-0.01 0.031,-0.014 l 0.01,-10e-4 0.023,0.026 c 0.019,0.021 0.023,0.026 0.023,0.026 z"
     id="path3914-8-6-8-0-1"
     inkscape:connector-curvature="0"
     sodipodi:nodetypes="sssssscssscsccscscsssccssssccccscscsccccccccsccscsscccccsccssscsccsssccsscss" />
  <text
     xml:space="preserve"
     style="font-size:0.02585576px;font-style:normal;font-weight:normal;line-height:125%;letter-spacing:0px;word-spacing:0px;fill:#55c3ff;fill-opacity:1;stroke:none;font-family:Sans"
     x="-2257.2505"
     y="168.91946"
     id="text3934-7-4-6-6-0"
     sodipodi:linespacing="125%"
     transform="matrix(-0.6528197,-0.75751333,0.75751333,-0.6528197,0,0)"><tspan
       sodipodi:role="line"
       id="tspan3936-3-5-7-8-1"
       x="-2257.2505"
       y="168.91946"
       style="font-size:0.09308074px;font-style:normal;font-variant:normal;font-weight:bold;font-stretch:normal;fill:#55c3ff;fill-opacity:1;font-family:Latin Modern Sans;-inkscape-font-specification:Latin Modern Sans Bold">40</tspan></text>
  <path
     style="fill:#55c3ff;fill-opacity:1;stroke:none"
     d="m 1601.2659,1600.1975 c 0,0 -0.072,0.083 -0.1835,0.1158 l -0.3003,0.1211 -0.075,-0.085 0.1463,-0.2764 0.1607,-0.1492 z"
     id="path4016-3-5-3-5-3"
     inkscape:connector-curvature="0" />
  <path
     style="fill:#f68002;fill-opacity:1;stroke:none"
     d="m 1600.9747,1600.1654 c 0,0 -0.014,0.045 -0.056,0.032 0,0 -0.1082,-0.1365 -0.073,-0.1837 0,0 0.037,0.085 0.096,0.1321 0,0 0.01,-0.022 -0.024,-0.07 0,0 0.029,-0.01 0.057,0.09 z"
     id="path3962-5-5-6-4-7"
     inkscape:connector-curvature="0" />
  <rect
     style="fill:#55fff8;fill-opacity:1;stroke:none"
     id="rect3956-0-6-0-9-7"
     width="0.15259148"
     height="0.094306737"
     x="-2260.5825"
     y="117.11663"
     rx="0.020106068"
     ry="0.020106068"
     transform="matrix(-0.66962546,-0.74269896,0.74269896,-0.66962546,0,0)" />
  <path
     sodipodi:type="arc"
     style="fill:#ffffff;fill-opacity:1;stroke:none"
     id="path3964-1-0-2-4-6"
     sodipodi:cx="985.78619"
     sodipodi:cy="735.74084"
     sodipodi:rx="46.337666"
     sodipodi:ry="46.337666"
     d="m 1032.1239,735.74084 a 46.337666,46.337666 0 1 1 -92.67537,0 46.337666,46.337666 0 1 1 92.67537,0 z"
     transform="matrix(-3.1898647e-4,-3.5379661e-4,3.5379661e-4,-3.1898647e-4,1601.0011,1600.8593)" />
  <path
     sodipodi:type="arc"
     style="fill:#55c3ff;fill-opacity:1;stroke:none"
     id="path3964-7-4-6-6-6-3"
     sodipodi:cx="985.78619"
     sodipodi:cy="735.74084"
     sodipodi:rx="46.337666"
     sodipodi:ry="46.337666"
     d="m 1032.1239,735.74084 a 46.337666,46.337666 0 1 1 -92.67537,0 46.337666,46.337666 0 1 1 92.67537,0 z"
     transform="matrix(-1.7994076e-4,-1.9957779e-4,1.9957779e-4,-1.7994076e-4,1600.9774,1600.605)" />
  <path
     sodipodi:type="arc"
     style="fill:#ffffff;fill-opacity:1;stroke:none"
     id="path3964-2-5-2-9-8-9"
     sodipodi:cx="985.78619"
     sodipodi:cy="735.74084"
     sodipodi:rx="46.337666"
     sodipodi:ry="46.337666"
     d="m 1032.1239,735.74084 a 46.337666,46.337666 0 1 1 -92.67537,0 46.337666,46.337666 0 1 1 92.67537,0 z"
     transform="matrix(-3.1898647e-4,-3.5379661e-4,3.5379661e-4,-3.1898647e-4,1600.9065,1600.755)" />
  <path
     sodipodi:type="arc"
     style="fill:#55c3ff;fill-opacity:1;stroke:none"
     id="path3964-7-3-7-6-3-3-1"
     sodipodi:cx="985.78619"
     sodipodi:cy="735.74084"
     sodipodi:rx="46.337666"
     sodipodi:ry="46.337666"
     d="m 1032.1239,735.74084 a 46.337666,46.337666 0 1 1 -92.67537,0 46.337666,46.337666 0 1 1 92.67537,0 z"
     transform="matrix(-1.7994076e-4,-1.9957779e-4,1.9957779e-4,-1.7994076e-4,1600.8829,1600.5007)" />
  <path
     style="fill:#f68002;fill-opacity:1;stroke:none"
     d="m 1600.7297,1600.5723 c 0,0 -0.096,0.036 -0.1283,-0.054 0,0 0.091,-0.3657 0.2184,-0.3676 0,0 -0.096,0.1755 -0.099,0.3394 0,0 0.048,-0.016 0.087,-0.1335 0,0 0.051,0.042 -0.079,0.2161 z"
     id="path3962-5-5-6-41"
     inkscape:connector-curvature="0" />
  <path
     sodipodi:type="arc"
     style="fill:#90ff55;fill-opacity:1;stroke:none"
     id="path4018-5-1-0-9-0-1"
     sodipodi:cx="557.46533"
     sodipodi:cy="1599.6832"
     sodipodi:rx="148.1188"
     sodipodi:ry="443.45874"
     d="m 705.58414,1599.6832 a 148.1188,443.45874 0 1 1 -296.23761,0 148.1188,443.45874 0 1 1 296.23761,0 z"
     transform="matrix(2.4693305e-4,2.7537319e-4,-2.7537319e-4,2.4693305e-4,1601.466,1599.2174)" />
  <path
     style="fill:#f68002;fill-opacity:1;stroke:none"
     d="m 1613.6396,1588.0736 c 0,0 3.1226,1.1475 1.9986,4.047 0,0 -9.9667,7.0433 -13.1285,4.3967 0,0 6.0775,-2.2638 9.5994,-6.2359 0,0 -1.515,-0.6112 -4.9732,1.4214 0,0 -0.3709,-2.0982 6.5037,-3.6292 z"
     id="path3962-5-5-6-4"
     inkscape:connector-curvature="0" />
  <path
     sodipodi:type="arc"
     style="fill:#55c3ff;fill-opacity:1;stroke:none"
     id="path4018-5-1-0-9-0-2"
     sodipodi:cx="557.46533"
     sodipodi:cy="1599.6832"
     sodipodi:rx="148.1188"
     sodipodi:ry="443.45874"
     d="m 705.58414,1599.6832 a 148.1188,443.45874 0 1 1 -296.23761,0 148.1188,443.45874 0 1 1 296.23761,0 z"
     transform="matrix(-2.3198455e-4,-0.01197447,0.01197447,-2.3198455e-4,1566.9315,1605.7304)" />
  <path
     sodipodi:type="arc"
     style="fill:#000000;fill-opacity:1;stroke:none"
     id="path5156"
     sodipodi:cx="1262.6426"
     sodipodi:cy="880.02515"
     sodipodi:rx="0.033203125"
     sodipodi:ry="0.033203125"
     d="m 1262.6758,880.02515 a 0.03320312,0.03320312 0 1 1 -0.066,0 0.03320312,0.03320312 0 1 1 0.066,0 z"
     transform="translate(338.26407,719.93409)" />
</svg>
