<?xml version="1.0" encoding="UTF-8" standalone="no"?>
<!-- Generator: Adobe Illustrator 19.2.1, SVG Export Plug-In . SVG Version: 6.00 Build 0)  -->

<svg
   xmlns:dc="http://purl.org/dc/elements/1.1/"
   xmlns:cc="http://creativecommons.org/ns#"
   xmlns:rdf="http://www.w3.org/1999/02/22-rdf-syntax-ns#"
   xmlns:svg="http://www.w3.org/2000/svg"
   xmlns="http://www.w3.org/2000/svg"
   xmlns:sodipodi="http://sodipodi.sourceforge.net/DTD/sodipodi-0.dtd"
   xmlns:inkscape="http://www.inkscape.org/namespaces/inkscape"
   version="1.1"
   id="Layer_1"
   x="0px"
   y="0px"
   viewBox="0 0 546.62807 732.0001"
   xml:space="preserve"
   inkscape:version="0.48.4 r9939"
   width="100%"
   height="100%"
   sodipodi:docname="parts.svg"><metadata
     id="metadata43"><rdf:RDF><cc:Work
         rdf:about=""><dc:format>image/svg+xml</dc:format><dc:type
           rdf:resource="http://purl.org/dc/dcmitype/StillImage" /><dc:title>Egghead_Logo_simple</dc:title></cc:Work></rdf:RDF></metadata><defs
     id="defs41" /><sodipodi:namedview
     pagecolor="#ffffff"
     bordercolor="#666666"
     borderopacity="1"
     objecttolerance="10"
     gridtolerance="10"
     guidetolerance="10"
     inkscape:pageopacity="0"
     inkscape:pageshadow="2"
     inkscape:window-width="1855"
     inkscape:window-height="1056"
     id="namedview39"
     showgrid="false"
     inkscape:zoom="0.86937849"
     inkscape:cx="38.285199"
     inkscape:cy="448.94725"
     inkscape:window-x="65"
     inkscape:window-y="24"
     inkscape:window-maximized="1"
     inkscape:current-layer="Layer_1"
     fit-margin-top="0"
     fit-margin-left="0"
     fit-margin-right="0"
     fit-margin-bottom="0" /><style
     type="text/css"
     id="style3">
	.st0{fill:#FCFBFA;}
	.st1{fill:#252526;}
	.st2{fill:#E0E0E0;}
	.st3{fill:#56555C;}
</style><title
     id="title5">Egghead_Logo_simple</title><g
     id="g3948"
     transform="translate(-96.985963,-17.9)"><path
       id="path7"
       d="M 370.3,40.5 C 508.8,40.5 621,338.1 621,476.6 621,615.1 508.8,727.3 370.3,727.3 231.8,727.3 119.5,615.1 119.5,476.6 119.5,338.1 231.8,40.5 370.3,40.5 z"
       class="st0"
       inkscape:connector-curvature="0"
       style="fill:#fcfbfa" /><path
       id="path21"
       d="M 151,245 C 175.6,185.3 205.2,133.6 236.5,95.7 279,44.1 324,17.9 370.3,17.9 c 46.3,0 91.3,26.2 133.9,77.7 31.3,38 60.9,89.7 85.5,149.4 l 1.2,2.9 -3.1,-0.4 c -8.7,-1.1 -15.8,-2 -24.4,-2.9 l -1.1,-0.1 -0.4,-1 C 534.2,178.8 486.9,94.4 425.8,59.1 407.2,48.4 388.6,43 370.3,43 c -18.3,0 -37,5.4 -55.4,16.1 -61,35.2 -108.2,119.4 -136.1,184.4 l -0.4,1 -1.1,0.1 c -8.7,0.9 -15.8,1.8 -24.4,2.9 l -3.1,0.4 1.2,-2.9 z"
       class="st3"
       inkscape:connector-curvature="0"
       style="fill:#56555c" /><path
       id="path31"
       d="M 370.3,749.9 C 258,749.9 157.1,681.2 115.9,576.7 102.1,541.3 95.7,503.4 97.2,465.4 l 0.1,-1.7 H 99 c 8.9,-0.2 15,-0.5 21.4,-0.8 l 2,-0.1 -0.1,2 c -1.4,36.1 4,69.4 16.6,101.8 49.7,127.8 193.6,191.1 321.4,141.4 33.7,-13.1 64.1,-33.4 89.1,-59.5 22.7,-23.6 40.5,-51.4 52.3,-81.9 12.6,-32.4 18,-65.7 16.6,-101.8 l -0.1,-2 2,0.1 c 8.9,0.5 15,0.6 21.4,0.8 h 1.7 l 0.1,1.7 c 1.5,38 -4.9,75.8 -18.7,111.2 -41.1,104.6 -142,173.4 -254.4,173.3 z"
       class="st3"
       inkscape:connector-curvature="0"
       style="fill:#56555c" /><path
       sodipodi:nodetypes="cac"
       inkscape:connector-curvature="0"
       id="path3890"
       d="m 110.01704,464.03611 c 0,0 1.28896,-57.21939 7.30815,-85.0196 10.43486,-48.19436 21.66436,-74.18802 49.43173,-139.43008"
       style="fill:none;stroke:#56555c;stroke-width:24.79999924;stroke-linecap:round;stroke-linejoin:miter;stroke-miterlimit:4;stroke-opacity:1;stroke-dasharray:none" /><path
       sodipodi:nodetypes="cac"
       inkscape:connector-curvature="0"
       id="path3890-7"
       d="m 630.44667,462.48518 c 0,0 -1.28896,-57.21939 -7.30815,-85.0196 -10.43486,-48.19436 -21.66436,-74.18802 -49.43173,-139.43008"
       style="fill:none;stroke:#56555c;stroke-width:24.79999924;stroke-linecap:round;stroke-linejoin:miter;stroke-miterlimit:4;stroke-opacity:1;stroke-dasharray:none" /></g></svg>