<?xml version="1.0" encoding="UTF-8" standalone="no"?>
<!-- Created with Inkscape (http://www.inkscape.org/) -->

<svg
   xmlns:dc="http://purl.org/dc/elements/1.1/"
   xmlns:cc="http://creativecommons.org/ns#"
   xmlns:rdf="http://www.w3.org/1999/02/22-rdf-syntax-ns#"
   xmlns:svg="http://www.w3.org/2000/svg"
   xmlns="http://www.w3.org/2000/svg"
   version="1.1"
   width="3264"
   height="2448"
   id="svg2">
  <metadata
     id="metadata8">
    <rdf:RDF>
      <cc:Work
         rdf:about="">
        <dc:format>image/svg+xml</dc:format>
        <dc:type
           rdf:resource="http://purl.org/dc/dcmitype/StillImage" />
        <dc:title></dc:title>
      </cc:Work>
    </rdf:RDF>
  </metadata>
  <defs
     id="defs6" />
  <path
     d="m 627.52862,2063.1068 c -1.38235,-3.6014 -7.72911,-6.3958 -14.52698,-6.3958 -6.64012,0 -14.19867,-2.1259 -16.79707,-4.7241 -3.33945,-3.3395 -8.90038,-3.4514 -18.97419,-0.3817 -15.81552,4.8195 -83.70346,9.5362 -92.06533,6.3965 -2.9314,-1.1007 -5.34304,-4.2398 -5.35882,-6.9758 -0.0469,-7.7933 -26.96936,-24.1619 -39.74261,-24.1619 -6.34122,0 -19.17332,2.3857 -28.51629,5.3016 -14.34279,4.4764 -16.82094,6.9418 -15.92212,15.838 1.51367,14.9812 -12.22108,16.9669 -18.71879,2.7063 -4.26386,-9.3579 -3.44392,-13.1121 5.88542,-26.9528 17.07293,-25.3283 23.86356,-63.9521 18.37298,-104.502 -4.86549,-35.936 -0.59438,-52.1678 16.5084,-62.738 7.86384,-4.8601 17.3923,-7.6492 21.17434,-6.1979 3.78205,1.4514 10.18083,1.3709 14.21913,-0.1786 5.86537,-2.2508 6.18431,-3.5331 1.58531,-6.3753 -15.62621,-9.6577 18.67614,-26.4076 46.7298,-22.8179 40.87041,5.2296 57.33105,25.3852 23.71007,29.0322 -4.9576,0.5378 -10.45286,1.2226 -12.21171,1.522 -1.75884,0.2993 -3.19789,8.844 -3.19789,18.9883 0,13.7664 2.50288,20.7953 9.86828,27.7151 13.4009,12.5892 19.97876,11.6477 19.97876,-2.8598 0,-25.2431 30.52712,-35.4336 46.25396,-15.4403 6.90745,8.7812 7.76364,13.3658 4.57342,24.4891 -2.1588,7.5269 -3.92489,13.99 -3.92489,14.3623 0,0.3722 -5.75622,2.6836 -12.79159,5.1362 -7.03537,2.4525 -12.79159,7.2416 -12.79159,10.6424 0,9.8551 61.45676,66.7368 72.11088,66.7427 3.31174,0 14.3253,4.8699 24.475,10.8179 24.50058,14.3583 28.09928,27.9606 11.87656,44.8931 -13.37403,13.9598 -37.42222,17.4812 -41.78244,6.1183 z m 252.31281,-97.1563 c -15.972,-13.1616 -20.80936,-28.895 -17.78372,-57.8426 1.63263,-15.6197 0.75001,-28.2241 -2.38648,-34.0845 -9.30418,-17.3853 -0.3667,-24.0868 32.3947,-24.2916 19.31999,-0.1207 37.36082,-3.3405 53.75622,-9.5937 30.03337,-11.4547 46.34222,-11.9276 55.67535,-1.6144 16.34,18.0557 5.532,40.1543 -33.87805,69.2682 -14.47411,10.6929 -23.92369,21.2049 -25.66974,28.5564 -3.68099,15.5006 -13.59277,26.4868 -30.26149,33.542 -17.50912,7.4109 -18.1713,7.3289 -31.84679,-3.9398 z m 271.55217,-57.0898 c -12.8909,-3.3804 -26.9621,-18.0959 -29.8419,-31.2087 -1.6057,-7.3102 0.5347,-18.7033 5.7068,-30.3775 14.0737,-31.7677 30.551,-92.6594 37.1369,-137.2402 5.0502,-34.1856 31.1663,-41.8714 68.0116,-20.0156 24.3177,14.4247 41.9172,16.0297 58.1992,5.3074 41.8558,-27.5638 59.0571,-41.009 59.0571,-46.1614 0,-3.2526 5.6193,-12.1801 12.4871,-19.8387 11.0997,-12.3773 12.821,-13.0637 15.4898,-6.1765 1.6514,4.2616 0.8289,9.9219 -1.8275,12.5784 -2.8005,2.8002 -4.8301,19.3042 -4.8301,39.2713 0,35.099 2.9992,43.602 22.1265,62.7291 10.912,10.912 9.9096,14.4401 -9.5072,33.4727 -12.1375,11.8972 -20.9125,16.8866 -29.6991,16.8866 -14.066,0 -48.8583,20.4254 -58.6814,34.4498 -3.5654,5.0904 -7.1343,17.9598 -7.9308,28.5987 -2.2253,29.7206 -4.9396,34.479 -22.0962,38.7337 -8.6526,2.1457 -28.2037,7.1511 -43.447,11.123 -31.4588,8.197 -57.8457,11.148 -70.3538,7.8679 z M 641.86202,1809.932 c -8.23565,-2.5169 -10.47717,-5.8556 -9.8572,-14.6829 0.614,-8.7376 -1.14144,-11.4254 -7.46176,-11.4254 -21.13341,0 -0.77517,-15.9946 31.71632,-24.9181 14.92437,-4.0989 17.92528,-3.4746 30.91301,6.4315 16.0786,12.2639 17.96493,21.7954 6.92195,34.9747 -8.28469,9.887 -35.16109,14.8372 -52.23232,9.6202 z m 496.74008,-233.8202 c -9.3805,-3.4739 -22.0165,-6.7795 -28.0797,-7.3456 -6.0637,-0.5661 -13.2589,-2.4102 -15.9895,-4.0979 -7.1002,-4.3881 -6.1365,-19.4392 1.4305,-22.3428 3.5177,-1.3499 6.3958,-6.9166 6.3958,-12.3705 0,-6.1714 3.2205,-10.9382 8.5277,-12.6227 12.4659,-3.9565 10.4158,-10.4952 -4.2075,-13.4199 -10.1608,-2.0322 -13.6039,-5.6739 -17.0316,-18.0148 -6.276,-22.5941 -5.7801,-24.7581 10.5795,-46.1838 11.6924,-15.3133 14.9235,-23.5002 14.9235,-37.8144 0,-19.2887 -8.0681,-31.7014 -20.5578,-31.6287 -6.7198,0.038 -31.5287,11.5389 -63.9664,29.6505 -13.8811,7.7503 -14.7091,7.7337 -40.50675,-0.8118 -14.48477,-4.7982 -29.69397,-11.6377 -33.79793,-15.1991 -17.43537,-15.1301 -2.07651,-34.3594 36.16011,-45.2724 13.43927,-3.8357 30.70787,-10.5799 38.37477,-14.9873 18.4962,-10.6324 69.8685,-21.4316 88.5579,-18.6159 16.8925,2.545 30.3949,13.3949 43.8977,35.2745 5.0902,8.248 18.4016,27.09 29.581,41.8713 18.9034,24.9937 20.3263,28.6285 20.3263,51.9277 0,25.5588 -6.5365,38.4535 -19.4919,38.4535 -3.6549,0 -6.0913,4.2639 -6.0913,10.6597 0,5.8628 1.9187,10.6596 4.2638,10.6596 5.7712,0 5.4386,15.8263 -0.4093,19.4399 -2.974,1.838 -3.646,9.7318 -1.8492,21.7146 2.6214,17.4821 1.7678,19.8825 -11.9567,33.6068 -16.4415,16.4415 -15.3969,16.2418 -39.0839,7.4695 z m 1256.6521,-116.2131 c -33.7993,-18.4832 -47.847,-29.9229 -47.847,-38.9635 0,-11.5938 -15.4518,-40.8572 -24.1411,-45.7201 -18.4139,-10.3049 22.891,-51.8886 51.5407,-51.8886 6.2231,0 18.4335,3.5912 27.1344,7.9804 30.0146,15.1412 124.3956,7.3078 166.0067,-13.778 26.9766,-13.6701 52.0579,-14.8276 62.8519,-2.9006 9.8039,10.8331 6.0184,33.3753 -10.053,59.8646 -6.4026,10.553 -16.0359,28.3537 -21.4071,39.557 -13.6572,28.4865 -27.0001,34.5308 -74.5131,33.7546 -30.6892,-0.5015 -42.8659,1.3013 -63.958,9.4689 -39.2412,15.1954 -42.3973,15.3216 -65.6144,2.6253 z m -397.0744,-10.0654 c -10.3279,-2.7426 -20.7066,-8.0836 -23.0637,-11.8689 -12.8376,-20.6141 19.0424,-35.8133 82.6904,-39.4235 24.8967,-1.4123 52.0929,-5.4754 60.6888,-9.0671 18.7581,-7.8375 80.6088,-14.8057 132.3171,-14.907 42.3252,-0.083 62.4839,7.5425 62.4839,23.6358 0,16.1045 -12.4249,21.9032 -53.2983,24.8748 -21.1061,1.5344 -49.8872,5.5528 -63.9579,8.9298 -14.0708,3.3769 -38.3637,6.2082 -53.9844,6.2918 -16.0052,0.086 -40.1984,3.8499 -55.4302,8.6246 -30.0768,9.428 -60.172,10.4181 -88.4457,2.9097 z m -632.527,-45.8349 c -19.6803,-11.4626 3.9901,-33.7694 35.833,-33.7694 20.5557,0 20.7894,0.1518 18.0225,11.7256 -5.5025,23.0177 -9.4026,26.6567 -28.4224,26.5195 -9.8841,-0.071 -21.3292,-2.0853 -25.4331,-4.4757 z m 99.1348,-48.7619 c 0,-7.1458 28.0221,-22.3646 32.6526,-17.7338 4.3952,4.3952 -15.9562,24.1986 -24.8681,24.1986 -4.2818,0 -7.7845,-2.9092 -7.7845,-6.4648 z m -200.3035,-45.7675 c -15.439,-10.6143 -29.6867,-33.9821 -37.9002,-62.1604 -4.7112,-16.1643 -4.4587,-19.87 2.0334,-29.847 4.0771,-6.2652 10.435,-13.7287 14.1288,-16.5855 8.2586,-6.387 32.1333,-6.9953 43.1503,-1.0994 9.4563,5.0609 19.2031,36.807 23.0717,75.1442 2.5025,24.7985 2.0305,26.6955 -8.752,35.1769 -14.3547,11.2914 -18.4996,11.2184 -35.732,-0.6288 z m 944.0163,3.5106 c -7.2179,-3.1235 -19.8654,-11.5989 -28.1061,-18.8342 -17.3373,-15.2223 -32.9819,-21.9852 -50.8585,-21.9852 -28.5074,0 -58.0248,-19.5977 -72.7386,-48.2934 -8.9937,-17.5399 -5.63,-28.4562 8.7682,-28.4562 3.8814,0 10.8418,-2.5237 15.4676,-5.6082 14.4511,-9.6363 44.0312,-16.4829 51.9842,-12.0323 3.9799,2.2273 16.9514,3.0468 28.8258,1.8213 13.3783,-1.3808 32.0959,0.4847 49.2127,4.9049 19.2803,4.9787 35.0605,6.286 52.2494,4.3285 38.8455,-4.4239 47.1783,8.5864 25.0578,39.1232 -6.678,9.2187 -13.5582,24.3106 -15.2893,33.5373 -7.8093,41.6283 -35.7977,63.9475 -64.5732,51.4943 z m -142.5081,-141.0781 c 0,-3.5495 -2.1767,-9.9389 -4.837,-14.1988 -7.8604,-12.5867 6.5301,-30.9163 23.5118,-29.9474 7.3172,0.4174 20.1869,-2.1888 28.599,-5.7917 17.3523,-7.432 29.4757,-3.5455 29.4757,9.4493 0,9.4756 -5.1201,13.2176 -23.079,16.8676 -9.4027,1.911 -13.5617,5.4369 -14.5564,12.3409 -2.1511,14.9288 -39.1141,25.5887 -39.1141,11.2801 z M 861.45096,1008.2914 C 823.22586,994.43286 779.711,970.19544 767.94018,956.20622 758.5243,945.0161 756.66269,939.07777 757.76661,923.7517 l 1.35164,-18.7584 -23.40477,-7.98024 c -27.13309,-9.25156 -43.75917,-25.86669 -41.85323,-41.8259 0.93507,-7.8322 4.01358,-11.0796 10.97263,-11.57502 9.17754,-0.6534 14.28138,-5.24323 28.96058,-26.04381 7.69883,-10.90977 2.3204,-29.45787 -9.60776,-33.1332 -9.36856,-2.88663 -36.91866,-0.23451 -55.41785,5.33508 -23.28666,7.01081 -46.35843,1.15998 -66.96994,-16.9831 -28.31845,-24.92675 -31.07418,-53.0561 -6.44526,-65.79204 6.68318,-3.45599 16.10547,-10.52812 20.93856,-15.71588 7.9214,-8.50248 12.87175,-9.42075 50.22404,-9.31573 47.22782,0.13261 69.02768,4.60178 112.8329,23.13069 29.49911,12.47773 31.9342,14.61354 52.4097,45.96969 28.49454,43.63625 44.17916,52.0714 96.82337,52.0714 38.51548,0 60.85812,5.90537 77.24328,20.41598 11.3534,10.05465 32.5768,39.53411 32.5755,45.24768 -4e-4,3.1672 -16.9604,4.62067 -52.23232,4.47634 -81.38947,-0.33301 -105.37072,-6.49617 -130.86265,-33.63105 -19.46794,-20.7228 -68.00776,-10.49051 -79.38289,16.73408 -3.33435,7.98012 -9.04622,16.17914 -12.6931,18.22 -5.29103,2.96091 -5.743,6.04603 -2.23682,15.26753 6.7659,17.79566 14.40759,17.50482 33.17499,-1.26274 15.2868,-15.28659 19.53531,-17.24601 37.39748,-17.24601 18.42245,0 21.6664,1.6456 37.81024,19.18112 16.85036,18.3028 19.14474,19.36834 50.10764,23.27097 17.84682,2.24944 37.65801,6.46329 44.02438,9.36412 13.09091,5.96447 23.72797,23.60854 23.72797,39.35776 0,6.67521 3.00944,11.53925 8.14867,13.17035 9.99411,3.17197 79.81991,-5.13395 90.29671,-10.74089 20.0776,-10.74523 44.9782,2.75386 27.9914,15.17484 -7.368,5.38764 -62.9223,20.19648 -69.4515,18.51331 -9.7894,-2.52361 -104.06685,6.64987 -120.94322,11.76827 -25.05489,7.5987 -36.0467,7.2208 -61.82602,-2.1255 z"
     id="path3011"
     style="fill:#959b93" />
</svg>
