<?xml version="1.0" encoding="UTF-8" standalone="no"?>
<!-- Created with Inkscape (http://www.inkscape.org/) -->

<svg
   xmlns:dc="http://purl.org/dc/elements/1.1/"
   xmlns:cc="http://creativecommons.org/ns#"
   xmlns:rdf="http://www.w3.org/1999/02/22-rdf-syntax-ns#"
   xmlns:svg="http://www.w3.org/2000/svg"
   xmlns="http://www.w3.org/2000/svg"
   version="1.1"
   width="3264"
   height="2448"
   id="svg2">
  <metadata
     id="metadata8">
    <rdf:RDF>
      <cc:Work
         rdf:about="">
        <dc:format>image/svg+xml</dc:format>
        <dc:type
           rdf:resource="http://purl.org/dc/dcmitype/StillImage" />
        <dc:title></dc:title>
      </cc:Work>
    </rdf:RDF>
  </metadata>
  <defs
     id="defs6" />
  <path
     d="m 727.07276,2119.2337 c -7.02556,-7.1934 -72.06781,-19.8841 -101.90931,-19.8841 -18.65056,0 -46.98734,-2.7098 -62.97001,-6.0219 -21.58367,-4.4725 -37.83581,-5.0526 -63.17083,-2.2544 -88.04493,9.724 -96.65666,9.713 -122.72165,-0.1574 -14.24813,-5.3956 -27.52708,-13.722 -31.46262,-19.7283 -8.67739,-13.2434 -5.41724,-41.5872 6.25039,-54.3362 4.61777,-5.0461 12.62232,-17.5908 17.78799,-27.8772 10.45883,-20.827 10.07934,-37.2654 -1.78315,-77.2344 -9.18948,-30.9619 -6.20818,-44.0743 17.93296,-78.878 21.80752,-31.4398 20.97735,-30.9835 86.28097,-47.4224 29.63854,-7.461 84.61423,-27.6653 102.64056,-37.7218 16.57875,-9.2493 46.2288,-18.3672 70.04589,-21.5407 59.20033,-7.8879 164.13314,-38.595 200.40156,-58.6445 30.36766,-16.7878 49.06001,-24.5544 74.00318,-30.7483 15.58144,-3.8691 35.48728,-8.8898 44.23545,-11.157 26.38947,-6.8392 62.92136,-61.8155 62.95766,-94.7437 0.043,-18.9703 -18.4996,-53.7167 -29.16825,-54.7236 -3.8814,-0.3662 -24.32534,-0.9459 -45.43146,-1.2879 -21.10613,-0.342 -42.21225,-2.8621 -46.9025,-5.6002 -6.90703,-4.032 0.38802,-5.0988 38.37477,-5.6127 25.79637,-0.3493 48.66645,-0.2994 50.82226,0.1108 2.15581,0.4102 1.45867,-2.2197 -1.54906,-5.8439 -3.00815,-3.6242 -7.0375,-5.6199 -8.95496,-4.4349 -1.91746,1.185 -4.6037,0.3467 -5.96941,-1.8632 -1.36572,-2.2097 -19.5238,-5.3508 -40.3515,-6.9801 -34.56671,-2.7041 -38.27925,-3.8643 -42.58192,-13.3079 -2.59243,-5.6902 -4.7137,-14.219 -4.7137,-18.9531 0,-4.7341 -2.08289,-12.4991 -4.62842,-17.2556 -4.59048,-8.5772 -4.71583,-8.5662 -15.28126,1.3463 -8.77929,8.2366 -14.7163,9.8501 -33.75615,9.174 -12.70716,-0.4513 -25.05446,-2.0262 -27.43881,-3.4997 -2.38393,-1.4735 -8.88802,-11.6573 -14.45236,-22.6307 -5.56477,-10.9734 -14.34961,-23.7891 -19.52167,-28.4794 -9.6018,-8.7075 -47.18903,-16.4678 -109.39751,-22.5862 -19.6142,-1.9291 -33.40652,-5.6555 -38.71076,-10.4587 -4.53206,-4.104 -11.23699,-7.4618 -14.9005,-7.4618 -3.66308,0 -14.92608,-3.7008 -25.0293,-8.224 -13.24697,-5.9308 -20.53476,-7.0648 -26.13663,-4.0666 -9.06198,4.8498 -14.44682,2.1413 -28.17304,-14.1713 -5.51318,-6.552 -12.92121,-11.9128 -16.46235,-11.9128 -3.54114,0 -12.48459,-2.8092 -19.87429,-6.2427 -7.38971,-3.4335 -32.29749,-8.123 -55.35006,-10.4211 -23.053,-2.2981 -44.63881,-6.4395 -47.96846,-9.203 -10.7654,-8.9344 -6.61325,-20.5852 12.06716,-33.8588 9.96678,-7.082 22.18914,-16.649 27.16038,-21.2599 4.97166,-4.6108 18.38577,-12.3897 29.80909,-17.2864 11.42374,-4.8966 26.5434,-15.1791 33.59967,-22.8499 8.82491,-9.5934 18.23014,-14.8018 30.13186,-16.6857 10.36332,-1.6404 21.34917,-7.0464 27.39234,-13.4791 13.60471,-14.4814 27.43796,-13.7561 39.12478,2.0514 5.20149,7.0353 11.52309,12.7916 14.04858,12.7916 2.52506,0 11.89873,3.9167 20.83067,8.704 13.50195,7.2366 20.55523,8.2157 41.83873,5.8078 21.62845,-2.447 26.19249,-4.4584 29.4279,-12.9679 2.10635,-5.5394 5.31576,-10.2185 7.13259,-10.3979 1.81684,-0.1795 7.14112,-1.2876 11.83137,-2.4626 4.69025,-1.175 31.55259,-3.1723 59.69408,-4.4385 28.1415,-1.2662 54.78851,-4.2047 59.21611,-6.5299 4.42717,-2.3251 33.20824,-5.8403 63.95794,-7.8114 30.74928,-1.9711 63.58315,-4.604 72.96365,-5.8508 36.1409,-4.8038 76.8595,-4.1667 86.8523,1.3588 9.505,5.2558 9.9532,7.265 7.5709,33.945 -1.3925,15.5972 -0.5061,36.9928 1.97,47.5459 9.143,38.9668 9.5804,52.3092 1.8999,57.9252 -6.7143,4.9098 -6.6768,5.4072 0.5475,7.2544 7.7423,1.9796 64.0927,4.4045 80.2416,3.453 4.6903,-0.2763 17.5437,-0.9615 28.5632,-1.5226 23.9369,-1.2188 27.4576,-4.3102 30.2995,-26.6034 7.4315,-58.2994 21.4728,-76.0778 58.5317,-74.1109 11.5402,0.6125 22.306,-0.2102 23.9241,-1.8285 1.6182,-1.6181 -0.7355,-2.9847 -5.23,-3.0368 -4.495,-0.052 -12.6151,-3.5129 -18.0451,-7.6904 -9.6854,-7.4517 -9.7975,-8.4245 -5.911,-51.3433 4.2238,-46.6412 8.6109,-56.9595 20.1476,-47.3847 14.0716,11.6783 19.2646,29.7098 20.9816,72.8539 1.5418,38.7507 2.795,44.3229 12.2343,54.4053 14.3978,15.379 28.5099,44.6367 28.5099,59.1077 0,13.7521 17.3109,41.3529 30.2935,48.3012 4.8463,2.5936 7.5278,5.9993 5.9592,7.5682 -2.8585,2.8587 -5.1619,3.4594 -17.0653,4.4514 -3.5177,0.2933 -6.3958,3.4111 -6.3958,6.9288 0,4.6833 4.8519,6.3933 18.1214,6.3866 19.401,-0.01 65.0414,-20.9161 74.369,-34.0658 2.7946,-3.9399 17.4772,-10.5189 32.628,-14.62 39.6398,-10.73 56.7055,-30.449 39.0403,-45.11 -6.9501,-5.7681 -8.5938,-19.4577 -2.7685,-23.058 1.9955,-1.233 9.9067,2.3907 17.5812,8.0528 31.9308,23.5578 52.6131,16.9055 56.7784,-18.2626 1.3159,-11.1098 5.3802,-28.796 9.0326,-39.3025 5.8586,-16.8543 5.8957,-19.66 0.3155,-23.8367 -8.0962,-6.0613 -8.0668,-10.1896 0.072,-10.1896 3.5177,0 6.3958,2.8781 6.3958,6.3958 0,4.2265 4.2272,6.3958 12.4641,6.3958 6.8555,0 26.7413,7.7009 44.1907,17.1131 46.8761,25.2846 70.422,31.2314 120.2955,30.3821 35.1287,-0.5982 47.6406,1.0404 71.0377,9.3034 26.8001,9.4649 31.8826,9.8542 90.2822,6.915 34.0354,-1.713 63.8215,-4.3127 66.1909,-5.7771 4.4724,-2.764 3.6273,-14.8893 -4.3734,-62.7621 -8.1871,-48.9843 -1.2856,-57.6295 54.0137,-67.6601 38.1198,-6.9145 50.0211,-13.0237 79.2362,-40.67417 27.6158,-26.1365 51.8094,-35.30479 103.2282,-39.11847 38.5709,-2.86076 51.4465,1.85844 58.2396,21.34617 7.4008,21.22957 5.4514,38.98077 -5.4006,49.17547 -5.4274,5.0991 -11.6633,9.2796 -13.8575,9.2901 -2.1938,0.01 -16.3673,8.1651 -31.4963,18.1214 -30.7374,20.2281 -47.9024,46.4937 -48.7564,74.6071 -0.4264,14.0138 0.8263,16.1408 10.174,17.28 5.8628,0.7145 19.9902,4.2984 31.3944,7.9643 19.8423,6.3785 22.0045,6.2329 50.2513,-3.3838 l 29.517,-10.049 15.7068,8.4805 c 10.64,5.7448 16.9531,12.858 19.5707,22.0506 5.3354,18.7385 1.4194,30.6528 -16.2129,49.3318 -11.9525,12.6615 -15.103,19.4517 -15.103,32.5476 0,20.6077 10.7018,24.8541 37.2307,14.7728 14.8677,-5.6499 20.2547,-5.9408 30.6069,-1.653 6.9096,2.8622 13.6,7.9063 14.8672,11.2093 1.2677,3.3029 6.6819,6.0347 12.0322,6.0706 5.3503,0.034 12.514,1.8281 15.9196,3.9826 8.558,5.4138 14.5061,0.7781 8.4164,-6.5594 -3.7598,-4.5301 -3.7854,-7.4714 -0.1023,-11.9076 3.9381,-4.7451 1.4877,-7.2524 -12.5933,-12.8865 -9.7118,-3.886 -16.7702,-9.322 -15.8799,-12.2301 0.8813,-2.8791 10.1411,-9.4398 20.5769,-14.5792 18.1249,-8.9261 31.7112,-18.1252 44.8998,-30.4009 3.9057,-3.6352 6.0538,-14.544 6.0538,-30.7449 0,-14.877 2.172,-26.9206 5.3299,-29.552 11.8403,-9.8668 48.5172,-34.5213 56.6714,-38.0948 4.7866,-2.0977 11.5022,-7.2108 14.9235,-11.3624 3.4213,-4.1515 15.5068,-14.9045 26.8568,-23.8954 23.702,-18.7758 34.6648,-20.1109 67.679,-8.2416 12.3998,4.458 27.3672,9.1773 33.2611,10.4875 8.8629,1.9701 11.628,6.3048 15.9895,25.0643 2.9003,12.4753 5.2736,25.7489 5.2736,29.4971 0,3.7482 3.1335,9.4155 6.9637,12.5941 6.05,5.0212 6.6005,12.781 4.1969,59.1502 -1.5217,29.354 -4.7661,76.3958 -7.2106,104.5373 -2.444,28.1415 -5.4518,63.2237 -6.684,77.9605 l -2.2398,26.7941 -18.8224,8.8475 c -11.1091,5.2221 -22.8731,7.8308 -28.7082,6.3663 -13.58,-3.4083 -25.8735,6.2627 -40.0534,31.509 -6.5489,11.6602 -14.3731,21.2023 -17.3868,21.2047 -3.0141,0 -10.2695,3.1426 -16.1234,6.9782 -13.2051,8.6525 -46.7093,5.6664 -69.5461,-6.1984 -15.4429,-8.0234 -15.457,-8.0225 -49.726,3.5532 -18.8531,6.3683 -39.9593,14.4841 -46.9025,18.0351 -6.9429,3.5509 -19.3392,7.8633 -27.5472,9.583 -8.2079,1.7198 -31.9849,9.7484 -52.8377,17.8415 -30.7045,11.9165 -41.2452,14.1744 -55.4303,11.8735 -34.4554,-5.5887 -62.7952,-17.7891 -79.7274,-34.3228 -15.5678,-15.2019 -18.914,-16.527 -45.5176,-18.0256 -15.7933,-0.8897 -46.1171,1.3879 -67.3865,5.0612 -55.0959,9.5153 -162.9879,10.1323 -181.221,1.0364 -7.5888,-3.7858 -17.2631,-6.8832 -21.498,-6.8832 -4.2348,0 -12.3579,-5.0236 -18.0514,-11.1635 -10.1689,-10.967 -11.489,-11.1861 -75.0287,-12.456 -64.0922,-1.2809 -64.9049,-1.1798 -89.7829,11.1634 -17.8404,8.8516 -31.3931,12.4561 -46.8338,12.4561 -40.3477,0 -72.2661,-26.1289 -59.6996,-48.8709 2.6414,-4.7802 13.2491,-14.9486 23.5727,-22.5964 17.113,-12.6776 18.5385,-15.1243 16.1451,-27.7151 -5.5732,-29.3244 -22.9937,-50.0528 -42.0642,-50.0528 -9.0978,0 -27.348,16.6337 -35.0869,31.9789 -2.3656,4.6903 -5.3763,20.0402 -6.6905,34.1109 -3.5036,37.5114 -9.7113,50.8651 -31.5568,67.8849 -26.3507,20.5296 -48.0606,20.7536 -91.3597,0.9428 -17.2111,-7.8746 -42.6352,-18.7762 -56.4983,-24.2257 -13.8627,-5.4494 -33.7608,-16.4389 -44.218,-24.421 l -19.013,-14.5129 -16.3143,15.9305 c -12.2953,12.0061 -20.3093,16.1708 -32.5312,16.906 -20.8891,1.2568 -23.0189,10.5673 -5.905,25.8157 18.4032,16.3973 71.7165,52.042 82.7402,55.319 18.744,5.5721 150.1379,62.8569 154.7574,67.4706 9.2564,9.245 12.9741,30.6492 10.0853,58.0623 -1.6066,15.2433 -1.2536,31.0133 0.785,35.0445 8.7285,17.2634 -35.5764,70.6107 -86.5108,104.1664 -37.8124,24.911 -54.8444,45.2369 -79.0516,94.3406 -12.4407,25.2365 -24.924,44.098 -33.9544,51.3034 -7.8541,6.267 -20.1975,20.526 -27.4295,31.6867 -13.9441,21.5197 -16.5165,22.6889 -57.8815,26.308 -14.3811,1.2582 -34.5279,4.1868 -44.7705,6.5081 -10.2427,2.3213 -68.5101,6.077 -129.4833,8.3462 -126.19588,4.6963 -145.43485,8.3445 -210.04559,39.8297 -36.0322,17.5585 -40.44829,21.0655 -50.41891,40.0379 -6.01034,11.4366 -14.40716,24.363 -18.65951,28.7254 -7.25795,7.4457 -42.31287,14.7504 -47.12805,9.8205 z M 2692.7149,1356.9485 c -0.043,-5.5939 -1.9256,-13.0488 -4.1986,-16.5665 -3.1864,-4.9304 -4.1484,-3.5279 -4.1987,6.121 -0.043,6.8842 -4.1039,16.8155 -9.0398,22.0696 -4.9358,5.2541 -7.7781,11.4887 -6.3156,13.8547 4.2459,6.8703 23.8256,-14.1319 23.7527,-25.4788 z m -1812.07655,8.1639 c 0,-6.8879 -1.26083,-8.1196 -4.74526,-4.6354 -2.60991,2.6098 -3.45586,6.831 -1.88036,9.3805 4.41054,7.1364 6.62562,5.55 6.62562,-4.7451 z M 944.3541,1290.76 c 10.42003,-2.6996 21.48732,-3.9329 24.59397,-2.7408 7.637,2.9306 29.91014,-6.6648 32.76993,-14.1175 1.7401,-4.5335 -1.78103,-6.0054 -14.3654,-6.0054 -9.16858,0 -17.85577,1.9187 -19.30506,4.2639 -1.44929,2.3451 -8.97884,4.2638 -16.73225,4.2638 -13.85543,0 -36.56604,13.5897 -36.56604,21.8805 0,2.3468 2.35579,2.6938 5.32983,0.7849 2.93141,-1.8816 13.855,-5.6299 24.27502,-8.3294 z m 1738.0849,-19.4387 c -3.693,-5.2725 -6.7143,-13.6877 -6.7143,-18.7004 0,-8.7608 -1.5291,-9.0559 -39.4408,-7.6137 -21.6924,0.8252 -40.0577,1.516 -40.8111,1.5351 -0.7539,0.017 1.9128,3.3183 5.9263,7.3315 5.1124,5.1126 14.5044,7.3462 31.3744,7.4618 21.1517,0.145 25.8727,1.8433 38.8446,13.9747 15.6041,14.5933 22.147,12.1813 10.8209,-3.989 z m -113.4721,0.6656 14.7624,-12.6183 -17.2994,0 c -11.8842,0 -19.7152,2.6693 -25.0169,8.5277 -5.1145,5.6514 -13.6069,8.6979 -25.1781,9.0322 -40.2509,1.163 -42.2741,7.0206 -2.537,7.3455 38.9342,0.3185 41.0797,-0.1586 55.269,-12.2871 z m -1515.8932,-19.1497 c 6.8324,-5.1676 7.0792,-6.2602 1.4147,-6.2602 -10.8989,0 -20.5164,4.8104 -17.9432,8.9745 3.2248,5.2175 6.8231,4.6266 16.5285,-2.7143 z m 1173.0961,614.0339 c -21.4182,-8.1646 -31.9107,-17.6095 -39.5038,-35.5592 -5.3461,-12.6374 -5.2505,-16.0548 0.8041,-28.814 9.9881,-21.0487 30.5502,-28.6403 67.9396,-25.0838 16.2376,1.5446 36.7647,5.7061 45.6165,9.2477 16.3101,6.5261 37.8533,29.9014 37.8533,41.073 0,8.9714 -16.0466,27.8338 -29.6731,34.8804 -18.3785,9.5038 -63.2382,11.803 -83.0366,4.2559 z M 575.93204,1640.535 c -12.66794,-12.668 -0.24731,-33.9158 27.01072,-46.2076 13.24867,-5.9744 19.36604,-6.4945 33.05005,-2.8097 33.25259,8.9539 38.65661,21.7843 15.55202,36.9231 -7.95595,5.2127 -57.24322,18.9393 -68.00478,18.9393 -0.41786,0 -3.84345,-3.0803 -7.60801,-6.8451 z M 441.46046,1092.8743 c 0,-2.4571 5.20873,-9.2948 11.57511,-15.1949 9.66831,-8.9603 11.43653,-13.9127 10.73385,-30.0621 -0.46306,-10.634 1.34141,-23.4138 4.00973,-28.3995 2.66833,-4.9856 4.54016,-16.7894 4.15983,-26.23047 -0.37949,-9.44109 3.48912,-35.92791 8.59808,-58.85956 10.3599,-46.49688 11.34614,-41.46368 -17.73128,-90.48583 -9.56043,-16.11851 -12.00874,-24.43982 -10.03585,-34.1109 3.79484,-18.60567 29.7187,-57.16097 41.42641,-61.61223 18.06258,-6.86733 20.56205,-29.67401 6.44782,-58.83043 -9.7472,-20.13443 -30.91131,-36.14775 -61.59151,-46.60155 -24.94359,-8.49916 -33.17114,-18.28178 -27.63068,-32.85358 2.91989,-7.68037 8.4578,-12.17716 17.13348,-13.91226 9.47558,-1.89516 16.18051,-8.02744 25.70981,-23.51409 7.08996,-11.52271 16.10675,-22.1845 20.0376,-23.69293 7.38288,-2.83308 47.05301,16.70667 72.68821,35.80306 10.57992,7.88133 13.8631,13.5492 13.88143,23.96347 0.0426,23.30841 8.31752,45.71752 18.61986,50.41161 12.01173,5.47284 54.40178,-8.38241 69.88557,-22.84215 12.75705,-11.91324 22.33113,-29.75955 22.33113,-41.62605 0,-14.06576 -17.55646,-28.33239 -38.78197,-31.51541 -10.48185,-1.57187 -25.23141,-6.61218 -32.77674,-11.20074 -11.60239,-7.05584 -13.71855,-10.85776 -13.71855,-24.64598 0,-22.43585 6.27044,-28.79242 38.53381,-39.06151 25.32607,-8.06113 29.53663,-11.15503 46.05995,-33.84543 10.0026,-13.73527 22.75667,-29.26686 28.34233,-34.51461 13.38341,-12.57285 51.7036,-25.005 93.41399,-30.30613 18.51497,-2.35314 39.62109,-7.37525 46.90249,-11.16019 20.1928,-10.49648 69.45364,-14.08085 89.01411,-6.47694 17.31128,6.72957 61.18686,55.20645 65.5603,72.43583 3.97435,15.65699 -2.56045,39.6008 -13.9036,50.94404 -9.63846,9.63812 -12.74128,10.32754 -34.90398,7.75528 -24.73339,-2.8706 -46.68333,2.06103 -52.93544,11.89315 -5.11791,8.04902 -3.87073,23.73761 2.70244,33.99416 3.3288,5.19403 7.33726,20.95612 8.90806,35.02687 5.16226,46.2398 9.51822,57.17329 25.88933,64.98008 19.76769,9.42655 22.1141,21.32729 8.87992,45.03245 -10.63664,19.05175 -10.64772,19.1861 -2.32722,28.11697 9.97744,10.70989 2.73484,9.55447 67.72211,10.80357 46.9174,0.9018 56.4731,2.38499 79.8191,12.38891 31.8497,13.64815 37.2252,13.83389 77.4846,2.6774 26.0334,-7.21432 38.3078,-8.22085 72.4,-5.93721 38.6207,2.58701 43.3012,1.96521 79.0426,-10.50032 54.5689,-19.03188 94.4804,-17.56319 162.4105,5.97632 52.02,18.02625 100.2008,50.91606 100.2008,68.40038 0,8.38731 -18.3107,16.65874 -54.829,24.76758 -17.258,3.83206 -40.3886,11.87166 -51.4017,17.86572 -21.498,11.70072 -60.7144,52.76206 -64.4986,67.53332 -2.6752,10.44126 -22.7814,21.18287 -53.1235,28.38078 -11.7256,2.78157 -41.1915,14.73523 -65.4797,26.56365 l -44.16,21.5062 -21.1313,-7.59863 c -14.1342,-5.08256 -27.7488,-6.86174 -41.1168,-5.37327 -17.6311,1.96308 -22.5247,5.01183 -41.5305,25.8727 -15.7707,17.3097 -27.1979,25.5395 -42.6386,30.7075 -11.602,3.8831 -24.9317,10.3382 -29.6219,14.3447 -13.3762,11.4262 -31.5104,17.7197 -42.8535,14.8728 -5.7123,-1.4337 -9.4637,-4.0988 -8.3367,-5.9224 4.0856,-6.6108 -55.17102,-7.4542 -80.66764,-1.1481 -14.67878,3.6305 -31.6481,5.0732 -40.5067,3.444 -8.38489,-1.5421 -30.76548,-2.6064 -49.73455,-2.3652 -27.79996,0.3535 -42.63906,-2.1718 -76.50564,-13.0203 -31.72613,-10.1627 -46.77543,-12.9022 -61.44781,-11.1856 -107.25662,12.5493 -129.59884,15.9917 -142.00711,21.8799 -7.8745,3.7367 -25.5141,8.6162 -39.19897,10.8435 -13.68487,2.2273 -27.97435,6.7538 -31.75427,10.0589 -18.03912,15.7732 -51.64305,25.769 -51.64305,15.3617 z M 778.84075,517.56588 c 9.14854,-4.29721 10.95216,-7.71129 9.86615,-18.67355 -0.73125,-7.37819 -1.45184,-14.85393 -1.6015,-16.61278 -0.65323,-7.67533 -21.83439,-2.1046 -39.07319,10.27647 -24.64726,17.70177 -26.72717,21.41994 -16.66872,29.7957 8.9507,7.45349 24.82847,5.85292 47.47726,-4.78584 z"
     id="path3019"
     style="fill:#a8a292" />
</svg>
