<?xml version="1.0" encoding="UTF-8" standalone="no"?>
<!-- Created with Inkscape (http://www.inkscape.org/) -->

<svg
   xmlns:dc="http://purl.org/dc/elements/1.1/"
   xmlns:cc="http://creativecommons.org/ns#"
   xmlns:rdf="http://www.w3.org/1999/02/22-rdf-syntax-ns#"
   xmlns:svg="http://www.w3.org/2000/svg"
   xmlns="http://www.w3.org/2000/svg"
   version="1.1"
   width="3264"
   height="2448"
   id="svg2">
  <metadata
     id="metadata8">
    <rdf:RDF>
      <cc:Work
         rdf:about="">
        <dc:format>image/svg+xml</dc:format>
        <dc:type
           rdf:resource="http://purl.org/dc/dcmitype/StillImage" />
        <dc:title></dc:title>
      </cc:Work>
    </rdf:RDF>
  </metadata>
  <defs
     id="defs6" />
  <path
     d="m 742.40348,2151.0671 c -1.41517,-2.2897 -12.62359,-7.241 -24.90821,-11.0029 -12.28419,-3.762 -28.3888,-8.7639 -35.78788,-11.1154 -7.39951,-2.3515 -28.50563,-4.3231 -46.90249,-4.3814 -18.39729,-0.058 -50.24067,-3.2446 -70.7635,-7.0809 -32.77631,-6.1268 -42.10863,-6.2825 -76.74953,-1.2802 -67.66154,9.7708 -90.94052,8.8987 -124.71288,-4.6723 -30.18388,-12.129 -46.93362,-26.8743 -51.81659,-45.6156 -3.57781,-13.7327 5.58054,-42.0054 20.24013,-62.4817 17.47118,-24.4032 19.5788,-40.4338 8.65564,-65.8258 -4.9819,-11.581 -9.05815,-26.1033 -9.05815,-32.2718 0,-6.1686 -1.83986,-14.653 -4.08819,-18.8544 -8.9733,-16.7666 12.00277,-58.4573 45.98533,-91.3984 14.27926,-13.8414 23.29775,-18.0734 56.82579,-26.6655 21.91881,-5.6171 43.69009,-11.9307 48.38034,-14.0302 4.69025,-2.0994 14.80243,-6.1784 22.47141,-9.0644 7.66941,-2.8859 18.57083,-10.7456 24.22557,-17.4659 8.752,-10.4015 9.69048,-14.2785 6.30924,-26.068 -5.03008,-17.5383 -4.9674,-68.4293 0.11086,-90.325 9.52803,-41.0822 40.31312,-55.5465 111.04165,-52.173 71.55615,3.4128 96.65069,18.8626 83.14447,51.1883 -7.052,16.877 -19.32382,27.5659 -61.47467,53.5447 -16.75826,10.3285 -29.80099,20.7845 -28.98403,23.2355 3.14247,9.4269 84.58438,3.7351 90.81516,-6.347 1.25401,-2.0287 7.443,-3.8447 13.75395,-4.0353 16.46831,-0.4976 53.04075,-21.2403 59.53163,-33.7642 3.15312,-6.0845 4.55721,-17.3302 3.27166,-26.2011 -2.63763,-18.1992 4.01187,-22.9745 22.25907,-15.9851 13.91256,5.3291 76.30438,7.5549 88.43806,3.155 4.69025,-1.7008 17.61487,-4.281 28.72053,-5.734 18.62114,-2.4361 21.36877,-4.413 35.29796,-25.3986 13.35186,-20.115 14.77429,-24.8268 12.25434,-40.5874 -2.13534,-13.3534 -5.36905,-18.7878 -12.87686,-21.6424 -5.51403,-2.0964 -47.03638,-3.6623 -92.27213,-3.4796 -55.53042,0.2243 -88.1818,-1.4463 -100.51929,-5.1427 -19.35922,-5.8002 -68.87375,-48.5002 -68.87375,-59.3947 0,-3.2561 -5.15587,-11.3017 -11.45743,-17.8791 -9.96465,-10.4008 -14.66726,-11.9589 -36.09275,-11.9589 -21.23958,0 -25.31754,1.3224 -29.58225,9.5936 -7.26563,14.091 -21.59562,28.7811 -28.07541,28.7811 -3.10921,0 -9.59241,-3.9397 -14.40759,-8.7549 -7.15519,-7.1553 -8.26422,-12.0271 -6.06918,-26.665 2.30461,-15.3684 1.22287,-19.2845 -7.62379,-27.5953 -10.24905,-9.6287 -60.44879,-26.5259 -78.80514,-26.5259 -11.87102,0 -12.04925,6.1877 -0.90266,31.3863 8.94132,20.2135 7.69883,29.255 -5.52981,40.2337 -8.72727,7.243 -35.73415,-2.4548 -48.24603,-17.3246 -8.14483,-9.6797 -10.35906,-17.1874 -10.35906,-35.1257 0,-19.5685 -1.59852,-24.072 -11.23485,-31.6518 -14.52528,-11.4256 -28.48261,-11.107 -55.0324,1.2562 -22.77585,10.6058 -31.6191,20.7904 -39.84324,45.8872 -2.789,8.5107 -8.50812,18.5845 -12.7093,22.3865 -7.1215,6.4449 -10.78885,5.2679 -54.20393,-17.3983 -25.61089,-13.371 -49.95968,-28.2418 -54.10842,-33.0461 -4.14874,-4.8045 -16.14086,-26.0925 -26.64915,-47.3068 -18.23057,-36.8041 -19.10594,-40.2781 -19.10594,-75.8205 0,-23.5088 2.36559,-42.9107 6.41285,-52.5975 4.64121,-11.1078 5.79715,-24.323 4.18328,-47.8315 -1.22629,-17.8657 -2.99793,-47.1486 -3.9364,-65.0732 -0.94701,-18.0813 -4.70731,-38.393 -8.44714,-45.6248 -12.5865,-24.3395 -9.98213,-36.81286 18.39004,-88.07575 20.06062,-36.2453 36.71101,-49.01822 63.97543,-49.07608 41.21066,-0.0874 85.26063,-33.23933 101.36055,-76.28379 4.03446,-10.78629 13.67634,-28.04202 21.42676,-38.34603 23.00098,-30.57978 16.04833,-49.41659 -22.88756,-62.00825 -15.18959,-4.91235 -29.45775,-14.24531 -45.83653,-29.98242 -20.95774,-20.13741 -23.78084,-24.83973 -23.78084,-39.61278 0,-19.26784 5.82145,-25.86156 40.18563,-45.51482 15.50426,-8.86717 33.12296,-25.42916 54.73435,-51.45122 40.95952,-49.31934 52.22721,-59.30411 75.63454,-67.02273 17.32365,-5.71259 22.25949,-5.60412 50.81629,1.11658 l 31.62934,7.44364 15.27315,-17.04483 c 19.25476,-21.48778 38.7517,-31.3194 68.57187,-34.57806 19.54726,-2.13611 25.58062,-4.93828 36.24284,-16.83202 23.20053,-25.88088 61.62263,-49.01469 93.80499,-56.47999 16.41587,-3.80792 45.19694,-10.56436 63.95794,-15.01429 82.51044,-19.57067 100.76063,-22.10566 121.23826,-16.84026 34.52151,8.87643 42.6706,13.43398 52.22763,29.20964 5.16012,8.5183 15.43348,23.16275 22.82914,32.54325 18.79,23.83239 20.1753,28.77963 21.2311,75.82496 0.7982,35.58547 -0.2687,43.24422 -7.2571,52.12952 -8.8599,11.26346 -35.80028,20.47174 -53.66203,18.3419 -14.59435,-1.74021 -28.3871,19.75482 -23.96973,37.35455 3.10281,12.36371 37.96714,48.7296 46.71744,48.7296 8.80445,0 19.89562,21.72652 22.66242,44.39343 l 2.6483,21.69645 25.5832,3.46929 c 14.0707,1.90808 39.4015,7.88721 56.2911,13.28697 36.169,11.56359 47.6132,8.57339 54.128,-14.14268 4.9196,-17.15416 32.5891,-38.85642 49.5405,-38.85642 13.8785,0 32.4301,13.62744 36.4305,26.76039 8.8262,28.97709 28.8932,31.01747 93.2592,9.48245 24.5326,-8.20794 49.025,-14.94429 54.4282,-14.96966 17.5505,-0.0823 50.662,-12.26692 64.1285,-23.59839 12.3315,-10.37607 15.0357,-10.89225 43.381,-8.28072 28.8672,2.65959 31.0942,2.19619 49.4169,-10.28235 23.8951,-16.27354 37.5731,-16.59371 85.0231,-1.9902 87.3977,26.8979 118.6326,52.95189 82.9641,69.20344 -14.3018,6.51629 -38.9116,6.09506 -73.3406,-1.25537 -42.1926,-9.00792 -109.5173,-16.97324 -117.5167,-13.9036 -10.3181,3.95942 -8.4714,19.02275 3.7177,30.31892 6.8848,6.381 18.6083,10.96124 32.9127,12.85874 15.4463,2.04905 29.8786,8.06297 47.3532,19.73205 24.921,16.64152 25.4864,16.78474 66.2886,16.78474 48.1867,0 55.3202,2.97797 94.4765,39.44074 14.4805,13.48446 28.1078,24.51721 30.2824,24.51721 12.769,0 47.5689,23.40528 57.8107,38.88187 l 11.5402,17.43868 -8.3227,15.35682 c -12.0023,22.14514 -27.9654,29.44052 -72.2255,33.00776 -32.3227,2.60513 -37.6269,2.16224 -33.8943,-2.82989 2.4342,-3.25507 4.8672,-19.26413 5.4065,-35.57571 0.6256,-18.90021 3.2534,-32.16778 7.2452,-36.57857 3.4448,-3.80665 6.2636,-10.12791 6.2636,-14.04721 0,-7.67973 -2.777,-8.16509 -53.2983,-9.31458 -18.3133,-0.41658 -35.1201,-3.42043 -43.4931,-7.77302 -18.0707,-9.39432 -34.4516,-8.93301 -51.481,1.44979 -7.6784,4.68147 -18.2314,8.5728 -23.4513,8.64737 -5.2198,0.0746 -13.047,2.82972 -17.3935,6.12253 -5.3964,4.08815 -10.9667,4.82204 -17.5633,2.31404 -11.9955,-4.56067 -74.6585,13.66095 -84.4872,24.5677 -3.6511,4.05177 -7.9205,12.50454 -9.4875,18.78397 -5.7694,23.12204 33.4159,31.14752 87.4621,17.91288 38.8796,-9.52074 101.2424,-8.36306 136.4436,2.53286 31.7073,9.81435 42.6386,10.75508 42.6386,3.66931 0,-2.73595 1.1513,-3.82298 2.5588,-2.41561 1.4075,1.40742 0.987,5.085 -0.9343,8.17242 -1.9213,3.08742 -2.9152,10.08515 -2.2086,15.55052 0.7065,5.46538 -1.5606,13.14033 -5.0378,17.05546 -3.4772,3.91512 -8.3448,14.55998 -10.8174,23.65527 -3.7778,13.89789 -3.1561,19.16119 3.895,32.98259 13.9957,27.4337 22.7371,30.6519 84.4727,31.0998 46.7805,0.3394 57.2462,-0.8798 75.4068,-8.7847 47.4688,-20.6623 94.5712,-35.7361 110.6285,-35.4034 9.3805,0.1944 33.3925,-1.2076 53.3601,-3.1154 33.1166,-3.16404 38.6716,-5.08452 63.2498,-21.86717 38.741,-26.45318 118.0045,-52.23126 169.2493,-55.04319 36.4782,-2.00167 39.2403,-1.53926 51.27,8.5832 11.9853,10.08489 16.1349,10.79554 72.3053,12.38362 54.2521,1.5338 63.1376,2.94659 99.1894,15.77105 36.1678,12.86582 42.2634,13.82783 70.3537,11.10344 28.6075,-2.77458 58.4699,-12.28193 58.4699,-18.61517 0,-5.14295 23.424,-12.46763 48.368,-15.12474 22.587,-2.40597 27.0696,-1.42259 47.9361,10.51588 15.6113,8.93203 27.7172,20.27894 37.6192,35.26113 15.3891,23.28435 32.3674,68.07265 32.3674,85.38385 0,5.645 4.9559,21.4697 11.0127,35.1659 6.0973,13.7869 11.1931,33.5318 11.4156,44.2352 0.5484,26.3326 -8.8244,134.2469 -13.7151,157.9084 -2.181,10.553 -5.1525,36.456 -6.6034,57.5621 -2.3656,34.4131 -6.23,50.2452 -22.9076,93.8548 -5.92,15.4792 -26.9178,32.9987 -47.8022,39.8836 -22.8722,7.5403 -43.3106,24.3846 -53.2706,43.9028 -9.2257,18.0794 -29.1205,28.9506 -53.2399,29.092 -21.2408,0.1245 -54.1084,-12.8725 -72.637,-28.723 -31.2081,-26.6979 -52.9448,-36.5872 -73.2736,-33.3365 -9.6432,1.542 -19.5469,4.357 -22.0084,6.2557 -10.892,8.4013 -105.1856,42.7257 -130.6712,47.5663 -24.4106,4.6364 -32.5806,4.3527 -61.826,-2.1464 -18.5346,-4.1187 -45.1044,-11.1278 -59.0443,-15.5757 -33.8849,-10.812 -35.6437,-10.4882 -38.9572,7.1728 -1.9243,10.257 -6.1813,16.7719 -12.9847,19.8718 -5.5673,2.5365 -10.122,6.2226 -10.122,8.1913 0,6.1134 -21.081,3.9324 -32.1602,-3.3272 -6.9885,-4.5788 -11.4237,-12.4256 -13.1596,-23.2805 -2.3903,-14.948 -4.3367,-16.9429 -22.3537,-22.9087 -10.8545,-3.5942 -30.2888,-6.4423 -43.1869,-6.3291 -38.585,0.3386 -116.0534,-3.5863 -134.3117,-6.8049 -9.3805,-1.6536 -22.8117,-2.7286 -29.8471,-2.3888 -7.0353,0.3398 -33.1852,1.6463 -58.1109,2.9033 -44.9769,2.2684 -45.3854,2.2015 -54.0803,-8.8521 -4.8185,-6.1258 -9.4969,-13.3455 -10.3961,-16.0438 -1.1692,-3.507 -5.8104,-3.0203 -16.2739,1.7062 -39.5755,17.8774 -82.0887,26.8007 -94.9341,19.9261 -8.0697,-4.3188 -81.4576,-6.8303 -110.7645,-3.7906 -12.5549,1.3022 -17.6332,4.3746 -22.3695,13.5339 -6.9236,13.3887 -7.3611,12.9308 21.5564,22.5628 26.6061,8.8621 31.0546,12.4025 48.6631,38.7274 l 14.2084,21.2418 -10.6055,19.2649 c -8.5366,15.507 -9.8627,21.7599 -6.7974,32.0564 2.0944,7.0353 2.7822,18.3669 1.5286,25.1813 -3.4243,18.6152 -30.716,57.0459 -46.1678,65.0111 -7.4917,3.862 -25.1334,17.5229 -39.2041,30.3577 -14.0708,12.8348 -31.4605,25.8544 -38.6434,28.9324 -16.1882,6.9369 -47.4359,40.2988 -55.2405,58.9777 -3.2034,7.6667 -8.6126,16.2535 -12.0203,19.0818 -3.4081,2.8283 -7.3764,11.4325 -8.8185,19.1205 -1.5132,8.0658 -9.0739,20.1751 -17.8749,28.6292 -8.3892,8.058 -18.7542,21.3665 -23.0334,29.5745 -4.2793,8.2079 -14.5304,21.406 -22.7802,29.3291 -13.6729,13.1314 -17.7602,14.5727 -46.21,16.2957 -17.1659,1.0397 -47.5199,5.7719 -67.4535,10.5161 -28.5469,6.7942 -43.9386,8.0628 -72.4856,5.9744 -52.2255,-3.8207 -166.8275,4.0205 -201.15416,13.7632 -19.08164,5.4159 -35.2485,13.6843 -49.03442,25.0784 -11.3116,9.3493 -23.69002,18.1302 -27.50746,19.5132 -3.81744,1.3829 -13.26744,12.2778 -20.99953,24.2108 -13.18642,20.3502 -21.24555,26.1471 -64.40821,46.3304 -1.54394,0.722 -3.96496,-0.5606 -5.37971,-2.8502 z M 1544.3474,1072.5493 c 11.3568,-16.891 9.7638,-22.8518 -8.7746,-32.8355 -17.7504,-9.5593 -42.6638,-5.7985 -51.1864,7.7269 -19.1358,30.3694 -11.8996,42.2643 24.6341,40.4933 23.89,-1.1581 26.537,-2.3109 35.3269,-15.3847 z m 906.5348,-37.1872 c 8.752,-5.9474 15.9132,-12.663 15.9132,-14.9236 0,-5.9389 -39.978,-5.0652 -46.0497,1.0065 -6.6802,6.6801 -6.5587,19.1742 0.2132,21.9066 9.8371,3.9694 13.9338,2.8756 29.9233,-7.9895 z m -2125.43932,-2.5077 c 1.49107,-7.8714 -8.73964,-13.2066 -18.29411,-9.5402 -3.51768,1.3499 -6.39579,6.2139 -6.39579,10.809 0,6.5935 2.46409,8.0704 11.68895,7.0056 6.6576,-0.7684 12.25392,-4.3301 13.00095,-8.2744 z M 428.66887,882.01671 c 0,-12.08093 -1.62453,-14.92352 -8.52773,-14.92352 -6.90362,0 -8.52772,2.84259 -8.52772,14.92352 0,12.08093 1.6241,14.92352 8.52772,14.92352 6.9032,0 8.52773,-2.84259 8.52773,-14.92352 z M 2231.0532,1896.0657 c -20.1668,-3.3577 -62.6088,-35.699 -74.2846,-56.6052 -14.7674,-26.443 -11.5116,-41.7475 14.5398,-68.3522 34.2917,-35.0193 49.9584,-38.0902 99.3493,-19.4736 10.553,3.9777 22.0655,7.2714 25.5832,7.3193 18.6416,0.2537 51.5181,25.8808 63.7669,49.7061 6.5983,12.8338 2.0812,39.8325 -9.0266,53.9538 -18.1261,23.0435 -79.5454,40.1753 -119.928,33.4518 z M 1909.2339,850.12724 c -27.1335,-6.43579 -68.7569,-39.44082 -95.6508,-75.84594 -9.2428,-12.5115 -21.9487,-24.69664 -28.2353,-27.07817 -18.2988,-6.93198 -31.4081,-21.12335 -25.7785,-27.90643 7.2699,-8.75934 14.8016,-6.9159 31.4435,7.69597 17.0213,14.94476 34.2341,19.7761 87.3695,24.52263 19.9335,1.78067 39.4407,4.67396 43.3498,6.42948 12.6697,5.69025 30.4854,37.68039 32.4664,58.29711 1.6769,17.45357 0.5854,20.65893 -9.8248,28.84751 -12.5575,9.87783 -13.9143,10.07235 -35.1398,5.03784 z"
     id="path3025"
     style="fill:#c1af9d" />
  <path
     d="m 705.81996,2128.387 c -16.4939,-5.0402 -44.11563,-9.0818 -68.2218,-9.9822 -22.27869,-0.8321 -52.01913,-3.781 -66.08988,-6.5532 -38.4076,-7.567 -55.75086,-7.815 -100.20078,-1.4328 -54.84692,7.875 -82.05208,5.8243 -111.82109,-8.4286 -46.16953,-22.1051 -53.2582,-52.769 -21.23745,-91.869 14.15901,-17.2898 15.78738,-21.8055 15.66117,-43.4302 -0.0768,-13.2737 -2.55192,-27.0386 -5.49825,-30.5886 -7.36326,-8.8723 -14.58113,-56.795 -11.39475,-75.655 1.81129,-10.7214 10.26781,-23.9542 27.53347,-43.0843 21.18714,-23.4751 28.65274,-28.7409 49.8484,-35.1593 13.7113,-4.152 38.36069,-11.6236 54.77657,-16.6036 34.11644,-10.3496 58.73215,-24.2569 68.01757,-38.4285 5.18954,-7.9205 5.51445,-12.9872 1.71066,-26.6637 -2.79667,-10.0537 -3.76968,-33.9472 -2.40525,-59.0574 2.67899,-49.2946 6.33781,-54.7981 47.09693,-70.8399 24.05032,-9.4658 26.28586,-9.6054 67.16352,-4.1951 46.33284,6.1324 67.85255,15.6925 67.85255,30.1436 0,10.5556 -12.21042,32.63 -19.62229,35.4743 -2.83249,1.0869 -21.64167,12.7254 -41.79823,25.8634 -48.25286,31.4509 -48.74661,40.3836 -2.38222,43.104 49.40581,2.899 124.19397,-21.649 148.04175,-48.5926 25.3977,-28.6943 26.94762,-30.8977 24.50826,-34.8445 -1.33288,-2.1572 -5.24071,-2.8413 -8.68293,-1.5203 -3.90314,1.4977 -6.25935,-0.1778 -6.25935,-4.45 0,-7.901 4.80495,-8.8691 11.3811,-2.293 9.7182,9.7182 120.7816,2.5959 142.73537,-9.1534 3.98032,-2.1302 12.86664,-14.2672 19.74766,-26.971 10.7654,-19.8765 12.0953,-25.8333 9.534,-42.7097 -1.6369,-10.7864 -4.28988,-20.925 -5.89479,-22.5302 -5.27398,-5.2737 -60.95235,-9.243 -125.44882,-8.9432 -68.92663,0.3206 -90.5636,-3.8469 -106.59146,-20.5297 -5.37119,-5.591 -11.46851,-10.1654 -13.54885,-10.1654 -2.08034,0 -10.7637,-11.4925 -19.29654,-25.5387 -19.90542,-32.7677 -28.31034,-38.4193 -57.13662,-38.4193 -22.09235,0 -24.17013,0.9774 -42.29624,19.8947 -17.27291,18.0271 -19.56473,19.2073 -24.41701,12.5718 -3.10153,-4.242 -4.48985,-13.9575 -3.29938,-23.0925 1.78613,-13.7047 0.19188,-17.482 -12.16053,-28.8447 -14.11467,-12.9815 -44.54586,-24.4846 -79.16928,-29.926 -22.90931,-3.6005 -26.90114,4.1423 -16.79919,32.5847 8.65052,24.356 8.89825,31.3597 1.3316,37.6394 -4.36108,3.6192 -9.62055,3.2209 -21.16539,-1.6029 -18.81302,-7.8605 -24.19785,-17.2223 -24.19785,-42.0682 0,-21.8847 -14.04388,-42.6275 -31.89369,-47.1076 -13.51005,-3.3908 -55.64512,11.1896 -69.48221,24.0435 -5.72253,5.3157 -14.95209,19.8811 -20.51003,32.3675 -11.71881,26.3272 -8.97586,26.3393 -64.74591,-0.2865 -35.58492,-16.9893 -46.13926,-26.7848 -64.53144,-59.8931 -24.97856,-44.965 -29.575,-88.1254 -14.73974,-138.415 5.51957,-18.7097 5.82401,-28.2686 1.85265,-58.1131 -3.10197,-23.3096 -3.33605,-39.4489 -0.67284,-46.4527 3.122,-8.2114 1.54181,-18.0317 -6.72539,-41.8048 -11.18071,-32.1494 -11.30862,-58.1199 -0.3539,-71.32175 6.75353,-8.13746 14.10699,-20.94781 23.79875,-41.45908 9.55403,-20.2203 23.23762,-27.58561 51.24992,-27.58561 11.25149,0 23.99361,-2.79104 28.58025,-6.26021 4.55253,-3.44307 11.15512,-6.40108 14.67281,-6.57325 15.89909,-0.77833 50.32381,-42.06438 63.95965,-76.70767 3.23073,-8.20793 12.22705,-22.7961 19.99155,-32.41811 7.76449,-9.62204 14.11765,-21.74216 14.11765,-26.93362 0,-16.74688 -19.70076,-37.29712 -40.86359,-42.62597 -26.38649,-6.64429 -65.73299,-44.1694 -65.73299,-62.6906 0,-15.76107 15.81851,-31.88858 42.63863,-43.47144 14.23235,-6.1467 24.14199,-15.16708 38.37477,-34.93149 26.74764,-37.14366 62.93121,-71.11522 83.21611,-78.12898 14.63954,-5.06172 20.52197,-5.05208 40.5067,0.0661 33.76553,8.6475 51.06956,6.18363 59.30649,-8.44462 9.40822,-16.70825 36.98944,-30.97432 66.61561,-34.45632 23.40904,-2.75126 26.70969,-4.57397 47.19116,-26.06073 12.12898,-12.72414 27.49851,-24.389 34.21324,-25.96616 6.70535,-1.57499 15.06977,-6.42799 18.58745,-10.7845 3.51769,-4.35648 15.98949,-9.78757 27.71511,-12.06908 11.72563,-2.28155 39.54733,-8.12645 61.82602,-12.98871 102.32461,-22.33207 100.91455,-22.15077 126.37237,-16.24903 25.17086,5.83514 32.36912,11.29681 54.12377,41.06587 7.43021,10.16748 17.60545,24.03364 22.61125,30.81378 8.0515,10.90458 8.9759,17.13741 8.0084,53.99935 -0.6016,22.91959 -1.3397,44.16825 -1.6403,47.21934 -0.8553,8.68443 -29.92337,18.94106 -45.4336,16.03132 -7.5142,-1.40968 -16.86869,-1.3325 -20.78803,0.17141 -13.23973,5.08052 -20.50919,29.60025 -15.88801,53.58976 1.23822,6.42667 44.45461,50.44406 49.52647,50.44406 9.67258,0 20.19197,28.68117 17.14116,46.73646 -1.54053,9.12044 -0.9453,17.46879 1.34695,18.88559 2.25986,1.39654 18.22456,3.3435 35.47786,4.32654 19.4062,1.1057 42.5052,5.96689 60.5703,12.74711 23.4372,8.79657 31.0115,10.02481 38.3748,6.22281 15.6058,-8.05848 24.0972,-17.38018 24.0972,-26.45407 0,-14.20391 20.8166,-32.6174 36.8744,-32.6174 13.6874,0 31.3474,13.08853 31.3474,23.23285 0,9.91523 21.8131,27.93351 33.8167,27.93351 15.3994,0 94.8808,-20.47153 100.2818,-25.82891 2.2279,-2.20996 10.0342,-4.01813 17.3476,-4.01813 22.5673,0 58.4264,-12.84084 67.2756,-24.091 7.9035,-10.04745 9.7289,-10.39402 40.8133,-7.75008 31.4123,2.67186 33.2044,2.31382 51.727,-10.33309 12.9682,-8.85468 24.4098,-13.12601 35.3001,-13.17845 27.5872,-0.13303 128.8536,37.28262 137.1237,50.6639 1.3602,2.20067 -0.3709,6.84491 -3.8464,10.32055 -7.0473,7.04706 -60.9694,6.44756 -85.0879,-0.94598 -7.2247,-2.21469 -26.1917,-5.29832 -42.1492,-6.85249 -15.9575,-1.55414 -34.8929,-4.51198 -42.0792,-6.57296 -9.4717,-2.71651 -16.5719,-1.93396 -25.8138,2.84523 -11.2455,5.8151 -12.4309,8.18517 -10.0551,20.10092 4.3833,21.98622 22.2015,36.08106 49.3994,39.07707 12.8982,1.4208 27.2888,5.38359 31.979,8.80619 38.2477,27.91044 39.7077,28.40957 74.181,25.35801 38.6839,-3.42431 60.7566,3.44332 80.3819,25.01003 6.9041,7.58729 18.1201,17.85036 24.924,22.80676 16.641,12.12199 11.9968,14.94352 -12.4739,7.57889 -14.1846,-4.26894 -23.4125,-4.85718 -30.9915,-1.97558 -15.9818,6.07622 -25.6015,5.08718 -47.4858,-4.88225 -23.4879,-10.70008 -46.3554,-9.09537 -63.5912,4.46239 -8.2093,6.45715 -14.9798,8.37564 -23.1929,6.57168 -6.3971,-1.40499 -12.8509,-0.52326 -14.3893,1.96581 -1.5341,2.48242 -8.8129,4.51351 -16.1749,4.51351 -20.3369,0 -81.7059,20.04617 -90.2408,29.47715 -11.9798,13.23712 -10.9032,33.87154 2.2888,43.88198 13.6039,10.32281 61.2141,11.99851 87.1994,3.06908 23.105,-7.93961 101.0685,-6.69251 131.3155,2.10051 26.2006,7.61679 39.3644,17.66173 33.1831,25.32172 -2.1652,2.68295 -6.3182,15.6604 -9.2287,28.83885 -4.6971,21.26508 -4.4076,25.96683 2.5745,41.79173 12.3549,28.0033 26.1852,33.999 85.8234,37.2057 49.0707,2.6385 52.0038,2.3078 75.6853,-8.534 13.5501,-6.2034 27.4034,-11.2789 30.7855,-11.2789 3.3821,0 18.2975,-5.8591 33.1456,-13.0201 20.6098,-9.9399 32.399,-12.9005 49.8318,-12.5145 12.5596,0.278 38.1854,-1.1605 56.9464,-3.1968 33.7476,-3.663 44.7475,-8.08 80.1197,-32.17253 34.2265,-23.31204 153.1064,-54.94935 180.5733,-48.05557 5.1729,1.29826 15.4254,7.42641 22.784,13.61809 12.5592,10.56811 15.2561,11.09926 44.0329,8.6718 39.0297,-3.29225 80.1725,2.88817 128.6706,19.32882 36.798,12.47423 39.7434,12.81866 74.0462,8.6591 29.6177,-3.59141 39.1018,-6.73388 55.4831,-18.38327 27.8051,-19.77349 60.6194,-22.34038 87.1124,-6.81433 10.2551,6.00987 25.5542,19.35785 33.998,29.66224 15.6129,19.05365 32.96,62.14865 32.96,81.88245 0,5.9833 4.9257,22.8328 10.9458,37.4432 13.299,32.2748 17.3428,64.5997 11.159,89.202 -2.5405,10.1067 -4.9252,33.7258 -5.2996,52.4868 -0.3752,18.761 -3.1962,50.4201 -6.27,70.3537 -3.0743,19.9336 -6.8375,47.7553 -8.3627,61.826 -7.4776,68.9671 -29.6889,105.5835 -71.6525,118.1227 -19.2795,5.7609 -54.172,36.8539 -54.172,48.2733 0,9.0787 -28.0438,20.3917 -48.7547,19.668 -20.1587,-0.7044 -47.7224,-13.4232 -70.7076,-32.6267 -43.1943,-36.0876 -58.716,-38.7735 -103.041,-17.8299 -12.4679,5.891 -35.1406,14.8024 -50.3839,19.8031 -15.2433,5.0006 -33.4713,11.6862 -40.5067,14.8567 -20.9987,9.463 -53.0924,15.5997 -60.9677,11.6579 -3.9897,-1.9972 -21.417,-6.0715 -38.7266,-9.054 -17.31,-2.9826 -39.3754,-8.8206 -49.0344,-12.9734 -34.9176,-15.0122 -69.37,-13.0096 -53.2646,3.0961 2.6428,2.6425 3.6188,9.5296 2.1695,15.3047 -5.6083,22.3438 -45.3483,15.777 -45.3483,-7.4935 0,-18.1056 -4.437,-23.7017 -18.7909,-23.7017 -7.4882,0 -15.4927,-1.8783 -17.7888,-4.174 -2.2957,-2.2957 -36.737,-5.1233 -76.5364,-6.2836 -92.4802,-2.6961 -105.1805,-3.6332 -112.4171,-8.2952 -8.4817,-5.4638 -28.0264,-4.142 -39.5943,2.6777 -6.8537,4.0404 -20.1484,5.333 -43.2867,4.2084 -32.8416,-1.5962 -33.537,-1.8644 -41.9935,-16.1975 -9.2799,-15.7281 -17.9381,-18.0602 -31.579,-8.5059 -4.7653,3.3377 -21.0217,9.3152 -36.1256,13.2833 -24.5688,6.4548 -33.1827,6.6413 -81.7788,1.7701 -41.7432,-4.1843 -58.1437,-4.2981 -70.8483,-0.4917 -9.0923,2.7241 -21.4954,4.9529 -27.5621,4.9529 -8.3848,0 -12.7054,3.5287 -18.0109,14.7092 -3.8392,8.0901 -5.8441,16.5469 -4.4562,18.793 1.3883,2.2462 12.5937,7.2692 24.9014,11.1622 27.3625,8.6551 33.1302,12.7689 47.4129,33.8157 13.5296,19.9373 13.9986,28.9504 2.3267,44.7376 -7.9533,10.7573 -8.3456,13.7982 -3.7564,29.1152 4.7026,15.6963 4.2054,18.6712 -6.0428,36.1586 -6.1421,10.4803 -11.167,22.3336 -11.167,26.3406 0,4.007 -6.0517,10.554 -13.4478,14.5489 -7.3965,3.9949 -26.0015,18.4626 -41.345,32.1505 -15.3431,13.6879 -35.3495,27.8691 -44.4589,31.5138 -10.5688,4.2289 -23.7659,15.5666 -36.4705,31.3325 -22.0075,27.3096 -39.0962,53.4639 -39.0962,59.8354 0,9.8113 -17.8711,37.9092 -29.2765,46.0307 -6.8278,4.8617 -13.5544,13.3836 -14.9483,18.9374 -1.3943,5.5538 -11.1581,18.0468 -21.6984,27.7623 -18.6058,17.1501 -20.0201,17.6645 -48.5701,17.6645 -17.3326,0 -37.0661,2.9473 -48.0635,7.1783 -15.7524,6.0606 -33.5963,7.0566 -114.5943,6.3964 -71.0095,-0.5788 -103.69246,0.8592 -125.78396,5.5343 -16.41587,3.474 -36.99881,7.3899 -45.73931,8.7021 -8.74049,1.3122 -24.0904,8.6353 -34.1109,16.2735 -10.02051,7.6382 -26.3737,18.7432 -36.34048,24.6777 -9.96721,5.9347 -24.10319,19.8205 -31.41401,30.8575 -23.25298,35.106 -51.73729,42.7944 -101.83128,27.4865 z M 1543.7957,1088.7089 c 10.3305,-8.5735 19.7945,-29.24 17.1731,-37.4998 -2.5447,-8.0179 -23.9058,-20.5586 -40.751,-23.9246 -5.8628,-1.1715 -17.2938,0.2012 -25.4015,3.0506 -12.112,4.2563 -16.0569,8.8661 -22.1112,25.8355 -5.8947,16.5224 -6.3881,22.8077 -2.4662,31.4151 4.7218,10.3631 6.0441,10.6871 35.8139,8.7766 17.0013,-1.0911 33.9856,-4.5351 37.7429,-7.6534 z m 83.0187,-12.6864 c 0,-2.3451 -2.0322,-4.2639 -4.5155,-4.2639 -2.4837,0 -3.3296,1.9188 -1.8803,4.2639 1.4493,2.3451 3.4814,4.2638 4.5154,4.2638 1.034,0 1.8804,-1.9187 1.8804,-4.2638 z m 827.3054,-32.0646 c 17.3786,-12.8215 22.1136,-20.2958 18.622,-29.395 -2.8969,-7.5484 -4.4174,-7.8759 -31.4601,-6.7743 -26.9804,1.099 -34.1804,6.0284 -34.1804,23.4014 0,24.8044 22.4433,30.8989 47.0185,12.7679 z m -2121.61938,-7.6272 c 3.23755,-9.2628 2.77194,-12.8712 -2.05518,-15.9242 -8.82918,-5.5844 -27.05208,-5.0126 -33.10335,1.0385 -12.76345,12.7635 -1.53712,30.074 18.23654,28.1205 9.56726,-0.9451 13.77697,-4.2376 16.92199,-13.2348 z M 437.76369,903.47942 c 1.09368,-1.09368 0.93378,-11.16706 -0.3539,-22.38528 -2.30078,-20.02153 -2.61844,-20.39675 -17.26737,-20.39675 -14.2413,0 -14.98534,0.75147 -16.27346,16.43788 -1.92428,23.42421 1.11841,28.33269 17.56072,28.33269 7.89071,0 15.24161,-0.89482 16.33529,-1.98854 z M 1744.0706,820.1907 c -1.4493,-2.34513 -4.4408,-4.26387 -6.6474,-4.26387 -2.2069,0 -4.0123,1.91874 -4.0123,4.26387 0,2.34512 2.9911,4.26386 6.6474,4.26386 3.6563,0 5.4616,-1.91874 4.0123,-4.26386 z M 627.16789,610.8899 c 4.39434,-7.10965 -5.48844,-15.26254 -11.37044,-9.3805 -4.92007,4.92016 -1.84071,14.01587 4.74525,14.01587 2.0684,0 5.0497,-2.08592 6.62519,-4.63537 z M 2225.8871,1885.5144 c -21.3943,-7.8551 -58.009,-37.7608 -64.1101,-52.3631 -10.3625,-24.8009 7.1897,-55.9537 43.5225,-77.2461 20.6801,-12.1193 25.193,-11.6566 71.2743,7.306 16.1524,6.6466 32.7934,12.0848 36.9805,12.0848 4.1875,0 15.6232,8.1546 25.4126,18.1214 16.4538,16.7515 17.6451,19.5044 15.7563,36.4159 -2.4292,21.7447 -11.2178,32.4986 -37.4206,45.7865 -22.9707,11.6489 -72.1415,16.9711 -91.4155,9.8946 z M 1759.3327,925.06318 c -5.3111,-6.39925 -4.0767,-15.51368 7.4131,-54.73564 6.6981,-22.86351 8.031,-24.48318 20.1758,-24.51721 16.2248,-0.0456 45.2686,18.38011 55.0362,34.91524 16.3873,27.7418 -6.6989,50.28229 -51.5288,50.30962 -17.2477,0.009 -27.8157,-2.01903 -31.0963,-5.97201 z m 141.446,-85.64157 c -28.0217,-12.17964 -73.5026,-54.06245 -79.5352,-73.2431 -2.8661,-9.11269 -2.3152,-9.22291 39.4779,-7.90043 49.8667,1.57789 62.9457,6.7233 76.086,29.93364 11.7436,20.74212 12.5439,40.96264 1.9989,50.5055 -9.4133,8.51916 -19.6137,8.70813 -38.0276,0.70439 z M 1774.2289,732.68996 c -9.3204,-7.05132 -7.2187,-12.13291 3.3424,-8.08036 3.8533,1.47866 7.006,5.36129 7.006,8.62809 0,7.21284 -0.098,7.20772 -10.3484,-0.54773 z"
     id="path3023"
     style="fill:#b9aa99" />
</svg>
