<?xml version="1.0" encoding="UTF-8" standalone="no"?>
<!-- Generator: Adobe Illustrator 12.0.1, SVG Export Plug-In . SVG Version: 6.00 Build 51448)  -->
<svg
   xmlns:dc="http://purl.org/dc/elements/1.1/"
   xmlns:cc="http://web.resource.org/cc/"
   xmlns:rdf="http://www.w3.org/1999/02/22-rdf-syntax-ns#"
   xmlns:svg="http://www.w3.org/2000/svg"
   xmlns="http://www.w3.org/2000/svg"
   xmlns:sodipodi="http://sodipodi.sourceforge.net/DTD/sodipodi-0.dtd"
   xmlns:inkscape="http://www.inkscape.org/namespaces/inkscape"
   version="1.1"
   id="Layer_1"
   width="204.752"
   height="121.185"
   viewBox="0 0 204.752 121.185"
   style="overflow:visible;enable-background:new 0 0 204.752 121.185;"
   xml:space="preserve"
   sodipodi:version="0.32"
   inkscape:version="0.45.1"
   sodipodi:docname="L-Asparagin.svg"
   inkscape:output_extension="org.inkscape.output.svg.inkscape"
   sodipodi:docbase="C:\"><metadata
   id="metadata60"><rdf:RDF><cc:Work
       rdf:about=""><dc:format>image/svg+xml</dc:format><dc:type
         rdf:resource="http://purl.org/dc/dcmitype/StillImage" /></cc:Work></rdf:RDF></metadata><defs
   id="defs58" /><sodipodi:namedview
   inkscape:window-height="579"
   inkscape:window-width="801"
   inkscape:pageshadow="2"
   inkscape:pageopacity="0.0"
   guidetolerance="10.0"
   gridtolerance="10.0"
   objecttolerance="10.0"
   borderopacity="1.0"
   bordercolor="#666666"
   pagecolor="#ffffff"
   id="base"
   inkscape:zoom="3.119198"
   inkscape:cx="102.376"
   inkscape:cy="60.592499"
   inkscape:window-x="44"
   inkscape:window-y="44"
   inkscape:current-layer="Layer_1" />
<path
   d="M 78.2156,49.280375 L 78.2156,47.426925 L 110.8956,66.236925 L 110.8956,67.186925 L 110.0406,67.614425 L 78.2156,49.280375 z "
   id="polygon3" />
<path
   d="M 111.7506,67.614425 L 110.8956,67.186925 L 110.8956,66.236925 L 143.5281,47.426925 L 143.5281,49.280375 L 111.7506,67.614425 z "
   id="polygon5" />
<g
   id="g7"
   transform="matrix(0.95,0,0,0.95,5.1188,3.029625)">
	<path
   d="M 171.85,68.619 C 171.85,65.766 172.616,63.534 174.148,61.921 C 175.68,60.307 177.658,59.5 180.081,59.5 C 181.668,59.5 183.098,59.879 184.372,60.637 C 185.646,61.396 186.617,62.452 187.285,63.808 C 187.954,65.163 188.288,66.702 188.288,68.42 C 188.288,70.163 187.936,71.722 187.232,73.097 C 186.529,74.472 185.533,75.514 184.243,76.221 C 182.953,76.928 181.562,77.282 180.069,77.282 C 178.451,77.282 177.005,76.891 175.731,76.11 C 174.457,75.329 173.492,74.261 172.835,72.91 C 172.178,71.558 171.85,70.128 171.85,68.619 z M 174.194,68.648 C 174.194,70.718 174.751,72.349 175.865,73.541 C 176.979,74.733 178.377,75.328 180.057,75.328 C 181.769,75.328 183.178,74.726 184.285,73.523 C 185.39,72.32 185.944,70.613 185.944,68.402 C 185.944,67.004 185.708,65.783 185.234,64.74 C 184.761,63.697 184.07,62.888 183.159,62.314 C 182.248,61.74 181.226,61.453 180.093,61.453 C 178.483,61.453 177.097,62.006 175.936,63.111 C 174.775,64.216 174.194,66.063 174.194,68.648 z "
   id="path9" />
	<path
   d="M 191.299,76.984 L 191.299,59.797 L 193.58,59.797 L 193.58,66.86 L 202.471,66.86 L 202.471,59.797 L 204.752,59.797 L 204.752,76.985 L 202.471,76.985 L 202.471,68.891 L 193.58,68.891 L 193.58,76.985 L 191.299,76.985 L 191.299,76.984 z "
   id="path11" />
</g>
<path
   d="M 143.5281,49.280375 L 143.5281,47.426925 L 167.9906,61.534425 L 167.1831,62.960375 L 143.5281,49.280375 z "
   id="polygon13" />
<g
   id="g15"
   transform="matrix(0.95,0,0,0.95,5.1188,3.029625)">
	<path
   d="M 137.451,9.119 C 137.451,6.266 138.217,4.034 139.748,2.421 C 141.281,0.807 143.257,0 145.681,0 C 147.267,0 148.698,0.379 149.972,1.137 C 151.245,1.896 152.216,2.952 152.885,4.308 C 153.554,5.664 153.888,7.202 153.888,8.92 C 153.888,10.663 153.536,12.222 152.832,13.597 C 152.128,14.972 151.132,16.014 149.843,16.721 C 148.552,17.428 147.161,17.782 145.669,17.782 C 144.05,17.782 142.605,17.391 141.331,16.61 C 140.056,15.829 139.091,14.761 138.435,13.41 C 137.779,12.059 137.451,10.628 137.451,9.119 z M 139.794,9.148 C 139.794,11.218 140.351,12.849 141.464,14.041 C 142.579,15.232 143.976,15.828 145.657,15.828 C 147.368,15.828 148.778,15.226 149.884,14.023 C 150.99,12.82 151.544,11.113 151.544,8.902 C 151.544,7.504 151.308,6.283 150.834,5.24 C 150.36,4.197 149.669,3.388 148.759,2.814 C 147.848,2.24 146.825,1.953 145.693,1.953 C 144.082,1.953 142.697,2.506 141.535,3.611 C 140.375,4.717 139.794,6.563 139.794,9.148 z "
   id="path17" />
</g>
<path
   d="M 139.87059,22.062875 L 141.48464,22.062875 L 141.48464,49.992874 L 139.87059,49.992874 L 139.87059,22.062875 z "
   id="rect19" />
<path
   d="M 145.57059,22.062875 L 147.18464,22.062875 L 147.18464,49.992874 L 145.57059,49.992874 L 145.57059,22.062875 z "
   id="rect21" />
<g
   id="g23"
   transform="matrix(0.95,0,0,0.95,5.1188,3.029625)">
	<path
   d="M 104.522,116.685 L 104.522,99.497 L 106.862,99.497 L 115.866,112.986 L 115.866,99.497 L 118.054,99.497 L 118.054,116.685 L 115.714,116.685 L 106.71,103.196 L 106.71,116.685 L 104.522,116.685 z "
   id="path25" />
	<path
   d="M 121.963,116.685 L 121.963,99.497 L 124.244,99.497 L 124.244,106.56 L 133.135,106.56 L 133.135,99.497 L 135.416,99.497 L 135.416,116.685 L 133.135,116.685 L 133.135,108.591 L 124.244,108.591 L 124.244,116.685 L 121.963,116.685 z "
   id="path27" />
</g>
<g
   id="g29"
   transform="matrix(0.95,0,0,0.95,5.1188,3.029625)">
	<path
   d="M 146.199,119.669 L 146.199,121.185 L 137.668,121.185 C 137.656,120.804 137.717,120.438 137.854,120.086 C 138.072,119.506 138.42,118.935 138.902,118.373 C 139.382,117.811 140.073,117.162 140.971,116.426 C 142.367,115.273 143.314,114.362 143.811,113.692 C 144.309,113.022 144.559,112.387 144.559,111.789 C 144.559,111.163 144.333,110.636 143.883,110.205 C 143.433,109.775 142.846,109.56 142.123,109.56 C 141.357,109.56 140.746,109.789 140.287,110.248 C 139.828,110.707 139.596,111.342 139.59,112.153 L 137.965,111.981 C 138.076,110.765 138.496,109.839 139.225,109.203 C 139.953,108.565 140.93,108.247 142.159,108.247 C 143.397,108.247 144.378,108.59 145.1,109.276 C 145.823,109.962 146.184,110.812 146.184,111.826 C 146.184,112.342 146.078,112.849 145.866,113.347 C 145.655,113.845 145.303,114.37 144.813,114.921 C 144.323,115.472 143.509,116.228 142.374,117.189 C 141.423,117.987 140.811,118.527 140.54,118.812 C 140.269,119.095 140.044,119.381 139.868,119.668 L 146.199,119.668 L 146.199,119.669 z "
   id="path31" />
</g>
<path
   d="M 114.5056,95.355375 L 107.2381,95.355375 L 110.0406,67.614425 L 110.8956,67.186925 L 111.7506,67.614425 L 114.5056,95.355375 z "
   id="polygon33" />
<path
   d="M 78.2156,47.426925 L 78.2156,49.280375 L 46.3906,67.661925 L 44.7756,66.711925 L 78.2156,47.426925 z "
   id="polygon35" />
<g
   id="g37"
   transform="matrix(0.95,0,0,0.95,5.1188,3.029625)">
	<path
   d="M 0,48.77 C 0,45.917 0.766,43.685 2.298,42.072 C 3.83,40.458 5.808,39.651 8.231,39.651 C 9.818,39.651 11.248,40.03 12.522,40.788 C 13.796,41.547 14.767,42.603 15.436,43.959 C 16.105,45.315 16.438,46.853 16.438,48.571 C 16.438,50.314 16.086,51.873 15.383,53.248 C 14.68,54.623 13.683,55.665 12.393,56.372 C 11.103,57.079 9.712,57.433 8.219,57.433 C 6.601,57.433 5.155,57.042 3.881,56.261 C 2.607,55.48 1.642,54.412 0.985,53.061 C 0.328,51.71 0,50.278 0,48.77 z M 2.344,48.799 C 2.344,50.869 2.901,52.5 4.015,53.692 C 5.129,54.884 6.527,55.479 8.207,55.479 C 9.919,55.479 11.328,54.877 12.435,53.674 C 13.541,52.471 14.094,50.764 14.094,48.553 C 14.094,47.155 13.858,45.934 13.385,44.891 C 12.912,43.848 12.22,43.039 11.309,42.465 C 10.398,41.891 9.376,41.604 8.243,41.604 C 6.633,41.604 5.247,42.157 4.086,43.262 C 2.925,44.367 2.344,46.213 2.344,48.799 z "
   id="path39" />
</g>
<path
   d="M 48.8131,64.860375 L 48.0056,66.236925 L 23.2581,51.987875 L 24.0656,50.562875 L 48.8131,64.860375 z "
   id="polygon41" />
<path
   d="M 45.9631,69.751925 L 45.1556,71.176925 L 20.4556,56.880375 L 21.2631,55.501925 L 45.9631,69.751925 z "
   id="polygon43" />
<g
   id="g45"
   transform="matrix(0.95,0,0,0.95,5.1188,3.029625)">
	<path
   d="M 35.772,116.685 L 35.772,99.497 L 38.112,99.497 L 47.116,112.986 L 47.116,99.497 L 49.304,99.497 L 49.304,116.685 L 46.964,116.685 L 37.96,103.196 L 37.96,116.685 L 35.772,116.685 z "
   id="path47" />
	<path
   d="M 53.213,116.685 L 53.213,99.497 L 55.494,99.497 L 55.494,106.56 L 64.385,106.56 L 64.385,99.497 L 66.666,99.497 L 66.666,116.685 L 64.385,116.685 L 64.385,108.591 L 55.494,108.591 L 55.494,116.685 L 53.213,116.685 z "
   id="path49" />
</g>
<g
   id="g51"
   transform="matrix(0.95,0,0,0.95,5.1188,3.029625)">
	<path
   d="M 77.448,119.669 L 77.448,121.185 L 68.917,121.185 C 68.905,120.804 68.967,120.438 69.103,120.086 C 69.321,119.506 69.67,118.935 70.151,118.373 C 70.631,117.811 71.321,117.162 72.221,116.426 C 73.617,115.273 74.563,114.362 75.061,113.692 C 75.559,113.022 75.808,112.387 75.808,111.789 C 75.808,111.163 75.583,110.636 75.133,110.205 C 74.683,109.775 74.096,109.56 73.373,109.56 C 72.607,109.56 71.996,109.789 71.537,110.248 C 71.078,110.707 70.846,111.342 70.84,112.153 L 69.215,111.981 C 69.326,110.765 69.746,109.839 70.475,109.203 C 71.203,108.565 72.181,108.247 73.409,108.247 C 74.648,108.247 75.629,108.59 76.351,109.276 C 77.073,109.962 77.434,110.812 77.434,111.826 C 77.434,112.342 77.328,112.849 77.117,113.347 C 76.906,113.845 76.554,114.37 76.064,114.921 C 75.573,115.472 74.76,116.228 73.624,117.189 C 72.673,117.987 72.062,118.527 71.791,118.812 C 71.52,119.095 71.295,119.381 71.118,119.668 L 77.448,119.668 L 77.448,119.669 z "
   id="path53" />
</g>
<path
   d="M 46.3906,95.355375 L 44.7756,95.355375 L 44.7756,66.711925 L 46.3906,67.661925 L 46.3906,95.355375 z "
   id="polygon55" />
</svg>