<?xml version="1.0" encoding="UTF-8" standalone="no"?>
<!-- Generator: Adobe Illustrator 12.0.1, SVG Export Plug-In . SVG Version: 6.00 Build 51448)  -->
<svg
   xmlns:dc="http://purl.org/dc/elements/1.1/"
   xmlns:cc="http://web.resource.org/cc/"
   xmlns:rdf="http://www.w3.org/1999/02/22-rdf-syntax-ns#"
   xmlns:svg="http://www.w3.org/2000/svg"
   xmlns="http://www.w3.org/2000/svg"
   xmlns:sodipodi="http://sodipodi.sourceforge.net/DTD/sodipodi-0.dtd"
   xmlns:inkscape="http://www.inkscape.org/namespaces/inkscape"
   version="1.1"
   id="Layer_1"
   width="185.471"
   height="121.185"
   viewBox="0 0 185.471 121.185"
   style="overflow:visible;enable-background:new 0 0 185.471 121.185;"
   xml:space="preserve"
   sodipodi:version="0.32"
   inkscape:version="0.45.1"
   sodipodi:docname="L-Cystein.svg"
   inkscape:output_extension="org.inkscape.output.svg.inkscape"
   sodipodi:docbase="C:\"><metadata
   id="metadata46"><rdf:RDF><cc:Work
       rdf:about=""><dc:format>image/svg+xml</dc:format><dc:type
         rdf:resource="http://purl.org/dc/dcmitype/StillImage" /></cc:Work></rdf:RDF></metadata><defs
   id="defs44" /><sodipodi:namedview
   inkscape:window-height="579"
   inkscape:window-width="801"
   inkscape:pageshadow="2"
   inkscape:pageopacity="0.0"
   guidetolerance="10.0"
   gridtolerance="10.0"
   objecttolerance="10.0"
   borderopacity="1.0"
   bordercolor="#666666"
   pagecolor="#ffffff"
   id="base"
   inkscape:zoom="3.119198"
   inkscape:cx="92.735497"
   inkscape:cy="60.592499"
   inkscape:window-x="198"
   inkscape:window-y="198"
   inkscape:current-layer="Layer_1" />
<path
   d="M 59.416625,49.280375 L 59.416625,47.426925 L 92.096625,66.236925 L 92.096625,67.186925 L 91.241625,67.614425 L 59.416625,49.280375 z "
   id="polygon3" />
<path
   d="M 92.950675,67.614425 L 92.096625,67.186925 L 92.096625,66.236925 L 124.72912,47.426925 L 124.72912,49.280375 L 92.950675,67.614425 z "
   id="polygon5" />
<g
   id="g7"
   transform="matrix(0.95,0,0,0.95,4.636775,3.029625)">
	<path
   d="M 152.569,68.619 C 152.569,65.766 153.335,63.534 154.867,61.921 C 156.399,60.307 158.377,59.5 160.8,59.5 C 162.387,59.5 163.817,59.879 165.091,60.637 C 166.365,61.396 167.336,62.452 168.004,63.808 C 168.673,65.163 169.007,66.702 169.007,68.42 C 169.007,70.163 168.655,71.722 167.951,73.097 C 167.248,74.472 166.252,75.514 164.962,76.221 C 163.672,76.928 162.281,77.282 160.788,77.282 C 159.17,77.282 157.724,76.891 156.45,76.11 C 155.176,75.329 154.211,74.261 153.554,72.91 C 152.897,71.558 152.569,70.128 152.569,68.619 z M 154.913,68.648 C 154.913,70.718 155.47,72.349 156.584,73.541 C 157.698,74.733 159.096,75.328 160.776,75.328 C 162.488,75.328 163.897,74.726 165.004,73.523 C 166.109,72.32 166.663,70.613 166.663,68.402 C 166.663,67.004 166.427,65.783 165.953,64.74 C 165.48,63.697 164.789,62.888 163.878,62.314 C 162.967,61.74 161.945,61.453 160.812,61.453 C 159.202,61.453 157.816,62.006 156.655,63.111 C 155.494,64.216 154.913,66.063 154.913,68.648 z "
   id="path9" />
	<path
   d="M 172.018,76.984 L 172.018,59.797 L 174.299,59.797 L 174.299,66.86 L 183.19,66.86 L 183.19,59.797 L 185.471,59.797 L 185.471,76.985 L 183.19,76.985 L 183.19,68.891 L 174.299,68.891 L 174.299,76.985 L 172.018,76.985 L 172.018,76.984 z "
   id="path11" />
</g>
<path
   d="M 124.72912,49.280375 L 124.72912,47.426925 L 149.19162,61.535375 L 148.38412,62.960375 L 124.72912,49.280375 z "
   id="polygon13" />
<g
   id="g15"
   transform="matrix(0.95,0,0,0.95,4.636775,3.029625)">
	<path
   d="M 118.169,9.119 C 118.169,6.266 118.935,4.034 120.466,2.421 C 122,0.807 123.976,0 126.4,0 C 127.986,0 129.417,0.379 130.691,1.137 C 131.964,1.896 132.935,2.952 133.604,4.308 C 134.273,5.664 134.607,7.202 134.607,8.92 C 134.607,10.663 134.255,12.222 133.551,13.597 C 132.847,14.972 131.851,16.014 130.562,16.721 C 129.271,17.428 127.88,17.782 126.388,17.782 C 124.769,17.782 123.324,17.391 122.05,16.61 C 120.775,15.829 119.81,14.761 119.154,13.41 C 118.498,12.059 118.169,10.628 118.169,9.119 z M 120.513,9.148 C 120.513,11.218 121.07,12.849 122.183,14.041 C 123.298,15.232 124.695,15.828 126.376,15.828 C 128.087,15.828 129.497,15.226 130.603,14.023 C 131.709,12.82 132.263,11.113 132.263,8.902 C 132.263,7.504 132.027,6.283 131.553,5.24 C 131.079,4.197 130.388,3.388 129.478,2.814 C 128.567,2.24 127.544,1.953 126.412,1.953 C 124.801,1.953 123.416,2.506 122.254,3.611 C 121.093,4.717 120.513,6.563 120.513,9.148 z "
   id="path17" />
</g>
<path
   d="M 121.07163,22.062875 L 122.68662,22.062875 L 122.68662,49.992874 L 121.07163,49.992874 L 121.07163,22.062875 z "
   id="rect19" />
<path
   d="M 126.77162,22.062875 L 128.38663,22.062875 L 128.38663,49.992874 L 126.77162,49.992874 L 126.77162,22.062875 z "
   id="rect21" />
<g
   id="g23"
   transform="matrix(0.95,0,0,0.95,4.636775,3.029625)">
	<path
   d="M 85.241,116.685 L 85.241,99.497 L 87.581,99.497 L 96.585,112.986 L 96.585,99.497 L 98.773,99.497 L 98.773,116.685 L 96.433,116.685 L 87.429,103.196 L 87.429,116.685 L 85.241,116.685 z "
   id="path25" />
	<path
   d="M 102.682,116.685 L 102.682,99.497 L 104.963,99.497 L 104.963,106.56 L 113.854,106.56 L 113.854,99.497 L 116.135,99.497 L 116.135,116.685 L 113.854,116.685 L 113.854,108.591 L 104.963,108.591 L 104.963,116.685 L 102.682,116.685 z "
   id="path27" />
</g>
<g
   id="g29"
   transform="matrix(0.95,0,0,0.95,4.636775,3.029625)">
	<path
   d="M 126.917,119.669 L 126.917,121.185 L 118.386,121.185 C 118.374,120.804 118.435,120.438 118.572,120.086 C 118.79,119.506 119.138,118.935 119.62,118.373 C 120.1,117.811 120.791,117.162 121.689,116.426 C 123.085,115.273 124.032,114.362 124.529,113.692 C 125.027,113.022 125.277,112.387 125.277,111.789 C 125.277,111.163 125.051,110.636 124.601,110.205 C 124.151,109.775 123.564,109.56 122.841,109.56 C 122.075,109.56 121.464,109.789 121.005,110.248 C 120.546,110.707 120.314,111.342 120.308,112.153 L 118.683,111.981 C 118.794,110.765 119.214,109.839 119.943,109.203 C 120.671,108.565 121.648,108.247 122.877,108.247 C 124.115,108.247 125.096,108.59 125.818,109.276 C 126.541,109.962 126.902,110.812 126.902,111.826 C 126.902,112.342 126.796,112.849 126.584,113.347 C 126.373,113.845 126.021,114.37 125.531,114.921 C 125.041,115.472 124.227,116.228 123.092,117.189 C 122.141,117.987 121.529,118.527 121.258,118.812 C 120.987,119.095 120.762,119.381 120.586,119.668 L 126.917,119.668 L 126.917,119.669 z "
   id="path31" />
</g>
<path
   d="M 95.706625,95.355375 L 88.438175,95.355375 L 91.241625,67.614425 L 92.096625,67.186925 L 92.950675,67.614425 L 95.706625,95.355375 z "
   id="polygon33" />
<g
   id="g35"
   transform="matrix(0.95,0,0,0.95,4.636775,3.029625)">
	<path
   d="M 0,76.984 L 0,59.797 L 2.281,59.797 L 2.281,66.86 L 11.172,66.86 L 11.172,59.797 L 13.453,59.797 L 13.453,76.985 L 11.172,76.985 L 11.172,68.891 L 2.281,68.891 L 2.281,76.985 L 0,76.985 L 0,76.984 z "
   id="path37" />
	<path
   d="M 16.488,71.469 L 18.629,71.281 C 18.731,72.142 18.967,72.848 19.338,73.4 C 19.709,73.952 20.286,74.399 21.067,74.739 C 21.848,75.08 22.728,75.25 23.705,75.25 C 24.573,75.25 25.339,75.121 26.003,74.862 C 26.667,74.604 27.162,74.25 27.486,73.799 C 27.81,73.349 27.972,72.858 27.972,72.325 C 27.972,71.785 27.814,71.313 27.497,70.91 C 27.18,70.508 26.662,70.169 25.943,69.894 C 25.482,69.714 24.461,69.434 22.881,69.054 C 21.301,68.675 20.195,68.317 19.563,67.981 C 18.743,67.55 18.132,67.017 17.73,66.379 C 17.328,65.741 17.127,65.028 17.127,64.237 C 17.127,63.37 17.373,62.558 17.866,61.803 C 18.358,61.048 19.078,60.475 20.024,60.084 C 20.97,59.692 22.022,59.497 23.179,59.497 C 24.453,59.497 25.577,59.703 26.551,60.113 C 27.525,60.524 28.274,61.129 28.797,61.926 C 29.321,62.724 29.603,63.628 29.642,64.637 L 27.454,64.809 C 27.337,63.716 26.939,62.892 26.264,62.333 C 25.59,61.779 24.591,61.5 23.27,61.5 C 21.894,61.5 20.89,61.753 20.261,62.258 C 19.631,62.763 19.317,63.371 19.317,64.083 C 19.317,64.702 19.54,65.211 19.986,65.609 C 20.424,66.008 21.567,66.418 23.417,66.837 C 25.267,67.256 26.536,67.622 27.225,67.935 C 28.227,68.396 28.967,68.98 29.445,69.688 C 29.923,70.396 30.162,71.21 30.162,72.133 C 30.162,73.048 29.9,73.909 29.377,74.719 C 28.854,75.529 28.102,76.157 27.122,76.607 C 26.142,77.057 25.038,77.282 23.812,77.282 C 22.257,77.282 20.955,77.055 19.905,76.602 C 18.854,76.149 18.03,75.467 17.433,74.557 C 16.834,73.646 16.52,72.617 16.488,71.469 z "
   id="path39" />
</g>
<path
   d="M 35.286625,63.197875 L 34.479125,61.819425 L 59.416625,47.426925 L 59.416625,49.280375 L 35.286625,63.197875 z "
   id="polygon41" />
</svg>