<?xml version="1.0" encoding="UTF-8"?>
<svg width="204pt" xmlns:xlink="http://www.w3.org/1999/xlink" xmlns="http://www.w3.org/2000/svg" height="126pt" viewBox="0 0 204 126" >
 <g transform="translate(39.4952, 69.8158)" style="fill:#161413; fill-rule:nonzero; stroke:none; stroke-width:1.63427; stroke-linecap:butt; stroke-linejoin:miter; stroke-dasharray:none;" >
  <path d="M1.64231 37.9327 C1.64231 37.9327 0 37.9327 0 37.9327 C0 37.9327 0 0.478357 0 0.478357 C0 0.478357 0.821639 0 0.821639 0 C0.821639 0 1.64231 0.478357 1.64231 0.478357 C1.64231 0.478357 1.64231 37.9327 1.64231 37.9327 Z" />
 </g>
 <g transform="translate(40.3168, 49.9154)" style="fill:#161413; fill-rule:nonzero; stroke:none; stroke-width:1.63427; stroke-linecap:butt; stroke-linejoin:miter; stroke-dasharray:none;" >
  <path d="M33.1801 0 C33.1801 0 33.1801 1.86578 33.1801 1.86578 C33.1801 1.86578 0.820673 20.3788 0.820673 20.3788 C0.820673 20.3788 0 19.9004 0 19.9004 C0 19.9004 0 18.9437 0 18.9437 C0 18.9437 33.1801 0 33.1801 0 Z" />
 </g>
 <g transform="translate(6.75, 50.1546)" style="fill:#161413; fill-rule:nonzero; stroke:none; stroke-width:1.63427; stroke-linecap:butt; stroke-linejoin:miter; stroke-dasharray:none;" >
  <path d="M0 1.38743 C0 1.38743 0.820682 0 0.820682 0 C0.820682 0 33.5668 18.7045 33.5668 18.7045 C33.5668 18.7045 33.5668 19.6612 33.5668 19.6612 C33.5668 19.6612 32.7452 20.1396 32.7452 20.1396 C32.7452 20.1396 0 1.38743 0 1.38743 Z" />
 </g>
 <g transform="translate(73.4969, 49.9154)" style="fill:#161413; fill-rule:nonzero; stroke:none; stroke-width:1.63427; stroke-linecap:butt; stroke-linejoin:miter; stroke-dasharray:none;" >
  <path d="M33.1799 18.9437 C33.1799 18.9437 33.1799 19.9004 33.1799 19.9004 C33.1799 19.9004 32.3115 20.3302 32.3115 20.3302 C32.3115 20.3302 0 1.86578 0 1.86578 C0 1.86578 0 0 0 0 C0 0 33.1799 18.9437 33.1799 18.9437 Z" />
 </g>
 <g transform="translate(100.036, 99.9561)" style="fill:#161413; fill-rule:evenodd; stroke:none; stroke-width:1.63427; stroke-linecap:butt; stroke-linejoin:miter; stroke-dasharray:none;" >
  <path d="M13.214 0 C13.214 0 11.1739 0 11.1739 0 C11.1739 0 11.1739 13.6848 11.1739 13.6848 C11.1739 13.6848 2.34127 0 2.34127 0 C2.34127 0 0 0 0 0 C0 0 0 16.7387 0 16.7387 C0 16.7387 2.0399 16.7387 2.0399 16.7387 C2.0399 16.7387 2.0399 3.16863 2.0399 3.16863 C2.0399 3.16863 10.7798 16.7387 10.7798 16.7387 C10.7798 16.7387 13.214 16.7387 13.214 16.7387 C13.214 16.7387 13.214 0 13.214 0 Z" />
 </g>
 <g transform="translate(117.102, 99.9561)" style="fill:#161413; fill-rule:evenodd; stroke:none; stroke-width:1.63427; stroke-linecap:butt; stroke-linejoin:miter; stroke-dasharray:none;" >
  <path d="M10.8496 9.11556 C10.8496 9.11556 10.8496 16.7387 10.8496 16.7387 C10.8496 16.7387 13.0056 16.7387 13.0056 16.7387 C13.0056 16.7387 13.0056 0 13.0056 0 C13.0056 0 10.8496 0 10.8496 0 C10.8496 0 10.8496 7.23275 10.8496 7.23275 C10.8496 7.23275 2.156 7.23275 2.156 7.23275 C2.156 7.23275 2.156 0 2.156 0 C2.156 0 0 0 0 0 C0 0 0 16.7387 0 16.7387 C0 16.7387 2.17919 16.7387 2.17919 16.7387 C2.17919 16.7387 2.17919 9.11556 2.17919 9.11556 C2.17919 9.11556 10.8496 9.11556 10.8496 9.11556 Z" />
 </g>
 <g transform="translate(132.432, 108.79)" style="fill:#161413; fill-rule:evenodd; stroke:none; stroke-width:1.63427; stroke-linecap:butt; stroke-linejoin:miter; stroke-dasharray:none;" >
  <path d="M8.20673 10.7114 C8.20673 10.7114 1.72133 10.7114 1.72133 10.7114 C1.87781 9.71255 2.4342 9.07538 3.94688 8.19712 C3.94688 8.19712 5.68559 7.26719 5.68559 7.26719 C7.40692 6.33727 8.29366 5.08015 8.29366 3.58193 C8.29366 2.5659 7.87637 1.61876 7.14611 0.964367 C6.41585 0.310932 5.51172 0 4.34678 0 C2.78194 0 1.617 0.551067 0.938905 1.58432 C0.504227 2.23871 0.312968 2.99643 0.278194 4.23633 C0.278194 4.23633 1.80826 4.23633 1.80826 4.23633 C1.86042 3.40973 1.96475 2.91032 2.17339 2.51424 C2.5733 1.77375 3.3731 1.326 4.29462 1.326 C5.68559 1.326 6.72882 2.30759 6.72882 3.61638 C6.72882 4.58074 6.15504 5.40734 5.05966 6.02729 C5.05966 6.02729 3.46004 6.92278 3.46004 6.92278 C0.886744 8.36933 0.139097 9.52312 0 12.2096 C0 12.2096 8.20673 12.2096 8.20673 12.2096 C8.20673 12.2096 8.20673 10.7114 8.20673 10.7114 Z" />
 </g>
 <g transform="translate(102.959, 69.8158)" style="fill:#161413; fill-rule:nonzero; stroke:none; stroke-width:1.63427; stroke-linecap:butt; stroke-linejoin:miter; stroke-dasharray:none;" >
  <path d="M7.38953 28.366 C7.38953 28.366 0 28.366 0 28.366 C0 28.366 2.84956 0.429756 2.84956 0.429756 C2.84956 0.429756 3.71795 0 3.71795 0 C3.71795 0 4.53997 0.429756 4.53997 0.429756 C4.53997 0.429756 7.38953 28.366 7.38953 28.366 Z" />
 </g>
 <g transform="translate(106.677, 49.9154)" style="fill:#161413; fill-rule:nonzero; stroke:none; stroke-width:1.63427; stroke-linecap:butt; stroke-linejoin:miter; stroke-dasharray:none;" >
  <path d="M33.1331 0 C33.1331 0 33.1331 1.86578 33.1331 1.86578 C33.1331 1.86578 0.822025 20.3302 0.822025 20.3302 C0.822025 20.3302 0 19.9004 0 19.9004 C0 19.9004 0 18.9437 0 18.9437 C0 18.9437 33.1331 0 33.1331 0 Z" />
 </g>
 <g transform="translate(131.756, 4.96582)" style="fill:#161413; fill-rule:evenodd; stroke:none; stroke-width:1.63427; stroke-linecap:butt; stroke-linejoin:miter; stroke-dasharray:none;" >
  <path d="M8.13718 0 C3.29196 0 0 3.53629 0 8.77113 C0 14.0068 3.29196 17.5423 8.16036 17.5423 C10.2005 17.5423 12.0319 16.9228 13.3997 15.7746 C15.2311 14.2358 16.3207 11.6413 16.3207 8.90937 C16.3207 3.51294 13.0983 0 8.13718 0 Z M8.13718 1.88259 C11.8001 1.88259 14.1647 4.63875 14.1647 8.86364 C14.1647 12.9044 11.7305 15.6597 8.16036 15.6597 C4.56702 15.6597 2.156 12.9044 2.156 8.77113 C2.156 4.63875 4.56702 1.88259 8.13718 1.88259 Z" />
 </g>
 <g transform="translate(136.138, 24.372)" style="fill:#161413; fill-rule:nonzero; stroke:none; stroke-width:1.63427; stroke-linecap:butt; stroke-linejoin:miter; stroke-dasharray:none;" >
  <path d="M0 0 C0 0 1.64212 0 1.64212 0 C1.64212 0 1.64212 28.1268 1.64212 28.1268 C1.64212 28.1268 0 28.1268 0 28.1268 C0 28.1268 0 0 0 0 Z" />
 </g>
 <g transform="translate(141.886, 24.372)" style="fill:#161413; fill-rule:nonzero; stroke:none; stroke-width:1.63427; stroke-linecap:butt; stroke-linejoin:miter; stroke-dasharray:none;" >
  <path d="M0 0 C0 0 1.64308 0 1.64308 0 C1.64308 0 1.64308 28.1268 1.64308 28.1268 C1.64308 28.1268 0 28.1268 0 28.1268 C0 28.1268 0 0 0 0 Z" />
 </g>
 <g transform="translate(164.84, 61.8902)" style="fill:#161413; fill-rule:evenodd; stroke:none; stroke-width:1.63427; stroke-linecap:butt; stroke-linejoin:miter; stroke-dasharray:none;" >
  <path d="M8.13718 0 C3.29196 0 0 3.5363 0 8.77115 C0 14.0069 3.29196 17.5423 8.16036 17.5423 C10.2005 17.5423 12.0319 16.9228 13.3997 15.7746 C15.2311 14.2358 16.3207 11.6413 16.3207 8.90939 C16.3207 3.51296 13.0983 0 8.13718 0 Z M8.13718 1.88262 C11.8001 1.88262 14.1647 4.63882 14.1647 8.86366 C14.1647 12.9044 11.7305 15.6597 8.16036 15.6597 C4.56702 15.6597 2.156 12.9044 2.156 8.77115 C2.156 4.63882 4.56702 1.88262 8.13718 1.88262 Z" />
 </g>
 <g transform="translate(183.994, 62.1659)" style="fill:#161413; fill-rule:evenodd; stroke:none; stroke-width:1.63427; stroke-linecap:butt; stroke-linejoin:miter; stroke-dasharray:none;" >
  <path d="M10.8496 9.11585 C10.8496 9.11585 10.8496 16.7388 10.8496 16.7388 C10.8496 16.7388 13.0056 16.7388 13.0056 16.7388 C13.0056 16.7388 13.0056 0 13.0056 0 C13.0056 0 10.8496 0 10.8496 0 C10.8496 0 10.8496 7.23333 10.8496 7.23333 C10.8496 7.23333 2.156 7.23333 2.156 7.23333 C2.156 7.23333 2.156 0 2.156 0 C2.156 0 0 0 0 0 C0 0 0 16.7388 0 16.7388 C0 16.7388 2.17919 16.7388 2.17919 16.7388 C2.17919 16.7388 2.17919 9.11585 2.17919 9.11585 C2.17919 9.11585 10.8496 9.11585 10.8496 9.11585 Z" />
 </g>
 <g transform="translate(139.81, 49.9154)" style="fill:#161413; fill-rule:nonzero; stroke:none; stroke-width:1.63427; stroke-linecap:butt; stroke-linejoin:miter; stroke-dasharray:none;" >
  <path d="M24.824 14.2078 C24.824 14.2078 24.0039 15.5952 24.0039 15.5952 C24.0039 15.5952 0 1.86578 0 1.86578 C0 1.86578 0 0 0 0 C0 0 24.824 14.2078 24.824 14.2078 Z" />
 </g>
</svg>
