<?xml version="1.0" encoding="UTF-8"?>
<svg width="238pt" xmlns:xlink="http://www.w3.org/1999/xlink" xmlns="http://www.w3.org/2000/svg" height="126pt" viewBox="0 0 238 126" >
 <g transform="translate(73.4966, 49.3028)" style="fill:#161413; fill-rule:nonzero; stroke:none; stroke-width:1.64557; stroke-linecap:butt; stroke-linejoin:miter; stroke-dasharray:none;" >
  <path d="M33.3541 0 C33.3541 0 33.3541 1.88186 33.3541 1.88186 C33.3541 1.88186 0 21.0369 0 21.0369 C0 21.0369 0 19.1069 0 19.1069 C0 19.1069 33.3541 0 33.3541 0 Z" />
 </g>
 <g transform="translate(33.3477, 42.0817)" style="fill:#161413; fill-rule:evenodd; stroke:none; stroke-width:1.64557; stroke-linecap:butt; stroke-linejoin:miter; stroke-dasharray:none;" >
  <path d="M12.7701 5.23374 C12.7474 1.92239 10.463 0 6.54867 0 C2.81923 0 0.51211 1.89885 0.51211 4.95583 C0.51211 7.01766 1.60731 8.31427 3.84519 8.89286 C3.84519 8.89286 8.06306 10.0049 8.06306 10.0049 C10.207 10.5609 11.1856 11.4175 11.1856 12.7376 C11.1856 13.6405 10.6963 14.5667 9.97371 15.0765 C9.2976 15.5402 8.22609 15.7946 6.85114 15.7946 C5.00963 15.7946 3.7513 15.3545 2.93584 14.382 C2.30712 13.6405 2.02737 12.83 2.05019 11.7877 C2.05019 11.7877 0 11.7877 0 11.7877 C0.0228187 13.3398 0.326259 14.3585 1.0014 15.2848 C2.1668 16.8604 4.12494 17.6935 6.7118 17.6935 C8.73907 17.6935 10.3938 17.2308 11.4891 16.3968 C12.6308 15.494 13.3533 13.9881 13.3533 12.5294 C13.3533 10.4449 12.0476 8.9165 9.74047 8.29073 C9.74047 8.29073 5.47619 7.15613 5.47619 7.15613 C3.42513 6.60022 2.67979 5.95186 2.67979 4.65515 C2.67979 2.9411 4.19417 1.8065 6.47847 1.8065 C9.18195 1.8065 10.6963 3.03441 10.72 5.23374 C10.72 5.23374 12.7701 5.23374 12.7701 5.23374 Z" />
 </g>
 <g transform="translate(48.9787, 54.8033)" style="fill:#161413; fill-rule:nonzero; stroke:none; stroke-width:1.64557; stroke-linecap:butt; stroke-linejoin:miter; stroke-dasharray:none;" >
  <path d="M0 1.44744 C0 1.44744 0.824969 0 0.824969 0 C0.824969 0 24.518 13.6065 24.518 13.6065 C24.518 13.6065 24.518 15.5364 24.518 15.5364 C24.518 15.5364 0 1.44744 0 1.44744 Z" />
 </g>
 <g transform="translate(106.851, 49.3028)" style="fill:#161413; fill-rule:nonzero; stroke:none; stroke-width:1.64557; stroke-linecap:butt; stroke-linejoin:miter; stroke-dasharray:none;" >
  <path d="M33.3532 19.1069 C33.3532 19.1069 33.3532 20.0719 33.3532 20.0719 C33.3532 20.0719 32.4802 20.5054 32.4802 20.5054 C32.4802 20.5054 0 1.88186 0 1.88186 C0 1.88186 0 0 0 0 C0 0 33.3532 19.1069 33.3532 19.1069 Z" />
 </g>
 <g transform="translate(133.528, 99.7748)" style="fill:#161413; fill-rule:evenodd; stroke:none; stroke-width:1.64557; stroke-linecap:butt; stroke-linejoin:miter; stroke-dasharray:none;" >
  <path d="M13.2834 0 C13.2834 0 11.2326 0 11.2326 0 C11.2326 0 11.2326 13.8028 11.2326 13.8028 C11.2326 13.8028 2.35372 0 2.35372 0 C2.35372 0 0 0 0 0 C0 0 0 16.8829 0 16.8829 C0 16.8829 2.05077 16.8829 2.05077 16.8829 C2.05077 16.8829 2.05077 3.19594 2.05077 3.19594 C2.05077 3.19594 10.8365 16.8829 10.8365 16.8829 C10.8365 16.8829 13.2834 16.8829 13.2834 16.8829 C13.2834 16.8829 13.2834 0 13.2834 0 Z" />
 </g>
 <g transform="translate(150.684, 99.7748)" style="fill:#161413; fill-rule:evenodd; stroke:none; stroke-width:1.64557; stroke-linecap:butt; stroke-linejoin:miter; stroke-dasharray:none;" >
  <path d="M10.9064 9.19412 C10.9064 9.19412 10.9064 16.8829 10.9064 16.8829 C10.9064 16.8829 13.0737 16.8829 13.0737 16.8829 C13.0737 16.8829 13.0737 0 13.0737 0 C13.0737 0 10.9064 0 10.9064 0 C10.9064 0 10.9064 7.29508 10.9064 7.29508 C10.9064 7.29508 2.16729 7.29508 2.16729 7.29508 C2.16729 7.29508 2.16729 0 2.16729 0 C2.16729 0 0 0 0 0 C0 0 0 16.8829 0 16.8829 C0 16.8829 2.19059 16.8829 2.19059 16.8829 C2.19059 16.8829 2.19059 9.19412 2.19059 9.19412 C2.19059 9.19412 10.9064 9.19412 10.9064 9.19412 Z" />
 </g>
 <g transform="translate(166.094, 108.685)" style="fill:#161413; fill-rule:evenodd; stroke:none; stroke-width:1.64557; stroke-linecap:butt; stroke-linejoin:miter; stroke-dasharray:none;" >
  <path d="M8.24969 10.8037 C8.24969 10.8037 1.73034 10.8037 1.73034 10.8037 C1.88764 9.79626 2.44694 9.15359 3.96754 8.26776 C3.96754 8.26776 5.71535 7.32982 5.71535 7.32982 C7.44569 6.39188 8.33708 5.12393 8.33708 3.6128 C8.33708 2.58802 7.9176 1.63271 7.18352 0.972678 C6.44944 0.313611 5.54057 0 4.36954 0 C2.7965 0 1.62547 0.555816 0.94382 1.59797 C0.506866 2.258 0.314607 3.02225 0.27965 4.27284 C0.27965 4.27284 1.81773 4.27284 1.81773 4.27284 C1.87016 3.43911 1.97503 2.9354 2.18477 2.53591 C2.58677 1.78903 3.39076 1.33743 4.3171 1.33743 C5.71535 1.33743 6.76404 2.32748 6.76404 3.64754 C6.76404 4.62022 6.18726 5.45394 5.08614 6.07924 C5.08614 6.07924 3.47815 6.98244 3.47815 6.98244 C0.891386 8.44146 0.139825 9.6052 0 12.3148 C0 12.3148 8.24969 12.3148 8.24969 12.3148 C8.24969 12.3148 8.24969 10.8037 8.24969 10.8037 Z" />
 </g>
 <g transform="translate(136.467, 69.3747)" style="fill:#161413; fill-rule:nonzero; stroke:none; stroke-width:1.64557; stroke-linecap:butt; stroke-linejoin:miter; stroke-dasharray:none;" >
  <path d="M7.42821 28.6104 C7.42821 28.6104 0 28.6104 0 28.6104 C0 28.6104 2.86447 0.433459 2.86447 0.433459 C2.86447 0.433459 3.73741 0 3.73741 0 C3.73741 0 4.56374 0.433459 4.56374 0.433459 C4.56374 0.433459 7.42821 28.6104 7.42821 28.6104 Z" />
 </g>
 <g transform="translate(140.204, 49.3028)" style="fill:#161413; fill-rule:nonzero; stroke:none; stroke-width:1.64557; stroke-linecap:butt; stroke-linejoin:miter; stroke-dasharray:none;" >
  <path d="M33.3066 0 C33.3066 0 33.3066 1.88186 33.3066 1.88186 C33.3066 1.88186 0.826328 20.5054 0.826328 20.5054 C0.826328 20.5054 0 20.0719 0 20.0719 C0 20.0719 0 19.1069 0 19.1069 C0 19.1069 33.3066 0 33.3066 0 Z" />
 </g>
 <g transform="translate(165.414, 3.96582)" style="fill:#161413; fill-rule:evenodd; stroke:none; stroke-width:1.64557; stroke-linecap:butt; stroke-linejoin:miter; stroke-dasharray:none;" >
  <path d="M8.17977 0 C3.3092 0 0 3.56677 0 8.84672 C0 14.1275 3.3092 17.6935 8.20308 17.6935 C10.2538 17.6935 12.0949 17.0686 13.4698 15.9105 C15.3109 14.3585 16.4062 11.7416 16.4062 8.98616 C16.4062 3.54321 13.1669 0 8.17977 0 Z M8.17977 1.89882 C11.8618 1.89882 14.2389 4.67873 14.2389 8.94003 C14.2389 13.0156 11.7919 15.7946 8.20308 15.7946 C4.59093 15.7946 2.16729 13.0156 2.16729 8.84672 C2.16729 4.67873 4.59093 1.89882 8.17977 1.89882 Z" />
 </g>
 <g transform="translate(169.82, 23.5392)" style="fill:#161413; fill-rule:nonzero; stroke:none; stroke-width:1.64557; stroke-linecap:butt; stroke-linejoin:miter; stroke-dasharray:none;" >
  <path d="M0 0 C0 0 1.65071 0 1.65071 0 C1.65071 0 1.65071 28.3692 1.65071 28.3692 C1.65071 28.3692 0 28.3692 0 28.3692 C0 28.3692 0 0 0 0 Z" />
 </g>
 <g transform="translate(175.597, 23.5392)" style="fill:#161413; fill-rule:nonzero; stroke:none; stroke-width:1.64557; stroke-linecap:butt; stroke-linejoin:miter; stroke-dasharray:none;" >
  <path d="M0 0 C0 0 1.65168 0 1.65168 0 C1.65168 0 1.65168 28.3692 1.65168 28.3692 C1.65168 28.3692 0 28.3692 0 28.3692 C0 28.3692 0 0 0 0 Z" />
 </g>
 <g transform="translate(198.671, 61.3808)" style="fill:#161413; fill-rule:evenodd; stroke:none; stroke-width:1.64557; stroke-linecap:butt; stroke-linejoin:miter; stroke-dasharray:none;" >
  <path d="M8.17977 0 C3.3092 0 0 3.56678 0 8.84674 C0 14.1276 3.3092 17.6935 8.20308 17.6935 C10.2538 17.6935 12.0949 17.0687 13.4698 15.9105 C15.3109 14.3585 16.4062 11.7416 16.4062 8.98617 C16.4062 3.54323 13.1669 0 8.17977 0 Z M8.17977 1.89885 C11.8618 1.89885 14.2389 4.67879 14.2389 8.94005 C14.2389 13.0156 11.7919 15.7946 8.20308 15.7946 C4.59093 15.7946 2.16729 13.0156 2.16729 8.84674 C2.16729 4.67879 4.59093 1.89885 8.17977 1.89885 Z" />
 </g>
 <g transform="translate(217.926, 61.6588)" style="fill:#161413; fill-rule:evenodd; stroke:none; stroke-width:1.64557; stroke-linecap:butt; stroke-linejoin:miter; stroke-dasharray:none;" >
  <path d="M10.9064 9.19441 C10.9064 9.19441 10.9064 16.883 10.9064 16.883 C10.9064 16.883 13.0737 16.883 13.0737 16.883 C13.0737 16.883 13.0737 0 13.0737 0 C13.0737 0 10.9064 0 10.9064 0 C10.9064 0 10.9064 7.29566 10.9064 7.29566 C10.9064 7.29566 2.16729 7.29566 2.16729 7.29566 C2.16729 7.29566 2.16729 0 2.16729 0 C2.16729 0 0 0 0 0 C0 0 0 16.883 0 16.883 C0 16.883 2.19059 16.883 2.19059 16.883 C2.19059 16.883 2.19059 9.19441 2.19059 9.19441 C2.19059 9.19441 10.9064 9.19441 10.9064 9.19441 Z" />
 </g>
 <g transform="translate(173.51, 49.3028)" style="fill:#161413; fill-rule:nonzero; stroke:none; stroke-width:1.64557; stroke-linecap:butt; stroke-linejoin:miter; stroke-dasharray:none;" >
  <path d="M24.9539 14.3302 C24.9539 14.3302 24.1296 15.7296 24.1296 15.7296 C24.1296 15.7296 0 1.88186 0 1.88186 C0 1.88186 0 0 0 0 C0 0 24.9539 14.3302 24.9539 14.3302 Z" />
 </g>
 <g transform="translate(6.39941, 54.8513)" style="fill:#161413; fill-rule:nonzero; stroke:none; stroke-width:1.64557; stroke-linecap:butt; stroke-linejoin:miter; stroke-dasharray:none;" >
  <path d="M0.82593 15.2471 C0.82593 15.2471 0 13.7997 0 13.7997 C0 13.7997 24.0324 0 24.0324 0 C24.0324 0 24.9067 1.44744 24.9067 1.44744 C24.9067 1.44744 0.82593 15.2471 0.82593 15.2471 Z" />
 </g>
</svg>
