<?xml version="1.0" encoding="UTF-8" standalone="no"?>
<!-- Generator: Adobe Illustrator 12.0.1, SVG Export Plug-In . SVG Version: 6.00 Build 51448)  -->
<svg
   xmlns:dc="http://purl.org/dc/elements/1.1/"
   xmlns:cc="http://web.resource.org/cc/"
   xmlns:rdf="http://www.w3.org/1999/02/22-rdf-syntax-ns#"
   xmlns:svg="http://www.w3.org/2000/svg"
   xmlns="http://www.w3.org/2000/svg"
   xmlns:sodipodi="http://sodipodi.sourceforge.net/DTD/sodipodi-0.dtd"
   xmlns:inkscape="http://www.inkscape.org/namespaces/inkscape"
   version="1.1"
   id="Layer_1"
   width="155.559"
   height="120.484"
   viewBox="0 0 155.559 120.484"
   style="overflow:visible;enable-background:new 0 0 155.559 120.484;"
   xml:space="preserve"
   sodipodi:version="0.32"
   inkscape:version="0.44.1"
   sodipodi:docname="Prolin.svg"
   sodipodi:docbase="E:\Eigene Dateien"><metadata
   id="metadata40"><rdf:RDF><cc:Work
       rdf:about=""><dc:format>image/svg+xml</dc:format><dc:type
         rdf:resource="http://purl.org/dc/dcmitype/StillImage" /></cc:Work></rdf:RDF></metadata><defs
   id="defs38" /><sodipodi:namedview
   inkscape:window-height="573"
   inkscape:window-width="925"
   inkscape:pageshadow="2"
   inkscape:pageopacity="0.0"
   guidetolerance="10.0"
   gridtolerance="10.0"
   objecttolerance="10.0"
   borderopacity="1.0"
   bordercolor="#666666"
   pagecolor="#ffffff"
   id="base"
   inkscape:zoom="3.137346"
   inkscape:cx="77.779503"
   inkscape:cy="60.242001"
   inkscape:window-x="44"
   inkscape:window-y="44"
   inkscape:current-layer="Layer_1" />
<path
   d="M 63.73895,67.6444 L 62.93145,67.1694 L 62.83645,66.3144 L 95.56395,47.4094 L 95.56395,49.2619 L 63.73895,67.6444 z "
   id="polygon3" />
<g
   id="g5"
   transform="matrix(0.95,0,0,0.95,3.88895,3.0121)">
	<path
   d="M 122.656,68.619 C 122.656,65.767 123.422,63.534 124.954,61.92 C 126.486,60.307 128.464,59.5 130.887,59.5 C 132.474,59.5 133.905,59.879 135.178,60.637 C 136.451,61.395 137.423,62.452 138.092,63.808 C 138.76,65.164 139.094,66.702 139.094,68.42 C 139.094,70.162 138.742,71.722 138.039,73.097 C 137.335,74.473 136.338,75.514 135.049,76.221 C 133.759,76.928 132.367,77.282 130.875,77.282 C 129.257,77.282 127.811,76.891 126.537,76.11 C 125.263,75.329 124.298,74.262 123.641,72.91 C 122.984,71.558 122.656,70.127 122.656,68.619 z M 125,68.648 C 125,70.718 125.557,72.349 126.671,73.541 C 127.785,74.733 129.183,75.328 130.863,75.328 C 132.575,75.328 133.984,74.726 135.091,73.523 C 136.198,72.32 136.75,70.613 136.75,68.402 C 136.75,67.004 136.514,65.783 136.041,64.74 C 135.567,63.697 134.875,62.888 133.965,62.314 C 133.055,61.74 132.032,61.453 130.899,61.453 C 129.289,61.453 127.903,62.006 126.742,63.111 C 125.581,64.216 125,66.063 125,68.648 z "
   id="path7" />
	<path
   d="M 142.105,76.984 L 142.105,59.797 L 144.386,59.797 L 144.386,66.86 L 153.277,66.86 L 153.277,59.797 L 155.558,59.797 L 155.558,76.985 L 153.277,76.985 L 153.277,68.891 L 144.386,68.891 L 144.386,76.985 L 142.105,76.985 L 142.105,76.984 z "
   id="path9" />
</g>
<path
   d="M 95.56395,49.2619 L 95.56395,47.4094 L 120.02645,61.5169 L 119.21895,62.9419 L 95.56395,49.2619 z "
   id="polygon11" />
<g
   id="g13"
   transform="matrix(0.95,0,0,0.95,3.88895,3.0121)">
	<path
   d="M 88.256,9.119 C 88.256,6.267 89.022,4.034 90.555,2.42 C 92.086,0.807 94.064,0 96.486,0 C 98.074,0 99.504,0.379 100.777,1.137 C 102.051,1.895 103.023,2.952 103.691,4.308 C 104.359,5.664 104.693,7.202 104.693,8.92 C 104.693,10.662 104.341,12.222 103.638,13.597 C 102.935,14.973 101.938,16.014 100.648,16.721 C 99.359,17.428 97.967,17.782 96.474,17.782 C 94.857,17.782 93.41,17.391 92.136,16.61 C 90.862,15.829 89.898,14.762 89.24,13.41 C 88.584,12.058 88.256,10.627 88.256,9.119 z M 90.6,9.148 C 90.6,11.218 91.157,12.849 92.272,14.041 C 93.385,15.232 94.784,15.828 96.463,15.828 C 98.176,15.828 99.584,15.226 100.692,14.023 C 101.797,12.82 102.35,11.113 102.35,8.902 C 102.35,7.504 102.114,6.283 101.641,5.24 C 101.168,4.197 100.476,3.388 99.565,2.814 C 98.655,2.24 97.633,1.953 96.499,1.953 C 94.89,1.953 93.503,2.506 92.343,3.611 C 91.18,4.717 90.6,6.563 90.6,9.148 z "
   id="path15" />
</g>
<path
   d="M 91.906452,22.0444 L 93.520502,22.0444 L 93.520502,49.973451 L 91.906452,49.973451 L 91.906452,22.0444 z "
   id="rect17" />
<path
   d="M 97.606452,22.0444 L 99.2205,22.0444 L 99.2205,49.973451 L 97.606452,49.973451 L 97.606452,22.0444 z "
   id="rect19" />
<g
   id="g21"
   transform="matrix(0.95,0,0,0.95,3.88895,3.0121)">
	<path
   d="M 55.328,116.684 L 55.328,99.496 L 57.668,99.496 L 66.672,112.984 L 66.672,99.496 L 68.86,99.496 L 68.86,116.684 L 66.52,116.684 L 57.516,103.195 L 57.516,116.684 L 55.328,116.684 z "
   id="path23" />
	<path
   d="M 72.77,116.684 L 72.77,99.496 L 75.051,99.496 L 75.051,106.559 L 83.942,106.559 L 83.942,99.496 L 86.223,99.496 L 86.223,116.684 L 83.942,116.684 L 83.942,108.59 L 75.051,108.59 L 75.051,116.684 L 72.77,116.684 z "
   id="path25" />
</g>
<path
   d="M 63.73895,95.3369 L 62.12395,95.3369 L 62.12395,67.7394 L 62.93145,67.1694 L 63.73895,67.6444 L 63.73895,95.3369 z "
   id="polygon27" />
<path
   d="M 27.35395,56.4819 L 26.73645,54.5819 L 62.83645,66.3144 L 62.93145,67.1694 L 62.12395,67.7394 L 27.35395,56.4819 z "
   id="polygon29" />
<path
   d="M 5.88395,86.0269 L 3.88895,86.0269 L 26.73645,54.5819 L 27.35395,56.4819 L 5.88395,86.0269 z "
   id="polygon31" />
<path
   d="M 27.35395,115.5719 L 26.73645,117.4719 L 3.88895,86.0269 L 5.88395,86.0269 L 27.35395,115.5719 z "
   id="polygon33" />
<path
   d="M 53.33645,107.1644 L 53.81145,108.6844 L 26.73645,117.4719 L 27.35395,115.5719 L 53.33645,107.1644 z "
   id="polygon35" />
</svg>